<?xml version="1.0" encoding="iso-8859-1"?>
<!-- Generator: Adobe Illustrator 19.0.0, SVG Export Plug-In . SVG Version: 6.00 Build 0)  -->
<svg version="1.1" id="Capa_1" xmlns="http://www.w3.org/2000/svg" xmlns:xlink="http://www.w3.org/1999/xlink" x="0px" y="0px"
	 viewBox="0 0 512 512" style="enable-background:new 0 0 512 512;" xml:space="preserve">
<path style="fill:#7FDECF;" d="M314.567,199.125l110.383,39.426c-23.248,0.397-46.998-0.482-70.127,2.17
	c-40.927,4.693-75.246,22.224-108.854,44.857H139.907c19.201-19.26,38.038-38.373,61.113-53.151
	c17.122-10.965,35.603-19.768,54.903-26.163C273.603,200.407,296.161,192.55,314.567,199.125z"/>
<path style="fill:#24BFB2;" d="M314.571,199.126l-0.004-0.001c-6.933-2.476-14.376-3.15-21.637-1.959l0,0
	c-50.442,8.277-97.036,32.252-133.226,68.553l-19.798,19.858h32.098l19.798-19.858C225.478,231.942,268.162,208.843,314.571,199.126
	z"/>
<path style="fill:#333F61;" d="M477.235,315.408c-57.145,0-114.292,0-171.437,0c-81.291,0-162.583,0-243.875,0
	c-8.249,0-16.501,0.068-24.749,0c-3.226-0.027-6.326-0.042-9.523-0.873c-7.171-1.866-13.406-6.739-16.974-13.23
	c-2.134-3.881-6.326-13.465-0.757-15.725c3.364-1.366,10.159,0,13.698,0c11.72,0,23.439,0,35.159,0c84.191,0,168.384,0,252.575,0
	c63.3,0,126.601,0,189.902,0c1.081,0,2.163,0,3.243,0C504.712,301.336,493.903,315.408,477.235,315.408z"/>
<path style="fill:#1E2E44;" d="M47.8,288.146L47.8,288.146c0-1.418,1.143-2.568,2.553-2.568H9.882c-1.41,0-2.553,1.149-2.553,2.568
	l0,0c0,15.057,12.134,27.262,27.103,27.262h40.471C59.935,315.408,47.8,303.202,47.8,288.146z"/>
<path d="M504.497,278.075h-72.044v-39.524c0-3.128-2.035-6.015-4.98-7.065L317.09,192.059c-8.108-2.897-16.882-3.69-25.375-2.298
	c-20.253,3.323-40.08,9.141-58.93,17.292c-3.803,1.645-5.554,6.061-3.908,9.863c1.645,3.803,6.061,5.556,9.863,3.908
	c17.723-7.663,36.364-13.132,55.405-16.256c5.988-0.984,12.178-0.424,17.899,1.621l71.57,25.563l-8.796,0.15
	c-42.009,0.718-82.665,13.525-117.571,37.034l-13.569,9.138h-85.698l7.037-7.059c13.715-13.757,29.095-25.799,45.713-35.792
	c3.551-2.136,4.698-6.745,2.564-10.296c-2.137-3.552-6.747-4.695-10.296-2.564c-17.672,10.628-34.025,23.432-48.607,38.059
	l-17.599,17.652H9.882c-14.928,0-9.714,20.224-5.128,27.901c6.188,10.359,17.586,16.933,29.678,16.933h388.774
	c9.655,0,9.671-15.005,0-15.005H34.432c-9.117,0-16.802-6.31-18.981-14.824h124.456h106.062h250.389
	c-2.21,8.52-9.909,14.824-19.043,14.824h-19.828c-9.655,0-9.671,15.005,0,15.005h19.828c19.125,0,34.686-15.631,34.686-34.845
	v-2.487C512,281.434,508.641,278.075,504.497,278.075z M375.074,246.907l42.373-0.723v31.892H270.715
	C302.046,258.301,337.993,247.54,375.074,246.907z"/>
<path d="M303.462,224.689c0-10.159-15.7-10.133-15.7,0C287.762,234.81,303.462,234.914,303.462,224.689z"/>
<path d="M268.996,237.235c0-10.159-15.7-10.133-15.7,0C253.296,247.357,268.996,247.46,268.996,237.235z"/>
<path d="M227.915,264.082c10.114,0,10.088-15.792,0-15.792C217.837,248.29,217.738,264.082,227.915,264.082z"/>
<g>
</g>
<g>
</g>
<g>
</g>
<g>
</g>
<g>
</g>
<g>
</g>
<g>
</g>
<g>
</g>
<g>
</g>
<g>
</g>
<g>
</g>
<g>
</g>
<g>
</g>
<g>
</g>
<g>
</g>
</svg>
