<?xml version="1.0" encoding="iso-8859-1"?>
<!-- Generator: Adobe Illustrator 19.0.0, SVG Export Plug-In . SVG Version: 6.00 Build 0)  -->
<svg version="1.1" id="Capa_1" xmlns="http://www.w3.org/2000/svg" xmlns:xlink="http://www.w3.org/1999/xlink" x="0px" y="0px"
	 viewBox="0 0 512 512" style="enable-background:new 0 0 512 512;" xml:space="preserve">
<path style="fill:#333F61;" d="M477.233,314.329c-57.145,0-114.291,0-171.436,0c-81.291,0-162.582,0-243.873,0
	c-8.249,0-16.501,0.068-24.749,0c-3.226-0.027-6.327-0.042-9.523-0.873c-7.171-1.866-13.407-6.74-16.975-13.231
	c-2.134-3.882-6.326-13.466-0.757-15.728c3.364-1.366,10.16,0,13.698,0c11.72,0,23.439,0,35.159,0c84.191,0,168.384,0,252.575,0
	c63.3,0,126.601,0,189.902,0c1.081,0,2.162,0,3.243,0C504.712,300.255,493.904,314.329,477.233,314.329z"/>
<path style="fill:#1E2E44;" d="M58.093,287.064L58.093,287.064c0-1.418,1.142-2.568,2.553-2.568H9.882
	c-1.41,0-2.553,1.149-2.553,2.568l0,0c0,15.058,12.134,27.265,27.103,27.265h50.763C70.227,314.329,58.093,302.122,58.093,287.064z"
	/>
<path style="fill:#E6E9ED;" d="M417.585,314.329c0-10.873,0-21.746,0-32.619c0-11.167,1.238-23.124,0-34.236
	c-1.075-9.65-10.581-10.536-18.218-12.744c-12.68-3.667-25.362-7.334-38.042-11.003c-27.022-7.816-54.044-15.63-81.066-23.446
	c-7.798-2.255-15.51-5.033-19.884,4.634c-4.945,10.929-8.2,22.987-12.228,34.28c-4.156,11.652-8.111,23.4-12.476,34.975
	c-8.954,23.741-31.104,40.039-56.713,40.159h238.628V314.329z"/>
<path style="fill:#CFD2DC;" d="M248.222,299.99l24.969-69.997c1.745-4.89,6.962-7.578,11.926-6.142l132.468,38.312v-14.744
	c0-4.393-2.891-8.257-7.088-9.47l-137.939-39.894c-4.964-1.435-10.182,1.252-11.926,6.142l-24.969,69.997
	c-8.589,24.076-31.278,40.136-56.705,40.136h61.877C243.871,309.972,246.375,305.168,248.222,299.99z"/>
<path style="fill:#67C787;" d="M410.497,237.948l-137.939-39.894c-4.964-1.435-10.182,1.252-11.926,6.142l-17.191,48.189l0,0
	c17.569,20.291,42.998,31.953,69.747,31.985l104.397,0.125v-37.077C417.585,243.025,414.694,239.163,410.497,237.948z"/>
<path style="fill:#5FB87D;" d="M410.497,237.948c-26.453-7.651-52.907-15.301-79.36-22.952c-15.816-4.575-31.634-9.149-47.45-13.724
	c-9.479-2.742-19.104-7.067-23.857,5.169c-5.88,15.138-10.933,30.646-16.39,45.944c4.912,5.673,10.44,10.671,16.437,14.929
	c7.893-22.132,30.399-36.615,53.825-34.3c10.057,0.994,20.224,4.953,29.865,7.741c24.672,7.135,49.345,14.271,74.017,21.407v-14.744
	C417.585,243.025,414.694,239.163,410.497,237.948z"/>
<path d="M504.497,276.993h-79.41v-29.574c0-7.691-5.144-14.549-12.507-16.678l-16.316-4.72c-3.98-1.147-8.14,1.142-9.292,5.123
	c-1.15,3.98,1.142,8.141,5.123,9.292l16.316,4.72c0.983,0.284,1.671,1.214,1.671,2.263v29.565l-96.887-0.116
	c-23.141-0.028-45.198-9.528-61.176-26.206l15.675-43.945c0.41-1.148,1.631-1.791,2.775-1.456l89.437,25.866
	c3.98,1.151,8.141-1.142,9.292-5.123c1.15-3.98-1.143-8.141-5.123-9.292l-89.436-25.865c-8.751-2.534-18.007,2.224-21.078,10.828
	l-17.142,48.055c-0.003,0.008-0.006,0.016-0.009,0.024l-7.819,21.918c-0.652,1.829-1.404,3.601-2.238,5.32H9.882
	c-14.929,0-9.714,20.226-5.128,27.903c6.188,10.359,17.585,16.935,29.678,16.935h31.671c9.655,0,9.671-15.005,0-15.005H34.433
	c-9.118,0-16.803-6.312-18.982-14.828h200.032c-9.629,9.295-22.638,14.828-36.525,14.828h-77.95c-9.655,0-9.671,15.005,0,15.005
	h77.95h238.629h59.729c19.125,0,34.686-15.633,34.686-34.849v-2.487C512,280.351,508.642,276.993,504.497,276.993z M221.324,306.826
	c6.223-5.012,11.576-11.137,15.75-18.132c0.154-0.227,0.292-0.465,0.42-0.709c2.06-3.548,3.821-7.311,5.234-11.271l3.758-10.537
	c18.228,16.421,41.928,25.667,66.692,25.697l96.904,0.116v14.837L221.324,306.826L221.324,306.826z M477.314,306.826h-52.227
	v-14.828h71.27C494.149,300.519,486.448,306.826,477.314,306.826z"/>
<g>
</g>
<g>
</g>
<g>
</g>
<g>
</g>
<g>
</g>
<g>
</g>
<g>
</g>
<g>
</g>
<g>
</g>
<g>
</g>
<g>
</g>
<g>
</g>
<g>
</g>
<g>
</g>
<g>
</g>
</svg>
