<?xml version="1.0" encoding="iso-8859-1"?>
<!-- Generator: Adobe Illustrator 19.0.0, SVG Export Plug-In . SVG Version: 6.00 Build 0)  -->
<svg version="1.1" id="Capa_1" xmlns="http://www.w3.org/2000/svg" xmlns:xlink="http://www.w3.org/1999/xlink" x="0px" y="0px"
	 viewBox="0 0 512 512" style="enable-background:new 0 0 512 512;" xml:space="preserve">
<path style="fill:#7FDECF;" d="M504.469,320.09c0-13.659,2.098-29.494-3.413-42.329c-4.448-10.36-13.167-18.657-23.726-22.611
	c-11.575-4.334-23.122-1.579-35.023-0.771c-56.624,3.846-113.695-12.69-159.552-46.114c-7.891-5.751-15.304-12.061-22.561-18.581
	c-4.769-4.285-10.815-12.378-16.648-14.957c-3.087-1.365-2.016-1.69-5.619,1.583c-5.418,4.921-11.002,9.656-16.743,14.197
	c-11.049,8.741-22.669,16.759-34.766,23.981c-46.749,27.909-99.835,43.137-154.155,45.362c-5.708,0.234-17.443-1.676-22.258,2.066
	c-5.024,3.906-2.505,17.229-2.505,22.63c0,12.345,0,24.689,0,37.034L504.469,320.09z"/>
<path style="fill:#24BFB2;" d="M38.103,289.745v-30.171c-1.328,0.069-2.654,0.15-3.984,0.203l-20.454,0.812
	c-3.443,0.137-6.165,2.974-6.165,6.428v22.728v31.835l30.603-0.092V289.745z"/>
<path style="fill:#23AF9E;" d="M7.5,289.745v27.962c0,18.087,11.152,34.878,27.865,41.834c3.249,1.352,9.078,3.871,12.698,2.92
	c4.163-1.094,3.573-4.052,4.303-7.252c0.872-3.826,2.126-7.131,6.478-7.893c4.623-0.809,8.977,2.817,8.977,7.567
	c-0.829,10.58,10.967,8.092,18.17,8.098c7.068,0.006,21.693,3.199,20.765-7.773c0-10.105,15.455-10.519,15.455-0.324
	c-0.675,10.105,9.096,8.113,15.99,8.113c6.745,0,14.818,1.244,21.375-0.566c7.517-2.075,14.389-6.387,22.103-8.355
	c7.702-1.965,15.619-3.037,23.566-3.186c16.488-0.31,32.973,3.398,47.736,10.753c1.378,0.817,2.984,1.354,4.595,1.354
	c3.468-0.007,9.213,1.314,11.852-1.538c2.167-2.343,0.973-4.905,1.638-7.612c2.132-8.679,15.324-9.437,15.324,0.706
	c-0.407,7.048,3.907,8.413,10.111,8.415c7.325,0.002,15.456,1.02,22.704-0.001c8.238-1.16,4.22-6.451,7.122-11.705
	c3.755-6.798,14.453-4.29,14.453,3.623c-1.151,12.829,22.697,8.113,30.751,8.113c5.468,0,10.285,1.03,12.214-5.178
	c1.152-3.707,0.708-7.117,5.466-8.611c4.855-1.524,9.989,2.29,9.989,7.393c-0.888,10.631,28.591,6.368,35.393,6.366
	c2.847-0.001,6.898,0.753,9.085-1.519c1.954-2.03,1.098-4.814,2.141-7.183c3.265-7.418,14.823-6.022,14.823,2.68
	c0.011,13.087,23.54-0.362,27.976-3.999c9.785-8.022,15.797-20.162,15.852-32.856h0.031C159.666,320.09,294.117,289.745,7.5,289.745
	z"/>
<path style="fill:#20A08D;" d="M53.175,351.654c-9.373-8.296-15.285-20.429-15.285-33.948V289.87
	c-9.578-0.081-19.684-0.125-30.39-0.125v27.962c0,22.789,16.798,41.641,38.662,44.813c3.268,0.474,6.204-2.057,6.204-5.366
	l-0.001-1.944C52.365,353.949,52.659,352.739,53.175,351.654z"/>
<path style="fill:#31B9E8;" d="M162.964,205.539c-7.882-0.919-13.837,0.978-21.211-3.179c-2.306-1.3-4.501-2.852-6.736-4.268
	c-9.543-6.047-19.086-12.094-28.63-18.141c-15.718-9.96-31.436-19.919-47.155-29.879c-3.236-2.036-7.506-1.058-9.538,2.184
	l-10.531,16.805c-2.032,3.243-1.056,7.522,2.18,9.558c20.218,12.811,40.437,25.623,60.655,38.434
	c7.4,4.689,15.219,9.037,22.336,14.153c8.752,6.291,9.226,17.732,17.659,24.504c8.483,6.812,20.475,8.128,30.222,3.252
	C196.597,246.763,190.239,208.721,162.964,205.539z"/>
<path style="fill:#2BA3E9;" d="M173.01,257.799c-8.911,1.562-19.535,0.251-26.083-6.575c-7.436-7.752-4.189-20.45-14.052-26.699
	L74.89,187.26c-12.012-7.612-17.41-22.366-13.771-35.992l-1.888-1.196c-3.236-2.036-7.506-1.058-9.538,2.184l-10.531,16.805
	c-2.032,3.243-1.056,7.522,2.18,9.558c20.218,12.811,40.437,25.623,60.655,38.434c7.401,4.69,15.218,9.038,22.336,14.153
	c8.49,6.101,8.989,17.028,16.807,23.819c9.173,7.968,22.834,9.117,33.212,2.737C173.908,257.783,173.454,257.721,173.01,257.799z"/>
<path style="fill:#7FDECF;" d="M174.212,233.636c0,18.825-29.193,18.825-29.193,0C145.02,214.828,174.212,214.785,174.212,233.636z"
	/>
<path d="M511.97,319.489v-25.164c0-14.202-6.116-27.715-16.779-37.074c-10.636-9.335-24.778-13.637-38.797-11.801
	c-19.063,2.495-38.405,2.641-57.489,0.438c-4.104-0.481-7.835,2.475-8.311,6.59c-0.476,4.114,2.475,7.836,6.59,8.311
	c20.301,2.346,40.877,2.188,61.156-0.465c9.741-1.279,19.565,1.716,26.956,8.201c7.419,6.512,11.674,15.916,11.674,25.801v18.258
	c-80.679-0.105-162.488,0.058-242.475-12.002c-17.731-2.673-35.361-5.977-53.103-8.582c-4.101-0.602-7.907,2.235-8.51,6.332
	c-0.601,4.099,2.234,7.908,6.332,8.51c9.646,1.415,18.3,2.874,27.462,4.419c46.855,7.902,95.272,16.069,269.459,16.322
	c-3.521,15.938-17.752,27.912-34.667,27.912h-1.054v-8.688c0-9.652-15-9.668-15,0v8.688h-46.441v-8.688c0-9.652-15-9.668-15,0v8.688
	h-43.419v-8.688c0-9.652-15-9.668-15,0v8.688h-39.391v-8.688c0-9.652-15-9.668-15,0v8.688h-13.587c-0.074,0-0.146-0.017-0.213-0.05
	l-1.038-0.518c-31.158-15.522-68.269-15.34-99.271,0.488c-0.114,0.059-0.204,0.079-0.251,0.079h-34.819v-8.688
	c0-9.652-15-9.668-15,0v8.688H67.593v-8.688c0-9.652-15-9.668-15,0v8.685C31.855,355.438,15,338.51,15,317.707v-20.455
	c66.92,0.127,115.851,1.977,153.553,5.792c4.12,0.428,7.8-2.585,8.217-6.707c1.153-11.398-20.245-9.492-27.47-10.037
	c-12.776-0.964-25.571-1.669-38.372-2.216c-31.954-1.364-63.947-1.771-95.928-1.831v-14.21l19.416-0.771
	c31.858-1.266,63.227-7.127,93.361-17.42c8.483,16.644,29.113,24.145,46.237,16.523c17.633-7.849,26.094-28.957,18.46-46.794
	c17.454-10.608,33.945-22.843,49.15-36.499l16.907,15.19c29.227,26.257,64.72,45.502,102.642,55.655
	c3.915,1.048,8.133-1.38,9.185-5.306c1.071-4.001-1.304-8.113-5.306-9.185c-35.65-9.545-69.019-27.638-96.495-52.323L247.2,167.926
	c-3.258-2.928-8.135-2.885-11.344,0.102c-15.934,14.849-33.441,28.022-52.079,39.266c-8.878-8.177-21.592-11.356-33.272-8.267
	l-46.332-29.357c-8.154-5.164-16.195,7.495-8.029,12.67l39.34,24.927c-4.608,4.235-8.108,9.66-10.005,15.786l-79.666-50.479
	l9.924-15.837l14.535,9.21c3.501,2.218,8.134,1.179,10.35-2.32c2.218-3.499,1.178-8.133-2.32-10.35l-15.075-9.553
	c-3.263-2.054-7.13-2.712-10.884-1.852c-3.759,0.858-6.956,3.132-9.004,6.4l-10.531,16.806c-4.221,6.736-2.184,15.658,4.521,19.876
	l81.945,51.924c-27.64,9.064-56.332,14.247-85.453,15.404l-20.739,0.824C5.746,253.397,0,259.381,0,266.729v23.016v27.962
	c0,29.108,23.638,52.789,52.693,52.789h104.109c2.424,0,4.87-0.595,7.072-1.72c26.783-13.673,58.844-13.831,85.762-0.422
	l1.038,0.518c2.133,1.063,4.519,1.624,6.901,1.624h203.892c27.48,0,49.979-22.2,50.493-49.639
	C512.01,320.401,512.013,319.945,511.97,319.489z M180.349,233.636c0,26.96-41.465,26.632-41.465,0
	C138.884,207.027,180.349,206.636,180.349,233.636z"/>
<path d="M277.808,233.636c0-9.968-15.455-9.942-15.455,0C262.353,243.567,277.808,243.667,277.808,233.636z"/>
<path d="M249.313,210.46c0-9.968-15.455-9.942-15.455,0C233.859,220.391,249.313,220.491,249.313,210.46z"/>
<path d="M304.597,244.632c-9.952,0-9.927,15.488,0,15.488C314.512,260.12,314.611,244.632,304.597,244.632z"/>
<path d="M244.162,289.675c9.952,0,9.926-15.488,0-15.488C234.247,274.188,234.148,289.675,244.162,289.675z"/>
<path d="M286.39,297.42c9.952,0,9.927-15.488,0-15.488C276.474,281.932,276.377,297.42,286.39,297.42z"/>
<path d="M339.585,258.7c-9.952,0-9.926,15.488,0,15.488C349.501,274.188,349.599,258.7,339.585,258.7z"/>
<path d="M376.797,283.352c9.952,0,9.927-15.488,0-15.488C366.881,267.863,366.783,283.352,376.797,283.352z"/>
<path d="M422.583,278.017c0-9.968-15.455-9.942-15.455,0C407.128,287.948,422.583,288.047,422.583,278.017z"/>
<path d="M460.642,277.981c0-9.968-15.455-9.942-15.455,0C445.187,287.911,460.642,288.011,460.642,277.981z"/>
<path d="M316.451,289.675c9.952,0,9.927-15.488,0-15.488C306.536,274.188,306.437,289.675,316.451,289.675z"/>
<path d="M355.04,301.162c9.952,0,9.926-15.488,0-15.488C345.125,285.674,345.026,301.162,355.04,301.162z"/>
<path d="M394.407,303.313c9.952,0,9.927-15.488,0-15.488C384.492,287.826,384.394,303.313,394.407,303.313z"/>
<path d="M442.317,296.774c0-9.968-15.455-9.942-15.455,0C426.862,306.705,442.317,306.805,442.317,296.774z"/>
<path d="M484.561,296.774c0-9.968-15.455-9.942-15.455,0C469.105,306.705,484.561,306.805,484.561,296.774z"/>
<path d="M274.065,272.51c9.952,0,9.926-15.488,0-15.488C264.149,257.022,264.051,272.51,274.065,272.51z"/>
<path d="M228.707,247.779c0,9.968,15.455,9.942,15.455,0C244.162,237.848,228.707,237.749,228.707,247.779z"/>
<g>
</g>
<g>
</g>
<g>
</g>
<g>
</g>
<g>
</g>
<g>
</g>
<g>
</g>
<g>
</g>
<g>
</g>
<g>
</g>
<g>
</g>
<g>
</g>
<g>
</g>
<g>
</g>
<g>
</g>
</svg>
