<?xml version="1.0" encoding="iso-8859-1"?>
<!-- Generator: Adobe Illustrator 19.0.0, SVG Export Plug-In . SVG Version: 6.00 Build 0)  -->
<svg version="1.1" id="Capa_1" xmlns="http://www.w3.org/2000/svg" xmlns:xlink="http://www.w3.org/1999/xlink" x="0px" y="0px"
	 viewBox="0 0 511.998 511.998" style="enable-background:new 0 0 511.998 511.998;" xml:space="preserve">
<path style="fill:#485878;" d="M466.043,245.588c-45.924-4.707-91.019-15.498-134.095-32.091l-128.321-49.428
	c-9.732-3.749-16.876,10.183-8.084,15.865l52.678,34.051c4.498,2.908,5.723,8.944,2.712,13.373
	c-4.949,7.281-15.678,3.003-22.553,1.844c-9.801-1.652-19.602-3.304-29.404-4.956c-19.602-3.304-39.205-6.609-58.807-9.913
	c-39.205-6.609-78.411-13.217-117.616-19.826C10.199,229.345,5.417,266.657,8.34,303.491h496.159c0-14.097,0.777-27.57-7.629-39.689
	C489.791,253.599,478.405,246.855,466.043,245.588z"/>
<g>
	<path style="fill:#253551;" d="M71.155,229.06c1.869-9.053,4.116-17.474,6.553-25.257c-18.385-3.099-36.771-6.198-55.156-9.297
		C10.199,229.345,5.417,266.657,8.34,303.491h58.25C65.008,283.532,65.196,257.924,71.155,229.06z"/>
	<path style="fill:#253551;" d="M241.447,231.404c3.681,0.621,7.387-0.96,9.485-4.047c3.011-4.429,1.786-10.465-2.712-13.373
		l-48.072-31.073l0,0c-10.287,10.324-17.184,23.855-19.492,38.246l0,0C200.92,224.573,221.183,227.988,241.447,231.404z"/>
</g>
<g>
	<path style="fill:#E6E9ED;" d="M79.043,253.397c0,21.233-32.994,21.262-32.994,0C46.049,232.151,79.043,232.131,79.043,253.397z"/>
	<path style="fill:#E6E9ED;" d="M476.967,348.118c-57.399,0-114.8,0-172.199,0c-81.011,0-162.022,0-243.033,0
		c-8.239,0-16.517,0.231-24.754,0c-9.251-0.26-17.702-3.595-23.327-11.272c-7.038-9.603-5.312-22.135-5.312-33.354H504.5
		c0,7.044,0.78,14.58-0.36,21.56C501.993,338.181,490.262,348.118,476.967,348.118z"/>
</g>
<path style="fill:#CFD2DC;" d="M66.557,320.595v-17.103H8.34v17.103c0,15.201,12.33,27.523,27.54,27.523h58.215
	C78.887,348.118,66.557,335.796,66.557,320.595z"/>
<path d="M466.807,238.127c-45.253-4.638-89.72-15.279-132.164-31.629l-128.321-49.429c-5.063-1.948-10.758-1.281-15.231,1.789
	c-8.409,5.772-9.505,18.261-2.135,25.375c-6.6,8.342-11.429,18.048-14.129,28.335l-41.693-7.028
	c-4.085-0.688-7.953,2.064-8.642,6.149c-0.688,4.084,2.064,7.953,6.149,8.642l109.561,18.468c6.552,1.104,13.198-1.732,16.933-7.226
	c2.601-3.826,3.527-8.43,2.608-12.963c-0.919-4.534-3.565-8.414-7.451-10.926l-48-31.027c-0.022-0.015-0.044-0.029-0.067-0.043
	l-4.61-2.98c-0.874-0.797-0.885-1.601-0.034-2.41c0.288-0.198,0.759-0.386,1.35-0.158l128.321,49.429
	c43.686,16.826,89.452,27.779,136.027,32.553c18.084,1.853,31.721,16.948,31.721,35.114v7.828H15.37
	c-1.166-22.058,0.464-44.03,4.877-65.415c1.919-9.289,4.383-18.552,7.346-27.614l69.158,11.656c4.093,0.691,7.955-2.064,8.643-6.148
	c0.688-4.085-2.064-7.954-6.148-8.643L23.798,187.11c-3.594-0.612-7.1,1.456-8.316,4.89c-4.106,11.583-7.444,23.542-9.923,35.543
	c-5.139,24.896-6.724,50.534-4.718,76.21v16.841c0,19.313,15.719,35.023,35.04,35.023h407.425c9.652,0,9.668-15,0-15H35.881
	c-11.05,0-20.04-8.982-20.04-20.023v-9.603h481.158v9.603c0,10.34-7.799,18.286-17.706,19.888c-4.07,0.658-8.266,0.786-9.566,5.641
	c-1.246,4.653,1.894,8.373,6.235,9.36c19.116,4.348,36.037-18.163,36.037-34.889V303.49v-15.328
	C511.999,262.277,492.571,240.767,466.807,238.127z M245.041,221.592c0.078,0.383,0.087,0.963-0.313,1.55
	c-0.447,0.659-1.25,1-2.034,0.867l-53.017-8.937c1.141-3.993,2.678-7.863,4.6-11.566c2.003-3.861,4.406-7.483,7.156-10.833
	l42.715,27.611C244.745,220.669,244.963,221.207,245.041,221.592z"/>
<path d="M38.548,253.398c0,30.964,47.995,30.853,47.995,0C86.543,222.536,38.548,222.431,38.548,253.398z M71.543,253.398
	c0,11.696-17.995,11.476-17.995,0C53.548,241.962,71.543,241.642,71.543,253.398z"/>
<g>
</g>
<g>
</g>
<g>
</g>
<g>
</g>
<g>
</g>
<g>
</g>
<g>
</g>
<g>
</g>
<g>
</g>
<g>
</g>
<g>
</g>
<g>
</g>
<g>
</g>
<g>
</g>
<g>
</g>
</svg>
