<?xml version="1.0" encoding="iso-8859-1"?>
<!-- Generator: Adobe Illustrator 19.0.0, SVG Export Plug-In . SVG Version: 6.00 Build 0)  -->
<svg version="1.1" id="Capa_1" xmlns="http://www.w3.org/2000/svg" xmlns:xlink="http://www.w3.org/1999/xlink" x="0px" y="0px"
	 viewBox="0 0 512.002 512.002" style="enable-background:new 0 0 512.002 512.002;" xml:space="preserve">
<path style="fill:#BF6749;" d="M504.502,325.658c0-9.508,0-19.016,0-28.523c0-8.707,1.804-21.808-9.989-23.549
	c0,0-125.297-15.274-218.807-78.445l-45.307-29.027c-5.682-3.64-13.128,0.456-13.128,7.221c0,18.952-0.018,37.819,18.23,49.264
	l7.741,4.855c3.546,2.224,1.386,7.706-2.723,6.915L26.156,193.098c-14.808,37.269-20.959,77.836-17.879,117.82l10.129,21.46H484.82
	L504.502,325.658z"/>
<g>
	<path style="fill:#9E4F3F;" d="M275.704,195.14c-7.814,9.815-15.629,19.63-23.443,29.444c-2.77,3.479-5.898,6.863-8.396,10.546
		c-8.741,12.884,3.758,21.881,14.352,27.374c12.613,6.539,28.128,12.79,38.724,0.614c10.871-12.491,21.35-25.367,31.954-38.086
		C316.807,220.913,283.849,200.358,275.704,195.14z"/>
	<path style="fill:#9E4F3F;" d="M49.542,271.593c0.524-16.133,3.286-29.811,6.221-40.269l-39.644-7.627
		c-7.434,28.382-10.095,57.97-7.842,87.222l5.15,10.911l42.335,1.052C52.309,310.551,48.85,292.881,49.542,271.593z"/>
</g>
<path style="fill:#604F44;" d="M483.006,347.233c-57.238,0-114.475,0-171.713,0c-83.112,0-166.224,0-249.335,0
	c-19.393,0-52.517,5.859-53.682-22.39c-0.328-7.958-1.496-23.641,9.571-13.876c8.641,7.624,18.413,11.64,29.964,11.916
	c6.115,0.146,12.252,0,18.368,0c78.006,0,156.012,0,234.017,0c66.938,0,133.874,0,200.812,0c1.164,0,2.328,0,3.492,0
	C504.742,335.551,496.663,347.233,483.006,347.233z"/>
<path style="fill:#493C35;" d="M58.776,325.658v-2.776H47.355c-10.476,0-20.583-3.883-28.381-10.903l-4.342-3.908
	c-2.454-2.209-6.355-0.461-6.355,2.847v14.74c0,11.915,9.623,21.574,21.495,21.574h50.499
	C68.4,347.233,58.776,337.574,58.776,325.658z"/>
<path style="fill:#AF5B45;" d="M240.517,234.37c-78.068-15.03-136.294-26.241-214.362-41.271
	c-3.504,8.819-7.121,19.333-10.231,31.352l266.161,45.916l-39.769-21.464L240.517,234.37z"/>
<path d="M495.608,266.165c-0.063-0.009-0.125-0.018-0.188-0.025c-1.11-0.135-100.973-12.788-187.232-60.035
	c-11.25-6.486-22.975-13.78-28.437-17.28l-45.308-29.027c-4.93-3.157-11.184-3.375-16.322-0.565
	c-5.151,2.818-8.352,8.222-8.352,14.103v16.255c0,13.161,5.431,25.387,14.843,34.08L87.597,197.29c-4.076-0.787-8,1.88-8.782,5.946
	c-0.783,4.067,1.879,8,5.946,8.782l148.804,28.65c-0.717,4.891,0.29,9.972,2.843,14.207L57.056,223.934
	c-0.011-0.002-0.023-0.004-0.034-0.006l-31.66-5.462c1.66-5.667,3.499-11.281,5.545-16.817l23.438,4.513
	c4.07,0.781,7.999-1.881,8.782-5.948c0.782-4.067-1.881-7.999-5.948-8.782l-29.607-5.699c-3.528-0.681-7.059,1.247-8.388,4.595
	c-4.122,10.374-7.579,21.019-10.396,31.832c-0.095,0.297-0.176,0.601-0.235,0.916c-2.236,8.71-4.068,17.525-5.428,26.411
	c-3.118,20.361-3.905,41.1-2.35,61.649v14.522c0,16.031,13.007,29.074,28.995,29.074h386.12c9.652,0,9.668-15,0-15H29.772
	c-7.717,0-13.995-6.313-13.995-14.074v-6.543c8.91,7.283,20.031,11.268,31.578,11.268h8.38c0.017,0.003,0.035,0.003,0.052,0h440.401
	c-1.935,5.444-7.114,9.35-13.184,9.35h-30.583c-9.652,0-9.668,15,0,15h30.585c15.988,0,28.995-13.043,28.995-29.074v-2.775v-37.688
	C512.002,275.727,504.954,267.546,495.608,266.165z M224.768,173.335c0-0.158,0-0.642,0.551-0.942
	c0.524-0.287,0.894-0.054,1.032,0.036l38.308,24.543l-18.619,23.385l-6.557-4.112c-9.214-5.779-14.715-15.743-14.715-26.655
	L224.768,173.335L224.768,173.335z M261.67,255.847c-3.797-1.969-7.438-4.295-10.825-6.916c-1.388-1.073-2.267-2.621-2.477-4.357
	c-0.206-1.712,0.271-3.396,1.342-4.742l27.592-34.654c7.692,4.971,15.563,9.63,23.518,13.989c5.523,3.177,11.086,6.248,15.945,8.683
	c-3.573,4.263-7.09,8.443-10.607,12.624c-5.598,6.653-11.196,13.308-17.021,20.293c-1.421,1.706-3.664,2.545-5.86,2.197
	l-0.046-0.008C275.672,261.737,268.419,259.346,261.67,255.847z M19.65,302.496c-1.303-1.172-2.833-1.995-4.455-2.459
	c-0.59-16.135,0.317-32.329,2.758-48.279c0.962-6.283,2.164-12.531,3.591-18.727l24.963,4.306
	c-2.58,11.176-4.091,22.579-4.462,34.012c-0.48,14.785,0.901,29.544,4.105,44.004c-8.199-0.282-16.027-3.431-22.158-8.95
	L19.65,302.496z M61.557,315.382c-6.014-24.728-6.097-50.724-0.245-75.492l219.496,37.867c0.008,0.001,0.016,0.002,0.024,0.003
	c0.021,0.004,0.042,0.008,0.064,0.012c0.122,0.02,0.243,0.026,0.365,0.044c0.072,0.008,0.144,0.02,0.215,0.026
	c7.15,0.944,14.559-1.926,19.182-7.471c5.809-6.968,11.393-13.604,16.978-20.242c4.416-5.249,8.837-10.505,13.364-15.917
	c31.736,14.403,62.837,24.44,87.203,31.076c25.867,7.045,47.391,11.247,60.745,13.516c-1.718,1.326-2.845,3.392-2.915,5.742
	c-0.121,4.14,3.186,7.597,7.326,7.719c4.069,0.106,7.597-3.187,7.718-7.276c0.049-1.663-0.455-3.211-1.334-4.481
	c2.021,0.29,3.309,0.454,3.74,0.508c2.011,0.331,3.519,2.116,3.519,4.18v30.188H61.557V315.382z"/>
<path d="M337,257.682c-0.045-0.015-0.185-0.06-0.229-0.073c-3.955-1.235-8.18,0.962-9.416,4.914
	c-1.235,3.954,0.948,8.154,4.901,9.39c3.827,1.277,8.212-0.92,9.487-4.743C343.052,263.239,340.929,258.991,337,257.682z"/>
<path d="M394.472,269.91c-4.08-0.591-7.886,2.242-8.486,6.333c-0.603,4.098,2.23,7.908,6.329,8.511l0.314,0.042
	c4.014,0.474,7.85-2.539,8.324-6.572C401.434,274.141,398.539,270.438,394.472,269.91z"/>
<path d="M454.126,275.846c-0.073-0.007-0.245-0.019-0.318-0.023c-9.608-0.577-10.521,14.336-0.914,14.973
	c3.998,0.3,7.69-2.803,8.044-6.819C461.301,279.85,458.252,276.21,454.126,275.846z"/>
<path d="M424.302,273.458l-0.316-0.032c-4.117-0.383-7.751,2.682-8.118,6.807c-0.366,4.109,2.666,7.739,6.767,8.132
	c0.27,0.028,0.536,0.043,0.802,0.043c3.75-0.001,6.99-2.809,7.438-6.625C431.359,277.669,428.417,273.942,424.302,273.458z"/>
<path d="M365.32,264.901l-1.61,7.325l1.557-7.337c-4.049-0.856-8.034,1.729-8.894,5.78c-0.859,4.053,1.729,8.034,5.78,8.894
	c0.015,0.003,0.127,0.026,0.142,0.029c3.961,0.818,8.04-1.854,8.858-5.833C371.989,269.701,369.377,265.736,365.32,264.901z"/>
<g>
</g>
<g>
</g>
<g>
</g>
<g>
</g>
<g>
</g>
<g>
</g>
<g>
</g>
<g>
</g>
<g>
</g>
<g>
</g>
<g>
</g>
<g>
</g>
<g>
</g>
<g>
</g>
<g>
</g>
</svg>
