<?xml version="1.0" encoding="iso-8859-1"?>
<!-- Generator: Adobe Illustrator 19.0.0, SVG Export Plug-In . SVG Version: 6.00 Build 0)  -->
<svg version="1.1" id="Capa_1" xmlns="http://www.w3.org/2000/svg" xmlns:xlink="http://www.w3.org/1999/xlink" x="0px" y="0px"
	 viewBox="0 0 512 512" style="enable-background:new 0 0 512 512;" xml:space="preserve">
<path style="fill:#907A6B;" d="M504.5,330.143v-46.018c0-10.625-5.091-20.869-13.566-27.277c-7.573-5.726-16.756-6.687-25.778-8.46
	c-18.599-3.657-37.06-8.043-55.304-13.186c-46.658-13.155-92.96-31.106-133.341-58.301l-23.464-15.577
	c-3.351-2.225-7.866-0.092-8.279,3.911l-0.996,9.652c-0.967,9.369,2.06,18.711,8.337,25.73l10.516,11.76l1.184,11.429
	L31.671,180.527l-19.735,42.846c-2.2,12.048-3.961,26.186-4.416,42.036c-0.503,17.504,0.702,33.067,2.507,46.139
	C174.852,317.748,339.676,323.946,504.5,330.143z"/>
<path style="fill:#826F62;" d="M83.029,295.243c-3.892-5.745-9.494-15.537-12.492-28.879c-3.058-13.61-2.093-25.066-0.983-31.969
	l-56.596-13.238l-1.021,2.217c-4.89,26.783-5.824,54.265-2.767,81.318l73.859,3.915V295.243z"/>
<path style="fill:#EDD7C0;" d="M483.081,351.576h-77.038l-239.111-10.819c-13.585-0.734-24.176,10.591-37.63,10.819
	c-12.887,0.219-25.796,0-38.684,0c-15.702,0-31.405,0-47.106,0c-12.511,0-26.442,0.665-31.985-13.62
	c-2.581-6.651-1.499-15.017-1.499-22.009c0-6.902,0-13.804,0-20.706l494.472,32.144
	C504.717,339.992,496.689,351.576,483.081,351.576z"/>
<path style="fill:#D1BDAC;" d="M88.326,330.143v-29.812l-78.298-5.09v34.902c0,11.837,9.59,21.433,21.419,21.433h78.298
	C97.915,351.576,88.326,341.98,88.326,330.143z"/>
<path style="fill:#5B4B43;" d="M10.027,295.242c-2.7-17.111-4.586-42.939,1.693-73.149c4.005-19.27,10.26-35.16,16.121-47.221
	c44.398,8.522,88.797,17.044,133.195,25.566c23.766,4.562,47.532,9.124,71.298,13.686c5.991,1.15,12.221,2.845,18.348,2.194
	c18.125-1.927,23.848-18.318,33.477-30.895c10.375-13.55,26.739-1.071,38.28,4.49c10.404,5.014,35.77,11.837,32.415,27.447
	c-2.882,13.486-5.763,26.972-8.645,40.458c-2.907,13.605-7.531,27.169-24.896,24.736c-17.28-2.421-34.496-6.598-51.627-9.875
	c-67.88-12.984-135.761-25.969-203.642-38.953c-18.036-3.45-36.073-6.9-54.108-10.35"/>
<path d="M477.759,243.126c-28.504-5.113-71.208-14.657-115.248-31.327c-0.865-7.08-5.239-13.428-11.968-16.672l-8.25-3.976
	c7.962-4.523,1.71-17.084-6.723-13.386l-7.486,3.281l-3.802-9.245c-1.576-3.831-5.96-5.659-9.789-4.084
	c-3.187,1.311-4.98,4.564-4.588,7.827l-4.545-2.19c-6.403-3.083-13.746-2.658-19.67,0.607c-1.697-1.095-3.379-2.198-5.03-3.31
	l-23.463-15.575c-3.779-2.511-8.485-2.852-12.588-0.918c-4.105,1.938-6.834,5.789-7.3,10.306l-0.996,9.652
	c-1.182,11.443,2.539,22.924,10.206,31.499l2.952,3.301c-1.994,0.172-4.031,0.085-6.064-0.305l-139.618-26.8
	c-4.068-0.781-8,1.884-8.779,5.951c-0.781,4.068,1.884,7.999,5.951,8.779l139.618,26.8c14.646,2.813,29.47-3.381,37.772-15.773
	l12.388-18.491c0.209-0.313,0.447-0.598,0.701-0.863c0.016-0.017,0.031-0.037,0.047-0.054c1.889-1.922,4.865-2.498,7.362-1.292
	l7.599,3.661l-9.381,4.111c-3.793,1.662-5.521,6.086-3.858,9.88c1.62,3.696,6.16,5.49,9.88,3.858l16.962-7.433l7.446,18.106
	c1.536,3.732,6.04,5.627,9.789,4.084c3.831-1.576,5.659-5.958,4.084-9.789l-3.072-7.47l5.736,2.764
	c2.326,1.122,3.71,3.482,3.627,5.995c-0.22,0.702-0.332,1.413-0.343,2.118l-6.354,29.739c-0.828-0.928-1.894-1.666-3.154-2.099
	c-0.118-0.04-0.238-0.078-0.359-0.115c-3.966-1.202-8.14,1.04-9.342,5.001c-1.197,3.942,1.018,8.11,4.942,9.339
	c1.745,0.569,3.719,0.444,5.387-0.305l-1.724,8.067c-1.299,6.081-7.312,10.083-13.425,8.913l-15.902-3.042
	c-4.061-0.775-7.998,1.888-8.775,5.957c-0.778,4.068,1.889,7.997,5.957,8.775l15.902,3.042c13.888,2.661,27.958-6.687,30.911-20.511
	l9.074-42.466c43.95,16.322,86.225,25.742,114.657,30.842c12.685,2.276,21.891,13.31,21.891,26.235v35.257L90.161,292.936
	c-0.213-0.658-0.515-1.298-0.922-1.899c-5.432-8.018-9.262-16.872-11.385-26.318c-1.589-7.074-2.163-14.255-1.734-21.433
	l196.522,37.591c3.972,0.757,8.012-1.964,8.775-5.957c0.778-4.068-1.889-7.997-5.957-8.775L20.482,217.374
	c2.828-11.647,6.732-23.053,11.677-34.036l38.251,7.342c4.067,0.783,7.999-1.885,8.779-5.951c0.781-4.068-1.884-7.999-5.951-8.779
	l-43.982-8.442c-3.323-0.638-6.678,1.036-8.16,4.088c-7.584,15.609-13.208,32.087-16.718,48.973
	c-5.135,24.706-5.753,50.008-1.851,75.218v34.359c0,15.954,12.973,28.934,28.919,28.934h100.087c3.635,0,7.162-0.745,10.486-2.215
	l15.933-7.045c2.683-1.186,5.642-1.729,8.641-1.567l239.111,10.819c4.066,0.207,7.648-3.096,7.831-7.153
	c0.188-4.138-3.016-7.644-7.153-7.831l-239.046-10.816c-5.27-0.284-10.616,0.692-15.449,2.83l-15.934,7.045
	c-1.4,0.619-2.888,0.934-4.42,0.934H31.446c-7.675,0-13.919-6.251-13.919-13.934V303.25l478.817,31.126
	c-1.792,5.623-7.062,9.706-13.265,9.706h-50.314c-9.652,0-9.668,15,0,15h50.314c15.946,0,28.92-12.979,28.92-28.934v-2.758v-43.264
	C512.001,263.928,497.6,246.686,477.759,243.126z M265.888,199.221c-0.706,1.054-1.499,2.023-2.353,2.922l-5.835-6.525
	c-4.858-5.434-7.216-12.71-6.468-19.962l0.632-6.115l20.457,13.58c0.987,0.665,2.007,1.328,3.018,1.992L265.888,199.221z
	 M16.602,288.154c-2.396-18.786-2.099-37.59,0.9-56.08l43.793,8.377c-0.747,9.225-0.12,18.464,1.923,27.557
	c1.876,8.347,4.875,16.303,8.93,23.758L16.602,288.154z"/>
<path d="M357.138,257.32c-0.859,4.053,1.729,8.034,5.78,8.894c0.015,0.003,0.127,0.026,0.142,0.029
	c3.962,0.818,8.04-1.854,8.858-5.833c0.836-4.058-1.776-8.023-5.833-8.858l-1.61,7.325l1.557-7.337
	C361.975,250.679,357.998,253.269,357.138,257.32z"/>
<path d="M484.419,278.807c4.04,0,7.373-3.215,7.493-7.279c0.121-4.141-3.137-7.596-7.276-7.718l-0.1-0.003
	c-4.142-0.108-7.546,3.138-7.668,7.278c-0.121,4.14,3.186,7.597,7.326,7.719C484.269,278.806,484.344,278.807,484.419,278.807z"/>
<path d="M424.235,274.996c3.75-0.001,6.99-2.809,7.438-6.625c0.484-4.113-2.458-7.841-6.572-8.324l-0.316-0.032
	c-4.118-0.387-7.752,2.682-8.118,6.807c-0.366,4.109,2.666,7.739,6.767,8.132C423.703,274.981,423.97,274.996,424.235,274.996z"/>
<path d="M454.289,277.379c9.371,0,9.819-14.435,0.434-14.987l-0.1-0.006c-9.652-0.563-10.418,14.414-0.781,14.98
	C453.992,277.375,454.14,277.379,454.289,277.379z"/>
<path d="M303.812,246.218c3.478,2.086,8.2,0.91,10.29-2.573c2.131-3.552,0.979-8.158-2.573-10.29
	c-0.021-0.013-0.13-0.076-0.151-0.09c-3.563-2.087-8.095-0.88-10.201,2.67C299.071,239.486,300.273,244.094,303.812,246.218z"/>
<path d="M393.381,271.411c4.012,0.486,7.859-2.51,8.348-6.543c0.495-4.086-2.394-7.802-6.465-8.338
	c-4.091-0.595-7.897,2.236-8.499,6.331c-0.603,4.098,2.23,7.908,6.329,8.511C393.156,271.381,393.317,271.403,393.381,271.411z"/>
<path d="M285.09,259.226c3.962,0.817,8.04-1.845,8.862-5.827c0.838-4.057-1.771-8.024-5.827-8.862l-85.924-17.757
	c-9.452-1.951-12.503,12.734-3.035,14.689L285.09,259.226z"/>
<path d="M60.047,205.062c-0.838,4.056,1.771,8.024,5.827,8.862l85.923,17.757c9.462,1.95,12.493-12.736,3.035-14.689l-85.923-17.757
	C64.854,198.399,60.886,201.005,60.047,205.062z"/>
<g>
</g>
<g>
</g>
<g>
</g>
<g>
</g>
<g>
</g>
<g>
</g>
<g>
</g>
<g>
</g>
<g>
</g>
<g>
</g>
<g>
</g>
<g>
</g>
<g>
</g>
<g>
</g>
<g>
</g>
</svg>
