<?xml version="1.0" encoding="iso-8859-1"?>
<!-- Generator: Adobe Illustrator 19.0.0, SVG Export Plug-In . SVG Version: 6.00 Build 0)  -->
<svg version="1.1" id="Capa_1" xmlns="http://www.w3.org/2000/svg" xmlns:xlink="http://www.w3.org/1999/xlink" x="0px" y="0px"
	 viewBox="0 0 511.999 511.999" style="enable-background:new 0 0 511.999 511.999;" xml:space="preserve">
<path style="fill:#E87490;" d="M420.241,293.623h-52.04c0-10.877,0-21.753,0-32.629c0-9.126-3.778-28.266,8.611-30.586
	c9.906-1.856,22.752-0.866,32.79-0.128c13.493,0.992,10.639,15.433,10.639,25.139C420.241,268.152,420.241,280.888,420.241,293.623z
	"/>
<path style="fill:#D65F86;" d="M396.072,230.279h-18.169c-5.358,0-9.7,4.365-9.7,9.751v53.593h18.169V240.03
	C386.371,234.645,390.714,230.279,396.072,230.279z"/>
<path style="fill:#E87490;" d="M242.63,293.623h-90.895c14.144-24.35,25.126-50.521,32.584-77.676
	c2.618-9.532,2.207-26.091,14.783-27.382c4.816-0.494,9.973,0,14.809,0c6.253,0,12.673-0.449,18.91,0
	c11.382,0.819,11.566,10.777,12.532,20.132C248.271,236.957,247.335,265.607,242.63,293.623z"/>
<path style="fill:#D65F86;" d="M207.989,196.836c1.018-4.824,5.242-8.272,10.146-8.272h-19.033
	c-10.212,0-10.777,11.587-12.596,18.984c-2.544,10.343-5.604,20.558-9.147,30.601c-6.787,19.238-15.377,37.833-25.624,55.473h19.033
	C188.208,263.599,200.818,230.81,207.989,196.836z"/>
<path style="fill:#333F61;" d="M477.245,323.432c-57.148,0-114.297,0-171.444,0c-81.296,0-162.59,0-243.886,0
	c-8.249,0-16.502,0.068-24.75,0c-3.225-0.027-6.325-0.042-9.52-0.873c-7.168-1.866-13.402-6.737-16.968-13.227
	c-2.173-3.952-6.275-13.347-0.756-15.71c3.268-1.399,10.242,0,13.699,0c11.72,0,23.439,0,35.159,0c84.192,0,168.384,0,252.576,0
	c63.301,0,126.602,0,189.903,0c1.081,0,2.162,0,3.243,0C504.708,309.37,493.898,323.432,477.245,323.432z"/>
<path style="fill:#1E2E44;" d="M58.616,296.189c0-1.417,1.142-2.566,2.553-2.566H9.882c-7.444,0,2.078,18.013,3.917,20.197
	c5.09,6.041,12.726,9.612,20.633,9.612h51.287C70.75,323.432,58.616,311.235,58.616,296.189z"/>
<path d="M394.221,255.989c-10.113,0-10.088,15.781,0,15.781C404.299,271.77,404.397,255.989,394.221,255.989z"/>
<path d="M222.943,216.831c0-10.153-15.7-10.126-15.7,0C207.244,226.945,222.943,227.048,222.943,216.831z"/>
<path d="M202.708,242.533c0,10.153,15.7,10.127,15.7,0C218.407,232.418,202.708,232.316,202.708,242.533z"/>
<path d="M196.548,268.236c0,10.153,15.7,10.126,15.7,0C212.247,258.121,196.548,258.019,196.548,268.236z"/>
<path d="M504.498,286.121h-76.755v-46.117c0-9.5-7.729-17.229-17.228-17.229h-32.588c-9.5,0-17.229,7.729-17.229,17.229v46.117
	H251.361c4.155-29.7,4.196-59.94,0.072-89.646c-1.219-8.786-8.83-15.412-17.701-15.412h-34.63c-8.394,0-15.748,5.982-17.487,14.226
	c-0.408,1.935-0.66,3.24-0.87,4.327c-0.428,2.221-0.643,3.336-1.808,7.586c-1.095,3.995,1.257,8.123,5.253,9.218
	c3.997,1.093,8.124-1.257,9.218-5.254c1.316-4.806,1.601-6.274,2.07-8.708c0.197-1.022,0.434-2.251,0.818-4.07
	c0.288-1.365,1.441-2.319,2.806-2.319h34.63c1.422,0,2.644,1.062,2.839,2.471c1.752,12.613,2.73,25.458,2.911,38.179
	c0.232,16.475-0.865,33.064-3.265,49.405h-71.735c7.426-14.003,13.874-28.564,19.228-43.43c1.404-3.897-0.618-8.196-4.517-9.601
	c-10.251-3.684-13.299,14.45-15.897,20.591c-4.699,11.101-10.02,21.936-15.933,32.44H9.882c-14.925,0-9.716,20.213-5.128,27.889
	c6.19,10.357,17.589,16.924,29.678,16.924h361.64c9.655,0,9.671-15.005,0-15.005H34.432c-9.116,0-16.798-6.3-18.979-14.804h136.282
	h90.895h125.572h52.039h76.116c-2.212,8.508-9.91,14.804-19.041,14.804h-45.987c-9.655,0-9.671,15.005,0,15.005h45.987
	c19.125,0,34.685-15.622,34.685-34.826v-2.485C512,289.479,508.642,286.121,504.498,286.121z M375.704,286.121v-46.117
	c0-1.226,0.997-2.224,2.224-2.224h32.588c1.225,0,2.223,0.997,2.223,2.224v46.117H375.704z"/>
<g>
</g>
<g>
</g>
<g>
</g>
<g>
</g>
<g>
</g>
<g>
</g>
<g>
</g>
<g>
</g>
<g>
</g>
<g>
</g>
<g>
</g>
<g>
</g>
<g>
</g>
<g>
</g>
<g>
</g>
</svg>
