<?xml version="1.0" encoding="iso-8859-1"?>
<!-- Generator: Adobe Illustrator 19.0.0, SVG Export Plug-In . SVG Version: 6.00 Build 0)  -->
<svg version="1.1" id="Capa_1" xmlns="http://www.w3.org/2000/svg" xmlns:xlink="http://www.w3.org/1999/xlink" x="0px" y="0px"
	 viewBox="0 0 512 512" style="enable-background:new 0 0 512 512;" xml:space="preserve">
<path style="fill:#DB4D4D;" d="M466.046,399.659c0-8.912,0-17.825,0-26.737c0-9.315,2.04-21.174-8.015-26.238
	c-4.226-2.128-9.486-2.89-14.01-4.234c-9.034-2.684-17.952-5.745-26.719-9.204c-16.595-6.545-32.642-14.474-47.923-23.677
	c-52.388-31.552-91.042-76.485-120.85-129.251c-10.814-19.143-21.628-38.285-32.443-57.428
	c-6.286-11.127-11.229-26.356-26.031-26.722c-37.595-0.93-111.934,0-111.934,0s0.598-4.002-0.105-4.002c-9.385,0-20.986,0-30.578,0
	c-9.588,0-19.167,4.002-28.513,4.002c-6.15,0-10.574,0.208-11.419,7.91c-0.677,6.174-3.295,29.667,5.485,30.91
	c20.18-0.02,41.254-1.889,61.327,0.543c34.303,4.156,62.381,31.466,68.099,65.463c3.31,19.684-1.471,39.294-12.279,55.919
	l-18.506,24.842l190.532,127.868l163.886,6.87v-16.835H466.046z"/>
<path style="fill:#C14646;" d="M293.756,346.645c-21.943-14.726-44.063-29.216-65.84-44.186
	c-21.866-15.031-36.591-38.143-40.095-64.558c-4.201-31.673-12.918-60.191-34.133-85.001c-16.625-19.442-38.62-34.256-62.726-42.756
	c-9.837,0.01-19.675,0.02-29.512,0.029c-6.769-0.958-5.485-19.136-5.485-24.009c-1.885,0-11.721-0.09-11.721-0.09l-0.109,9.936
	c0,0-18.909-1.294-29.713,0.158c-8.663,1.163-6.921,9.589-6.921,16.206c0,5.599-2.809,21.438,5.485,22.613l31.144-0.034l2.8,4.177
	l18.212-0.603c4.11-0.004,8.653,1.51,12.341-2.718c54.206,8.039,84.467,70.086,54.167,118.723c-0.501,0.804-1.007,1.599-1.518,2.382
	l0,0l-18.506,24.842l190.532,127.868l163.886,6.87v-16.834v-10.012c-17.601-0.737-35.251-1.133-52.831-2.285
	C370.691,384.577,329.137,370.389,293.756,346.645z"/>
<path style="fill:#EDD7C0;" d="M46.541,416.376c2.643,13.833,23.241,10.187,33.381,10.187c21.588,0,43.177,0,64.766,0
	c51.929,0,103.858,0,155.787,0c12.152,0,24.305,0,36.456,0l-0.041-0.025c0.654,0.009,1.307,0.025,1.962,0.025h141.546
	c11.511,0,22.953-9.033,24.032-20.881c0.514-5.636-1.204-5.769-5.358-6.023c-10.249-0.629-20.74,0-31.005,0
	c-31.659,0-63.319,0-94.978,0c-8.212,0-16.424,0-24.637,0c-29.673,0-59.956-10.066-81.381-30.6
	c-24.75-20.488-49.563-40.898-74.421-61.255c-20.731-16.978-41.496-33.913-62.341-50.751c-9.584-7.741-18.948-16.195-29.101-23.181
	c-10.64-7.321-23.337-11.682-35.719-14.994c-12.624-3.377-25.638-5.637-38.683-6.503c-6.348-0.421-17.883-2.869-18.057,6.197
	c-0.13,6.798,2.839,14.858,4.107,21.492c6.384,33.412,12.767,66.825,19.152,100.237C36.851,365.66,41.696,391.018,46.541,416.376z"
	/>
<g>
	<path style="fill:#E0C1A6;" d="M106.008,416.376L68.431,219.694c-17.618-5.013-36.755-7.643-50.661-7.643
		c-8.45-0.602-9.446,4.297-8.208,10.773c1.31,6.857,2.62,13.712,3.93,20.569c4.608,24.116,9.216,48.233,13.823,72.35
		c4.67,24.443,9.34,48.885,14.009,73.328c1.948,10.195,2.223,34.686,15.321,37.297c9.46,1.886,20.738,0.195,30.293,0.195
		c10.461,0,20.923,0,31.384,0C112.306,426.563,107.137,422.287,106.008,416.376z"/>
	<path style="fill:#E0C1A6;" d="M396.399,426.563h1.921c-0.655,0-1.308-0.016-1.962-0.025L396.399,426.563z"/>
</g>
<path d="M18.09,267.466c4.07-0.777,6.739-4.708,5.961-8.777l-7.477-39.134h1.194c25.935,0,65.016,9.029,81.854,22.469
	c8.07,6.442,16.767,13.433,25.788,20.72c0.002,0.002,0.004,0.003,0.006,0.005c59.077,47.721,132.224,108.246,136.664,111.92
	c21.668,20.653,53.131,32.494,86.371,32.494h35.816c9.656,0,9.672-15.006,0-15.006h-35.816c-29.512,0-57.281-10.393-76.189-28.514
	c-0.131-0.125-0.266-0.246-0.406-0.361c-0.844-0.699-72.171-59.748-131.896-108.07c25.983-46.025,2.326-106.21-47.47-123.195V103.67
	h74.5c0.596,0.096,1.193,0.096,1.79,0h22.916c3.029,0,5.836,1.64,7.328,4.278l11.628,20.582c1.995,3.53,6.687,4.839,10.223,2.842
	c3.607-2.039,4.88-6.616,2.842-10.224l-11.628-20.581c-4.148-7.342-11.962-11.903-20.393-11.903h-23.153
	c-0.472-0.046-0.95-0.046-1.432,0H91.296c-2.485-6.273-8.599-10.729-15.747-10.729H47.482c-7.148,0-13.262,4.455-15.747,10.729
	H13.882C6.227,88.665,0,94.893,0,102.55v26.119c0,6.874,5.132,12.783,11.937,13.746c0.352,0.05,0.705,0.074,1.059,0.074
	l19.394-0.019c2.803,5.499,8.508,9.283,15.093,9.283H75.55c4.898,0,9.305-2.102,12.401-5.436
	c39.896,13.805,59.707,61.611,40.143,99.308c-17.363-13.989-32.876-25.718-54.475-32.274c-17.926-5.44-37.077-8.803-55.848-8.803
	h-3.794c-3.845,0-7.456,1.7-9.906,4.663c-2.451,2.963-3.442,6.83-2.721,10.607l7.964,41.686
	C10.09,265.575,14.019,268.243,18.09,267.466z M15.006,103.67h15.532v23.797l-15.532,0.014V103.67z M75.549,136.747H47.482
	c-0.941,0-1.726-0.675-1.9-1.566c0.002-0.076,0.011-0.15,0.011-0.226c0-0.28-0.019-0.556-0.049-0.828V94.879
	c0-1.067,0.869-1.938,1.938-1.938h28.067c1.068,0,1.938,0.869,1.938,1.938v12.463H61.515c-9.656,0-9.672,15.006,0,15.006h15.97
	v12.463C77.486,135.878,76.617,136.747,75.549,136.747z"/>
<path d="M502.101,392.156h-28.553v-32.769c0-9.567-6.421-18.093-15.614-20.736l-9.365-2.69
	c-78.671-22.604-146.535-76.181-186.793-147.444l-22.271-39.421c-2.039-3.607-6.616-4.88-10.223-2.842
	c-3.607,2.039-4.88,6.616-2.842,10.224l22.271,39.421c21.133,37.41,48.948,69.874,82.671,96.492
	c33.722,26.618,71.756,46.129,113.043,57.992l9.364,2.69c2.798,0.805,4.753,3.4,4.753,6.314v11.619
	c-0.002,0.021-0.006,0.042-0.007,0.064c-0.021,0.328-0.013,0.65,0.007,0.969v20.117h-38.314c-9.656,0-9.672,15.006,0,15.006h76.244
	c-2.124,6.997-8.775,11.9-16.074,11.9H58.856c-2.413,0-4.492-1.722-4.945-4.093L30.364,291.721
	c-0.777-4.071-4.708-6.738-8.777-5.962c-4.071,0.777-6.74,4.708-5.961,8.777l23.547,123.246
	c1.803,9.436,10.081,16.282,19.685,16.282H480.4c11.468,0,22.198-6.34,27.781-16.346
	C512.47,410.028,516.014,392.156,502.101,392.156z"/>
<path d="M185.852,121.949l-0.04-0.094c-1.61-3.818-6.01-5.606-9.829-3.997c-3.817,1.611-5.607,6.011-3.997,9.829l0.04,0.094
	c1.57,3.721,6.089,5.574,9.829,3.997C185.674,130.167,187.464,125.767,185.852,121.949z"/>
<path d="M206.107,187.469c1.219,0,2.457-0.298,3.601-0.925c3.633-1.993,4.963-6.554,2.971-10.187l-0.148-0.262
	c-2.087-3.577-6.672-4.776-10.25-2.692c-3.568,2.078-4.78,6.659-2.723,10.234C200.931,186.087,203.478,187.47,206.107,187.469z"/>
<path d="M191.692,160.33c1.066,0,2.15-0.229,3.179-0.711c3.751-1.759,5.368-6.226,3.609-9.979l-0.128-0.263
	c-1.852-3.703-6.347-5.196-10.054-3.346c-3.695,1.844-5.198,6.338-3.376,10.04C186.21,158.756,188.893,160.33,191.692,160.33z"/>
<path d="M217.981,199.81c-3.465,2.271-4.435,6.922-2.164,10.388l0.106,0.159c5.378,8.003,17.765-0.333,12.462-8.358l-6.291,4.088
	l6.275-4.112C226.098,198.508,221.446,197.541,217.981,199.81z"/>
<path d="M239.507,239.049c1.469,0,2.952-0.431,4.253-1.328c3.411-2.353,4.27-7.024,1.918-10.436l-0.13-0.185
	c-2.409-3.371-7.101-4.162-10.473-1.754c-3.372,2.408-4.159,7.086-1.751,10.457C234.779,237.915,237.123,239.049,239.507,239.049z"
	/>
<path d="M403.665,368.344c9.276,2.487,13.235-11.869,3.978-14.469c-3.968-1.174-8.135,1.083-9.318,5.048
	c-1.185,3.972,1.072,8.15,5.044,9.336L403.665,368.344z"/>
<path d="M349.063,344.869c2.614,0,5.154-1.368,6.535-3.805c2.043-3.605,0.776-8.184-2.829-10.227l-0.135-0.075
	c-3.618-2.017-8.167-0.706-10.185,2.912c-2.018,3.619-0.697,8.201,2.922,10.219C346.539,344.556,347.81,344.869,349.063,344.869z"/>
<path d="M376.647,358.371c2.905,0,5.671-1.698,6.895-4.537c1.64-3.805-0.117-8.219-3.923-9.858l-0.239-0.1
	c-3.84-1.563-8.24,0.277-9.8,4.116c-1.56,3.84,0.263,8.205,4.103,9.765C374.649,358.174,375.656,358.371,376.647,358.371z"/>
<path d="M435.556,375.495c3.572,0,6.738-2.561,7.38-6.199c0.72-4.081-2.004-7.973-6.085-8.692l-0.119-0.021
	c-4.086-0.716-7.927,2.031-8.636,6.112c-0.709,4.083,2.065,7.975,6.148,8.685C434.685,375.458,435.124,375.495,435.556,375.495z"/>
<path d="M257.782,263.76c1.595,0,3.202-0.506,4.565-1.553c3.286-2.523,3.905-7.233,1.382-10.52l-0.145-0.185
	c-6.01-7.551-17.785,1.754-11.758,9.323C253.303,262.751,255.529,263.76,257.782,263.76z"/>
<path d="M323.228,328.268c2.303,0,4.576-1.057,6.046-3.053c2.458-3.336,1.747-8.033-1.59-10.491l-0.172-0.124
	c-3.372-2.409-8.061-1.631-10.47,1.741c-2.409,3.372-1.632,8.055,1.741,10.464C320.124,327.79,321.682,328.268,323.228,328.268z"/>
<path d="M272.521,274.079c-3.074,2.779-3.314,7.524-0.535,10.598l0.168,0.183c2.78,2.956,7.662,3.138,10.627,0.351
	c3.019-2.838,3.187-7.563,0.349-10.582l-5.578,5.018l5.566-5.031C280.339,271.541,275.594,271.301,272.521,274.079z"/>
<path d="M299.393,308.899c1.997,0,3.989-0.792,5.465-2.36c2.84-3.018,2.696-7.767-0.321-10.607c-0.082-0.076-0.164-0.15-0.247-0.224
	c-3.102-2.745-7.834-2.449-10.579,0.651c-2.736,3.088-2.455,7.81,0.609,10.563C295.758,308.245,297.577,308.899,299.393,308.899z"/>
<g>
</g>
<g>
</g>
<g>
</g>
<g>
</g>
<g>
</g>
<g>
</g>
<g>
</g>
<g>
</g>
<g>
</g>
<g>
</g>
<g>
</g>
<g>
</g>
<g>
</g>
<g>
</g>
<g>
</g>
</svg>
