<?xml version="1.0" encoding="iso-8859-1"?>
<!-- Generator: Adobe Illustrator 19.0.0, SVG Export Plug-In . SVG Version: 6.00 Build 0)  -->
<svg version="1.1" id="Capa_1" xmlns="http://www.w3.org/2000/svg" xmlns:xlink="http://www.w3.org/1999/xlink" x="0px" y="0px"
	 viewBox="0 0 512 512" style="enable-background:new 0 0 512 512;" xml:space="preserve">
<path style="fill:#FC8384;" d="M31.798,237.46c-4.308,0-7.8-3.496-7.8-7.81v-68.119c0-10.049,15.599-10.066,15.599,0v68.119
	C39.597,233.963,36.106,237.46,31.798,237.46z"/>
<path style="fill:#F8A7A6;" d="M10.525,338.866c-6.765-44.539-2.159-90.519,13.473-132.783
	c34.472,48.372,75.19,92.257,120.853,130.244"/>
<path style="fill:#F79A9A;" d="M41.87,258.112c1.215-7.926,2.733-15.41,4.441-22.44c-8.091-10.155-15.519-20.059-22.312-29.59
	C8.366,248.347,3.761,294.326,10.525,338.866l31.258-0.591C38.758,318.059,36.931,290.326,41.87,258.112z"/>
<g>
	<path style="fill:#FC8384;" d="M504.5,336.326c0.215-21.118-10.519-40.548-31.334-47.557l-192.392-65.041
		c-9.46-3.187-4.775,13.171-3.317,16.377c3.27,7.194,9.494,12.843,16.974,15.403l163.448,55.939
		c10.923,3.739,15.327,13.104,16.983,23.721l-0.279,7.362h29.653L504.5,336.326z"/>
	<polygon style="fill:#FC8384;" points="366.403,280.154 334.984,336.326 367.297,336.326 393.718,289.504 	"/>
</g>
<g>
	<polygon style="fill:#F8A7A6;" points="310.419,261.042 269.468,336.326 301.78,336.326 337.735,270.391 	"/>
	<polygon style="fill:#F8A7A6;" points="419.05,298.203 398.118,336.326 430.431,336.326 445.642,307.261 	"/>
</g>
<g>
	<polygon style="fill:#DB4D4D;" points="411.864,311.291 438.723,320.483 445.642,307.261 419.051,298.203 	"/>
	<polygon style="fill:#DB4D4D;" points="303.297,274.135 330.598,283.478 337.735,270.391 310.419,261.042 	"/>
	<polygon style="fill:#DB4D4D;" points="359.089,293.229 386.35,302.559 393.718,289.504 366.403,280.154 	"/>
</g>
<path style="fill:#FC8384;" d="M158.421,153.634c-19.476,0-38.951,0-58.427,0c-22.618,0-46.239-1.998-68.78,0
	c-11.155,0.989-7.215,18.528-7.215,26.749c20.186,0,40.37,0,60.556,0c23.796,0,48.452,1.898,72.182,0
	c4.717-0.377,6.968-2.059,7.529-7.15C164.827,168.12,166.427,153.634,158.421,153.634z"/>
<path style="fill:#DB4D4D;" d="M477.474,365.83c-56.943,0-113.887,0-170.831,0c-80.799,0-161.599,0-242.398,0
	c-8.029,0-16.06,0.066-24.089,0c-3.206-0.027-6.328-0.044-9.487-0.866c-7.11-1.85-13.289-6.68-16.826-13.116
	c-2.068-3.762-6.15-13.248-0.75-15.522c3.251-1.369,10.055,0,13.49,0c11.539,0,23.077,0,34.616,0c83.919,0,167.837,0,251.756,0
	c62.809,0,125.618,0,188.428,0c1.039,0,2.078,0,3.116,0C504.705,351.923,493.947,365.83,477.474,365.83z"/>
<path style="fill:#BC4444;" d="M41.463,338.866c0-1.402,1.135-2.54,2.536-2.54H13.061c-7.394,0,2.063,17.828,3.891,19.991
	c5.063,5.988,12.654,9.514,20.501,9.514h30.938C53.519,365.83,41.463,353.758,41.463,338.866z"/>
<path d="M475.567,281.663l-69.649-23.546c-3.925-1.321-8.181,0.779-9.508,4.703c-1.327,3.925,0.778,8.182,4.702,9.509l69.658,23.549
	c14.542,4.895,24.653,17.873,26.054,32.947h-15.397c-2.121-11.381-10.128-20.71-21.123-24.473l-12.238-4.188
	c-0.002-0.001-0.005-0.002-0.008-0.003l-0.317-0.108l-150.885-51.64c-7.327-2.508-12.629-8.709-14.125-16.104l85.916,29.045
	c3.924,1.327,8.182-0.778,9.508-4.702c1.327-3.925-0.778-8.182-4.702-9.508l-90.286-30.523c-3.662-1.233-7.717-0.624-10.853,1.628
	c-8.222,5.908-4.88,18.71-1.078,26.243c4.271,8.463,11.785,15.041,20.763,18.113l7.612,2.605l-34.603,63.615h-117.41
	c-22.324-18.721-43.639-39.033-63.368-60.434c-2.81-3.045-7.553-3.238-10.6-0.431c-3.045,2.809-3.238,7.554-0.431,10.6
	c16.19,17.56,33.429,34.4,51.4,50.265H16.749c-2.724-23.237-2.331-46.6,1.19-69.576c1.916-12.5,4.771-24.913,8.518-37.057
	c9.189,12.34,18.824,24.432,28.756,36.079c2.687,3.151,7.42,3.529,10.574,0.841c3.151-2.688,3.528-7.422,0.841-10.574
	c-12.272-14.394-24.077-29.483-35.129-44.877v-15.777h19.678c1.769,4.549,6.183,7.788,11.351,7.788h32.49
	c5.167,0,9.582-3.238,11.351-7.788h52.058c7.356,0,13.34-5.987,13.34-13.348v-15.055c0-7.36-5.983-13.348-13.34-13.348h-52.177
	c-1.849-4.38-6.186-7.463-11.231-7.463H62.526c-5.044,0-9.383,3.082-11.231,7.463H29.838c-7.356,0-13.341,5.987-13.341,13.348v5.954
	v14.947v24.408C0.859,247.746-3.743,294.31,3.04,339.51c0.345,18.706,15.644,33.821,34.414,33.821h405.689
	c9.653,0,9.669-15.001,0-15.001H37.454c-9.003,0-16.594-6.165-18.788-14.503h250.803h32.313h33.205h32.313h30.821h32.313h65.91
	c-1.187,4.452-4.01,8.441-7.801,11.058c-4.227,2.918-8.576,2.156-13.044,3.713c-9.955,3.468-4.815,15.026,4.259,14.66
	c17.909-0.724,32.243-16.89,32.243-34.471v-2.46v-3.904C512,309.398,497.355,288.999,475.567,281.663z M156.764,172.883h-49.563
	v-11.748h49.563V172.883z M92.199,159.508h-8.353c-9.653,0-9.669,15.001,0,15.001h8.353v6.161H65.342v-26.998h26.856v5.835H92.199z
	 M31.499,161.135h18.843v11.748H31.499v-7.447V161.135z M465.944,328.826h-23.122l6.48-12.384l6.146,2.103
	C460.386,320.235,464.195,324.036,465.944,328.826z M380.142,328.826l17.051-30.217l11.009,3.767l-14.522,26.45H380.142z
	 M355.474,284.329l-24.888,44.496h-16.171l26.905-49.341L355.474,284.329z M282.086,328.826l31.897-58.638l12.909,4.419
	l-29.565,54.218H282.086z M347.774,328.826l22.121-39.549l12.855,4.4l-19.834,35.149H347.774z M410.793,328.826l11.8-21.492
	l12.345,4.205l-9.048,17.286H410.793z"/>
<g>
</g>
<g>
</g>
<g>
</g>
<g>
</g>
<g>
</g>
<g>
</g>
<g>
</g>
<g>
</g>
<g>
</g>
<g>
</g>
<g>
</g>
<g>
</g>
<g>
</g>
<g>
</g>
<g>
</g>
</svg>
