<?xml version="1.0" encoding="iso-8859-1"?>
<!-- Generator: Adobe Illustrator 19.0.0, SVG Export Plug-In . SVG Version: 6.00 Build 0)  -->
<svg version="1.1" id="Capa_1" xmlns="http://www.w3.org/2000/svg" xmlns:xlink="http://www.w3.org/1999/xlink" x="0px" y="0px"
	 viewBox="0 0 512 512" style="enable-background:new 0 0 512 512;" xml:space="preserve">
<path style="fill:#631638;" d="M47.907,227.296H7.5c0.112-6.76,0.907-16.984,4.563-28.461c3.151-9.892,6.174-13.639,9.274-22.362
	c2.676-7.53,5.499-19.018,4.989-35.068h36.917v85.89L47.907,227.296L47.907,227.296z"/>
<path style="fill:#AF5B45;" d="M174.483,378.923c0,8.953,0,17.906,0,26.859c0,10.4,1.377,21.798,0,32.102
	c-0.986,7.375-5.544,6.906-11.454,6.906c-9.448,0-18.896,0-28.344,0c-25.206,0-50.41,0-75.616,0c-5.17,0-11.541,0.987-16.654,0
	c-8.008-1.545-5.565-13.059-5.565-19.245c0-22.435,0-44.869,0-67.304l137.632,9.544L174.483,378.923L174.483,378.923z"/>
<path style="fill:#9E4F3F;" d="M77.075,439.342v-71.557v-6.754l-40.224-2.789v9.544v71.557c0,3.009,2.44,5.448,5.449,5.448h40.224
	C79.515,444.79,77.075,442.351,77.075,439.342z"/>
<path style="fill:#EDD7C0;" d="M157.949,347.92c0-18.019,1.949-37.009-6.467-53.612c-6.921-13.654-18.371-25.316-27.471-37.545
	c-19.183-25.782-32.146-55.987-37.511-87.678c-3.086-18.226-2.855-36.483-2.855-54.874c0-15.667,0-31.334,0-47h-26.43
	c0,24.729,0.016,49.458,0,74.187c-0.016,24.426-1.794,48.755-5.853,72.854c-4.931,29.279-11.082,57.76-12.604,87.543
	c-0.672,13.147-1.271,26.298-1.907,39.446v11.287l121.098,5.713L157.949,347.92L157.949,347.92z"/>
<path style="fill:#E8C4A6;" d="M108.154,354.931c-27.944-1.318-49.922-25.511-49.022-53.358c1.114-23.034,4.116-45.937,8.978-68.48
	l0,0c6.295-29.191,9.469-58.967,9.469-88.828V67.21H57.214v77.055c0,29.862-3.174,59.637-9.469,88.828l0,0
	c-4.861,22.543-7.864,45.446-8.977,68.48l-1.918,39.668v11.287l121.098,5.713v-0.961L108.154,354.931z"/>
<path style="fill:#BF6749;" d="M248.728,400.834c28.081,10.689,56.019,22.383,85.066,30.213
	c43.826,11.814,87.906,13.743,132.945,13.743c5.633,0,11.764,0.615,17.349-0.401c11.756-2.137,20.279-12.614,20.405-24.474
	c-18.172,0-36.345,0.052-54.516,0c-47.315-0.136-94.334-8.328-138.753-24.708c-18.226-6.721-36.345-13.74-54.522-20.593
	c-40.961-15.442-83.592-25.906-127.144-30.539c-30.837-3.281-61.753-2.836-92.707-2.836v26.544c26.32,0,52.595-0.267,78.842,2.163
	C161.164,374.157,206.049,384.589,248.728,400.834z"/>
<path style="fill:#EDD7C0;" d="M205.952,134.38H83.644V67.21c25.883,0,51.765,0,77.648,0c13.313,0,26.626,0,39.938,0
	c3.748,0,7.498-0.247,11.014,1.387c8.171,3.799,8.634,11.646,8.634,19.382C220.878,101.072,226.89,134.38,205.952,134.38z"/>
<rect x="83.639" y="67.209" style="fill:#631638;" width="44.728" height="67.169"/>
<path style="fill:#BF6749;" d="M57.214,141.919H26.386c0-7.907-0.235-15.85,0-23.753c0.271-9.114,8.001-6.838,15.414-6.838
	c6.978,0,14.932-2.314,15.414,6.28C57.666,125.658,57.214,133.852,57.214,141.919z"/>
<path style="fill:#EDD7C0;" d="M453.763,419.916c-22.794,0.218-45.606-1.505-68.108-5.144c3.958-17.797,5.36-36.157,4.153-54.348
	c-0.318-4.798-0.818-9.587-1.496-14.348c-0.375-2.63-2.865-9.464-1.431-11.982c2.364-4.151,22.406,4.018,26.458,5.155
	c9.804,2.75,19.648,5.387,29.419,8.25c8.686,2.545,11.823,6.744,12.826,15.684C457.699,382.054,457.087,401.218,453.763,419.916z"/>
<path style="fill:#E8C4A6;" d="M440.235,397.015c-9.323-0.729-17.861-5.483-23.23-13.172c-7.008-10.038-5.084-20.852-5.082-32.378
	c0.001-4.429-0.166-8.664-0.437-12.736c-6.075-1.704-12.156-3.803-18.321-5.138c-6.155-1.333-6.622-0.057-5.89,6.033
	c1.35,11.231,2.954,22.164,2.952,33.535c-0.002,16.507-2.135,30.645-4.575,41.612c22.503,3.639,45.314,5.362,68.109,5.144
	c1.148-6.456,2.122-13.828,2.646-21.969C451.175,397.749,445.787,397.449,440.235,397.015z"/>
<path d="M504.493,412.416h-41.895c0.595-4.166,1.023-8.41,1.301-14.103c0.202-4.138-2.988-7.655-7.125-7.857
	c-4.16-0.191-7.654,2.989-7.857,7.125c-0.299,6.13-0.782,10.368-1.48,14.811c-5.024-0.027-32.192,0.856-52.878-3.857
	c2.104-11.664,3.169-23.529,3.17-35.374c0.002-10.417-0.82-20.876-2.45-31.188l48.551,13.616c2.032,0.569,3.526,2.289,3.807,4.38
	c0.375,2.8,0.692,5.653,0.943,8.479c0.366,4.126,4.02,7.169,8.134,6.808c4.126-0.366,7.174-4.008,6.808-8.134
	c-0.995-11.213-3.203-22.489-15.643-25.976l-55.742-15.633c-3.479-0.979-7.138-0.093-9.789,2.36
	c-2.646,2.446-3.808,6.017-3.109,9.546c2.319,11.75,3.494,23.773,3.491,35.738c-0.001,11.054-1.021,22.124-3.001,33.005
	c-23.378-4.231-46.367-10.594-68.8-19.072l-53.548-20.238c-29.962-11.324-60.684-19.763-91.931-25.291v-20.08
	c0-14.857-4.983-29.529-14.032-41.312l-19.731-25.696c-17.761-23.13-30.325-50.437-36.334-78.973
	c-0.854-4.054-4.831-6.645-8.885-5.793c-4.053,0.854-6.646,4.831-5.793,8.885c6.47,30.719,19.996,60.116,39.115,85.016
	l19.731,25.696c7.047,9.179,10.929,20.606,10.929,32.179v17.652c-24.521-3.587-49.339-5.394-74.347-5.394H44.721l1.538-31.807
	c1.09-22.554,4.057-45.184,8.817-67.261c6.396-29.655,9.638-60.072,9.638-90.41v-5.804v-23.675V74.71h11.431v59.671v0.734
	c0,5.761,0.24,11.599,0.714,17.35c0.34,4.129,3.979,7.205,8.09,6.859c4.129-0.34,7.199-3.962,6.859-8.09
	c-0.256-3.101-0.429-6.228-0.537-9.354h114.68c12.366,0,22.427-10.061,22.427-22.426V82.136c0-12.366-10.061-22.427-22.427-22.427
	H83.645H57.214c-4.143,0-7.5,3.357-7.5,7.5v1.253c-11.717,3.176-20.364,13.897-20.364,26.604v8.788
	c-5.813,0.261-10.464,5.058-10.464,10.933v23.675c0,0.482,0.042,0.955,0.103,1.421c-0.118,0.569-0.179,1.157-0.16,1.763
	c0.376,11.871-1.158,22.744-4.561,32.319c-1.27,3.574-2.534,6.248-3.873,9.079c-1.768,3.738-3.596,7.604-5.479,13.518
	c-3.085,9.686-4.739,19.985-4.916,30.612c-0.033,2.011,0.742,3.95,2.152,5.384c1.409,1.434,3.336,2.241,5.347,2.241h32.242
	c-4.529,21.837-7.389,44.158-8.465,66.414l-1.918,39.668c-0.003,0.061,0.002,0.12,0,0.181c-0.001,0.061-0.009,0.12-0.009,0.182
	v26.544v71.557c0,7.141,5.809,12.949,12.949,12.949h126.734c7.141,0,12.949-5.809,12.949-12.949v-51.044
	c21.756,5.072,43.173,11.591,64.077,19.547l46.803,17.815c46.429,17.672,95.159,26.632,144.834,26.632h41.919
	c10.798,0,21.013-5.538,26.976-14.522C510.339,432.124,517.597,412.416,504.493,412.416z M91.145,74.71h29.729v52.171H91.145V74.71z
	 M213.378,82.136v37.318c0,4.095-3.332,7.426-7.427,7.426h-70.079V74.71h70.079C210.046,74.71,213.378,78.042,213.378,82.136z
	 M33.887,118.828h15.828v15.591H33.887V118.828z M49.714,84.786v19.042H44.35v-8.763C44.35,90.816,46.476,87.06,49.714,84.786z
	 M19.21,201.112c1.579-4.959,3.118-8.213,4.747-11.657c1.438-3.042,2.925-6.187,4.447-10.471c3.211-9.037,4.996-18.959,5.379-29.566
	h15.897c-0.296,23.582-2.62,47.182-6.922,70.378h-5.811c0.063-0.304,0.114-0.612,0.139-0.929c0.187-2.368,0.526-4.745,1.01-7.066
	c0.872-4.194,2.232-8.311,4.042-12.235c1.734-3.761,0.092-8.217-3.67-9.951c-3.761-1.734-8.217-0.091-9.951,3.67
	c-2.285,4.954-4.003,10.156-5.106,15.46c-0.611,2.938-1.041,5.947-1.277,8.945c-0.057,0.724-0.004,1.429,0.136,2.106h-6.846
	C16.041,213.339,17.309,207.081,19.21,201.112z M479.616,437.291h-41.919c-47.845,0-94.779-8.63-139.498-25.651l-46.803-17.815
	c-24.416-9.292-49.508-16.685-75.021-22.15c-0.21-0.055-0.424-0.101-0.641-0.137c-17.154-3.652-34.495-6.44-51.952-8.317
	c-4.135-0.444-7.816,2.537-8.259,6.655c-0.442,4.119,2.537,7.816,6.655,8.259c15.041,1.616,29.991,3.932,44.805,6.908v52.249H44.35
	v-62.008h24.643c6.207,0,12.512,0.119,18.737,0.354c4.146,0.119,7.621-3.073,7.777-7.213c0.155-4.14-3.074-7.621-7.213-7.777
	c-6.413-0.241-12.907-0.363-19.302-0.363H44.35v-11.544h31.752c26.97,0,53.712,2.168,80.084,6.463
	c0.363,0.087,0.734,0.151,1.115,0.184c32.241,5.327,63.922,13.837,94.775,25.498l53.548,20.238
	c80.03,32.719,189.666,26.293,189.666,26.293C492.485,433.252,486.514,437.291,479.616,437.291z"/>
<g>
</g>
<g>
</g>
<g>
</g>
<g>
</g>
<g>
</g>
<g>
</g>
<g>
</g>
<g>
</g>
<g>
</g>
<g>
</g>
<g>
</g>
<g>
</g>
<g>
</g>
<g>
</g>
<g>
</g>
</svg>
