<?xml version="1.0" encoding="iso-8859-1"?>
<!-- Generator: Adobe Illustrator 19.0.0, SVG Export Plug-In . SVG Version: 6.00 Build 0)  -->
<svg version="1.1" id="Capa_1" xmlns="http://www.w3.org/2000/svg" xmlns:xlink="http://www.w3.org/1999/xlink" x="0px" y="0px"
	 viewBox="0 0 512 512" style="enable-background:new 0 0 512 512;" xml:space="preserve">
<rect x="405.487" y="224.896" style="fill:#BF6749;" width="22.681" height="59.862"/>
<rect x="405.487" y="224.896" style="fill:#AF5B45;" width="10.205" height="59.863"/>
<path style="fill:#BF6749;" d="M477.229,311.174c-57.144,0-114.289,0-171.432,0c-81.289,0-162.579,0-243.868,0
	c-8.249,0-16.501,0.068-24.749,0c-3.226-0.027-6.327-0.042-9.524-0.873c-7.173-1.867-13.409-6.741-16.978-13.233
	c-2.135-3.884-6.327-13.473-0.757-15.736c3.363-1.366,10.16,0,13.698,0c11.72,0,23.439,0,35.159,0c84.191,0,168.383,0,252.575,0
	c63.3,0,126.601,0,189.901,0c1.081,0,2.162,0,3.243,0C504.713,297.094,493.907,311.174,477.229,311.174z"/>
<g>
	<path style="fill:#AF5B45;" d="M59.729,283.899L59.729,283.899c0-1.418,1.142-2.569,2.553-2.569h-52.4
		c-1.409,0-2.553,1.15-2.553,2.569l0,0c0,15.063,12.134,27.275,27.103,27.275h52.399C71.863,311.174,59.729,298.963,59.729,283.899z
		"/>
	<path style="fill:#AF5B45;" d="M442.266,227.6c-10.14,0-20.282,0-30.422,0c-9.157,0-24.391,2.872-30.097-6.338
		c-4.449-7.181-1.006-17.06,7.094-19.756c3.633-1.209,8.137-0.68,11.907-0.68c12.41,0,24.82,0,37.231,0
		c6.101,0,12.001,0.526,15.601,6.338C458.955,215.841,452.608,227.6,442.266,227.6z"/>
</g>
<path style="fill:#9E4F3F;" d="M399.601,214.213c0-7.394,5.955-13.388,13.302-13.388h-19.887c-17.126,0-17.173,26.774,0,26.774
	h19.887C405.556,227.6,399.601,221.607,399.601,214.213z"/>
<path d="M504.497,273.828h-68.829v-38.726h6.598c26.864,0,26.941-41.779,0-41.779h-49.208c-26.864,0-26.941,41.779,0,41.779h4.925
	v38.726h-73.3c-9.655,0-9.671,15.005,0,15.005h80.802h22.681h68.193c-2.208,8.526-9.909,14.838-19.044,14.838H118.662
	c-9.655,0-9.671,15.005,0,15.005h358.652c19.125,0,34.686-15.637,34.686-34.858v-2.488C512,277.187,508.642,273.828,504.497,273.828
	z M387.217,214.17c0-3.221,2.621-5.842,5.842-5.842h49.208c7.499,0,7.53,11.769,0,11.769h-14.101h-22.681h-12.427
	C389.838,220.097,387.217,217.476,387.217,214.17z M412.988,273.828v-38.726h7.676v38.726H412.988z"/>
<path d="M86.832,303.672h-52.4c-9.119,0-16.805-6.315-18.983-14.838h277.67c9.655,0,9.671-15.005,0-15.005H9.882
	c-14.93,0-9.713,20.231-5.128,27.908c6.187,10.361,17.584,16.94,29.678,16.94h52.4C96.488,318.677,96.504,303.672,86.832,303.672z"
	/>
<g>
</g>
<g>
</g>
<g>
</g>
<g>
</g>
<g>
</g>
<g>
</g>
<g>
</g>
<g>
</g>
<g>
</g>
<g>
</g>
<g>
</g>
<g>
</g>
<g>
</g>
<g>
</g>
<g>
</g>
</svg>
