<?xml version="1.0" encoding="iso-8859-1"?>
<!-- Generator: Adobe Illustrator 19.0.0, SVG Export Plug-In . SVG Version: 6.00 Build 0)  -->
<svg version="1.1" id="Capa_1" xmlns="http://www.w3.org/2000/svg" xmlns:xlink="http://www.w3.org/1999/xlink" x="0px" y="0px"
	 viewBox="0 0 512 512" style="enable-background:new 0 0 512 512;" xml:space="preserve">
<path style="fill:#ED88A3;" d="M7.496,376.59h90.507c0-22.534-1.201-44.26-9.002-65.72c-4.35-11.967-9.195-23.771-13.802-35.64
	c-5.791-14.916-12.188-29.714-15.482-45.435c-3.473-16.575-3.136-33.238-3.136-50.042c0-14.158,0-28.317,0-42.475H28.857
	c0,25.165,0,50.329,0,75.495c0,21.26-2.869,41.689-9.5,61.945c-6.295,19.229-8.82,38.582-9.791,58.666
	c-0.69,14.273-1.38,28.545-2.07,42.818"/>
<path style="fill:#E87490;" d="M28.287,323.145c0.798-16.501,3.928-32.805,9.296-48.428l0,0c6.29-18.304,9.5-37.524,9.5-56.878
	v-80.561H28.856v80.561c0,19.354-3.21,38.575-9.5,56.878l0,0c-5.369,15.623-8.498,31.928-9.296,48.428L7.496,376.2v0.39h18.227
	v-0.39L28.287,323.145z"/>
<path style="fill:#D65F86;" d="M477.324,403.687c-57.146,0-114.294,0-171.44,0c-81.294,0-162.587,0-243.88,0
	c-8.249,0-16.501,0.068-24.75,0c-3.219-0.027-6.312-0.041-9.501-0.871c-7.148-1.86-13.363-6.718-16.919-13.189
	c-2.164-3.937-6.244-13.23-0.754-15.59c3.259-1.402,10.245,0,13.694,0c11.716,0,23.432,0,35.148,0c84.166,0,168.33,0,252.496,0
	c63.281,0,126.561,0,189.841,0c1.081,0,2.162,0,3.242,0C504.706,389.715,493.877,403.687,477.324,403.687z"/>
<path style="fill:#CE5782;" d="M27.29,376.59L27.29,376.59c0-1.41,1.142-2.552,2.552-2.552H10.048c-1.409,0-2.552,1.142-2.552,2.552
	l0,0c0,14.966,12.13,27.097,27.094,27.097h19.794C39.42,403.687,27.29,391.556,27.29,376.59z"/>
<g>
	<polygon style="fill:#E87490;" points="79.966,287.51 92.49,321.722 238.627,236.094 212.994,210.86 	"/>
	<polygon style="fill:#E87490;" points="370.047,374.038 446.496,308.706 406.213,308.01 303.15,374.038 	"/>
	<polygon style="fill:#E87490;" points="206.19,374.038 329.504,290.766 362.594,300.912 262.844,374.038 	"/>
	<path style="fill:#E87490;" d="M105.046,374.038l163.513-113.895c3.681,2.82,8.446,5.321,13.123,8.18
		c6.388,3.906,11.851,8.367,17.346,10.749c-46.727,32.127-92.827,62.837-139.553,94.965c-16.479,0-32.959,0-49.438,0"/>
</g>
<polygon style="fill:#D65F86;" points="191.069,223.325 147.038,289.78 193.468,262.554 222.822,220.535 212.994,210.86 "/>
<path style="fill:#ED88A3;" d="M212.946,211.184L105.046,374.038h36.97l96.322-137.88
	C229.372,228.222,220.873,220.158,212.946,211.184z"/>
<path style="fill:#D65F86;" d="M213.946,336.919c21.121-14.308,42.217-28.561,63.399-43.008l11.897-20.615
	c-2.408-1.629-4.902-3.345-7.562-4.972c-4.676-2.86-9.442-5.361-13.123-8.18l-19.994,13.926L213.946,336.919z"/>
<path style="fill:#ED88A3;" d="M268.925,260.143L206.19,374.038h37.842l55.397-95.991
	C288.875,272.679,278.689,266.712,268.925,260.143z"/>
<polygon style="fill:#D65F86;" points="313.055,301.874 298.485,347.91 346.191,312.937 350.845,297.309 329.504,290.766 "/>
<path style="fill:#ED88A3;" d="M329.504,290.766l-26.355,83.272h37.667l21.776-73.126
	C351.291,298.174,340.247,294.781,329.504,290.766z"/>
<path style="fill:#D65F86;" d="M184.04,137.277c0-5.16-0.721-10.968,0.559-16.02c2.24-8.835,11.014-14.8,20.048-13.661
	c18.301,2.306,22.169,31.053,7.431,40.297l-19.84,12.77"/>
<rect x="56.58" y="137.281" style="fill:#E87490;" width="136.611" height="38.719"/>
<g>
	<rect x="56.58" y="137.281" style="fill:#D65F86;" width="46.917" height="38.719"/>
	<polygon style="fill:#D65F86;" points="395.935,314.594 395.935,351.914 436.218,317.489 436.218,308.528 406.213,308.01 	"/>
</g>
<path style="fill:#ED88A3;" d="M431.3,309.099c-8.454,0-16.817-0.382-25.087-1.089v66.029h40.283c0-13.426,0-26.852,0-40.278
	c0-7.795,0-10.727,0-18.522c0-1.593,0.289,0.872,0-0.696C445.111,307.018,437.219,309.099,431.3,309.099z"/>
<path d="M504.5,366.538h-50.503v-57.832c0-2.056-0.844-4.021-2.335-5.438c-1.2-1.139-2.739-1.834-4.362-2.01
	c-0.112-0.018-0.242-0.031-0.386-0.04c-0.029-0.002-0.058-0.002-0.087-0.004c-0.066-0.003-0.128-0.008-0.201-0.009l-26.632-0.46
	c-21.668-0.739-43.02-4.014-63.641-9.593l-18.243-5.594c-76.612-25.416-133.153-96.113-139.136-104.788
	c1.072-1.297,1.716-2.96,1.716-4.775v-12.107l15.373-9.643c7.575-4.75,12.099-12.925,12.099-21.868v-6.612
	c0-33.264-51.621-33.276-51.621,0v4.012H56.58H28.856c-4.143,0-7.5,3.357-7.5,7.5v22.573c0,9.652,15,9.668,15,0v-15.073H49.08
	v31.219v23.416c0,19.419,3.563,38.444,10.592,56.546l13.27,34.181l12.408,33.893c3.418,12.283,5.152,24.943,5.152,37.798v4.706
	H15.472l2.08-43.03c0.764-15.802,3.758-31.397,8.897-46.354c6.574-19.129,9.907-39.085,9.907-59.315v-29.345c0-9.652-15-9.668-15,0
	v29.346c0,18.567-3.06,36.884-9.093,54.44c-5.601,16.295-8.862,33.287-9.694,50.504l-2.564,53.055
	c-0.009,0.187-0.003,0.371,0.001,0.555c-0.349,18.896,15.855,34.795,34.584,34.795h152.23c9.652,0,9.668-15,0-15H34.59
	c-9.096,0-16.764-6.231-18.961-14.649h89.417h4.99h31.979h17.459h46.716h37.842h59.116h37.668h29.229h36.165h40.283h49.853
	c-2.228,8.422-9.912,14.649-19.023,14.649H218.948c-9.652,0-9.668,15,0,15h258.377c19.119,0,34.674-15.556,34.674-34.677v-2.473
	C512,369.895,508.643,366.538,504.5,366.538z M398.713,366.538h-8.346l8.346-7.132V366.538z M164.38,270.906l-67.562,39.587
	c-0.607-1.743-1.236-3.481-1.907-5.208l-5.625-14.489l100.148-57.705L164.38,270.906z M255.962,259.777l-48.646,33.884
	l32.432-46.425C245.008,251.601,250.414,255.788,255.962,259.777z M302.74,287.316c3.666,1.732,7.37,3.388,11.108,4.972
	l-22.902,15.465L302.74,287.316z M271.502,271.012c0.725,0.429,15.578,9.88,17.073,10.838l-47.752,82.745l-21.53,1.2
	L271.502,271.012z M183.703,366.538c9.655-6.588,19.298-13.139,28.866-19.625l-10.81,19.625H183.703z M308.916,330.963
	l-44.047,32.292l-6.15,0.343l15.112-26.185l42.027-28.381L308.916,330.963z M301.25,355.182l-3.594,11.356H285.76L301.25,355.182z
	 M367.901,309.369c5.735,1.228,11.516,2.285,17.333,3.173l-22.587,14.471L367.901,309.369z M64.08,168.496v-23.719h31.917v23.719
	H64.08z M110.998,144.777h74.692v23.719h-74.692V144.777z M191.54,125.765c0-13.941,21.621-13.941,21.621,0v6.612
	c0,3.746-1.895,7.17-5.068,9.16l-7.403,4.644v-8.905c0-4.143-3.357-7.5-7.5-7.5h-1.649v-4.011H191.54z M64.08,183.497h118.65
	c5.772,8.83,12.021,17.294,18.697,25.373l-117.633,67.78l-10.14-26.119c-6.353-16.364-9.574-33.563-9.574-51.117V183.497z
	 M119.012,366.538l12.764-19.264c2.288-3.453,1.344-8.106-2.109-10.395c-3.454-2.286-8.105-1.343-10.395,2.109l-13.792,20.816
	c-0.15-11.683-1.587-23.215-4.299-34.481l44.371-25.999l-10.236,15.45c-2.288,3.453-1.344,8.107,2.109,10.395
	c3.455,2.289,8.106,1.344,10.395-2.109l66.098-99.762c4.045,4.209,8.468,8.502,13.516,13.131c0.317,0.294,0.637,0.584,0.955,0.877
	l-90.282,129.231L119.012,366.538L119.012,366.538z M156.404,366.538l26.035-37.268l64.654-45.034l-18.607,33.782l-3.353,2.271
	c-22.232,15.049-45.201,30.598-67.987,46.25h-0.742V366.538z M313.39,366.538l20.915-66.085c6.21,2.132,12.52,4.066,18.876,5.787
	l-17.955,60.297L313.39,366.538L313.39,366.538z M350.877,366.538l5.214-17.51l42.621-27.306v17.954l-31.434,26.862H350.877z
	 M413.713,366.538v-50.467c8.417,0.498,16.854,0.645,25.283,0.428v50.039H413.713z"/>
<g>
</g>
<g>
</g>
<g>
</g>
<g>
</g>
<g>
</g>
<g>
</g>
<g>
</g>
<g>
</g>
<g>
</g>
<g>
</g>
<g>
</g>
<g>
</g>
<g>
</g>
<g>
</g>
<g>
</g>
</svg>
