<?xml version="1.0" encoding="iso-8859-1"?>
<!-- Generator: Adobe Illustrator 19.0.0, SVG Export Plug-In . SVG Version: 6.00 Build 0)  -->
<svg version="1.1" id="Capa_1" xmlns="http://www.w3.org/2000/svg" xmlns:xlink="http://www.w3.org/1999/xlink" x="0px" y="0px"
	 viewBox="0 0 512 512" style="enable-background:new 0 0 512 512;" xml:space="preserve">
<path style="fill:#BF6749;" d="M489.765,318.267H161.95h-10.654c-21.019,0-42.038,0-63.057,0c-20.881,0-42.207,1.279-63.057,0
	c-10.311-0.632-17.12-7.896-17.682-18.079c-0.252-4.563-1.139-10.528,4.213-11.855c2.145-0.532,5.1,0,7.288,0
	c14.726,0,29.451,0,44.177,0c54.364,0,108.728,0,163.092,0c59.713,0,119.425,0,179.138,0c32.544,0,65.088,0,97.632,0
	c0.486,0,0.972,0,1.459,0C504.5,299.738,506.53,318.267,489.765,318.267z"/>
<path style="fill:#AF5B45;" d="M58.427,300.536v-8.1c0-2.266,1.832-4.103,4.092-4.103H11.592c-2.26,0-4.092,1.837-4.092,4.103v8.1
	c0,9.792,7.916,17.73,17.682,17.73h50.927C66.343,318.266,58.427,310.328,58.427,300.536z"/>
<path style="fill:#FBDC40;" d="M309.689,195.819c50.543,12.57,101.372,24.301,151.693,37.727
	c25.034,6.679,42.991,28.559,43.118,54.788H197.236c4.841-14.403,14.248-36.581,32.724-59.031
	C250.116,204.812,276.82,187.644,309.689,195.819z"/>
<path style="fill:#F2C300;" d="M290.993,214.565l152.16,37.843c18.734,4.659,33.295,18.445,39.451,35.925H504.5
	c0-25.886-17.595-48.44-42.651-54.671l-152.16-37.843c-31.641-7.87-57.878,7.759-77.794,31.172
	C248.519,214.043,270.324,209.425,290.993,214.565z"/>
<path d="M463.659,226.384l-121.432-30.201c-4.021-1-8.089,1.448-9.089,5.468c-1,4.021,1.448,8.089,5.468,9.089l121.432,30.201
	c19.302,4.8,33.44,20.673,36.392,39.893H207.992c9.533-23.694,24.193-45.251,42.729-62.822
	c15.242-14.45,36.611-20.026,57.156-14.914c4.021,0.999,8.089-1.448,9.089-5.469c1-4.02-1.448-8.088-5.468-9.088
	c-25.548-6.351-52.122,0.596-71.098,18.584c-5.738,5.44-11.199,11.298-16.232,17.413c-13.886,16.872-24.71,35.791-32.237,56.296
	H11.592C5.2,280.833,0,286.038,0,292.436v8.1c0,13.912,11.297,25.23,25.183,25.23H76.11c9.652,0,9.668-15,0-15H25.183
	c-5.614,0-10.183-4.59-10.183-10.23v-4.703h182.236H497v7.658c0,4.012-3.246,7.275-7.235,7.275h-383.41c-9.652,0-9.668,15,0,15
	h383.41c12.261,0,22.235-9.993,22.235-22.275v-15.158C512,258.936,492.121,233.462,463.659,226.384z"/>
<g>
</g>
<g>
</g>
<g>
</g>
<g>
</g>
<g>
</g>
<g>
</g>
<g>
</g>
<g>
</g>
<g>
</g>
<g>
</g>
<g>
</g>
<g>
</g>
<g>
</g>
<g>
</g>
<g>
</g>
</svg>
