<?xml version="1.0" encoding="iso-8859-1"?>
<!-- Generator: Adobe Illustrator 19.0.0, SVG Export Plug-In . SVG Version: 6.00 Build 0)  -->
<svg version="1.1" id="Capa_1" xmlns="http://www.w3.org/2000/svg" xmlns:xlink="http://www.w3.org/1999/xlink" x="0px" y="0px"
	 viewBox="0 0 512 512" style="enable-background:new 0 0 512 512;" xml:space="preserve">
<path style="fill:#333F61;" d="M489.765,339.41c-57.754,0-115.507,0-173.261,0c-85.06,0-170.12,0-255.18,0
	c-10.028,0-20.055,0-30.083,0c-12.352,0-23.156-4.236-23.741-18.948c-0.211-5.313-0.693-9.863,5.167-10.91
	c2.185-0.39,4.816,0,7.027,0c10.417,0,20.833,0,31.25,0c84.323,0,168.645,0,252.968,0c65.78,0,131.561,0,197.341,0
	c1.082,0,2.164,0,3.247,0C504.5,320.955,506.514,339.41,489.765,339.41z"/>
<path style="fill:#253551;" d="M55.519,321.725v-8.079c0-2.261,1.832-4.093,4.092-4.093H11.592c-2.26,0-4.092,1.832-4.092,4.093
	v8.079c0,9.767,7.917,17.685,17.682,17.685h48.019C63.436,339.41,55.519,331.492,55.519,321.725z"/>
<path style="fill:#BC4444;" d="M445.484,309.553H401.51c2.366-27.771-4.206-55.826-18.407-79.777
	c15.34,2.955,30.679,5.91,46.019,8.865C440.267,260.493,445.927,285.026,445.484,309.553z"/>
<path style="fill:#9E3535;" d="M402.303,233.474c-4.117,1.807-8.697,4.056-13.557,6.849c4.09,8.503,8.141,19.203,10.67,31.854
	c0.749-0.736,1.501-1.472,2.284-2.204c10.883-10.176,22.073-17.139,31.819-21.911c-1.474-3.462-2.964-6.612-4.397-9.421
	C420.182,236.918,411.242,235.196,402.303,233.474z"/>
<g>
	<path style="fill:#DB4D4D;" d="M347.993,309.553H304.02c14.076-36.207,42.921-65.473,79.084-79.777
		c15.34,2.955,30.679,5.91,46.019,8.865C393.425,249.504,363.514,275.609,347.993,309.553z"/>
	<path style="fill:#DB4D4D;" d="M243.684,309.553h-69.405c5.509-42.1,11.018-84.201,16.526-126.301
		c0.944-7.215,3.7-12.513,12.102-8.989c11.674,4.896,23.084,10.545,34.599,15.806c7.656,3.497,11.787,7.239,11.433,16.088
		c-0.425,10.621-1.079,21.237-1.619,31.853C246.108,261.857,244.896,285.705,243.684,309.553z"/>
</g>
<path style="fill:#BC4444;" d="M180.569,261.483c-49.57,0-99.139,0-148.709,0c-1.75,0-4.001,0.384-5.723,0
	c-6.405-1.428-4.364-9.299-4.364-14.49c0-4.624-1.935-14.095,0.296-18.289c1.696-3.188,4.517-2.587,7.529-2.679
	c26.687-0.818,53.527,0,80.225,0c25.105,0,50.21,0,75.315,0L180.569,261.483z"/>
<path d="M504.5,302.053h-51.583c-0.319-10.472-1.663-20.906-4.05-31.111c-2.894-12.373-7.289-24.387-13.064-35.71
	c-0.961-1.886-2.676-3.26-4.701-3.814c-0.162-0.053-0.348-0.101-0.562-0.142l-46.018-8.864c-0.321-0.062-0.64-0.095-0.958-0.115
	c-0.077-0.005-0.153-0.007-0.23-0.009c-0.286-0.009-0.568-0.004-0.849,0.019c-0.037,0.003-0.073,0.003-0.11,0.007
	c-0.33,0.032-0.655,0.087-0.974,0.161c-0.042,0.01-0.083,0.022-0.124,0.033c-0.283,0.071-0.56,0.159-0.831,0.262
	c-0.034,0.013-0.069,0.019-0.103,0.032c-0.053,0.021-0.104,0.043-0.157,0.064c-0.012,0.005-0.025,0.01-0.037,0.015
	c-16.109,6.398-30.784,15.434-43.622,26.865c-16.048,14.292-28.945,32.296-37.533,52.308h-47.42l1.418-27.893
	c0.21-4.137-2.973-7.661-7.109-7.871c-4.157-0.216-7.661,2.974-7.871,7.109l-1.457,28.654h-53.73l15.893-121.459l41.222,18.831
	c1.088,0.497,1.752,1.591,1.691,2.785l-1.852,36.432c-0.21,4.137,2.973,7.661,7.109,7.871c4.155,0.224,7.661-2.974,7.871-7.109
	l1.852-36.431c0.376-7.374-3.722-14.122-10.438-17.191l-42.503-19.417c-4.073-1.859-8.654-1.681-12.568,0.489
	c-3.915,2.17-6.494,5.961-7.074,10.399l-5.4,41.272h-50.83c-1.892-4.364-6.238-7.427-11.289-7.427H81.456
	c-5.052,0-9.398,3.063-11.29,7.427H26.112c-6.528,0-11.84,4.972-11.84,11.083V257.9c0,6.111,5.312,11.083,11.84,11.083h44.054
	c1.892,4.364,6.238,7.426,11.29,7.426h35.051c5.051,0,9.397-3.062,11.289-7.426h44.228l-4.327,33.069H11.592
	C5.2,302.053,0,307.253,0,313.646v8.079c0,13.888,11.297,25.186,25.183,25.186h389.123c9.652,0,9.668-15,0-15H25.183
	c-5.614,0-10.183-4.569-10.183-10.186v-4.672h159.279h69.404h60.336h43.973h53.519h43.973H497v7.619
	c0,3.991-3.246,7.238-7.235,7.238h-39.287c-9.652,0-9.668,15,0,15h39.287c12.261,0,22.235-9.976,22.235-22.238v-15.119
	C512,305.41,508.643,302.053,504.5,302.053z M173.973,253.984h-45.164v-20.458h47.8L173.973,253.984z M29.272,233.526h39.881v20.458
	H29.272V233.526z M84.153,226.099h29.655v10.155h-7.925c-9.652,0-9.668,15,0,15h7.925v10.155H84.153V226.099z M315.478,302.053
	c7.62-15.631,18.21-29.691,31.025-41.105c11.039-9.829,23.598-17.69,37.357-23.388l19.173,3.693
	c-4.145,2.164-8.179,4.534-12.081,7.096c-0.287,0.167-0.556,0.353-0.813,0.552c-6.246,4.165-12.152,8.816-17.613,13.922
	c-12.052,11.271-21.879,24.449-29.26,39.229h-27.788V302.053z M393.072,279.318c1.141,7.496,1.589,15.116,1.356,22.735h-34.134
	c6.063-10.487,13.592-19.964,22.477-28.272c2.5-2.338,5.105-4.568,7.801-6.691C391.607,271.132,392.449,275.217,393.072,279.318z
	 M409.441,302.053c0.229-8.374-0.285-16.749-1.539-24.991c-0.97-6.382-2.4-12.736-4.255-18.961
	c6.836-4.088,14.071-7.534,21.576-10.252c3.869,8.515,6.907,17.403,9.037,26.509c2.125,9.086,3.354,18.372,3.667,27.695H409.441z"/>
<g>
</g>
<g>
</g>
<g>
</g>
<g>
</g>
<g>
</g>
<g>
</g>
<g>
</g>
<g>
</g>
<g>
</g>
<g>
</g>
<g>
</g>
<g>
</g>
<g>
</g>
<g>
</g>
<g>
</g>
</svg>
