<?xml version="1.0" encoding="iso-8859-1"?>
<!-- Generator: Adobe Illustrator 19.0.0, SVG Export Plug-In . SVG Version: 6.00 Build 0)  -->
<svg version="1.1" id="Capa_1" xmlns="http://www.w3.org/2000/svg" xmlns:xlink="http://www.w3.org/1999/xlink" x="0px" y="0px"
	 viewBox="0 0 512 512" style="enable-background:new 0 0 512 512;" xml:space="preserve">
<path style="fill:#67C787;" d="M379.186,310.872c0.978-11.565,1.956-23.13,2.934-34.695c0.863-10.209,5.824-26.225-6.624-30.593
	c-6.193-2.174-12.861-3.448-19.2-5.148c-5.605-1.503-12.84-4.808-18.053-0.72c-3.018,2.366-4.482,7.045-6.055,10.406
	c-2.948,6.3-5.896,12.6-8.844,18.9c-5.413,11.568-10.827,23.136-16.24,34.704l-4.995,12.715l75.997,4.557L379.186,310.872z"/>
<path style="fill:#5FB87D;" d="M326.649,316.44l4.995-12.715l28.255-60.382c0.281-0.6,0.619-1.157,0.999-1.675l-13.936-3.737
	c-4.664-1.251-9.552,1.029-11.603,5.411l-28.255,60.382l-4.995,12.715l75.997,4.559l0.156-1.462L326.649,316.44z"/>
<path style="fill:#333F61;" d="M346.962,237.932c1.653-5.057,2.81-10.672,5.061-15.484c3.539-7.564,9.942-5.029,16.198-3.049
	c6.534,2.068,14.806,3.508,13.051,12.386c-0.933,4.721-3.264,9.487-4.834,14.05L346.962,237.932z"/>
<path style="fill:#253551;" d="M365.539,218.551L365.539,218.551c-14.019-4.438-15.136,8.854-18.577,19.381l29.476,7.903
	l2.808-8.163C370.349,235.287,362.072,229.16,365.539,218.551z"/>
<path style="fill:#67C787;" d="M171.446,287.92l-74.518-4.021l0.358-2.52c0.001-18.297-7.255-36.176-20.016-49.29
	c-5.757-5.917-12.553-10.81-19.999-14.378c-4.159-1.993-8.515-3.572-12.984-4.712c-3.148-0.803-8.428-0.796-10.691-3.519
	c-2.544-3.061-1.354-9.685-1.354-13.282c0-5.363-0.636-11.136,0-16.467c1.431-11.99,20.026-4.455,27.881-3.023
	c39.016,7.112,76.674,3.207,113.646-10.996c5.075-1.95,10.421-4.806,15.715-6.037c4.537-1.055,5.865,0.646,8.824,3.587
	c7.537,7.49,16.915,15.429,23.025,24.088c4.01,5.683,0.236,7.876-4.441,11.285c-8.963,6.533-16.969,14.159-23.654,23.034
	c-13.775,18.291-21.487,40.827-21.823,63.721L171.446,287.92z"/>
<path style="fill:#5FB87D;" d="M172.344,272.747c-26.68-1.44-47.593-12.086-62.29-34.779
	c-14.472-22.345-49.049-30.995-49.395-61.163c-8.509-1.551-26.898-9.218-28.415,3.316c-0.77,6.358,0,13.344,0,19.746
	c0,6.03-0.174,11.251,7.449,12.122c33.374,6.183,57.594,35.363,57.594,69.389l-0.358,2.521l74.518,4.021l-0.029-2.531
	C171.48,281.133,171.794,276.914,172.344,272.747z"/>
<path style="fill:#268EBC;" d="M7.5,304.813v-5.154c0-9.224,7.458-16.7,16.657-16.7c88.322-5.083,157.734,2.184,204.789,9.756
	c46.217,7.438,91.953,18.412,139.041,18.169c46.737-0.241,93.317-10.212,136.512-27.925c0,6.678,0,13.356,0,20.034
	c0,8.571-5.401,16.206-13.468,19.041c-16.918,5.944-33.835,11.889-50.753,17.833c-32.837,11.538-66.626,16.398-101.243,10.6
	l-101.246-16.956c-30.615-3.473-61.616,0.289-90.521,10.984l-15.175,5.615c-4.14,1.532-8.519,2.316-12.932,2.316
	c-18.991,0-37.983,0-56.974,0c-9.984,0-19.587-0.021-28.873-4.505C17.671,340.363,7.5,324.098,7.5,306.735V304.813z"/>
<path style="fill:#333F61;" d="M222.305,188.363l-26.779-28.015c-1.268-1.327-3.206-1.762-4.917-1.104l-51.487,35.023
	c-3.245,2.207-3.627,6.854-0.786,9.564l23.914,22.815c2.024,1.931,5.093,2.251,7.469,0.778l51.936-32.181
	C223.92,193.629,224.228,190.375,222.305,188.363z"/>
<path style="fill:#217E9E;" d="M8.708,317.168L8.708,317.168c4.709,20.204,22.777,35.256,44.364,35.256h66.089
	c4.413,0,8.792-0.784,12.932-2.316l15.175-5.615c28.905-10.695,59.906-14.457,90.521-10.984l0,0l0,0
	C162.305,319.841,85.368,314.33,8.708,317.168z"/>
<path style="fill:#67C787;" d="M433.053,342.402l20.994-42.751l-0.006,0.001c-11.383,2.897-23.882,5.512-37.371,7.501
	l-22.724,44.427C407.219,349.916,420.33,346.859,433.053,342.402z"/>
<path d="M508.678,276.73c-2.076-1.393-4.709-1.658-7.023-0.711c-27.845,11.419-56.806,19.397-86.077,23.714
	c-9.746,1.438-19.107,2.395-28.174,2.968l3.867-45.732c0.476-5.628-1.778-10.924-5.745-14.491l2.839-8.252
	c2.727-7.927-1.759-16.873-9.758-19.405l-14.681-4.647c-7.883-2.494-16.393,1.876-18.966,9.746l-3.402,10.409
	c-5.54,0.909-10.477,4.464-12.991,9.837l-26.961,57.617c-12.1-1.885-24.102-4.077-36.276-6.302l-3.402-0.622
	c-4.073-0.741-7.981,1.956-8.725,6.031c-0.744,4.074,1.956,7.98,6.031,8.725l3.399,0.621c37.294,6.818,73.009,13.335,114.991,11.966
	c0.305,0.065,0.614,0.118,0.933,0.145c0.931,0.078,1.853-0.017,2.766-0.284c7.193-0.312,14.578-0.862,22.185-1.679l-14.467,28.19
	c-16.208,1.67-32.632,1.199-48.763-1.503l-101.177-16.943c-50.523-9.148-102.072-14.704-153.212-16.515
	c-23.464-0.832-47.239-0.876-70.778-0.154c-0.064-0.9-0.107-1.805-0.107-2.721v-7.077c0-5.553,4.444-8.897,9.588-9.213
	c69.924-4.024,138.278-0.769,203.167,9.674c4.095,0.666,7.938-2.123,8.597-6.213c1.722-10.7-15.428-10.052-21.976-10.983
	c-11.674-1.66-23.383-3.081-35.114-4.278c2.456-29.434,17.815-56.686,41.984-73.903l4.76-3.391c0.038-0.027,0.071-0.059,0.108-0.086
	c0.122-0.09,0.238-0.185,0.353-0.281c5.505-4.343,6.115-12.722,1.259-17.803l-26.779-28.017c-3.234-3.38-8.077-4.567-12.485-3.108
	c-0.075,0.022-0.149,0.052-0.224,0.077c-0.106,0.037-0.214,0.069-0.319,0.109l-22.134,8.504
	c-21.927,8.422-44.978,12.595-68.429,12.366c-4.069,0-7.531,3.32-7.569,7.431c-0.039,4.142,3.289,7.531,7.43,7.569
	c14.977,0.15,29.764-1.373,44.237-4.503l-6.551,4.457c-3.428,2.332-5.59,6.041-5.931,10.177c-0.341,4.137,1.185,8.151,4.186,11.016
	l23.915,22.816c4.436,4.229,11.388,4.953,16.596,1.725l4.777-2.96c-7.842,14.191-12.726,30.006-14.117,46.417
	c-19.74-1.69-39.718-2.77-59.892-3.223c-3.225-34.426-28.879-63.027-63.377-69.417l-1.315-0.244v-23.755l23.292,4.246
	c4.072,0.744,7.98-1.958,8.724-6.033c0.743-4.074-1.958-7.98-6.033-8.723l-25.241-4.603c-3.901-0.708-7.889,0.341-10.938,2.883
	c-3.053,2.547-4.804,6.289-4.804,10.268v27.073c0,6.444,4.593,11.972,10.921,13.143l2.662,0.494
	c27.308,5.059,47.746,27.363,50.995,54.44c-21.612-0.153-43.43,0.395-65.399,1.654C10.71,275.585,0,286.393,0,299.658v7.077
	c0,4.142,0.49,8.169,1.388,12.042c0.021,0.093,0.04,0.186,0.064,0.278c5.126,21.572,26.908,42.497,50.414,40.842
	c5.079-0.358,10.098-3.454,8.437-9.467c-1.739-6.294-8.202-5.197-13.214-5.996c-11.836-1.887-22.259-9.468-27.788-20.099
	c21.988-0.597,44.159-0.51,66.054,0.266c27.128,0.96,54.371,3,81.511,6.074c-7.522,1.84-14.941,4.098-22.201,6.784l-15.175,5.614
	c-3.317,1.229-6.793,1.851-10.329,1.851h-32.1c-9.652,0-9.668,15,0,15h32.101c5.319,0,10.545-0.937,15.535-2.782l15.175-5.614
	c27.603-10.213,57.637-13.872,86.878-10.588l101.048,16.924c18.74,3.139,37.931,3.523,56.786,1.191
	c0.147-0.014,0.293-0.028,0.438-0.051c13.831-1.742,27.486-4.942,40.689-9.582l57.808-20.312
	C504.573,325.225,512,314.729,512,302.992v-20.034C512,280.458,510.754,278.122,508.678,276.73z M166.665,220.493l-21.961-20.953
	l47.212-32.115l22.465,23.502L166.665,220.493z M359.398,224.474l14.681,4.647c0.027,0.008,0.061,0.019,0.092,0.08
	c0.035,0.07,0.02,0.115,0.01,0.145l-2.558,7.434l-15.072-4.041l2.667-8.159C359.248,224.486,359.333,224.454,359.398,224.474z
	 M317.128,299.999l25.024-53.476c0.51-1.09,1.716-1.655,2.868-1.346l29.477,7.903c1.161,0.312,1.93,1.415,1.828,2.625L372.3,303.31
	C352.913,303.648,334.793,302.27,317.128,299.999z M421.598,313.981c6.288-0.994,12.559-2.153,18.807-3.469l-12.542,25.716
	c-6.734,2.24-13.583,4.085-20.515,5.52L421.598,313.981z M497,302.992c0,5.38-3.398,10.188-8.455,11.965l-40.571,14.255
	l11.305-23.179c12.723-3.363,25.319-7.386,37.721-12.064V302.992z"/>
<g>
</g>
<g>
</g>
<g>
</g>
<g>
</g>
<g>
</g>
<g>
</g>
<g>
</g>
<g>
</g>
<g>
</g>
<g>
</g>
<g>
</g>
<g>
</g>
<g>
</g>
<g>
</g>
<g>
</g>
</svg>
