<?xml version="1.0" encoding="iso-8859-1"?>
<!-- Generator: Adobe Illustrator 19.0.0, SVG Export Plug-In . SVG Version: 6.00 Build 0)  -->
<svg version="1.1" id="Capa_1" xmlns="http://www.w3.org/2000/svg" xmlns:xlink="http://www.w3.org/1999/xlink" x="0px" y="0px"
	 viewBox="0 0 511.999 511.999" style="enable-background:new 0 0 511.999 511.999;" xml:space="preserve">
<path style="fill:#631638;" d="M118.002,166.674c-8.667,7.565-17.855,14.836-25.672,23.3c-13.798,14.942-23.52,33.488-27.992,53.327
	c-4.461,19.786-3.658,40.658,2.349,60.034c3.887,12.538,11.22,23.356,15.634,35.588c5.679,15.738-5.482,27.636-13.663,39.683
	c-7.943,11.694-6.306,21.885,0.845,33.103c6.837,10.725,13.674,21.451,20.511,32.175c5.716,8.967,10.468,19.961,22.401,21.16
	c5.571,0.559,11.391,0.074,16.982,0.074c5.782,0,12.328,1.296,13.726-5.948c2.817-14.594-1.454-31.997-19.008-31.573
	c-3.431,0-6.466,2.231-7.489,5.507c-3.536-5.874-7.073-11.749-10.609-17.623c-3.833-6.368-9.216-12.211-4.576-19.593
	c6.479-10.307,16.254-8.108,26.646-11.372c12.488-3.922,24.064-11.457,31.724-22.151c5.997,4.084,16.009,11.405,26.841,22.203
	c22.666,22.594,26.873,38.43,49.036,58.863c21.108,19.277,46.154,21.687,72.943,21.687c27.352,0,54.705,0,82.057,0
	c27.834,0,55.666,0,83.5,0c6.588,0,13.391,0.492,19.966,0c13.314-0.996,12.111-19.701,8.403-29.238
	c-9.229-23.74-38.464-16.244-58.308-19.141c-23.957-3.498-47.087-12.244-67.368-25.466c-27.256-17.769-46.552-44.259-67.15-68.897
	c-2.515-3.009-5.237-7.72-9.751-7.177c-10.46,1.258-9.479,22.805-7.881,29.698c2.935,12.673,12.862,22.545,16.557,34.807
	c2.979,9.886-4.989,16.716-14.185,16.788c-11.161,0.089-22.472-3.47-31.815-9.5c-11.758-7.589-18.779-18.58-24.456-30.955
	c-26.311-57.353-48.566-119.657-93.496-165.487C136.335,182.015,127.408,174.046,118.002,166.674z"/>
<g>
	<path style="fill:#511331;" d="M307.824,377.752c3.083,5.892,1.069,12.628-3.694,16.192c6.133,1.857,12.624,2.742,19.259,2.513l0,0
		c9.406-0.325,15.247-10.363,10.883-18.705l-12.277-23.472c-3.64-6.959-5.071-14.741-4.281-22.354l-12.196-14.588
		c-2.903-3.473-8.419-2.809-10.416,1.253l0,0c-5.55,11.286-5.385,24.544,0.445,35.689L307.824,377.752z"/>
	<path style="fill:#511331;" d="M124.608,456.664l-31.924-50.081c-4.913-7.708-4.732-17.611,0.461-25.134l12.561-18.197
		c5.444-7.887,6.227-18.093,2.049-26.718l-8.177-16.884c-22.875-47.233-11.318-103.937,28.218-138.44l3.708-3.235
		c-4.373-3.901-8.867-7.679-13.5-11.3l0,0l-16.656,14.536c-39.535,34.503-51.093,91.208-28.218,138.44l8.177,16.884
		c4.177,8.625,3.394,18.832-2.049,26.718L66.696,381.45c-5.193,7.523-5.374,17.425-0.461,25.134l31.924,50.081
		c3.357,5.266,9.169,8.455,15.414,8.455h23.717c0.341,0,0.673-0.035,0.998-0.092C132.715,464.497,127.652,461.439,124.608,456.664z"
		/>
	<path style="fill:#511331;" d="M213.101,384.57c-10.827-10.792-23.166-21.883-38.05-10.633
		c23.986,20.215,37.808,48.449,60.637,69.496c15.151,13.946,34.988,21.687,55.577,21.687h26.45
		c-20.589,0-40.426-7.741-55.577-21.687C239.974,422.999,235.767,407.164,213.101,384.57z"/>
</g>
<path d="M501.176,420.502c-12.939-12.392-29.412-8.777-45.661-10.111c-17.798-1.462-35.363-5.88-51.705-13.093
	c-22.385-9.881-42.513-25.027-58.21-43.802l-34.28-41.006c-3.011-3.601-7.59-5.415-12.25-4.856c-4.66,0.56-8.679,3.41-10.752,7.623
	c-6.589,13.4-6.39,29.298,0.53,42.529l0.438,0.837c-3.975,5.201-8.23,10.189-12.767,14.935c-2.66,2.783-5.409,5.461-8.226,8.053
	c-8.827-5.264-16.077-13.146-20.57-22.942l-43.385-94.573c-1.741-3.796-6.23-5.46-10.024-3.719
	c-3.795,1.741-5.461,6.229-3.719,10.023l43.385,94.573c5.049,11.008,12.795,20.153,22.23,26.828
	c-11.192,8.601-23.4,15.846-36.505,21.68c-0.975-1.353-1.945-2.712-2.92-4.082c-14.726-20.676-31.628-38.915-52.718-53.281
	c-3.372-2.295-7.956-1.505-10.361,1.788l-1.279,1.751c-6.054,8.287-15.905,14.095-25.491,17.325
	c-9.261,3.121-20.871,0.776-27.586,9.329l-4.164,5.301c-4.187,5.331-4.651,12.814-1.155,18.62l16.116,26.773
	c1.535,2.549,4.421,3.963,7.379,3.607c2.956-0.355,5.427-2.41,6.316-5.251c0.038-0.121,0.147-0.203,0.273-0.203h2.935
	c4.694,0,8.511,3.821,8.511,8.517v13.882h-21.989c-3.68,0-7.059-1.854-9.038-4.958l-31.923-50.081
	c-3.287-5.157-3.167-11.742,0.307-16.776l12.561-18.197c6.977-10.108,7.985-23.254,2.631-34.307l-8.177-16.886
	C58.6,272.312,69.45,219.081,106.315,186.906l11.895-10.38c22.574,18.513,41.774,40.483,57.137,65.386
	c2.193,3.554,6.85,4.66,10.404,2.465c17.815-10.985-51.695-74.626-61.75-82.586c-6.3-12.676-14.52-23.986-24.496-33.606
	c-3.324-3.207-8.834-8.519-15.753-13.857c1.583-11.425,3.599-22.303,11.446-33.035c6.471-8.849,15.58-15.271,25.452-19.83
	c5.645-2.607,11.547-4.597,17.556-6.175c5.097-1.34,11.441-3.245,9.876-10.09c-0.93-4.07-4.986-6.62-9.054-5.687
	c-25.501,5.828-44.354,16.882-56.034,32.856c-8.095,11.069-11.28,22.257-13.118,32.741c-12.55-6.938-27.242-11.087-41.431-5.339
	c-17.728,7.183-33.1,30.707-27.138,51.436c0.957,3.329,4.963,14.621,16.327,20.19c4.19,2.053,8.721,2.953,13.35,2.953
	c11.756-0.001,24.127-5.803,33.021-13.233c10.46-8.737,14.707-18.916,17.003-29.371c2.603,2.248,5.27,4.69,8.001,7.325
	c7.761,7.485,14.317,16.149,19.564,25.797l-12.199,10.648c-41.987,36.644-54.345,97.269-30.051,147.431l8.177,16.886
	c2.985,6.162,2.422,13.492-1.467,19.127l-12.561,18.197c-6.937,10.05-7.177,23.198-0.613,33.494l31.924,50.082
	c4.771,7.483,12.916,11.95,21.788,11.95h23.717c7.385,0,13.393-6.009,13.393-13.394v-15.609c0-13.034-10.602-23.638-23.632-23.638
	h-2.935c-2.056,0-4.033,0.4-5.846,1.139l-11.282-18.743c-0.278-0.462-0.241-1.057,0.092-1.481l4.138-5.27
	c0.401-0.441,1.671-1.057,2.223-1.1c16.327,0,36.279-9.341,47.827-21.911c14.435,10.688,27.027,23.482,37.716,37.895
	c9.964,13.435,19.201,27.01,31.586,38.428c16.593,15.272,38.149,23.684,60.697,23.684H399.15c9.73,0,9.746-15.121,0-15.121H291.265
	c-18.744,0-36.663-6.993-50.453-19.685c-4.543-4.189-8.293-8.184-11.618-12.105c15.005-7.013,28.887-15.777,41.502-26.196
	c8.27,3.193,17.252,4.767,26.505,4.44c7.029-0.241,13.338-4.015,16.877-10.095c3.54-6.081,3.707-13.434,0.445-19.67l-7.495-14.328
	c3.698-5.378,7.126-10.948,10.276-16.695l16.694,19.969c34.692,41.497,87.989,65.04,142.045,62.7
	c5.486-0.231,10.703,1.726,14.673,5.528c3.974,3.805,6.162,8.931,6.162,14.435v9.995c0,0.941-0.763,1.705-1.702,1.705h-64.676
	c-9.73,0-9.746,15.121,0,15.121h64.676c9.276,0,16.823-7.547,16.823-16.826v-9.995C512,436.192,508.157,427.187,501.176,420.502z
	 M54.311,149.512c-6.982,5.832-20.74,12.854-30.023,8.307c-6.048-2.964-8.221-9.998-8.449-10.791
	c-3.297-11.461,5.93-28.238,18.283-33.243c11.34-4.595,23.96,1.476,33.386,7.645C65.828,132.7,63.431,141.896,54.311,149.512z
	 M301.125,381.257c1.208,2.309,0.323,4.303-0.115,5.053c-0.436,0.749-1.731,2.501-4.331,2.591c-4.403,0.148-8.725-0.263-12.891-1.17
	c1.234-1.225,2.456-2.465,3.66-3.725c3.306-3.46,6.472-7.039,9.505-10.724L301.125,381.257z M299.565,343.654
	c-1.616-6.567-1.132-13.555,1.484-19.873l5.768,6.9C304.573,335.115,302.154,339.441,299.565,343.654z"/>
<g>
</g>
<g>
</g>
<g>
</g>
<g>
</g>
<g>
</g>
<g>
</g>
<g>
</g>
<g>
</g>
<g>
</g>
<g>
</g>
<g>
</g>
<g>
</g>
<g>
</g>
<g>
</g>
<g>
</g>
</svg>
