<?xml version="1.0" encoding="iso-8859-1"?>
<!-- Generator: Adobe Illustrator 19.0.0, SVG Export Plug-In . SVG Version: 6.00 Build 0)  -->
<svg version="1.1" id="Capa_1" xmlns="http://www.w3.org/2000/svg" xmlns:xlink="http://www.w3.org/1999/xlink" x="0px" y="0px"
	 viewBox="0 0 512.002 512.002" style="enable-background:new 0 0 512.002 512.002;" xml:space="preserve">
<path style="fill:#DB4D4D;" d="M293.599,199.421l5.334,5.972c20.681,23.156,4.245,59.872-26.802,59.872h-55.788
	c-69.641,0-136.99-24.882-189.904-70.159l0,0C6.587,232.542,2.184,277.164,14.33,317.759h125.598l186.929,21.153
	c65.014,7.358,150.776-12.33,174.087-82.184L295.3,196.725C293.7,196.259,292.489,198.179,293.599,199.421z"/>
<path style="fill:#C14646;" d="M47.34,253.766c1.524-14.123,4.737-26.427,8.357-36.665c-10.154-6.687-19.934-14.018-29.258-21.996
	l0,0C6.587,232.542,2.184,277.164,14.33,317.759h38.899C49.284,304.575,44.307,281.859,47.34,253.766z"/>
<path style="fill:#EDD7C0;" d="M130.487,341.757c-23.264,0-46.527,0-69.791,0c-11.418,0-22.872,0.271-34.287,0
	c-14.115-0.336-12.079-13.267-12.079-23.998h125.598C139.927,325.618,142.669,341.757,130.487,341.757z"/>
<path style="fill:#E0C1A6;" d="M53.326,332.316v-14.557H14.33v14.557c0,5.214,4.227,9.44,9.441,9.44h38.996
	C57.553,341.757,53.326,337.53,53.326,332.316z"/>
<path style="fill:#EDD7C0;" d="M427.065,293.762c25.45-13.357,42.968-30.326,53.89-42.925L295.3,196.725
	c-1.6-0.466-2.81,1.454-1.701,2.696l5.334,5.972c20.681,23.156,4.245,59.872-26.802,59.872h-55.788
	C272.095,319.361,358.639,329.673,427.065,293.762z"/>
<path d="M504.233,220.061c-15.683-15.709-43.423-5.479-45.24,16.563l-161.595-47.1c-0.887-0.258-1.782-0.372-2.663-0.366
	c-2.114-1.537-3.3-3.448-3.418-4.994c-0.108-1.423,0.494-4.053,2.598-5.467c1.891-1.272,4.14-0.962,4.785-0.834
	c4.067,0.796,8.005-1.857,8.799-5.924c0.794-4.064-1.857-8.004-5.923-8.799c-2.658-0.518-9.542-1.255-16.032,3.109
	c-7.466,5.021-9.614,13.4-9.184,19.052c0.496,6.514,4.247,12.307,9.902,16.249c0.392,1.027,0.97,2.001,1.744,2.866l5.334,5.974
	c16.074,17.997,2.872,47.376-21.208,47.376h-55.788c-67.8,0-133.511-24.277-185.028-68.357c-1.73-1.481-4.042-2.098-6.275-1.67
	c-2.237,0.425-4.16,1.843-5.227,3.854c-6.357,11.989-11.273,24.744-14.611,37.911c-1.018,4.016,1.412,8.095,5.427,9.113
	c6.928,1.749,8.873-4.813,10.329-9.911c2.126-7.443,4.8-14.723,8.01-21.768c52.266,41.888,117.257,65.116,184.351,65.795
	c17.309,16.286,36.914,28.846,58.33,37.334c40.259,15.955,85.016,15.937,126.199,3.43c3.963-1.204,6.2-5.394,4.997-9.356
	c-1.204-3.965-5.396-6.196-9.356-4.997c-28.07,8.526-71.036,14.924-116.313-3.021c-14.551-5.767-28.201-13.599-40.775-23.356h35.73
	c31.971,0,53.73-35.29,38.423-63.783l156.667,45.663c-12.957,13.151-27.591,24.052-43.64,32.476
	c-3.668,1.925-5.081,6.458-3.156,10.126c1.884,3.59,6.538,5.039,10.126,3.155c19.747-10.365,37.509-24.159,52.858-41.039
	l7.641,2.227c-2.781,6.396-6.762,13.548-12.384,20.819c-18.617,24.076-47.264,39.871-85.145,46.945
	c-21.134,3.945-43.278,4.655-65.821,2.105l-186.929-21.154c-0.009-0.001-0.018,0-0.026-0.001c-0.269-0.029-0.541-0.046-0.817-0.046
	H20.017c-4.467-17.109-5.962-34.69-4.444-52.343c0.354-4.127-2.703-7.76-6.83-8.115c-4.128-0.353-7.76,2.703-8.115,6.83
	c-1.806,21.009,0.286,41.921,6.202,62.18v13.506c0,9.341,7.6,16.94,16.941,16.94h57.662c9.652,0,9.668-15,0-15H23.771
	c-1.07,0-1.941-0.87-1.941-1.94v-7.058h110.598v7.058c0,1.07-0.871,1.94-1.94,1.94h-17.691c-9.652,0-9.668,15,0,15h17.691
	c9.341,0,16.94-7.6,16.94-16.94v-6.161l178.586,20.21c23.365,2.645,47.131,2.056,70.262-2.266
	c51.825-9.68,79.863-33.9,94.257-52.514c16.937-21.901,21.464-43.451,21.469-52.732
	C512.004,231.756,509.246,225.082,504.233,220.061z M473.894,240.967v-2.145c0-10.039,12.584-15.315,19.723-8.163
	c2.184,2.187,3.385,5.094,3.383,8.186c-0.001,1.708-0.318,4.666-1.197,8.508L473.894,240.967z"/>
<g>
</g>
<g>
</g>
<g>
</g>
<g>
</g>
<g>
</g>
<g>
</g>
<g>
</g>
<g>
</g>
<g>
</g>
<g>
</g>
<g>
</g>
<g>
</g>
<g>
</g>
<g>
</g>
<g>
</g>
</svg>
