<?xml version="1.0" encoding="iso-8859-1"?>
<!-- Generator: Adobe Illustrator 19.0.0, SVG Export Plug-In . SVG Version: 6.00 Build 0)  -->
<svg version="1.1" id="Capa_1" xmlns="http://www.w3.org/2000/svg" xmlns:xlink="http://www.w3.org/1999/xlink" x="0px" y="0px"
	 viewBox="0 0 512 512" style="enable-background:new 0 0 512 512;" xml:space="preserve">
<path style="fill:#253551;" d="M409.823,256.82c-4.151,0-7.516-3.365-7.516-7.517v-51.977c0-9.674,15.032-9.69,15.032,0v51.977
	C417.339,253.455,413.974,256.82,409.823,256.82z"/>
<path style="fill:#EDD7C0;" d="M489.765,279.16H161.95h-10.654c-21.019,0-42.038,0-63.057,0c-20.882,0-42.206,1.275-63.057,0
	c-10.293-0.63-17.119-7.858-17.682-18.032c-0.252-4.56-1.135-10.501,4.213-11.825c2.146-0.531,5.099,0,7.288,0
	c14.726,0,29.451,0,44.177,0c54.364,0,108.728,0,163.092,0c59.713,0,119.425,0,179.138,0c32.544,0,65.088,0,97.632,0
	c0.486,0,0.973,0,1.459,0C504.5,260.704,506.514,279.16,489.765,279.16z"/>
<g>
	<path style="fill:#E0C1A6;" d="M54.599,261.474v-8.079c0-2.261,1.832-4.093,4.092-4.093H11.592c-2.26,0-4.092,1.833-4.092,4.093
		v8.079c0,9.767,7.917,17.685,17.682,17.685h47.099C62.516,279.159,54.599,271.242,54.599,261.474z"/>
	<rect x="100.67" y="279.16" style="fill:#E0C1A6;" width="68.84" height="67.857"/>
	<rect x="260.31" y="279.16" style="fill:#E0C1A6;" width="68.84" height="67.857"/>
</g>
<g>
	<path style="fill:#CCAA93;" d="M149.291,294.194h20.223V279.16h-68.84v67.857h17.036c0-8.427-0.874-17.338,0.314-25.706
		C120.202,305.957,133.792,294.194,149.291,294.194z"/>
	<path style="fill:#CCAA93;" d="M308.93,294.194h20.223V279.16h-68.84v67.857h17.036c0-8.427-0.874-17.338,0.314-25.706
		C279.842,305.957,293.432,294.194,308.93,294.194z"/>
</g>
<path style="fill:#333F61;" d="M183.849,249.302c13.417-22.498,36.754-36.496,62.696-38.802c9.611-0.854,19.247-1.485,28.866-2.227
	c37.327-2.88,74.653-5.759,111.98-8.638c9.983-0.77,19.965-1.54,29.948-2.31c0-13.67-3.337-27.123-18.308-31.387
	c-5.172-1.473-10.396-0.761-15.642-0.35c-18.837,1.474-37.674,2.947-56.511,4.421c-22.16,1.733-44.32,3.467-66.479,5.2
	c-15.03,1.176-30.39,1.637-45.022,5.525c-36.837,9.789-63.223,35.368-80.283,68.569"/>
<path d="M504.5,241.802h-79.661v-44.478v-7.119c0-9.095-3.829-17.852-10.505-24.026c-6.675-6.173-15.701-9.302-24.766-8.599
	l-84.334,6.598c-9.623,0.753-8.467,15.703,1.17,14.955l84.334-6.598c4.98-0.397,9.743,1.264,13.412,4.656
	c3.669,3.394,5.69,8.016,5.69,13.014v0.176l-164.306,12.676c-26.796,2.066-51.089,16.452-65.826,38.745h-32.196
	c8.785-15.435,21.121-28.701,35.927-38.554c16.152-10.747,34.912-17.228,54.253-18.74l34.883-2.729
	c4.129-0.323,7.215-3.933,6.892-8.063s-3.943-7.222-8.062-6.893l-34.883,2.729c-44.187,3.456-84.416,30.235-104.669,69.648
	l-1.336,2.601H11.592C5.2,241.802,0,247.002,0,253.395v8.079c0,13.888,11.297,25.186,25.182,25.186h67.992v14.253
	c0,9.652,15,9.668,15,0V286.66h53.84v52.857h-53.84v-6.346c0-9.652-15-9.668-15,0v13.846c0,4.143,3.358,7.5,7.5,7.5h68.84
	c4.142,0,7.5-3.357,7.5-7.5V286.66h75.8v60.357c0,4.143,3.358,7.5,7.5,7.5h68.84c4.142,0,7.5-3.357,7.5-7.5V286.66h92.042
	c9.652,0,9.668-15,0-15h-99.542h-68.84h-90.8h-68.84H25.182c-5.614,0-10.182-4.57-10.182-10.186v-4.672h120.054
	c0.021,0.003,0.041,0.003,0.062,0h48.71c0.01,0.001,0.02,0.001,0.03,0H497v7.62c0,3.99-3.246,7.237-7.235,7.237h-27.292
	c-9.652,0-9.668,15,0,15h27.292c12.26,0,22.235-9.976,22.235-22.237v-15.12C512,245.16,508.642,241.802,504.5,241.802z
	 M321.654,286.66v52.857h-53.84V286.66H321.654z M246.687,218.012l163.152-12.587v36.377H198.598
	C210.846,228.108,228.033,219.451,246.687,218.012z"/>
<g>
</g>
<g>
</g>
<g>
</g>
<g>
</g>
<g>
</g>
<g>
</g>
<g>
</g>
<g>
</g>
<g>
</g>
<g>
</g>
<g>
</g>
<g>
</g>
<g>
</g>
<g>
</g>
<g>
</g>
</svg>
