<?xml version="1.0" encoding="iso-8859-1"?>
<!-- Generator: Adobe Illustrator 19.0.0, SVG Export Plug-In . SVG Version: 6.00 Build 0)  -->
<svg version="1.1" id="Capa_1" xmlns="http://www.w3.org/2000/svg" xmlns:xlink="http://www.w3.org/1999/xlink" x="0px" y="0px"
	 viewBox="0 0 512 512" style="enable-background:new 0 0 512 512;" xml:space="preserve">
<polygon style="fill:#7FDECF;" points="350.232,329.034 382.446,365.374 414.66,329.034 "/>
<polygon style="fill:#24BFB2;" points="368.728,329.034 382.446,365.374 396.164,329.034 "/>
<polygon style="fill:#23AF9E;" points="414.66,329.034 350.232,329.034 360.244,302.898 404.212,302.898 "/>
<polygon style="fill:#7FDECF;" points="396.164,329.034 368.728,329.034 372.992,302.898 391.715,302.898 "/>
<path style="fill:#EF9067;" d="M8.159,188.269l7.946,14.568c24.816,40.142,37.146,86.299,37.21,133.369
	c0.034,25.538,0,51.076,0,76.613c0,9.109,0,18.218,0,27.326c0,1.838,1.49,3.328,3.327,3.328c3.582,0,20.296,2.406,20.296-3.328
	V282.054c0-11.53,8.391-22.426,19.014-26.903c-2.163-7.645-13.3-25.272-35.302-42.59C37.558,194.385,15.927,188.375,8.159,188.269z"
	/>
<path style="fill:#E07F65;" d="M62.375,440.145V333.796c0-12.958-1.013-25.919-3.028-38.719c-1.555-9.88-6.159-21.008-3.82-31.03
	c3.876-16.606,22.002-24.541,37.131-17.694c-7.659-17.114-26.997-31.129-42.135-41.091c-11.853-7.8-27.656-16.792-42.365-16.994
	l7.946,14.568c24.325,39.348,37.21,84.696,37.21,130.959c0,21.065,0,42.13,0,63.195c0,12.012,0,24.025,0,36.037
	c0,1.952-0.646,5.114,0,6.977c1.75,5.048,7.797,3.468,12.387,3.468C63.865,443.473,62.375,441.983,62.375,440.145z"/>
<path style="fill:#ED88A3;" d="M112.366,285.926c-0.013,0.072-0.026,0.148-0.039,0.22c9.305,20.215,18.632,40.42,27.989,60.611
	c11.08,23.909,20.606,52.708,38.821,72.295c17.548,18.869,42.696,29.791,68.46,29.791c54.034,0,108.068,0,162.102,0
	c25.204,0,50.435,0.349,75.637,0c1.306-0.018,2.721,0.168,4.02,0c12.029-1.552,17.287-21.987,13.81-31.976
	c-4.469-12.839-17.478-15.744-28.788-19.857c-29.557-10.751-59.113-21.501-88.67-32.252c-2.011-0.732-4.202-0.815-6.264-0.236
	l-35.849,10.052c-10.188,2.857-20.489,4.308-30.676,4.452c-27.118-0.041-54.922-7.524-73.324-28.199
	c-21.23-23.852-34.562-54.804-47.964-83.409c-18.107-38.646-35.63-77.58-56.549-114.822c-11.15-19.852-23.222-39.172-36.373-57.762
	c-5.265-7.441-10.69-14.769-16.278-21.971c-1.528-1.97-4.76-8.043-7.067-8.933c-4.438-1.711-5.672,4.605-7.446,8.026
	c-2.664,5.14-4.83,7.376-1.985,12.328c1.969,3.427,4.686,6.575,6.875,9.879c4.627,6.984,8.919,14.19,12.861,21.582
	c11.108,20.832,19.403,43.149,24.557,66.19c3.149,14.078,5.126,28.411,5.916,42.815c0.334,6.094,0.457,12.197,0.367,18.299
	c-0.025,1.691-1.41,14.286-5.564,7.517"/>
<g>
	<path style="fill:#E87490;" d="M112.366,285.926c-0.013,0.072-0.026,0.148-0.039,0.221c9.305,20.215,18.632,40.42,27.989,60.611
		c11.08,23.909,20.606,52.708,38.821,72.295c17.548,18.869,42.696,29.791,68.46,29.791h241.759l0,0H269.409
		c-22.051,0-43.753-7.968-60.563-22.239c-13.409-11.383-21.455-25.789-28.807-41.403c-9.394-19.951-18.825-39.907-27.89-60.011
		c-10.919-24.217-14.985-49.606-13.985-76.037c0.725-19.134-0.492-42.035-6.126-67.219c-4.894-21.876-12.619-43.1-22.897-63.02
		c-3.94-7.637-8.251-15.081-12.917-22.298c-2.545-3.937-12.027-13.625-9.72-18.439c-1.87-2.466-9.055-14.893-12.306-14.974
		c-2.9-0.072-10.179,13.546-10.258,16.425c-0.107,3.905,4.686,8.361,6.831,11.505c2.922,4.281,5.717,8.648,8.381,13.093
		c14.406,24.037,24.955,50.357,31.073,77.707c3.15,14.081,5.127,28.417,5.917,42.823c0.334,6.095,0.456,12.199,0.366,18.302
		c-0.025,1.686-1.407,14.279-5.557,7.516"/>
	<path style="fill:#E87490;" d="M334.73,379.026c10.187-0.145,87.29,5.502,97.478,2.646l-46.5-16.914
		c-2.011-0.732-4.202-0.815-6.264-0.236l-35.849,10.052c-6.677,1.872-13.402,3.129-20.112,3.822
		C330.354,379.08,334.73,379.026,334.73,379.026z"/>
</g>
<path d="M391.737,441.344h-144.14c-32.479,0-61.833-17.954-76.607-46.854c-5.85-11.441-11.608-23.143-17.116-34.781
	c-8.463-17.879-14.992-32.746-20.752-45.863c-4.746-10.808-8.89-20.24-12.999-28.824c6.006-34.949,5.153-70.168-2.577-104.724
	c-8.019-35.848-23.687-70.42-45.394-100.214l2.556-4.929c39.158,49.961,68.324,105.996,95.175,163.264
	c1.759,3.75,6.222,5.365,9.976,3.606c3.75-1.758,5.364-6.224,3.606-9.975c-16.051-34.229-37.509-78.294-61.181-115.54
	c-12.648-19.9-26.471-39.175-41.083-57.29c-2.038-2.527-5.18-3.84-8.414-3.517c-3.231,0.325-6.055,2.242-7.551,5.127L57.28,76.18
	c-1.681,3.245-1.351,7.231,0.838,10.147c21.494,28.716,36.982,62.343,44.789,97.244c5.82,26.016,7.504,52.431,5.082,78.8
	c-5.34-8.703-11.374-16.913-19.015-25.465c-20.582-23.036-47.008-41.505-78.543-54.895c-3.81-1.617-8.215,0.159-9.835,3.972
	c-0.97,2.284-0.713,4.776,0.462,6.759c0.023,0.041,0.035,0.074,0.061,0.116l8.606,13.921
	c23.609,38.191,36.089,82.112,36.089,127.016v23.349c0,9.652,15,9.668,15,0v-23.349c0-44.579-11.584-88.246-33.575-126.884
	c19.629,10.967,36.577,24.351,50.548,39.989c1.981,2.218,3.844,4.419,5.617,6.621c-8.681,6.74-13.967,17.171-13.967,28.532v153.919
	h-8.624v-49.561c0-9.652-15-9.668-15,0v53.732c0,5.971,4.857,10.828,10.827,10.828h16.97c5.97,0,10.827-4.857,10.827-10.828V282.054
	c0-6.491,2.944-12.467,7.81-16.417c9.924,15.049,17.141,31.472,27.139,54.239c12.066,27.474,24.584,54.719,38.247,81.441
	c17.351,33.941,51.823,55.026,89.963,55.026h144.14C401.388,456.344,401.404,441.344,391.737,441.344z"/>
<path d="M510.308,414.573c-3.095-9.053-10.022-16.119-19.006-19.387l-94.285-34.295l24.388-27.511
	c0.004-0.005,0.006-0.009,0.01-0.014c0.21-0.238,0.407-0.489,0.588-0.756c1.396-2.061,1.678-4.679,0.754-6.989l-10.447-26.136
	c-1.138-2.848-3.896-4.716-6.964-4.716h-43.968c-3.106,0-5.893,1.916-7.004,4.817l-10.013,26.136
	c-0.883,2.306-0.575,4.899,0.824,6.933c0.175,0.255,0.365,0.497,0.568,0.726l23.287,26.27l-27.469,7.703
	c-9.389,2.633-19.064,4.037-28.748,4.174c-0.24,0.009-23.614,0.193-46.36-9.311c-25.561-10.68-46.354-51.582-68.96-99.944
	c-1.754-3.753-6.221-5.373-9.97-3.619c-3.753,1.754-5.373,6.218-3.618,9.97c14.59,31.214,29.128,65.871,53.549,90.904
	c19.199,19.681,48.596,27.288,75.562,26.998c10.99-0.156,21.957-1.747,32.595-4.729l35.524-9.962
	c1.022,0.355,2.057,0.48,3.104,0.375l101.926,37.074c4.697,1.708,8.319,5.405,9.938,10.142c1.589,4.647,1.009,9.674-1.591,13.791
	c-1.15,1.821-2.111,3.59-2.959,5.15c-0.475,0.873-0.931,1.714-1.394,2.507c-0.172,0.295-0.477,0.471-0.814,0.471h-62.652
	c-9.652,0-9.668,15,0,15h62.652c5.646,0,10.921-3.031,13.77-7.91c0.536-0.918,1.067-1.893,1.617-2.904
	c0.774-1.425,1.575-2.898,2.464-4.306C512.241,433.25,513.371,423.536,510.308,414.573z M368.035,335.905h31.086l-15.543,17.534
	L368.035,335.905z M366.535,309.768h33.73l4.451,11.136h-42.448L366.535,309.768z"/>
<g>
</g>
<g>
</g>
<g>
</g>
<g>
</g>
<g>
</g>
<g>
</g>
<g>
</g>
<g>
</g>
<g>
</g>
<g>
</g>
<g>
</g>
<g>
</g>
<g>
</g>
<g>
</g>
<g>
</g>
</svg>
