<?xml version="1.0" encoding="iso-8859-1"?>
<!-- Generator: Adobe Illustrator 19.0.0, SVG Export Plug-In . SVG Version: 6.00 Build 0)  -->
<svg version="1.1" id="Capa_1" xmlns="http://www.w3.org/2000/svg" xmlns:xlink="http://www.w3.org/1999/xlink" x="0px" y="0px"
	 viewBox="0 0 511.998 511.998" style="enable-background:new 0 0 511.998 511.998;" xml:space="preserve">
<path style="fill:#485878;" d="M504.5,328.012c0-2.808,0-5.617,0-8.425c0-25.602-32.788-24.728-50.805-27.471
	c-68.194-10.384-132.341-38.938-185.716-82.668c-10.74-8.799-21.481-17.598-32.221-26.399c-6.228-5.103-12.456-10.205-18.685-15.308
	c-4.104-3.362-12.513-9.725-14.969-0.41c-2.113,8.013-4.226,16.027-6.339,24.041c-1.644,6.237-2.342,14.404-9.695,16.451
	c-52.936,14.729-114.526,13.086-163.816-12.783C9.554,232.392,4.951,272.392,8.832,311.652v14.159l494.533,9.102L504.5,328.012z"/>
<path style="fill:#333F61;" d="M87.263,304.204c18.136-35.05,56.972-54.188,95.788-47.206l81.753,14.703
	c12.059,2.169,17.97-14.725,7.301-20.61l-82.148-45.308l-0.019-0.003c-1.117,0.929-2.422,1.641-3.868,2.043
	c-52.936,14.729-114.526,13.086-163.816-12.783C9.555,232.392,4.952,272.392,8.833,311.652l45.768,1.511l28.81-1.511L87.263,304.204
	z"/>
<g>
	<path style="fill:#253551;" d="M46.792,311.652c-1.567-15.854-2.176-35.972,0.471-58.998c1.908-16.586,5.12-31.306,8.682-43.888
		c-13.478-3.839-24.13-8.706-33.694-13.726C9.553,232.392,4.95,272.392,8.831,311.652l45.768,1.511l14.664-0.769L46.792,311.652z"/>
	<path style="fill:#253551;" d="M483.029,349.501c-39.229,0-78.457,0-117.686,0c-41.111,0-82.918,2.252-123.978-0.422
		c-25.161-1.639-50.327-6.751-75.25-10.425c-13.233-0.715-23.444,10.213-36.378,10.847c-9.585,0.47-19.314,0-28.908,0
		c-23.383,0-47.076,1.145-70.434,0c-22.027-1.08-21.563-21.344-21.563-37.849h151.066c23.944,3.6,47.887,7.201,71.83,10.801
		c14.787,2.224,29.355,2.058,44.253,2.103c58.762,0.178,117.523,0.355,176.285,0.533c17.411,0.053,34.822,0.105,52.233,0.158
		C504.716,337.884,496.672,349.501,483.029,349.501z"/>
</g>
<path style="fill:#1E2E44;" d="M46.609,328.012v-16.36H8.831v16.36c0,11.868,9.613,21.489,21.471,21.489h37.779
	C56.223,349.501,46.609,339.88,46.609,328.012z"/>
<path d="M486.134,289.469l-31.312-4.768C388,274.527,325.033,246.498,272.73,203.646l-55.509-45.478
	c-3.697-3.029-8.616-3.956-13.163-2.485c-4.547,1.473-7.989,5.113-9.207,9.735l-8.716,33.056c-0.271,1.028-1.067,1.841-2.077,2.122
	c-19.839,5.521-40.23,8.381-60.611,8.502c-15.021,0.092-28.837-0.742-41.096-2.47c-4.098-0.577-7.896,2.277-8.475,6.379
	c-0.578,4.102,2.277,7.896,6.379,8.474c13.163,1.857,27.311,2.706,43.281,2.618c21.709-0.129,43.424-3.174,64.543-9.051
	c0.662-0.184,1.305-0.412,1.934-0.669l78.469,43.279c1.258,0.694,1.653,1.813,1.777,2.418c0.123,0.606,0.199,1.792-0.689,2.928
	c-0.816,1.045-2.13,1.551-3.439,1.314l-48.766-8.771c-4.066-0.734-7.977,1.977-8.709,6.054c-0.733,4.077,1.978,7.976,6.055,8.709
	l48.765,8.771c6.689,1.202,13.725-1.483,17.912-6.838c3.359-4.296,4.66-9.825,3.568-15.17c-1.092-5.343-4.456-9.917-9.229-12.55
	l-75.295-41.529c0.071-0.231,0.146-0.461,0.208-0.696l8.31-31.516l54.274,44.466c54.384,44.558,119.857,73.702,189.341,84.281
	l31.312,4.768c6.979,1.063,12.189,6.572,13,13.424l-243.896-0.737c-4.853-0.015-9.747-0.388-14.547-1.11l-77.421-11.641
	c-0.369-0.056-0.742-0.083-1.115-0.083H95.852c17.399-30.061,51.391-45.974,85.871-39.773c4.073,0.736,7.976-1.978,8.709-6.054
	c0.733-4.077-1.978-7.976-6.055-8.709c-20.633-3.711-41.482-0.773-60.292,8.496c-18.808,9.269-33.844,24.016-43.484,42.646
	l-1.756,3.395H15.718c-1.237-16.854-0.895-33.857,1.036-50.64c1.861-16.189,5.203-32.245,9.953-47.845
	c7.13,3.401,13.793,6.072,20.846,8.379c3.938,1.29,8.173-0.86,9.46-4.796c1.288-3.937-0.859-8.172-4.796-9.46
	c-8.771-2.869-16.937-6.382-26.48-11.39c-1.942-1.019-4.232-1.137-6.267-0.324c-2.036,0.813-3.614,2.476-4.319,4.551
	c-12.997,38.229-17.73,79.152-13.82,119.34v16.045C1.331,343.996,14.327,357,30.302,357h100.329c3.64,0,7.174-0.747,10.504-2.219
	l15.973-7.063c2.593-1.146,5.444-1.694,8.284-1.59l58.731,8.657c9.973,1.47,20.143,2.215,30.226,2.215H372.52c9.652,0,9.668-15,0-15
	H254.349c-9.354,0-18.786-0.691-28.038-2.055l-59.104-8.712c-0.229-0.034-0.459-0.057-0.689-0.069
	c-5.287-0.289-10.639,0.695-15.478,2.836l-15.971,7.063c-1.408,0.622-2.901,0.938-4.438,0.938H30.302
	c-7.703,0-13.97-6.275-13.97-13.988v-8.86h67.046c0.015,0.002,0.031,0.002,0.046,0h75.912l76.865,11.558
	c5.521,0.831,11.151,1.26,16.733,1.277l243.249,0.735c-1.936,5.403-7.102,9.278-13.155,9.278h-80.986c-9.652,0-9.668,15,0,15h80.986
	c15.974,0,28.971-13.004,28.971-28.989v-2.765v-5.66C512,304.417,501.122,291.75,486.134,289.469z"/>
<g>
</g>
<g>
</g>
<g>
</g>
<g>
</g>
<g>
</g>
<g>
</g>
<g>
</g>
<g>
</g>
<g>
</g>
<g>
</g>
<g>
</g>
<g>
</g>
<g>
</g>
<g>
</g>
<g>
</g>
</svg>
