<?xml version="1.0" encoding="iso-8859-1"?>
<!-- Generator: Adobe Illustrator 19.0.0, SVG Export Plug-In . SVG Version: 6.00 Build 0)  -->
<svg version="1.1" id="Capa_1" xmlns="http://www.w3.org/2000/svg" xmlns:xlink="http://www.w3.org/1999/xlink" x="0px" y="0px"
	 viewBox="0 0 512 512" style="enable-background:new 0 0 512 512;" xml:space="preserve">
<path style="fill:#67C787;" d="M7.5,334.147c0-11.833,0-23.665,0-35.498c0-13.845-1.258-28.702,1.949-42.271
	c3.047-12.888,10.498-23.906,12.566-37.147c0.831-5.323,0.87-10.635,0.87-15.994c0-14.37,0-28.74,0-43.11
	c0-12.098,0-24.196,0-36.294c27.963,0,55.926,0,83.89,0c15.64,0,31.279,0,46.919,0c13.669,0,24.108,2.352,32.647,14.496
	c11.968,17.02,23.376,34.27,37.415,49.722c20.448,22.503,44.591,41.601,71.195,56.322c35.875,19.85,74.456,28.172,113.979,36.706
	c18.981,4.099,37.963,8.198,56.944,12.297c20.85,4.503,38.466,17.258,38.625,40.772"/>
<path style="fill:#F2EDEC;" d="M489.765,388.169H161.95h-10.654c-24.078,0-48.157,0-72.235,0c-14.475,0-28.95,0-43.425,0
	c-11.113,0-24.12,0.385-27.596-13.346c-1.577-6.228-0.54-13.722-0.54-20.048c0-6.876,0-13.752,0-20.628h497
	c0,9.448,0,18.897,0,28.345C504.5,373.208,504.828,388.169,489.765,388.169z"/>
<path style="fill:#5FB87D;" d="M25.433,246.935l-10.24-6.377l0,0C10.134,250.657,7.5,261.8,7.5,273.098v59.317l88.155,1.733
	l-0.903-2.419C81.634,296.573,57.259,266.756,25.433,246.935z"/>
<path style="fill:#FBDC40;" d="M472.839,294.88l-67.667-14.612v53.88H504.5l0,0C504.5,315.225,491.312,298.869,472.839,294.88z"/>
<g>
	<path style="fill:#5FB87D;" d="M404.97,280.224l-34.151-7.375c-68.834-14.864-129.473-55.323-169.676-113.209l-16.939-24.389
		c-4.968-7.153-13.117-11.418-21.819-11.418h-41.331c46.917,89.835,128.099,159.038,224.353,190.918
		c19.502,6.459,39.498,11.42,59.765,14.788v-48.355L404.97,280.224z"/>
	<polygon style="fill:#5FB87D;" points="405.172,329.54 405.172,329.54 405.172,334.147 	"/>
</g>
<path style="fill:#FBDC40;" d="M99.596,180.196c2.539,5.151,5.538,16.732,10.282,19.895c3.415,2.277,20.847-0.163,22.128,3.775
	c1.276,3.923-14.265,12.24-15.686,16.078c-1.009,2.724,0.788,7.126,1.266,9.92c0.31,1.812,3.112,10.735,2.094,12.227
	c-2.598,3.81-16.231-8.644-20.372-8.932c-2.542-0.176-5.561,2.299-7.772,3.463c-2.31,1.216-9.775,6.96-12.226,6.436
	c-4.289-0.917,2.626-17.688,1.974-21.646c-1.125-6.833-13.273-9.747-15.186-16.113c-1.458-4.852,17.734-2.958,21.292-5.186
	c2.747-1.719,4.273-7.412,5.667-10.24C93.549,188.879,98.517,178.008,99.596,180.196z"/>
<path d="M474.422,287.549l-102.021-22.031c-22.542-4.868-44.113-12.517-64.318-22.649c-0.43-0.271-0.893-0.502-1.386-0.686
	c-7.503-3.817-14.814-7.979-21.913-12.473c-0.345-0.287-0.716-0.551-1.12-0.779c-0.117-0.066-0.238-0.119-0.357-0.178
	c-15.584-10.009-30.132-21.617-43.408-34.688c-0.168-0.201-0.347-0.395-0.54-0.581c-0.095-0.092-0.197-0.172-0.295-0.258
	c-7.087-7.039-13.818-14.487-20.139-22.337c-0.052-0.066-0.104-0.133-0.158-0.197c-3.983-4.956-7.808-10.068-11.463-15.331
	l-16.938-24.389c-6.368-9.167-16.828-14.64-27.98-14.64H121.18c-0.008,0-0.017,0-0.025,0H83.979c-9.652,0-9.668,15,0,15h32.564
	c50.808,94.601,138.844,165.627,242.02,195.314H100.832c-13.845-35.46-39.125-65.958-71.434-86.079l-4.693-2.923
	c3.729-9.4,5.681-19.519,5.681-29.629v-76.684h21.191c9.652,0,9.668-15,0-15H22.886c-4.143,0-7.5,3.358-7.5,7.5v84.184
	c0,10.081-2.386,20.172-6.898,29.181c-0.008,0.017-0.016,0.034-0.024,0.051c-0.006,0.012-0.011,0.023-0.017,0.035
	C2.921,248.346,0,260.728,0,273.098v61.05v36.316c0,13.898,11.297,25.205,25.183,25.205h389.57c9.652,0,9.668-15,0-15H25.183
	c-5.614,0-10.183-4.578-10.183-10.205v-1.806h145.913c9.652,0,9.668-15,0-15H15v-12.011h80.63c0.023,0.003,0.047,0.003,0.07,0H497
	v31.767c0,4-3.246,7.254-7.235,7.254h-41.461c-9.652,0-9.668,15,0,15h41.461c12.261,0,22.235-9.983,22.235-22.254v-39.267
	C512,311.848,496.196,292.251,474.422,287.549z M496.109,326.648h-83.438V289.56l58.584,12.651
	C483.668,304.891,493.242,314.643,496.109,326.648z M133.672,131.333h28.711c6.241,0,12.096,3.064,15.66,8.197l5.167,7.439
	l-15.582,6.127c-3.855,1.516-5.751,5.87-4.235,9.725c1.477,3.756,5.957,5.716,9.724,4.235l18.886-7.427l2.979,4.289
	c2.334,3.361,4.743,6.655,7.205,9.898l-13.731,9.214c-3.439,2.308-4.357,6.968-2.049,10.407c2.249,3.352,7.064,4.291,10.406,2.049
	l14.778-9.916c3.885,4.598,7.914,9.05,12.059,13.372l-10.842,11.214c-2.88,2.978-2.8,7.726,0.179,10.605
	c2.913,2.816,7.779,2.744,10.604-0.179l10.714-11.082c3.878,3.639,7.86,7.153,11.925,10.561l-8.623,10.367
	c-2.649,3.185-2.215,7.913,0.97,10.562c3.112,2.588,7.985,2.129,10.562-0.97l8.84-10.628c3.929,2.955,7.928,5.811,12.002,8.557
	l-7.698,13.676c-2.031,3.609-0.752,8.183,2.857,10.214c3.532,1.988,8.22,0.685,10.215-2.857l7.298-12.966
	c4.017,2.407,8.098,4.711,12.234,6.919l-5.557,16.336c-1.334,3.921,0.764,8.182,4.686,9.516c3.82,1.299,8.217-0.868,9.516-4.685
	l4.899-14.402c4.938,2.308,9.944,4.487,15.023,6.514l-4.07,18.015c-0.913,4.041,1.622,8.056,5.663,8.968
	c3.947,0.895,8.073-1.701,8.968-5.663l3.635-16.091c4.73,1.603,9.516,3.077,14.348,4.436l-1.254,16.731
	c-0.31,4.13,2.788,7.73,6.919,8.04c4.032,0.3,7.736-2.868,8.04-6.918l1.058-14.116c0.826,0.186,1.646,0.386,2.474,0.565
	l28.437,6.141v34.264C286.747,299.478,189.225,229.699,133.672,131.333z M84.611,326.648H15v-53.55
	c0-7.313,1.271-14.624,3.684-21.53l2.784,1.734C49.373,270.68,71.549,296.518,84.611,326.648z"/>
<path d="M193.639,353.658c-9.652,0-9.668,15,0,15h139.607c9.652,0,9.668-15,0-15H193.639z"/>
<path d="M60.43,210.246l12.988,12.677l-3.065,17.897c-1.17,6.802,6.212,12.16,12.313,8.948l16.046-8.446l16.047,8.446
	c2.877,1.515,6.302,1.27,8.935-0.641c2.634-1.911,3.929-5.091,3.381-8.302l-3.067-17.902l12.988-12.677
	c2.328-2.271,3.149-5.604,2.144-8.698c-1.006-3.093-3.629-5.306-6.848-5.774l-17.941-2.61l-8.026-16.283h-0.001
	c-3.054-6.195-12.166-6.192-15.221,0l-8.025,16.283l-17.942,2.611c-3.219,0.468-5.842,2.681-6.848,5.774
	C57.28,204.642,58.102,207.975,60.43,210.246z M88.63,207.513c2.763-0.403,5.15-2.139,6.387-4.645l3.696-7.5l3.697,7.502
	c1.235,2.503,3.621,4.239,6.388,4.644l8.286,1.206l-5.999,5.855c-1.999,1.949-2.911,4.755-2.44,7.51l1.415,8.26l-7.391-3.891
	c-2.454-1.294-5.453-1.297-7.908-0.002l-7.396,3.893l1.415-8.262c0.471-2.752-0.441-5.559-2.438-7.504l-6.002-5.858L88.63,207.513z"
	/>
<g>
</g>
<g>
</g>
<g>
</g>
<g>
</g>
<g>
</g>
<g>
</g>
<g>
</g>
<g>
</g>
<g>
</g>
<g>
</g>
<g>
</g>
<g>
</g>
<g>
</g>
<g>
</g>
<g>
</g>
</svg>
