<?xml version="1.0" encoding="iso-8859-1"?>
<!-- Generator: Adobe Illustrator 19.0.0, SVG Export Plug-In . SVG Version: 6.00 Build 0)  -->
<svg version="1.1" id="Capa_1" xmlns="http://www.w3.org/2000/svg" xmlns:xlink="http://www.w3.org/1999/xlink" x="0px" y="0px"
	 viewBox="0 0 512 512" style="enable-background:new 0 0 512 512;" xml:space="preserve">
<path style="fill:#67C787;" d="M328.886,296.779c-47.658,0-91.464-30.451-108.086-75.124c-9.952-26.746-7.213-56.508-7.213-84.546
	c0-16.896,0-33.793,0-50.689c0-8.293,1.624-18.452,0-26.63c-1.476-7.435-12.218-5.176-17.975-5.176c-13.265,0-26.531,0-39.796,0
	c-32.564,0-65.128,0-97.692,0c-7.278,0-15.773-1.218-22.981,0c-7.096,1.2-5.62,7.904-5.62,13.454c0,59.066,0,118.131,0,177.197
	c0,7.499,0.027,14.999,0,22.498c-0.031,8.572-0.547,17.109-1.784,25.598c-2.251,15.446-7.84,29.727-11.453,44.81
	c-7.827,32.679-4.694,68.358-4.694,101.73c0,3.463,0,6.927,0,10.39h369.495V296.779H328.886z"/>
<path style="fill:#5FB87D;" d="M75.664,323.335L75.664,323.335c5.937-17.586,8.965-36.023,8.965-54.585V59.715
	c0-2.816,2.281-5.1,5.096-5.1H34.618c-2.814,0-5.096,2.283-5.096,5.1v91.715v117.32c0,18.562-3.028,37-8.965,54.585l0,0
	c-5.937,17.586-8.965,36.023-8.965,54.585v72.371h55.107v-72.371C66.699,359.357,69.727,340.921,75.664,323.335z"/>
<path style="fill:#FBDC40;" d="M328.886,450.29H504.5c0-35.893,4.036-73.248-16.12-105.058
	c-14.028-22.138-36.36-38.542-61.747-45.116c-16.016-4.147-32.468-3.338-48.847-3.338c-16.3,0-32.6,0-48.899,0"/>
<g>
	<path style="fill:#DB4D4D;" d="M453.302,286.585c0,29.825-46.168,29.717-46.168,0C407.134,256.861,453.302,256.759,453.302,286.585
		z"/>
	<path style="fill:#DB4D4D;" d="M486.091,341.787H341.46c-21.03,0-38.078,17.061-38.078,38.107l0,0
		c0,21.046,17.048,38.107,38.078,38.107H504.5v-17.063C504.5,378.967,497.696,358.589,486.091,341.787z"/>
</g>
<path style="fill:#333F61;" d="M232.479,314.177c0,22.433-34.77,22.418-34.77,0C197.71,291.767,232.479,291.724,232.479,314.177z"/>
<path style="fill:#5FB87D;" d="M31.597,330.576l-11.04-7.242c-5.937,17.586-8.965,36.023-8.965,54.585v72.371h98.558h2.681l0,0
	C102.748,401.158,73.513,358.074,31.597,330.576z"/>
<path style="fill:#519B67;" d="M63.506,356.956c-9.562-9.863-20.243-18.727-31.909-26.38l-11.04-7.242
	c-5.937,17.586-8.965,36.023-8.965,54.585v72.371h50.62v-72.371C62.212,370.9,62.646,363.9,63.506,356.956z"/>
<path style="fill:#333F61;" d="M489.765,480.165H161.95h-10.654c-21.019,0-42.038,0-63.057,0c-20.882,0-42.207,1.276-63.057,0
	c-10.297-0.63-17.119-7.866-17.682-18.043c-0.252-4.561-1.136-10.507,4.213-11.832c2.146-0.531,5.099,0,7.288,0
	c14.726,0,29.451,0,44.177,0c54.364,0,108.728,0,163.092,0c59.713,0,119.425,0,179.138,0c32.544,0,65.088,0,97.632,0
	c0.486,0,0.973,0,1.459,0C504.5,461.693,506.518,480.165,489.765,480.165z"/>
<path style="fill:#253551;" d="M62.212,462.469v-8.084c0-2.262,1.832-4.095,4.092-4.095H11.592c-2.26,0-4.092,1.833-4.092,4.095
	v8.084c0,9.773,7.917,17.696,17.682,17.696h54.712C70.128,480.165,62.212,472.242,62.212,462.469z"/>
<path style="fill:#333F61;" d="M214.982,80.96c-30.676,0-61.352,0-92.028,0c-21.181,0-42.362,0-63.544,0
	c-9.914,0-21.971,1.914-31.752,0c-8.443-1.652-6.153-11.578-6.153-18.157c0-7.826-1.451-17.191,0-24.892
	c1.832-9.725,21.053-6.074,28.202-6.074c42.249,0,84.498,0,126.748,0c8.817,0,17.634,0,26.451,0c3.737,0,8.207-0.687,11.899,0
	c9.042,1.681,6.251,14.371,6.251,21.314C221.057,58.763,224.616,80.96,214.982,80.96z"/>
<path style="fill:#253551;" d="M84.892,74.883v-36.97c0-3.356,2.718-6.076,6.072-6.076H27.578c-3.353,0-6.072,2.72-6.072,6.076
	v36.971c0,3.356,2.719,6.076,6.072,6.076h63.386C87.61,80.96,84.892,78.238,84.892,74.883z"/>
<path d="M492.728,338.283c-0.248-0.468-0.543-0.907-0.881-1.31c-9.387-13.446-21.745-24.841-36.371-33.156
	c12.004-17.561,2.123-42.45-18.562-47.094c-19.896-4.466-38.933,12.275-37.155,32.556h-70.873c-59.441,0-107.8-48.397-107.8-107.886
	v-94.4c4.423-2.24,7.47-6.821,7.47-12.11v-36.97c0-7.486-6.089-13.576-13.572-13.576H201.8c-9.652,0-9.668,15,0,15h11.756V73.46
	H29.006V39.335H166.94c9.652,0,9.668-15,0-15H27.578c-7.483,0-13.572,6.09-13.572,13.576v36.971c0,5.505,3.298,10.245,8.017,12.374
	v95.685c0,9.652,15,9.668,15,0V88.46h169.064v92.934c0,67.76,55.088,122.886,122.8,122.886h71.532c1.652,0,3.311,0.054,4.967,0.138
	c8.488,11.8,24.669,16.08,37.845,9.854c10.298,5.103,19.425,11.925,27.109,20.016h-77.307c-9.652,0-9.668,15,0,15h88.982
	c5.43,8.594,9.515,18.04,12.035,28.01l-8.728,6.492l-18.597-19.416c-2.885-3.013-7.939-3.021-10.832,0l-17.034,17.784l-16.15-16.861
	c-2.885-3.014-7.94-3.02-10.832,0l-16.216,16.93L380.75,366.66c-2.885-3.014-7.94-3.02-10.832,0l-15.035,15.697l-15.747-16.439
	c-2.864-2.991-7.611-3.094-10.604-0.228c-2.991,2.865-3.093,7.613-0.228,10.604l21.163,22.094c2.886,3.012,7.939,3.022,10.832,0
	l15.035-15.697l14.911,15.567c2.885,3.014,7.94,3.02,10.832,0l16.216-16.93l16.15,16.86c2.885,3.013,7.94,3.021,10.832,0
	l17.034-17.784l17.761,18.543c2.548,2.66,6.929,3.034,9.893,0.83l7.784-5.791c0.166,2.303,0.253,4.621,0.253,6.953v9.563H341.461
	c-16.642,0-30.579-13.974-30.579-30.607c0-16.635,13.937-30.607,30.579-30.607h17.825c9.652,0,9.668-15,0-15h-17.825
	c-24.822,0-45.579,20.793-45.579,45.607s20.757,45.607,45.579,45.607H497v17.289H328.887H118.84
	c-11.486-48.35-41.585-91.231-83.129-118.485l-6.283-4.122c5.036-16.689,7.594-33.962,7.594-51.434v-53.217c0-9.652-15-9.668-15,0
	v53.217c0,17.781-2.884,35.339-8.57,52.186c-6.211,18.395-9.36,37.567-9.36,56.984v67.641C1.593,447.689,0,450.852,0,454.385v8.084
	c0,13.893,11.297,25.195,25.183,25.195h363.248c9.652,0,9.668-15,0-15H25.183c-5.614,0-10.183-4.574-10.183-10.195v-4.679h97.79
	c0.021,0.002,0.042,0.002,0.063,0h216.035H497v7.628c0,3.996-3.246,7.246-7.235,7.246h-65.52c-9.652,0-9.668,15,0,15h65.52
	c12.261,0,22.235-9.979,22.235-22.246V450.29v-49.352C512,378.151,505.022,356.431,492.728,338.283z M414.634,286.585
	c0-11.188,12.01-18.875,22.148-14.149c10.701,4.988,12.057,20.215,2.272,26.986c-0.121,0.073-0.236,0.153-0.353,0.233
	C428.508,306.309,414.634,298.728,414.634,286.585z M103.385,442.79H19.092v-64.871c0-14.512,1.923-28.875,5.721-42.823l2.67,1.751
	C64.861,361.368,92.149,399.615,103.385,442.79z"/>
<path d="M239.979,314.177c0-32.093-49.77-32.076-49.77,0C190.21,346.258,239.979,346.273,239.979,314.177z M205.21,314.177
	c0-12.879,19.77-12.635,19.77,0C224.979,326.766,205.21,327.121,205.21,314.177z"/>
<g>
</g>
<g>
</g>
<g>
</g>
<g>
</g>
<g>
</g>
<g>
</g>
<g>
</g>
<g>
</g>
<g>
</g>
<g>
</g>
<g>
</g>
<g>
</g>
<g>
</g>
<g>
</g>
<g>
</g>
</svg>
