<?xml version="1.0" encoding="iso-8859-1"?>
<!-- Generator: Adobe Illustrator 19.0.0, SVG Export Plug-In . SVG Version: 6.00 Build 0)  -->
<svg version="1.1" id="Capa_1" xmlns="http://www.w3.org/2000/svg" xmlns:xlink="http://www.w3.org/1999/xlink" x="0px" y="0px"
	 viewBox="0 0 512 512" style="enable-background:new 0 0 512 512;" xml:space="preserve">
<line style="fill:none;stroke:#000000;stroke-width:15;stroke-linecap:round;stroke-linejoin:round;stroke-miterlimit:10;" x1="94.916" y1="135.406" x2="94.916" y2="251.958"/>
<path style="fill:#CA5F5B;" d="M58.879,53.61l240.666,29.314V52.088c0-5.413-4.772-10.008-11.209-10.792L73.885,15.176
	c-7.911-0.963-15.006,4.139-15.006,10.792"/>
<g>
	<polygon style="fill:#D96D5D;" points="291.613,246.796 69.041,198.058 69.041,54.493 291.613,82.923 	"/>
	<path style="fill:#D96D5D;" d="M504.497,464.11c-2.342-15.315-3.823-30.727-19.176-38.594c-5.622-2.881-12.388-3.982-18.462-5.542
		c-16.798-4.312-33.851-8.137-50.38-13.42c-42.608-13.619-78.118-39.219-114.851-63.738c-22.358-14.925-38.116-36.016-38.116-64.034
		v-16.599V131.661l-168.6-35.447c0,38.29,0,76.58,0,114.87c0,13.613,0.172,27.237,0,40.849c-0.13,10.244-1.513,20.352-4.531,30.159
		c-3.465,11.262-9.423,21.444-12.394,32.901c-3.023,11.656-3.293,23.333-3.293,35.241c0,21.627,0,43.253,0,64.879l156.376,19.558
		l90.064,43.022h167.603L504.497,464.11z"/>
</g>
<path style="fill:#C15151;" d="M58.879,117.095V53.61c0-2.288,0.984-4.463,2.7-5.973c1.715-1.508,3.994-2.204,6.262-1.907
	l224.801,29.49c3.95,0.518,6.903,3.889,6.903,7.879v63.513l-15.864-1.247L74.744,117.957L58.879,117.095z"/>
<path style="fill:#DE7B69;" d="M74.694,340.72v74.397l156.376,19.558l90.064,43.022h167.603l15.76-13.587
	c-0.774-5.062-1.548-10.124-2.322-15.186c-1.92-12.55-11.132-22.741-23.41-25.893l-46.813-12.017
	c-30.286-7.775-59.045-20.617-85.064-37.984l-51.321-34.257l0,0c-13.366,26.677-42.311,41.751-71.787,37.383l-100.138-25.873
	c-17.619-4.552-31.174-18.659-35.044-36.47l-3.797-17.475l0,0C78.148,310.184,74.694,325.354,74.694,340.72z"/>
<path style="fill:#CA5F5B;" d="M504.497,464.11c-49.688,0-99.387,0.321-149.074,0c-39.576-0.255-74.753-19.658-110.125-35.304
	c-16.802-7.431-33.103-13.473-51.885-13.69c-10.127-0.117-20.26,0-30.387,0c-19.737,0-39.476,0-59.213,0
	c-4.12,0-33.144-3.406-33.144,4.032c2.158,12.207,4.315,24.415,6.474,36.622c1.771,10.019,1.593,29.149,9.546,36.815
	c7.217,6.958,22.188,4.357,31.298,4.357c16.986,0,33.971,0,50.956,0c7.045,0,34.042,4.34,34.121-7.698l0.071-40.081
	c0.022-3.41,3.307-5.844,6.569-4.865c40.211,17.829,81.544,41.159,125.841,45.804c17.119,1.796,34.641,1.031,51.83,1.031
	c23.039,0,46.078,0,69.119,0c6.75,0,13.549,0.231,20.295,0C491.751,490.621,504.501,479.784,504.497,464.11z"/>
<path style="fill:#C15151;" d="M138.566,484.148l-11.49-65.001c0-2.227,1.801-4.032,4.024-4.032H74.694
	c-2.223,0-4.025,1.805-4.025,4.032l11.49,65.001c1.308,7.4,7.729,12.793,15.231,12.793h56.407
	C146.295,496.942,139.874,491.548,138.566,484.148z"/>
<path style="fill:#FBDC40;" d="M76.517,377.767c6.898-5.058,13.796-10.117,20.694-15.175c4.3-3.154,12.827-10.743,12.423-0.57
	c-0.393,9.891-2.601,19.713-3.213,29.595c-0.468,7.571,5.361,8.126,11.688,10.921c4.861,2.148,9.723,4.294,14.584,6.442
	c2.056,0.908,7.695,2.226,8.87,4.497c2.825,5.461-15.905,10.886-19.037,12.269c-5.8,2.562-15.695,4.278-16.292,11.138
	c-0.769,8.825,2.098,19.324,3.055,28.143c0.25,2.307,1.658,7.011-0.929,8.504c-2.665,1.537-6.453-2.445-8.337-3.827
	c-6.908-5.065-14.879-13.494-22.8-16.721c-5.87-2.392-13.297,6.044-17.922,9.436c-3.421,2.509-17.707,16.591-19.796,8.099
	c-0.521-2.117,0.656-6.041,0.885-8.151c0.574-5.291,1.148-10.582,1.723-15.873c0.329-3.03,1.712-7.667,1.164-10.725
	c-0.646-3.601-2.663-3.949-5.741-5.308c-8.669-3.83-17.827-7.163-26.211-11.578c-9.583-5.046,3.279-8.98,8.098-11.109
	c5.493-2.427,22.523-6.435,23.885-13.015c0.646-3.123-0.854-7.868-1.196-11.019c-0.67-6.178-1.341-12.355-2.012-18.533
	c-0.306-2.82-1.969-8.709,2.579-8.925c2.683-0.127,7.065,4.524,8.911,5.879C54.978,364.645,72.156,380.965,76.517,377.767z"/>
<path d="M66.811,269.687c4.144,0,7.502-3.359,7.502-7.502V62.161l209.798,27.522v171.24c0,9.655,15.004,9.671,15.004,0V83.1
	c0-0.032-0.004-0.063-0.004-0.095c0-0.027,0.004-0.054,0.004-0.082V52.088c0-9.129-7.31-16.967-17.003-18.231L188.114,21.6
	c-4.108-0.533-7.873,2.361-8.409,6.469c-0.535,4.108,2.361,7.873,6.47,8.409l93.998,12.257c2.209,0.288,3.939,1.76,3.939,3.353
	V74.38L74.314,47.023V25.968c0-0.965,0.594-1.688,1.091-2.126c1.122-0.984,2.784-1.444,4.453-1.226l72.054,9.396
	c4.108,0.537,7.873-2.36,8.409-6.469c0.535-4.108-2.361-7.873-6.47-8.409L81.798,7.737c-5.971-0.78-11.909,0.98-16.292,4.83
	c-3.938,3.457-6.196,8.341-6.196,13.401v27.624c0,0.006-0.001,0.012-0.001,0.018v208.574
	C59.309,266.328,62.667,269.687,66.811,269.687z"/>
<path d="M115.51,117.535v126.436c0,9.655,15.004,9.671,15.004,0V117.535C130.514,107.88,115.51,107.864,115.51,117.535z"/>
<path d="M143.61,101.995v174.669c0,9.655,15.004,9.671,15.004,0V101.995C158.614,92.341,143.61,92.325,143.61,101.995z"/>
<path d="M171.711,124.597V309.66c0,9.655,15.004,9.671,15.004,0V124.597C186.715,114.943,171.711,114.927,171.711,124.597z"/>
<path d="M199.809,120.713v140.21c0,9.655,15.004,9.671,15.004,0v-140.21C214.813,111.059,199.809,111.043,199.809,120.713z"/>
<path d="M227.91,106.939v193.539c0,9.655,15.004,9.671,15.004,0V106.939C242.914,97.285,227.91,97.269,227.91,106.939z"/>
<path d="M511.991,464.433c0.012-0.163,0.012-0.326,0-0.488c-0.003-0.135-0.01-0.27-0.021-0.406c-0.01-0.132-0.023-0.263-0.04-0.393
	c-0.008-0.057-0.009-0.113-0.017-0.17l-2.322-15.186c-2.377-15.548-13.745-28.12-28.96-32.026l-46.813-12.017
	c-29.541-7.583-57.386-20.017-82.764-36.957l-51.321-34.257c-17.984-12.003-28.72-32.097-28.72-53.749V131.661
	c0-9.655-15.004-9.671-15.004,0v147.123c0,24.327,11.006,47.054,29.75,62.088c-12.858,20.273-36.385,31.343-60.497,27.919
	l-24.645-6.368c-4.01-1.036-8.103,1.375-9.14,5.387c-1.036,4.011,1.375,8.104,5.387,9.14l25.04,6.47
	c0.256,0.066,0.516,0.119,0.776,0.157c29.368,4.352,59.285-9.168,75.398-34.108l44.643,29.8
	c26.788,17.881,56.181,31.007,87.364,39.012l46.813,12.017c9.383,2.409,16.393,10.165,17.859,19.759l1.001,6.55H355.324
	c-24.491,0-39.387-4.76-63.513-15.432l-55.464-24.532c-13.547-5.992-27.925-9.029-42.735-9.029h-47.201
	c-0.906-0.905-1.984-1.654-3.198-2.191l-29.338-12.96l3.467-31.941c0.168-1.546-0.01-3.075-0.484-4.495
	c1.602,0.573,3.238,1.085,4.91,1.516l47.635,12.307c3.924,1.014,8.123-1.452,9.14-5.387c1.036-4.011-1.375-8.104-5.387-9.14
	l-47.635-12.307c-14.964-3.866-26.302-15.667-29.59-30.799l-3.263-15.015c6.379-14.147,9.746-29.731,9.746-45.246v-39.196v-77.352
	V96.215c0-9.655-15.004-9.671-15.004,0v39.197v77.352v39.196c0,16.229-4.815,30.398-11.16,45.083
	c-5.939,13.745-9.057,28.701-9.057,43.678v23.58l-18.359-13.464c-3.382-2.48-7.915-2.731-11.548-0.634
	c-3.636,2.097-5.693,6.149-5.239,10.324l3.467,31.941L6.175,405.423c-8.229,3.634-8.237,15.748-0.001,19.385l29.337,12.959
	l-3.467,31.941c-0.453,4.174,1.604,8.227,5.239,10.324c3.564,2.055,8.237,1.793,11.548-0.634l22.015-16.144l3.924,22.201
	c1.945,11.003,11.457,18.99,22.618,18.99h97.938c8.348,0,15.183-6.797,15.236-15.187l0.064-36.342l65.258,28.934
	c25.123,11.138,51.791,16.787,79.263,16.787h87.499c9.655,0,9.671-15.004,0-15.004h-87.499c-25.364,0-49.986-5.214-73.182-15.499
	l-69.226-30.693c-0.288-0.127-0.584-0.237-0.887-0.328c-3.837-1.15-7.888-0.444-11.108,1.939c-3.226,2.385-5.09,6.054-5.115,10.101
	l-0.071,40.046c-0.001,0.135-0.105,0.244-0.232,0.244H97.39c-3.869,0-7.168-2.775-7.843-6.598l-2.339-13.234l13.347,9.789
	c3.381,2.48,7.914,2.73,11.548,0.634c3.636-2.097,5.693-6.149,5.239-10.324l-3.467-31.941l29.338-12.959
	c1.214-0.536,2.292-1.285,3.198-2.19h47.202c12.706,0,25.042,2.607,36.664,7.747l55.464,24.532
	c25.605,11.325,42.547,16.714,69.583,16.714h140.176c-1.741,4.179-4.988,7.724-9.002,9.82c-3.831,2.001-8.147,1.187-11.866,2.846
	c-9.456,4.217-3.008,14.633,5.23,14.279c17.701-0.761,31.926-16.656,32.127-34.042C511.99,464.487,511.99,464.46,511.991,464.433z
	 M103.739,349.267c-1.123,0.341-2.205,0.849-3.185,1.568l-18.359,13.464V340.72c0-5.695,0.533-11.399,1.559-17.016
	C87.766,334.138,94.743,342.989,103.739,349.267z M104.863,425.346c-4.239,1.872-6.752,6.228-6.251,10.836l2.734,25.188
	l-19.869-14.572c-0.432-0.375-0.908-0.696-1.414-0.964c-3.626-2.142-8.174-1.953-11.628,0.581l-20.392,14.954l2.734-25.188
	c0.501-4.61-2.013-8.966-6.251-10.836l-23.159-10.231l23.157-10.23c4.24-1.872,6.754-6.227,6.253-10.837l-2.734-25.188l20.39,14.952
	c3.743,2.749,8.775,2.749,12.523,0.002l20.391-14.954l-2.734,25.188c-0.501,4.609,2.012,8.964,6.251,10.836l23.16,10.231
	L104.863,425.346z"/>
<path d="M74.694,407.17c-10.216,0-10.19,15.893,0,15.893C84.871,423.063,84.972,407.17,74.694,407.17z"/>
<g>
</g>
<g>
</g>
<g>
</g>
<g>
</g>
<g>
</g>
<g>
</g>
<g>
</g>
<g>
</g>
<g>
</g>
<g>
</g>
<g>
</g>
<g>
</g>
<g>
</g>
<g>
</g>
<g>
</g>
</svg>
