<?xml version="1.0" encoding="iso-8859-1"?>
<!-- Generator: Adobe Illustrator 19.0.0, SVG Export Plug-In . SVG Version: 6.00 Build 0)  -->
<svg version="1.1" id="Capa_1" xmlns="http://www.w3.org/2000/svg" xmlns:xlink="http://www.w3.org/1999/xlink" x="0px" y="0px"
	 viewBox="0 0 512.001 512.001" style="enable-background:new 0 0 512.001 512.001;" xml:space="preserve">
<path style="fill:#B58B5B;" d="M494.471,473.06c-2.247-14.667-3.672-29.422-18.403-36.955c-5.88-3.006-13.049-4.11-19.388-5.734
	c-19.272-4.936-38.859-9.283-57.558-16.148c-37.999-13.95-71.875-38.217-105.023-61.092c-19.673-13.575-30.609-34.761-30.892-58.576
	c-0.116-9.72,0-19.449,0-29.169c0-37.59,0-75.181,0-112.771c0-28.836-3.304-61.093,5.865-88.822
	c2.576-7.792,6.327-14.749,9.958-22.053c3.085-6.205,2.238-10.534-4.045-13.951c-10.798-5.873-23.395-9.717-35.194-12.932
	c-33.23-9.051-68.49-9.996-102.148-2.679c-13.353,2.903-26.434,7.074-39.006,12.432c-4.227,1.802-10.982,3.676-13.207,8.011
	c-2.257,4.396,0.417,8.575,2.197,12.576c8.461,19.023,13.732,37.657,13.781,58.653c0.074,31.911,0,63.825,0,95.736
	c0,17.293,0,34.586,0,51.878c0,10.957,0.555,22.209-1.096,33.066c-2.553,16.784-11.56,30.876-15.514,47.163
	c-2.233,9.199-2.792,18.479-2.792,27.891c0,17.609,0,35.219,0,52.828c0,4.578,0,9.157,0,13.735l144.734,17.472l107.102,38.866
	h146.663L494.471,473.06z"/>
<path style="fill:#A57D55;" d="M116.199,426.146V354.91c0-14.714,3.315-29.238,9.701-42.495l0,0
	c6.386-13.257,9.701-27.782,9.701-42.495c0-31.814,0-63.63,0-95.444c0-19.115,0-38.229,0-57.344c0-17.704-0.074-34.968-5.663-52.117
	c-2.647-8.123-7.49-15.65-6.097-24.516c1.482-9.425,8.028-15.574,16.55-18.944C159.444,14.023,179.96,9.589,200.35,7.96
	c-21.833-1.749-43.91-0.122-65.253,4.789c-14.775,3.4-33.174,7.707-46.016,16.213c-10.164,6.732,1.439,21.976,4.641,30.331
	c5.326,13.894,7.629,28.427,7.686,43.255c0.157,40.843,0,81.69,0,122.533c0,14.947,0,29.893,0,44.84
	c0,14.714-3.315,29.238-9.701,42.495l0,0c-6.386,13.257-9.701,27.782-9.701,42.495v71.237L226.74,443.62l107.102,38.866h34.194
	L260.933,443.62L116.199,426.146z"/>
<path style="fill:#946740;" d="M469.777,433.726l-44.924-11.507c-29.065-7.444-56.664-19.741-81.632-36.371l-49.25-32.802
	c-14.444-9.62-24.553-24.187-28.684-40.631h-0.001l-16.046,20.057c-8.279,10.348-20.814,16.371-34.068,16.371h-74.298
	c-13.719,0-26.639-6.451-34.879-17.416l-14.287-19.013l0,0c-6.386,13.257-9.701,27.782-9.701,42.495v71.237l144.734,17.472
	l42.621,15.466L384.2,482.483h73.948l24.027-1.126l12.299-8.299c-0.742-4.847-1.486-9.694-2.228-14.541
	C490.402,446.501,481.56,436.743,469.777,433.726z"/>
<path style="fill:#845A3A;" d="M185.956,437.21c-40.029-6.29-70.405-41.773-70.404-82.3c0-4.538,0.318-9.058,0.941-13.528
	c-3.98-2.682-7.544-6.022-10.5-9.954l-14.287-19.013c-6.386,13.257-9.701,27.782-9.701,42.495v71.237l144.734,17.472L185.956,437.21
	z"/>
<path style="fill:#845D36;" d="M494.471,473.06c-47.68,0-95.374,0.359-143.052,0c-37.833-0.285-71.348-18.648-105.177-33.577
	c-16.312-7.199-32.087-13.106-50.325-13.335c-9.789-0.123-19.588,0-29.377,0c-18.809,0-37.619,0-56.428,0
	c-3.982,0-31.968-3.299-31.968,3.861c2.031,11.463,4.062,22.926,6.093,34.39c1.287,7.263,2.574,14.528,3.861,21.791
	c0.841,4.748,1.282,9.674,4.687,13.432c6.831,7.537,21.941,4.877,31.023,4.877c16.032,0,32.063,0,48.096,0
	c6.756,0,33.219,4.239,33.295-7.371l0.068-38.378c0.021-3.265,3.173-5.596,6.303-4.659c38.831,17.179,78.717,39.643,121.513,43.942
	c16.525,1.66,33.431,0.905,50.018,0.905c22.062,0,44.124,0,66.185,0c6.253,0,12.554,0.226,18.803,0
	C482.347,498.418,494.475,487.942,494.471,473.06z"/>
<path style="fill:#725030;" d="M165.398,492.247l-11.026-62.239c0-2.132,1.729-3.861,3.863-3.861H82.005
	c-2.133,0-3.863,1.729-3.863,3.861l11.026,62.239c1.256,7.086,7.417,12.25,14.617,12.25h76.229
	C172.815,504.497,166.654,499.332,165.398,492.247z"/>
<path style="fill:#845D36;" d="M180.657,7.288c-7.431,0.09-14.559,0.565-21.368,1.331V8.81v90.96
	c0,7.195,5.835,13.028,13.033,13.028h22.081c7.198,0,13.034-5.833,13.034-13.028V8.81V8.642
	C198.993,7.683,190.05,7.174,180.657,7.288z"/>
<path style="fill:#FBDC40;" d="M83.755,375.484c6.482-4.743,12.964-9.485,19.446-14.228c4.258-3.115,12.733-10.739,12.321-0.712
	c-0.385,9.364-2.54,18.653-3.047,28.014c-0.41,7.563,5.335,8.062,11.726,10.879c4.353,1.919,8.706,3.837,13.059,5.756
	c1.946,0.857,7.792,2.259,8.919,4.485c2.671,5.276-15.209,10.4-18.314,11.768c-5.309,2.34-14.967,4.097-15.616,10.41
	c-0.857,8.338,2.016,18.526,2.923,26.874c0.239,2.202,1.652,7.002-0.858,8.452c-2.516,1.453-5.965-2.175-7.751-3.483
	c-6.667-4.878-14.437-13.078-22.087-16.161c-5.72-2.306-12.671,5.659-17.221,8.988c-3.338,2.442-16.94,15.892-19.02,7.771
	c-0.503-1.964,0.611-5.619,0.821-7.554c0.594-5.464,1.189-10.929,1.784-16.393c0.284-2.611,1.533-6.682,1.012-9.302
	c-0.706-3.557-2.626-3.838-5.733-5.206c-8.101-3.571-17.685-6.386-25.173-11.095c-8.316-5.228,2.987-8.312,7.849-10.454
	c5.409-2.384,21.652-6.173,23.09-12.543c0.695-3.078-0.87-8.005-1.21-11.121c-0.611-5.621-1.223-11.241-1.834-16.862
	c-0.301-2.77-1.997-8.606,2.441-8.855c2.511-0.141,6.635,4.226,8.346,5.477C62.982,362.845,79.537,378.571,83.755,375.484z"/>
<path d="M501.966,473.393c0.013-0.169,0.013-0.339,0-0.508c-0.003-0.129-0.01-0.257-0.02-0.387c-0.01-0.139-0.024-0.277-0.042-0.414
	c-0.007-0.053-0.008-0.106-0.016-0.16l-2.228-14.542c-2.301-15.016-13.3-27.155-28.021-30.925l-44.923-11.507
	c-28.318-7.253-55.01-19.146-79.336-35.347l-49.251-32.802c-12.822-8.541-21.783-21.378-25.5-35.92
	c-0.02-0.094-0.049-0.187-0.072-0.281c-1.214-4.844-1.848-9.874-1.848-14.996V100.209c0-19.668,5.351-38.98,15.477-55.849
	l0.211-0.352c2.276-3.792,2.853-8.394,1.582-12.626c-1.272-4.232-4.288-7.753-8.275-9.662C218.857-7.4,146.501-7.241,85.805,22.209
	c-7.662,3.718-10.949,12.737-7.482,20.533L84.54,56.72c4.506,10.132,7.463,20.946,8.693,31.968
	c0.683,6.127-1.16,22.583,10.169,19.362c9.288-2.641,5.16-18.79,4.173-25.448c-1.635-11.019-4.797-21.803-9.323-31.979
	l-6.217-13.976c-0.156-0.353-0.013-0.772,0.321-0.934c14.047-6.816,34.419-14.639,59.43-18.506v82.566
	c0,11.321,9.213,20.531,20.536,20.531h3.537v162.39c0,9.656,15.007,9.672,15.007,0V120.301h3.537
	c11.323,0,20.536-9.21,20.536-20.531V17.234c24.366,3.792,44.304,11.331,58.286,18.023c0.071,0.034,0.289,0.139,0.381,0.443
	c0.092,0.306-0.033,0.514-0.076,0.586l-0.212,0.353c-11.524,19.199-17.615,41.182-17.615,63.57v195.395
	c0,5.072,0.506,10.07,1.471,14.937l-13.795,17.243c-6.892,8.614-17.174,13.555-28.209,13.555h-24.302v-20.058
	c0-9.656-15.007-9.672-15.007,0v20.058h-34.987c-11.298,0-22.095-5.39-28.88-14.421l-11.622-15.465
	c5.592-13.072,8.54-27.332,8.54-41.535V137.147c0-9.656-15.007-9.672-15.007,0v132.772c0,13.503-3.097,27.072-8.957,39.24
	c-0.013,0.027-0.024,0.054-0.037,0.081c-0.014,0.03-0.029,0.061-0.042,0.091c-6.78,14.142-10.366,29.898-10.366,45.58v7.067
	L57.36,349.435c-3.345-2.447-7.824-2.689-11.415-0.617c-3.589,2.073-5.619,6.074-5.17,10.194l3.301,30.345l-27.945,12.316
	c-8.139,3.588-8.145,15.562,0.001,19.152l27.944,12.317l-3.301,30.345c-0.448,4.12,1.582,8.122,5.171,10.194
	c3.521,2.034,8.141,1.779,11.414-0.617l18.404-13.466l6.017,33.962c1.894,10.688,11.148,18.444,22.004,18.444h93.988
	c8.178,0,14.873-6.651,14.926-14.861l0.061-34.318l62.205,27.518c14.705,6.505,30.224,11.143,46.1,13.703
	c8.061,1.3,34.306,7.793,37.32-3.113c3.666-13.27-24.201-10.17-31.275-11.154c-15.878-2.212-31.414-6.674-46.074-13.159
	l-66.433-29.389c-0.287-0.127-0.583-0.236-0.884-0.326c-3.778-1.13-7.761-0.434-10.931,1.91c-3.169,2.344-5.001,5.948-5.027,9.924
	l-0.067,38.259h-93.907c-3.566,0-6.606-2.547-7.228-6.056l-5.142-29.025l15.234,11.147c3.344,2.449,7.826,2.692,11.415,0.618
	c3.59-2.073,5.62-6.074,5.171-10.194l-3.245-29.833h76.137c12.151,0,23.951,2.488,35.069,7.394l53.227,23.49
	c24.611,10.86,40.897,16.029,66.893,16.029h134.048c-2.877,6.401-9.317,10.869-16.781,10.869h-81.14c-9.656,0-9.672,15.007,0,15.007
	h81.139c18.278,0,33.166-14.76,33.381-32.981C501.966,473.437,501.965,473.415,501.966,473.393z M199.933,99.77
	c0,3.046-2.48,5.524-5.529,5.524h-22.08c-3.049,0-5.529-2.478-5.529-5.524V15.437c4.53-0.364,9.184-0.588,13.954-0.645
	c6.615-0.082,13.014,0.164,19.186,0.667V99.77H199.933z M175.86,356.346v62.297h-24.802c1.926-1.928,3.065-4.571,3.066-7.395
	c0-4.146-2.451-7.905-6.246-9.577l-27.944-12.317l3.301-30.345c0.246-2.26-0.258-4.483-1.352-6.373
	c5.984,2.402,12.423,3.708,18.99,3.708h34.986V356.346z M112.123,347.448c-1.938,0.131-3.841,0.791-5.473,1.986l-17.142,12.543
	v-7.067c0-9.225,1.448-18.479,4.233-27.297l6.255,8.323C103.397,340.46,107.52,344.325,112.123,347.448z M104.656,431.455
	l2.547,23.415l-19.018-13.915c-3.699-2.707-8.668-2.704-12.361,0l-19.018,13.915l2.547-23.415c0.496-4.555-1.989-8.858-6.185-10.708
	l-21.556-9.501l21.555-9.499c4.196-1.849,6.682-6.152,6.186-10.709l-2.547-23.415l19.016,13.914
	c3.697,2.707,8.666,2.707,12.363,0.002c0.001,0,0.001,0,0.001,0l19.017-13.915l-2.547,23.415c-0.496,4.557,1.989,8.86,6.185,10.708
	l21.556,9.5l-18.108,7.982c-0.013,0.005-0.026,0.011-0.039,0.017l-3.41,1.503C106.644,422.597,104.159,426.901,104.656,431.455z
	 M351.316,465.556c-23.449,0-37.719-4.551-60.834-14.752l-53.227-23.49c-13.039-5.754-26.876-8.672-41.128-8.672h-5.26v-62.297
	h24.304c15.619,0,30.172-6.993,39.927-19.187l7.615-9.519c5.832,12.658,15.109,23.665,27.098,31.65l49.251,32.802
	c25.735,17.141,53.972,29.721,83.93,37.395l44.924,11.507c8.884,2.275,15.522,9.6,16.911,18.66l0.904,5.901H351.316V465.556z"/>
<path d="M82.004,403.638c-9.8,0-9.775,15.218,0,15.218C91.769,418.856,91.867,403.638,82.004,403.638z"/>
<g>
</g>
<g>
</g>
<g>
</g>
<g>
</g>
<g>
</g>
<g>
</g>
<g>
</g>
<g>
</g>
<g>
</g>
<g>
</g>
<g>
</g>
<g>
</g>
<g>
</g>
<g>
</g>
<g>
</g>
</svg>
