<?xml version="1.0" encoding="iso-8859-1"?>
<!-- Generator: Adobe Illustrator 19.0.0, SVG Export Plug-In . SVG Version: 6.00 Build 0)  -->
<svg version="1.1" id="Capa_1" xmlns="http://www.w3.org/2000/svg" xmlns:xlink="http://www.w3.org/1999/xlink" x="0px" y="0px"
	 viewBox="0 0 512 512" style="enable-background:new 0 0 512 512;" xml:space="preserve">
<path style="fill:#AF1638;" d="M7.496,176.25c20.712,61.945,34.012,126.345,39.532,191.427c2.673,31.514,3.529,63.18,2.561,94.791
	c-0.173,5.643-1.526,12.648,4.566,15.762c2.909,1.487,6.881,0.946,10.034,0.946c6.137,0,17.899,2.227,22.327-3.303
	c3.938-4.918,1.936-16.175,1.936-21.866c0-15.366,0-30.733,0-46.099c0-33.478,0-66.955,0-100.432
	c0-11.162-1.268-23.173,4.338-33.305c6.571-11.876,19.933-19.123,33.478-18.003c8.242,0.681,16.406,4.566,24.137,7.287
	l15.643-20.287L7.496,176.25z"/>
<path style="fill:#8C143C;" d="M7.496,176.25c2.338,6.992,4.668,14.284,6.967,21.855c15.067,9.505,27.49,22.732,35.736,38.552
	c9.078,17.417,11.137,35.161,11.137,54.471v179.231c0,3.89-2.52,7.186-6.013,8.357c0.88,0.296,1.821,0.462,2.804,0.462
	c7.106,0,21.075,2.833,27.023-1.937c4.166-3.341,3.3-9.062,3.3-13.781c0-18.784,0-37.568,0-56.352c0-38.415-0.939-76.958,0-115.362
	c0.365-14.938,8.732-28.345,23.093-33.586c13.597-4.963,26.117,0.812,38.86,5.296l15.643-20.287L7.496,176.25z"/>
<path style="fill:#DE7B69;" d="M493.569,350.662H335.166C282.697,248.101,211.191,155.549,125.224,78.864
	C107.22,62.804,88.596,47.44,69.407,32.819L58.431,47.89C33.23,82.498,16.445,122.514,9.41,164.755L7.496,176.25l80.306,43.024
	c73.359,39.302,128.058,106.225,152.01,185.979l4.718,15.709c10.378,34.557,42.167,58.215,78.22,58.215h115.927
	c17.866,0,33.857-11.092,40.131-27.834l25.244-86.698C506.086,357.653,500.846,350.662,493.569,350.662z"/>
<path style="fill:#AF1638;" d="M443.155,479.178c8.86-31.194,13.122-63.684,12.529-96.109c-0.348-18.977-2.354-37.921-5.977-56.552
	c-1.585-8.149-3.475-16.237-5.671-24.243c-1.583-5.77-2.841-18.354-10.82-18.354h-53.522c-3.802,0-6.707,3.174-6.855,6.861
	c0,18.18-14.725,32.918-32.889,32.918h-18.213c12.039,22.541,24.157,47.209,35.862,73.973c12.498,28.578,22.93,55.901,31.672,81.508
	C407.233,479.178,425.194,479.178,443.155,479.178z"/>
<path style="fill:#8C143C;" d="M455.193,370.169c-0.979-16.941-3.285-33.801-6.866-50.388c-1.687-7.812-4.673-35.863-15.111-35.863
	h-34.864c7.777,0,8.93,11.563,10.495,17.186c2.209,7.938,4.123,15.959,5.73,24.041c3.793,19.071,5.888,38.481,6.244,57.922
	c0.594,32.426-3.669,64.915-12.529,96.109c11.621,0,23.243,0,34.864,0C450.323,453.939,457.848,416.098,455.193,370.169z"/>
<path style="fill:#CA5F5B;" d="M56.485,192.676c7.034-42.242,23.82-82.258,49.021-116.865l6.312-8.669
	C96.815,54.264,82.557,42.839,69.406,32.819L58.431,47.89C33.23,82.498,16.445,122.514,9.41,164.755L7.496,176.25l47.487,25.441
	L56.485,192.676z"/>
<path d="M508.298,350.526c-3.512-4.68-8.88-7.364-14.729-7.364h-33.495c-2.651-19.15-6.956-38.084-12.873-56.555
	c-1.953-6.094-7.573-10.188-13.987-10.188h-53.522c-14.713,0-12.393,13.684-15.946,23.221c-3.659,9.822-13.305,16.558-23.799,16.558
	h-14.719c-40.049-71.548-89.47-137.808-146.634-196.591c-2.888-2.969-7.635-3.036-10.606-0.148
	c-2.969,2.888-3.036,7.636-0.148,10.606c73.442,75.519,133.803,163.562,177.774,259.284c12.354,26.894,23.422,54.379,33.157,82.328
	h-56.024c-32.409,0-61.721-21.854-71.037-52.873l-4.718-15.709C222.639,322,165.982,252.651,91.342,212.663l-75.566-40.485
	l1.031-6.191c6.808-40.88,23.298-80.191,47.686-113.682l6.444-8.85c25.796,19.998,50.752,41.542,74.271,64.122
	c2.988,2.869,7.735,2.771,10.604-0.216c2.869-2.988,2.772-7.736-0.216-10.604c-25.771-24.742-53.241-48.261-81.647-69.904
	c-1.604-1.222-3.631-1.747-5.63-1.455c-1.996,0.292-3.791,1.375-4.978,3.006L52.368,43.475
	C26.614,78.842,9.201,120.355,2.012,163.523l-1.9,11.408c-0.003,0.017-0.005,0.033-0.008,0.05l-0.006,0.037
	c-0.002,0.012-0.001,0.024-0.003,0.036c-0.056,0.346-0.084,0.698-0.091,1.052C0.003,176.157,0,176.208,0,176.259
	c0,0.344,0.025,0.689,0.074,1.035c0.01,0.068,0.023,0.134,0.035,0.201c0.049,0.289,0.115,0.577,0.2,0.865
	c0.018,0.061,0.032,0.124,0.052,0.185c0.009,0.028,0.014,0.055,0.023,0.083c13.553,40.535,23.985,82.46,31.007,124.61
	c0.666,3.996,4.637,6.83,8.63,6.166c9.911-1.651,5.105-14.989,3.964-21.24c-2.017-11.04-4.26-22.039-6.723-32.988
	c-4.813-21.395-10.466-42.601-16.948-63.551l63.947,34.26c12.648,6.776,24.705,14.383,36.158,22.756
	c-7.6,0.533-14.996,3.144-21.511,7.758c-11.411,8.082-17.956,20.74-17.956,34.73v179.23c0,0.727-0.588,1.319-1.311,1.319H58.127
	c-0.455,0-0.759-0.217-0.934-0.398c-0.182-0.189-0.395-0.516-0.375-0.998c1.783-44.832-0.095-90.136-5.583-134.655
	c-0.507-4.111-4.247-7.026-8.361-6.526c-4.111,0.507-7.033,4.25-6.526,8.361c5.389,43.716,7.234,88.202,5.482,132.224
	c-0.176,4.427,1.481,8.797,4.547,11.987c3.102,3.228,7.274,5.005,11.75,5.005H79.64c8.994,0,16.311-7.321,16.311-16.319V291.129
	c0-9.06,4.237-17.257,11.625-22.489c7.375-5.224,16.493-6.5,25.017-3.499l13.913,4.896c40.39,37.09,70.353,84.859,86.124,137.375
	l4.718,15.709c11.202,37.301,46.433,63.558,85.402,63.558h66.497c0.016,0.003,0.033,0.003,0.049,0h49.382
	c1.087,0,2.167-0.044,3.242-0.114c1.338,0.244,2.656,0.105,3.955-0.417c17.932-2.624,33.481-14.889,39.957-32.172
	c0.066-0.176,0.125-0.354,0.178-0.535l25.244-86.697C512.889,361.12,511.812,355.21,508.298,350.526z M496.85,362.549
	l-25.162,86.413c-3.309,8.629-9.852,15.442-17.909,19.277c2.338-9.68,4.249-19.464,5.728-29.311
	c0.915-6.092,4.436-18.079-5.122-19.197c-4.117-0.482-7.839,2.464-8.32,6.578c-1.782,15.243-4.688,30.476-8.636,45.368h-42.791
	c-16.596-48.508-37.061-95.471-61.192-140.479h6.501c22.058,0,40.042-17.786,40.385-39.779h52.66
	c8.211,25.703,13.162,52.343,14.713,79.183c0.4,6.924-3.265,26.965,8.007,27c0.008,0,0.016,0,0.024,0
	c11.673-0.001,7.345-20.921,6.943-27.866c-0.223-3.863-0.52-7.721-0.878-11.574h31.767c1.483,0,2.348,0.856,2.73,1.366
	C496.684,360.041,497.267,361.115,496.85,362.549z"/>
<g>
</g>
<g>
</g>
<g>
</g>
<g>
</g>
<g>
</g>
<g>
</g>
<g>
</g>
<g>
</g>
<g>
</g>
<g>
</g>
<g>
</g>
<g>
</g>
<g>
</g>
<g>
</g>
<g>
</g>
</svg>
