<?xml version="1.0" encoding="iso-8859-1"?>
<!-- Generator: Adobe Illustrator 19.0.0, SVG Export Plug-In . SVG Version: 6.00 Build 0)  -->
<svg version="1.1" id="Capa_1" xmlns="http://www.w3.org/2000/svg" xmlns:xlink="http://www.w3.org/1999/xlink" x="0px" y="0px"
	 viewBox="0 0 512 512" style="enable-background:new 0 0 512 512;" xml:space="preserve">
<path style="fill:#F7D88B;" d="M500.849,402.813c6.059,0,3.541,12.824,2.3,15.765c-2.814,6.669-8.988,10.08-15.929,10.518
	c-3.446,0.217-6.975,0-10.426,0c-19.256,0-38.511,0-57.767,0c-33.276,0-66.571,0.331-99.846,0
	c-31.954-0.318-61.456-12.885-84.323-35.079c-9.844-9.554-19.56-19.245-29.339-28.866c-29.54-29.064-59.08-58.128-88.62-87.192
	c-15.836-15.581-32.892-27.846-54.187-35.18C44.325,236.446,25.904,230.21,7.5,223.926v-28.408
	c16.162,5.15,32.324,10.299,48.487,15.449c21.52,6.856,42.913,12.836,61.191,26.885c9.874,7.59,18.591,16.91,27.52,25.561
	c14.959,14.494,29.918,28.988,44.877,43.481c15.327,14.851,30.655,29.701,45.982,44.552c8.677,8.408,17.127,17.44,26.55,25.035
	c22.05,17.773,49.102,26.267,77.223,26.332c15.335,0.035,30.67,0,46.005,0C423.84,402.813,462.344,402.813,500.849,402.813z"/>
<path style="fill:#333F61;" d="M121.235,282.225c-23.731-9.34-51.513,0.169-64.201,22.417c-6.007,10.532-7.566,23.651-10.103,35.364
	c-3.883,17.929-7.767,35.859-11.65,53.788c-2.242,10.351-3.099,22.799-7.073,32.656c-2.093,5.192-16.536,8.1-20.132,2.666
	c-1.059-1.6-0.576-4.749-0.576-6.517c0-11.389,0-22.778,0-34.167c0-36.477,0-72.953,0-109.43c0-24.15,0-48.299,0-72.449
	l113.735,51.129C121.235,257.682,121.235,282.225,121.235,282.225z"/>
<path style="fill:#253551;" d="M91.424,279.631L91.424,279.631c9.59-2.025,19.895-1.368,29.811,2.594l0,0v-24.543L7.5,206.553V221.8
	c0,63.379,0,126.757,0,190.136c0,4.357-0.647,9.302,0,13.623c1.133,7.56,8.606,5.65,14.9,5.65c1.69,0,3.234-0.723,4.326-1.895
	c0-21.271,0-42.541,0-63.812c0-20.905-4.691-50.184,7.188-68.71C46.068,277.839,70.888,270.399,91.424,279.631z"/>
<path style="fill:#485878;" d="M121.235,282.225l2.035-20.079c3.978-39.255-4.466-79.386-23.968-113.69
	c-15.428-27.136-37.213-47.102-61.171-66.424c-2.862-2.308-7.133-1.259-8.603,2.114C16.778,113.386,7.5,142.627,7.5,174.928v48.998
	c22.727,5.883,45.298,13.984,66.101,24.926C85.914,255.329,102.937,265.752,121.235,282.225z"/>
<path style="fill:#253551;" d="M55.379,174.538c50.688,0,101.376,0,152.063,0c7.983,0,22.887-1.474,14.425-13.729
	c-6.353-9.2-14.824-11.171-25.043-11.171c-28.366,0-56.731,0-85.097,0c-25.13,0-50.26,0-75.39,0L55.379,174.538z"/>
<path style="fill:#425272;" d="M30.113,182.07c0-26.555,5.477-52.824,16.087-77.159l5.281-12.112L38.13,82.032
	c-2.862-2.308-7.132-1.259-8.603,2.114l-5.939,13.623C12.977,122.105,7.5,148.373,7.5,174.928v48.998
	c6.391,1.654,14.051,3.851,22.612,6.733V182.07H30.113z"/>
<path style="fill:#485878;" d="M504.5,406.835c0,11.357-3.646,21.413-16.687,22.261c-2.211,0.144-4.481,0-6.695,0
	c-13.337,0-26.675,0-40.012,0c-36.865,0-73.73,0-110.595,0c-9.221,0-18.442,0-27.663,0c-17.984,0-36.981-6.62-50.544-18.449
	l-61.519-58.502l-15.361-16.604l8.348,3.523c12.008,3.477,30.414,7.542,52.969,7.22c18.046-0.257,27.105-3.157,44.704-4.843
	c11.225-1.076,22.524-1.314,33.786-0.783c6.608,0.312,34.615,6.593,23.946-7.193c-15.765-20.371-33.579-39.441-50.237-59.094
	c-35.225-41.556-69.932-83.557-105.605-124.732c15.101,0,27.902-0.724,38.787,11.46c8.163,9.137,16.194,18.395,24.291,27.592
	c25.122,28.535,50.243,57.071,75.365,85.606c6.451,7.327,12.901,14.654,19.352,21.982c27.477,30.413,61.808,50.498,100.145,63.994
	C464.922,368.599,504.5,374.691,504.5,406.835z"/>
<path d="M511.988,406.237c-0.25-17.47-11.389-33.029-27.887-38.837l-48.877-17.208c-33.844-11.915-64.457-32.296-88.465-58.869
	l-119.13-135.319c-0.002-0.003-0.004-0.005-0.007-0.008l-4.544-5.162c-4.866-5.526-11.876-8.696-19.234-8.696h-3.795h-16.714
	h-79.022c-12.137-20.648-27.738-38.736-46.429-53.809L42.838,76.194c-3.199-2.581-7.323-3.5-11.315-2.521
	c-3.994,0.979-7.227,3.704-8.871,7.475l-5.94,13.623C6.814,117.473,1.254,141.532,0.187,166.28c-0.178,4.138,3.032,7.638,7.17,7.816
	c4.068,0.162,7.64-3.082,7.816-7.17c0.987-22.897,6.131-45.157,15.289-66.161l4.93-11.307l13.077,10.545
	c14.943,12.051,27.75,26.186,38.196,42.133H36.338c-6.091,0-9.658,7.217-5.958,12.056l19.041,24.899
	c1.419,1.856,3.622,2.944,5.958,2.944h50.997c8.876,25.326,12.138,52.647,9.432,79.352l-0.458,4.528
	C91.094,239.116,24.661,220.854,15,218.173v-19.438v-3.216c0-9.652-15-9.668-15,0v3.216V221.8v2.126v203.058
	c0,6.465,5.257,11.726,11.719,11.726H22.4c6.274,0,11.792-4.454,13.12-10.589l9.778-45.146c0.877-4.048-1.694-8.041-5.742-8.917
	c-4.052-0.876-8.042,1.694-8.918,5.743l-9.511,43.91H15V234.412c0,0,49.039,17.885,55.11,21.078
	c8.803,4.63,17.363,9.95,25.634,15.868c-7.439,0.796-14.748,3.004-21.529,6.61c-15.456,8.218-26.448,22.754-30.158,39.88
	l-6.737,31.105c-0.877,4.048,1.694,8.041,5.743,8.917c3.955,0.856,8.058-1.771,8.917-5.743l6.737-31.105
	c5.592-25.818,33.481-41.375,58.406-32.323l53.04,52.185l0.001,0.001l16.982,16.708c0.007,0.007,0.013,0.013,0.02,0.02
	l43.364,42.666c4.473,4.401,9.218,8.43,14.195,12.072l4.031,3.834c0.078,0.074,0.158,0.146,0.239,0.217
	c14.93,13.021,34.055,20.192,53.853,20.192h16.293c0.014,0,0.027,0,0.04,0h168.127c0.006,0,0.013,0,0.019,0h0.506
	c13.326,0,24.167-10.854,24.167-24.195v-0.526v-5.04v-0.364C512,406.392,511.991,406.315,511.988,406.237z M200.049,157.138
	c5.461,0,10.666,2.354,14.279,6.458l1.37,1.556l0.665,0.756c0.116,0.132,0.291,0.331,0.108,0.736
	c-0.178,0.394-0.434,0.394-0.603,0.394H139.9v-9.899h43.434L200.049,157.138L200.049,157.138z M91.094,167.038v-9.899h33.808v9.899
	H91.094z M51.515,157.138h24.579v9.899h-17.01L51.515,157.138z M201.23,182.038c17.677,20.785,128.766,152.21,128.766,152.21
	c-7.69-0.787-15.346-1.237-22.848-1.341c-4.069-0.056-7.547,3.317-7.604,7.396c-0.057,4.142,3.254,7.546,7.396,7.604
	c8.64,0.119,17.213,0.828,25.8,1.737c6.091,0.645,11.918,0.426,15.244-5.678c2.364-4.339,1.822-9.578-1.381-13.345
	c0,0-110.543-130.699-126.241-149.222c2.407-0.706,4.579-1.983,6.367-3.715l108.834,123.623
	c25.744,28.494,58.483,50.291,94.678,63.034l48.877,17.208c10.695,3.766,17.88,13.928,17.88,25.287v5.04
	c0,5.357-4.343,9.715-9.683,9.721H319.14c-23.561-0.008-46.053-7.321-64.852-20.848l-52.343-49.777
	c9.255,1.626,18.569,2.543,27.878,2.766c0.17,0.02,0.34,0.024,0.51,0.011c2.172,0.046,4.344,0.066,6.515,0.035
	c11.61-0.166,19.665-1.377,28.193-2.66c4.072-0.612,8.282-1.246,13.09-1.794c9.589-1.092,7.907-16.018-1.698-14.903
	c-5.075,0.578-9.421,1.232-13.623,1.864c-8.36,1.258-15.581,2.344-26.176,2.495c-1.118,0.016-2.236,0.019-3.355,0.012
	l-100.485-97.36c-0.358-0.347-0.724-0.69-1.089-1.035c-0.263-19.783-3.476-39.534-9.517-58.364L201.23,182.038L201.23,182.038z
	 M129.06,279.402l1.672-16.5c0.08-0.792,0.135-1.587,0.206-2.38l78.98,76.524c-7.929-1.138-15.826-2.824-23.64-5.066l-6.616-2.792
	L129.06,279.402z"/>
<g>
</g>
<g>
</g>
<g>
</g>
<g>
</g>
<g>
</g>
<g>
</g>
<g>
</g>
<g>
</g>
<g>
</g>
<g>
</g>
<g>
</g>
<g>
</g>
<g>
</g>
<g>
</g>
<g>
</g>
</svg>
