<?xml version="1.0" encoding="iso-8859-1"?>
<!-- Generator: Adobe Illustrator 19.0.0, SVG Export Plug-In . SVG Version: 6.00 Build 0)  -->
<svg version="1.1" id="Capa_1" xmlns="http://www.w3.org/2000/svg" xmlns:xlink="http://www.w3.org/1999/xlink" x="0px" y="0px"
	 viewBox="0 0 511.999 511.999" style="enable-background:new 0 0 511.999 511.999;" xml:space="preserve">
<path style="fill:#DB4D4D;" d="M121.235,347.581c-24.489-9.634-53.158,0.849-65.257,24.355c-5.435,10.559-6.934,23.65-9.424,35.143
	c-3.991,18.417-7.982,36.834-11.972,55.252c-1.599,7.379-3.198,14.757-4.797,22.136c-0.574,2.648-0.682,7.303-2.39,9.611
	C23.863,498.852,8.994,498,7.5,492.256c-0.437-1.68,0-4.076,0-5.788c0-12.273,0-24.546,0-36.819c0-37.576,0-75.152,0-112.729
	c0-24.113,0-48.226,0-72.339l113.735,58.07V347.581z"/>
<path style="fill:#9E3535;" d="M74,352.154L74,352.154c13.499-8.682,30.895-11.098,47.235-4.573l0,0v-24.929L7.5,264.582v22.601
	c0,63.505,0,127.009,0,190.514c0,4.244-0.74,9.256,0,13.449c1.308,7.409,9.395,5.353,15.538,5.353c0.708,0,1.38-0.159,2.001-0.424
	c0-19.819,0-39.638,0-59.458c0-13.225,0-26.449,0-39.674c0-6.944-0.71-14.529,0.635-21.393C29.903,353.975,54.486,342.19,74,352.154
	z"/>
<path style="fill:#F7D88B;" d="M500.849,468.115c6.058,0,3.542,12.817,2.3,15.758c-2.815,6.668-8.99,10.076-15.929,10.513
	c-3.446,0.217-6.975,0-10.426,0c-19.256,0-38.511,0-57.767,0c-33.276,0-66.571,0.331-99.846,0
	c-31.951-0.318-61.453-12.877-84.323-35.064c-9.844-9.55-19.56-19.236-29.339-28.853c-29.54-29.051-59.08-58.102-88.62-87.153
	c-15.838-15.576-32.895-27.835-54.187-35.164c-18.387-6.33-36.808-12.562-55.212-18.844v-28.395
	c17.405,5.543,34.81,11.086,52.215,16.629c24.882,7.924,48.497,15.9,67.861,34.653l122.82,122.412
	c22.221,21.52,52.001,33.21,82.825,33.508c8.914,0.086,17.834,0,26.749,0c36.933,0,73.866,0,110.799,0
	C480.795,468.115,490.822,468.115,500.849,468.115z"/>
<path style="fill:#DB4D4D;" d="M426.316,391.841c-16.963,0-34.863-1.767-51.715,0c-5.425,0.569-5.826,2.975-5.702,8.432
	c0.227,9.933,0.485,19.825,0.152,29.763c-0.725,21.611-3.239,43.157-7.53,64.351h61.969
	C425.589,483.09,438.797,391.841,426.316,391.841z"/>
<path style="fill:#BC4444;" d="M195.847,92.603H23.875V61.408c56.291,0,112.729-1.278,169.003,0
	c5.456,0.124,9.439,1.509,10.154,7.908C203.736,75.61,205.527,92.603,195.847,92.603z"/>
<path style="fill:#F7D88B;" d="M122.887,77.006c0,17.402-14.525,31.975-31.937,31.975S59.014,94.407,59.014,77.006
	s14.525-31.975,31.937-31.975C108.364,45.03,122.887,59.603,122.887,77.006z"/>
<path style="fill:#E2C283;" d="M121.926,84.804c1.274-5.086,1.273-10.512,0-15.598H94.071c-10.026,0-10.042,15.598,0,15.598H121.926
	z"/>
<path style="fill:#DB4D4D;" d="M59.357,73.683c-0.575-19.411-8.67-38.232-22.376-51.991c-3.666-3.68-10.842-10.565-13.107-1.573
	c-0.371,1.473,0,3.454,0,4.975c0,21.714,0,43.428,0,65.141c0,23.417,0.451,45.308-8.187,67.749
	C6.735,181.238,7.5,204.201,7.5,228.506c0,20.72,0,41.439,0,62.159l57.781,19.721c4.376,1.514,9.248,3.478,14.418,6.043
	c5.008,2.485,9.395,3.732,13.161,6.223v1.357c-16.822-8.455-27.442-27.046-27.442-45.892"/>
<path d="M500.849,460.615h-64.891c0.597-5.668,1.098-11.34,1.478-17c0.277-4.133-2.849-7.708-6.981-7.985
	c-4.144-0.274-7.708,2.849-7.985,6.981c-0.991,14.777-2.757,29.641-5.259,44.275h-46.627c1.053-5.905,1.967-11.846,2.754-17.803
	c0.011-0.088,0.026-0.175,0.034-0.264c3.024-23.016,4.033-46.287,2.996-69.479h46.847c0.109,3.37,0.18,6.763,0.212,10.123
	c0.037,4.039,3.5,7.514,7.569,7.43c4.142-0.039,7.468-3.428,7.43-7.569c-0.042-4.535-0.154-9.127-0.333-13.651
	c-0.251-6.354-5.424-11.333-11.775-11.333h-53.331c-3.22,0-6.337,1.339-8.551,3.675c-2.213,2.334-3.384,5.516-3.212,8.73
	c0.8,14.981,0.712,30.169-0.262,45.14c-0.405,6.239-0.972,12.49-1.688,18.729h-26.14c-29.066,0-56.579-11.135-77.479-31.357
	L132.871,306.884c-0.025-0.025-0.051-0.051-0.077-0.076c-13.953-13.513-31.107-23.77-49.606-29.661l-10.393-3.31l-2.302-77.621
	c-0.123-4.14-3.565-7.41-7.719-7.274c-4.141,0.123-7.397,3.579-7.274,7.719l2.418,81.573c0.001,0.323,0.019,0.643,0.025,0.965
	c-0.006,0.244,0.001,0.487,0.019,0.728c0.217,7.053,1.683,13.855,4.269,20.138L15,283.943v-23.03V199.16
	c0-13.213,2.562-26.102,7.617-38.307c5.811-14.035,8.757-28.854,8.757-44.046v-16.704h21.263l1.815,61.198
	c0.121,4.069,3.65,7.406,7.719,7.274c4.141-0.123,7.397-3.579,7.274-7.719l-1.537-51.845c17.437,12.613,42.416,8.476,54.994-8.908
	h72.95c8.095,0,14.68-6.589,14.68-14.689V68.597c0-8.099-6.585-14.688-14.68-14.688h-72.949
	c-14.173-19.589-43.4-21.759-60.254-4.352c-4.986-15.111-14.184-28.628-26.562-38.798c-3.64-2.991-8.545-3.599-12.804-1.586
	c-4.262,2.014-6.909,6.194-6.909,10.909v41.327v31.195v24.204c0,13.213-2.563,26.101-7.616,38.307
	C2.947,169.149,0,183.968,0,199.161v293.114c0,6.464,5.257,11.724,11.719,11.724h11.319c5.903,0,11.096-4.189,12.347-9.962
	l23.332-107.673c5.594-25.815,33.491-41.351,58.407-32.306l55.896,54.971c2.89,2.842,7.756,2.81,10.606-0.088
	c2.905-2.953,2.865-7.702-0.088-10.606l-57.011-56.068c-0.013-0.013-0.026-0.025-0.039-0.038l-10.953-10.772
	c-5.551-5.459-24.589-18.839-25.83-19.55c-7.272-5.472-12.515-13.086-15.056-21.735l3.987,1.27
	c16.287,5.187,31.392,14.214,43.683,26.105l122.783,122.372c0.025,0.025,0.051,0.051,0.077,0.076
	c23.718,22.97,54.954,35.62,87.954,35.62h24.111c-0.584,3.77-1.215,7.529-1.91,11.271h-36.153
	c-29.405,0-57.153-11.362-78.132-31.994l-35.485-34.898c-2.954-2.905-7.703-2.865-10.606,0.088
	c-2.905,2.953-2.865,7.702,0.088,10.606l35.485,34.898c23.802,23.408,55.285,36.299,88.649,36.299h42.34h61.969h63.818
	c13.615,0,24.692-11.086,24.692-24.713v-5.402C512,465.62,506.998,460.615,500.849,460.615z M31.375,68.908h20.977
	c-1.111,5.314-1.111,10.882,0,16.195H31.375V68.908z M195.532,68.908v16.195H129.55c1.111-5.314,1.111-10.882,0-16.195H195.532z
	 M90.95,52.53c10.863,0,20.089,7.138,23.259,16.976H94.072c-9.652,0-9.668,15,0,15h20.137c-6.071,18.841-31.825,22.738-43.219,6.606
	C59.787,75.249,71.505,52.53,90.95,52.53z M48.28,53.908H31.375V26.695C39.052,34.319,44.841,43.664,48.28,53.908z M74.204,343.328
	c-15.45,8.216-26.438,22.744-30.147,39.858L21.128,488.998H15V299.793l47.829,16.324c18.977,6.7,32.772,17.687,35.935,20.352
	C90.284,336.938,81.904,339.234,74.204,343.328z M497,477.173c0,5.356-4.348,9.713-9.692,9.713h-54.899
	c0.618-3.746,1.197-7.503,1.722-11.271H497V477.173z"/>
<g>
</g>
<g>
</g>
<g>
</g>
<g>
</g>
<g>
</g>
<g>
</g>
<g>
</g>
<g>
</g>
<g>
</g>
<g>
</g>
<g>
</g>
<g>
</g>
<g>
</g>
<g>
</g>
<g>
</g>
</svg>
