<?xml version="1.0" encoding="iso-8859-1"?>
<!-- Generator: Adobe Illustrator 19.0.0, SVG Export Plug-In . SVG Version: 6.00 Build 0)  -->
<svg version="1.1" id="Capa_1" xmlns="http://www.w3.org/2000/svg" xmlns:xlink="http://www.w3.org/1999/xlink" x="0px" y="0px"
	 viewBox="0 0 512 512" style="enable-background:new 0 0 512 512;" xml:space="preserve">
<path style="fill:#F7D88B;" d="M500.849,402.814c6.059,0,3.541,12.824,2.3,15.765c-2.814,6.669-8.988,10.08-15.929,10.518
	c-3.446,0.217-6.975,0-10.426,0c-19.256,0-38.511,0-57.767,0c-33.276,0-66.571,0.331-99.846,0
	c-31.954-0.318-61.456-12.885-84.323-35.079c-9.844-9.554-19.56-19.245-29.339-28.866c-29.54-29.064-59.08-58.128-88.62-87.192
	c-15.836-15.581-32.892-27.846-54.187-35.18c-18.387-6.333-36.808-12.569-55.212-18.853v-28.408
	c16.162,5.15,32.324,10.299,48.487,15.449c21.52,6.856,42.913,12.836,61.191,26.885c9.874,7.59,18.591,16.91,27.52,25.561
	c14.959,14.494,29.918,28.988,44.877,43.481c15.327,14.851,30.655,29.701,45.982,44.552c8.677,8.408,17.127,17.44,26.55,25.035
	c22.05,17.773,49.102,26.267,77.223,26.332c15.335,0.035,30.67,0,46.005,0C423.84,402.814,462.344,402.814,500.849,402.814z"/>
<path style="fill:#AF1638;" d="M121.235,282.226c-23.731-9.34-51.513,0.169-64.201,22.417c-6.007,10.532-7.566,23.651-10.103,35.364
	c-3.883,17.929-7.767,35.859-11.65,53.788c-2.242,10.351-3.099,22.799-7.073,32.656c-2.093,5.192-16.536,8.1-20.132,2.666
	c-1.059-1.6-0.576-4.75-0.576-6.517c0-11.389,0-22.778,0-34.167c0-36.477,0-72.953,0-109.43c0-24.209,0-48.418,0-72.628
	l113.735,50.456C121.235,256.831,121.235,282.226,121.235,282.226z"/>
<path style="fill:#8C143C;" d="M74.963,286.186L74.963,286.186c13.357-8.187,30.32-10.334,46.272-3.96v-25.395L7.5,206.376v15.425
	c0,63.379,0,126.758,0,190.136c0,4.357-0.647,9.302,0,13.623c1.133,7.56,8.607,5.65,14.9,5.65c1.601,0,3.064-0.657,4.143-1.72
	c0-19.461,0-38.922,0-58.383c0-12.781,0-25.562,0-38.343c0-6.76-0.621-13.987,0.473-20.698
	C30.586,290.178,54.701,277.198,74.963,286.186z"/>
<g>
	<path style="fill:#AF1638;" d="M121.235,282.226l2.035-20.079c3.978-39.255-4.466-79.386-23.968-113.69
		c-15.428-27.136-37.213-47.102-61.171-66.424c-2.862-2.308-7.133-1.259-8.603,2.114C16.778,113.386,7.5,142.628,7.5,174.929v48.998
		c22.727,5.883,45.298,13.984,66.101,24.926C85.914,255.33,102.937,265.753,121.235,282.226z"/>
	<path style="fill:#AF1638;" d="M235.79,394.935c27.964-7.892,54.769-19.876,79.191-35.631
		c14.944-9.641,28.976-20.681,41.884-32.912c4.772-4.522,9.483-11.489,15.004-14.96c7.035-4.422,14.613,2.436,20.607,5.817
		c30.786,17.369,63.366,32.576,93.133,51.651c11.922,7.64,18.489,20.028,18.892,34.078c0.267,9.296,0.399,19.497-9.217,24.323
		c-6.53,3.277-16.342,1.796-23.392,1.796c-15.115,0-30.231,0-45.346,0c-34.532,0-69.063,0-103.595,0
		c-9.719,0-19.8,0.623-29.468-0.604C269.336,425.428,253.209,410.128,235.79,394.935z"/>
</g>
<path style="fill:#8C143C;" d="M484.543,368.242c-23.051-13.277-46.513-25.822-69.823-38.632
	c-10.812-5.942-21.732-13.838-33.099-18.543c-10.883-4.506-19.331,10.26-26.261,16.739c22.378,12.325,46.317,23.316,67.614,37.44
	c15.726,10.429,25.443,28.24,25.442,47.156c0,9.22-7.462,16.695-16.668,16.695c17.852,0,35.722,0.253,53.571,0
	c12.508-0.177,19.021-7.685,19.181-19.937C504.717,392.544,499.812,377.037,484.543,368.242z"/>
<path d="M488.286,361.743c-16.616-9.571-34.402-19.279-51.603-28.667c-17.13-9.351-34.844-19.019-51.315-28.506
	c-16.034-9.237-29.574,12.887-39.736,21.971c-7.196,6.432,2.79,17.626,9.997,11.183c6.987-6.246,13.767-12.917,20.151-19.826
	c0.547-0.591,1.411-0.728,2.102-0.33c16.62,9.573,34.411,19.284,51.615,28.674c17.126,9.348,34.835,19.014,51.303,28.499
	c9.993,5.756,16.2,16.513,16.2,28.073v3.658v5.404c0,5.36-4.348,9.721-9.692,9.721H319.181c-24.762,0-48.349-8.063-67.708-22.935
	l-0.584-0.51c7.582-2.508,15.03-5.313,22.341-8.39c0.051-0.019,0.1-0.043,0.15-0.063c18.011-7.591,35.168-16.881,51.277-27.804
	c3.428-2.324,4.323-6.988,1.999-10.417c-2.325-3.429-6.989-4.324-10.417-1.999c-14.114,9.569-29.075,17.828-44.746,24.712
	c-4.334-3.132-8.465-6.572-12.3-10.287L132.794,241.437c-0.353-0.342-0.714-0.68-1.072-1.019
	c-0.653-58.925-27.314-114.569-73.837-152.088L42.838,76.195c-3.2-2.581-7.324-3.5-11.315-2.521
	c-3.994,0.979-7.227,3.704-8.871,7.475l-5.94,13.623c-4.286,9.831-28.619,77.783-9.352,78.679c4.141,0.208,7.648-3.005,7.84-7.144
	c1.055-22.681,6.189-44.732,15.262-65.541l4.93-11.307l13.077,10.545c48.446,39.07,73.62,99.401,67.339,161.385l-0.458,4.528
	c-13.415-13.144-29.883-23.295-47.645-29.36c0,0-43.044-15.704-52.705-18.385v-19.007v-3.647c0-9.652-15-9.668-15,0v3.647v22.634
	v2.126v203.058c0,6.465,5.257,11.726,11.719,11.726H22.4c6.274,0,11.792-4.454,13.12-10.589l5.738-26.491
	c0.877-4.048-1.694-8.041-5.743-8.918c-4.046-0.876-8.041,1.694-8.917,5.742l-5.47,25.255H15V234.413
	c0,0,49.039,17.885,55.11,21.078c8.803,4.63,17.363,9.95,25.634,15.868c-7.439,0.796-14.748,3.004-21.529,6.61
	c-15.456,8.218-26.448,22.754-30.158,39.88l-9.748,45.004c-0.877,4.048,1.694,8.041,5.743,8.917c3.955,0.855,8.057-1.77,8.917-5.743
	l9.748-45.004c5.592-25.817,33.481-41.375,58.406-32.323L230.53,400.281c3.634,3.576,7.449,6.903,11.421,9.979l7.044,6.144
	c14.93,13.021,34.056,20.193,53.853,20.193h16.333h168.127h0.525c13.326,0,24.167-10.854,24.167-24.195v-0.526v-5.404v-3.658
	C512,385.905,502.914,370.168,488.286,361.743z M248.755,374.677c2.147,2.08,4.393,4.064,6.687,5.991
	c-5.76,2.125-11.609,4.064-17.533,5.831L129.06,279.403l1.672-16.501c0.081-0.794,0.133-1.587,0.204-2.381L248.755,374.677z"/>
<g>
</g>
<g>
</g>
<g>
</g>
<g>
</g>
<g>
</g>
<g>
</g>
<g>
</g>
<g>
</g>
<g>
</g>
<g>
</g>
<g>
</g>
<g>
</g>
<g>
</g>
<g>
</g>
<g>
</g>
</svg>
