<?xml version="1.0" encoding="iso-8859-1"?>
<!-- Generator: Adobe Illustrator 19.0.0, SVG Export Plug-In . SVG Version: 6.00 Build 0)  -->
<svg version="1.1" id="Capa_1" xmlns="http://www.w3.org/2000/svg" xmlns:xlink="http://www.w3.org/1999/xlink" x="0px" y="0px"
	 viewBox="0 0 512.001 512.001" style="enable-background:new 0 0 512.001 512.001;" xml:space="preserve">
<path style="fill:#F56C6C;" d="M500.869,402.693c-5.912-23.728-25.896-30.717-44.893-41.953
	c-8.115-4.799-16.176-9.691-24.264-14.536c-28.477-17.06-56.955-34.12-85.431-51.18c-7.574-4.537-15.148-9.075-22.723-13.612
	c-35.1,4.184-69.356-8.066-94.97-32.088c-10.889-10.212-21.71-20.498-32.564-30.747c-37.95-35.832-75.899-71.663-113.848-107.496
	c-9.851-9.301-19.701-18.602-29.552-27.903c-10.784,11.61-22.544,22.809-30.648,36.543C8.401,142.73,4.159,170.596,10.278,196.603
	l45.857,150.736l48.017-74.312l22.241-8.743l56.331,48.429l91.667,89.979h226.479V402.693z"/>
<path style="fill:#E56767;" d="M60.89,196.603L60.89,196.603c-7.237-30.756-0.111-62.953,19.009-87.671L52.624,83.179l-17.26,18.582
	c-23.636,25.445-33.045,61.017-25.086,94.842l0,0l45.857,150.736l34.411-53.256L60.89,196.603z"/>
<path style="fill:#DB4D4D;" d="M10.279,224.846c12.839,49.704,25.679,99.408,38.518,149.112c2.837,10.982,5.674,21.965,8.511,32.947
	c2.112,8.175,2.949,14.681,13.69,13.858c9.159-0.702,10.249-10.566,12.944-17.995c4.933-13.596,9.866-27.191,14.799-40.787
	c9.218-25.404,18.435-50.807,27.653-76.21l6.383-25.277L10.279,224.846z"/>
<path style="fill:#C14646;" d="M128.19,278.656L128.19,278.656l4.587-18.162L10.278,224.846l49.311,190.891
	c0.765,2.959,3.43,5.026,6.482,5.026c5.612,0,11.836,0.712,13.573-6.15c-5.889-22.798-11.89-45.57-17.668-68.396
	c-4.269-16.866-2.386-33.882,8.267-48.1C83.589,280.301,106.786,272.428,128.19,278.656z"/>
<path style="fill:#DB4D4D;" d="M500.869,402.693c5.703,0,3.701,11.599,2.654,14.617c-2.5,7.206-8.844,11.057-16.175,11.513
	c-3.482,0.217-7.046,0-10.532,0c-18.796,0-37.592,0-56.388,0c-33.399,0-66.816,0.34-100.213,0
	c-31.723-0.323-61.197-12.771-83.863-34.887c-10.045-9.801-20.011-19.684-30.016-29.525c-29.158-28.682-58.317-57.364-87.474-86.045
	c-15.681-15.425-32.611-27.521-53.682-34.777c-18.284-6.296-36.603-12.495-54.904-18.742v-28.243
	c16.072,5.12,32.144,10.239,48.216,15.359C79,218.496,99.467,224.13,117.16,237.058c10.642,7.777,19.87,17.671,29.317,26.822
	c14.75,14.288,29.5,28.576,44.25,42.864c23.62,22.881,46.296,47.965,71.696,68.914c22.102,18.229,49.419,26.969,77.864,27.035
	c15.166,0.035,30.333,0,45.499,0C424.149,402.693,462.508,402.693,500.869,402.693z"/>
<path d="M507.052,397.075c-4.621-14.246-14.804-26.048-28.318-32.673c-5.867-2.877-12.131-6.039-18.181-9.664l-133.14-79.759
	c-1.43-0.855-3.102-1.21-4.757-1.011c-32.132,3.896-64.062-6.625-87.609-28.86l-93.29-88.084c-3.014-2.844-7.759-2.708-10.603,0.304
	c-2.844,3.012-2.708,7.758,0.304,10.602l93.29,88.084c26.166,24.707,61.426,36.703,97.123,33.131l130.974,78.461
	c6.524,3.909,13.125,7.243,19.286,10.264c7.709,3.779,13.923,9.876,17.882,17.322H337.649c-28.91,0-56.276-11.086-77.056-31.215
	L134.902,242.223c-13.879-13.445-30.942-23.65-49.346-29.512l-68.838-21.928c-5.749-30.191,3.117-61.284,24.142-83.917
	l12.114-13.042l54.914,51.85c3.011,2.843,7.757,2.708,10.603-0.304c2.844-3.012,2.708-7.758-0.304-10.602L57.774,77.726
	c-1.454-1.373-3.391-2.107-5.396-2.043c-1.998,0.065-3.888,0.927-5.249,2.392L29.869,96.657
	c-25.175,27.102-35.26,64.701-27.09,100.754v27.435c0,0.031,0.007,0.062,0.007,0.093c0.005,0.355,0.028,0.711,0.084,1.07
	c0.005,0.032,0.014,0.062,0.02,0.094c0.035,0.206,0.074,0.413,0.127,0.619l49.311,190.892c1.62,6.27,7.272,10.649,13.744,10.649
	h6.65c5.951,0,11.313-3.761,13.342-9.357l22.285-61.416c1.413-3.894-0.598-8.195-4.491-9.608c-3.896-1.412-8.195,0.598-9.608,4.492
	l-22.095,60.889h-5.458L21.019,236.437l44.295,15.121c15.632,5.336,30.123,14.283,41.906,25.874l10.48,10.309l-10.975,30.247
	c-1.413,3.894,0.598,8.195,4.491,9.608c3.797,1.378,8.234-0.703,9.608-4.492l8.635-23.797l102.573,100.898
	c23.678,23.29,54.995,36.117,88.184,36.117h95.261c9.652,0,9.668-15,0-15h-95.261c-29.229,0-56.812-11.297-77.664-31.81
	L117.74,266.738c-13.379-13.159-29.832-23.317-47.58-29.375l-52.382-17.882v-12.618l63.226,20.14
	c16.209,5.163,31.237,14.151,43.462,25.994l125.691,121.754c23.594,22.854,54.666,35.441,87.492,35.441h159.352v1.509
	c0,5.305-4.305,9.621-9.597,9.621h-31.043c-9.652,0-9.668,15,0,15h31.043c13.563,0,24.597-11.045,24.597-24.621v-5.373
	C512,402.476,510.033,399.075,507.052,397.075z"/>
<g>
</g>
<g>
</g>
<g>
</g>
<g>
</g>
<g>
</g>
<g>
</g>
<g>
</g>
<g>
</g>
<g>
</g>
<g>
</g>
<g>
</g>
<g>
</g>
<g>
</g>
<g>
</g>
<g>
</g>
</svg>
