<?xml version="1.0" encoding="iso-8859-1"?>
<!-- Generator: Adobe Illustrator 19.0.0, SVG Export Plug-In . SVG Version: 6.00 Build 0)  -->
<svg version="1.1" id="Capa_1" xmlns="http://www.w3.org/2000/svg" xmlns:xlink="http://www.w3.org/1999/xlink" x="0px" y="0px"
	 viewBox="0 0 512 512" style="enable-background:new 0 0 512 512;" xml:space="preserve">
<path style="fill:#493C35;" d="M440.901,429.42c0-20.574,0.345-41.177,0-61.747c-0.313-18.65-18.435-18.317-32.266-23.337
	c-19.089-6.929-36.729-17.708-51.611-31.526c-37.386-34.713-48.342-86.123-63.714-132.785c-8.53-25.894-17.06-51.787-25.59-77.681
	c-2.806-8.517-5.612-17.034-8.417-25.551c-2.177-6.61-3.994-13.098-10.294-17.216c-11.798-7.71-30.011,1.867-41.872,5.72
	c-23.598,7.666-47.196,15.331-70.794,22.997C94.211,101.98,52.08,115.666,9.949,129.352c-0.816,0.265-1.633,0.53-2.449,0.796
	c0,15.698,0,31.397,0,47.095l112.354,52.33L256,407.314l40.436,25.464l63.966,10.567H440.9L440.901,429.42L440.901,429.42z"/>
<path style="fill:#382E29;" d="M118.982,227.049c-6.048-17.516-16.38-31.079-27.439-45.591
	c-9.555-12.538-12.155-29.548-5.788-44.124c6.611-15.136,17.052-17.486,30.824-21.959c36.035-11.706,72.07-23.412,108.105-35.118
	c10.761-3.496,21.522-6.991,32.283-10.487c-3.606-10.29-14.757-15.866-25.16-12.487L7.5,130.148v31.203v15.892l112.354,52.33
	L118.982,227.049z"/>
<path style="fill:#EF9067;" d="M139.566,282.541c-5.276,39.338-10.553,78.676-15.829,118.014
	c-2.095,15.621-2.567,32.651-6.432,47.95c-1.89,7.481-7.191,7.193-13.388,7.193c-10.717,0-21.433,0-32.15,0
	c-13.11,0-26.219,0-39.329,0c-4.984,0-14.322,1.953-19.019-0.408c-6.717-3.375-3.168-24.817-3.168-30.48
	c0-48.613,0-97.225,0-145.838c0-35.891,0-71.783,0-107.674l51.38,21.912l58.223,36.363l19.713,34.329L139.566,282.541
	L139.566,282.541z"/>
<path style="fill:#E07F65;" d="M98.167,264.77L98.167,264.77L138.566,290l1.001-7.459v-18.639l-19.712-34.329L61.631,193.21
	l-51.38-21.912v21.912c0,35.642,0,71.284,0,106.926c0,47.193,0,94.385,0,141.578c0,4.15-1.324,11.33,3.168,13.576
	c4,2,11.789,0.408,16.017,0.408c5.784,0,11.568,0,17.352,0c0-52.096-1.331-104.364,0-156.44
	C47.452,273.27,73.284,254.157,98.167,264.77z"/>
<path style="fill:#F49E73;" d="M500.849,429.42c5.409,0,3.899,10.502,3.037,13.637c-2.123,7.724-8.906,12.147-16.606,12.64
	c-3.829,0.246-7.754,0-11.589,0c-19.869,0-39.738,0-59.607,0c-40.817,0-84.629,4.3-123.442-10.629
	c-28.185-10.841-52.303-29.549-70.602-53.466c-7.917-10.347-15.718-20.785-23.577-31.177
	c-24.235-32.048-48.471-64.096-72.706-96.144c-15.174-20.065-32.42-37.575-54.597-50.01c-19.794-11.099-42.277-17.219-63.662-24.52
	v-28.402c16.179,5.154,32.362,10.294,48.537,15.462c28.206,9.011,53.536,24.016,73.536,46.072
	c21.886,24.136,40.475,51.908,60.266,77.728c19.657,25.644,38.091,53.386,59.998,77.215c23.438,25.494,55.06,42.909,89.144,49.06
	c15.913,2.871,31.878,2.533,47.95,2.533C424.904,429.42,462.876,429.42,500.849,429.42z"/>
<path d="M500.849,421.921H448.4v-56.489c0-10.869-7.704-20.418-18.319-22.706c-49.98-10.771-90.979-47.668-106.998-96.292
	l-31.646-96.062c-1.295-3.934-5.533-6.071-9.47-4.777c-3.935,1.296-6.073,5.536-4.776,9.47l31.646,96.062
	c17.677,53.657,62.924,94.375,118.084,106.262c3.755,0.809,6.479,4.191,6.479,8.042v56.489h-66.098
	c-46.911,0-92.187-22.385-120.716-59.604l-102.61-133.864c-20.897-27.264-49.231-47.182-81.939-57.601L15,155.869v-20.271
	l219.125-71.182c6.569-2.136,13.69,1.477,15.858,8.059l16.611,50.425c1.295,3.934,5.533,6.073,9.47,4.777
	c3.935-1.296,6.073-5.536,4.776-9.47L264.229,67.78c-4.744-14.403-20.32-22.312-34.739-17.631L5.183,123.015
	C2.093,124.019,0,126.899,0,130.148v31.203v28.402c0,2.29,1.052,4.385,2.751,5.782v164.822c0,9.652,15,9.668,15,0v-159.18
	l24.498,8.363c28.845,9.848,53.817,27.914,72.217,52.245l17.257,22.819L109.78,448.198H17.751V395.41c0-9.652-15-9.668-15,0v55.094
	c0,7,5.691,12.694,12.687,12.694h94.431c7.431,0,13.779-5.558,14.768-12.927l19.941-148.668l49.997,66.114
	c2.499,3.303,7.201,3.958,10.506,1.458c3.304-2.499,3.957-7.202,1.459-10.506l-80.108-105.932
	c-20.213-26.728-47.646-46.574-79.336-57.392L15,184.388v-12.777l42.484,13.533c29.772,9.484,55.564,27.615,74.588,52.434
	l102.61,133.864c31.342,40.89,81.078,65.479,132.62,65.479H497v1.56c0,5.358-4.348,9.717-9.692,9.717H349.889
	c-47.367,0-92.72-22.577-121.317-60.395c-2.5-3.303-7.201-3.958-10.506-1.458c-3.304,2.498-3.957,7.202-1.459,10.506
	c31.306,41.396,81.364,66.347,133.282,66.347h137.419c13.615,0,24.692-11.088,24.692-24.717v-5.404
	C512,426.925,506.997,421.921,500.849,421.921z"/>
<g>
</g>
<g>
</g>
<g>
</g>
<g>
</g>
<g>
</g>
<g>
</g>
<g>
</g>
<g>
</g>
<g>
</g>
<g>
</g>
<g>
</g>
<g>
</g>
<g>
</g>
<g>
</g>
<g>
</g>
</svg>
