<?xml version="1.0" encoding="iso-8859-1"?>
<!-- Generator: Adobe Illustrator 19.0.0, SVG Export Plug-In . SVG Version: 6.00 Build 0)  -->
<svg version="1.1" id="Capa_1" xmlns="http://www.w3.org/2000/svg" xmlns:xlink="http://www.w3.org/1999/xlink" x="0px" y="0px"
	 viewBox="0 0 512 512" style="enable-background:new 0 0 512 512;" xml:space="preserve">
<path style="fill:#AF3838;" d="M129.485,197.276c-25.098-27.291-69.97-11.822-75.085,24.103
	c-2.094,14.708-3.537,29.539-5.303,44.289c-6.257,52.257-12.514,104.513-18.771,156.77c-0.645,5.388,0.094,11.574-6.427,12.703
	c-5.178,0.896-12.493,0.727-13.649-5.27c-0.167-0.868,0.032-1.886,0-2.767c-0.549-15.221,0-30.565,0-45.794
	c0-57.439,0-114.877,0-172.316c0-34.797,0-69.594,0-104.391c0-4.851,0-9.701,0-14.552l51.76,19.456l53.958,44.678L129.485,197.276z"
	/>
<path style="fill:#9E3535;" d="M75.094,158.024L75.094,158.024l31.298,25.915c8.381,1.732,16.463,6.053,23.093,13.337l0,0
	l-13.516-43.09l-53.958-44.678l-51.76-19.457v14.659c0,39.021,0,78.042,0,117.064c0,59.406,0,118.813,0,178.219
	c0,8.295,0,16.591,0,24.886c0,1.502-0.266,3.295,0,4.781c1.221,6.831,7.644,5.48,13.084,5.48c0-78.267,0-156.535,0-234.802
	c0-6.721-0.04-13.223,2.34-19.7C32.906,160.955,55.496,150.657,75.094,158.024z"/>
<path style="fill:#AF3838;" d="M7.5,80.928c0-9.11,25.683,3.881,28.96,5.129c9.898,3.769,19.795,7.538,29.693,11.307
	c35.254,12.037,60.382,40.777,79.4,72.854l99.012,165.577c25.217,42.532,66.116,67.131,115.051,71.958
	c27.143,2.677,55.067,1.105,82.29,1.105c15.272,0,30.544,0,45.816,0c3.79,0,8.295-0.677,12.036,0
	c5.917,1.07,5.448,7.315,4.356,12.519c-3.051,14.54-16.972,13.763-28.399,13.763c-15.336,0-30.671,0-46.007,0
	c-27.109,0-55.316,2.024-82.302-1.329c-51.689-6.423-98.503-36.761-125.749-81.106c-27.487-44.739-53.604-90.376-80.382-135.541
	c-11.639-19.632-22.45-40.931-37.498-58.211c-17.467-20.058-40.001-35.445-65.01-44.483c-6.408-2.316-12.894-4.425-19.342-6.627
	c-5.079-1.734-11.059-2.145-11.926-8.063C6.619,93.767,7.5,87.02,7.5,80.928z"/>
<path style="fill:#DB4D4D;" d="M440.429,435.14c5.341-11.617,11.649-28.69,14.473-50.135c2.282-17.328,1.617-32.411,0.195-44.017
	c-1.841-2.171-3.22-3.798-5.061-5.969c-38.725-11.348-70.338-41.235-83.92-79.224c-5.794-16.205-7.423-32.77-7.422-49.855
	c0-6.05,1.833-12.384-4.934-14.418c-7.832-2.354-17.06-2.643-25.167-3.354c-27.615-2.424-55.571-0.763-82.695,4.975
	c-43.568,9.217-75.941,26.921-95.383,39.602c20.98,36.132,41.959,72.264,62.939,108.397c14.582,25.114,32.217,47.261,56.427,63.843
	c29.839,20.436,64.713,30.123,100.69,30.155C393.857,435.16,417.143,435.14,440.429,435.14z"/>
<path d="M500.849,401.358H459.63c1.118-5.076,2.026-10.203,2.707-15.373c2.004-15.213,2.072-30.659,0.204-45.909
	c-0.178-1.453-0.777-2.821-1.724-3.938l-5.061-5.969c-0.948-1.119-2.204-1.935-3.611-2.347
	c-25.001-7.326-46.471-22.234-62.087-43.112c-15.612-20.874-23.865-45.693-23.865-71.775V195.74c0-5.527-3.937-10.27-9.361-11.279
	c-27.587-5.131-55.698-6.223-83.558-3.248c-9.597,1.025-8.023,15.933,1.594,14.915c25.438-2.718,51.099-1.857,76.325,2.557v14.25
	c0,29.346,9.286,57.272,26.854,80.76c17.12,22.888,40.493,39.402,67.7,47.864l2.161,2.548c1.447,13.276,1.299,26.694-0.442,39.919
	c-1.979,15.024-5.983,29.673-11.918,43.614h-66.793c-57.755,0-112.52-31.285-141.956-80.934l-66.12-111.524
	c25.474-15.691,53.104-27.018,82.241-33.702c4.037-0.926,6.56-4.95,5.634-8.987c-0.927-4.038-4.952-6.558-8.987-5.633
	c-21.586,4.952-42.381,12.333-62.16,22.013l-25.402-42.479c-23.8-40.143-51.048-65.031-83.302-76.084L15.674,70.117
	c-3.553-1.353-7.542-0.873-10.671,1.285C1.87,73.561,0,77.122,0,80.929v19.931c0,2.811,1.017,5.443,2.751,7.487V237.49
	c0,9.652,15,9.668,15,0V115.196l16.143,5.512c30.095,10.276,56.076,29.948,74.166,55.929c-8.44-1.79-17.382-1.399-26.087,1.386
	c-19.199,6.142-32.617,22.407-35.018,42.446L22.149,427.64h-4.398V272.389c0-9.652-15-9.668-15,0v157.556
	c0,7,5.691,12.695,12.687,12.695h9.2c6.17,0,11.377-4.623,12.111-10.753l25.1-209.634c1.693-14.138,11.156-25.612,24.695-29.943
	c13.299-4.256,27.385-0.587,36.939,9.547l20.539,34.643c0.002,0.004,0.004,0.008,0.006,0.012l67.646,116.502
	c32.1,55.283,91.706,89.625,155.559,89.625h1.522h71.674h46.879c13.615,0,24.692-11.089,24.692-24.72v-5.404
	C512,406.364,506.997,401.358,500.849,401.358z M38.741,106.512L15,98.406V85.911l48.484,18.462
	c0.081,0.031,0.163,0.061,0.245,0.089c28.786,9.829,53.44,32.589,75.388,69.606l24.969,41.756c-3.725,2.07-7.409,4.225-11.052,6.464
	l-17.087-28.82c-0.007-0.012-0.015-0.025-0.022-0.037l-9.07-15.298C106.943,144.55,75.65,119.115,38.741,106.512z M497,417.92
	c0,5.36-4.348,9.72-9.692,9.72h-35.585c1.433-3.72,2.747-7.482,3.931-11.282H497V417.92z"/>
<g>
</g>
<g>
</g>
<g>
</g>
<g>
</g>
<g>
</g>
<g>
</g>
<g>
</g>
<g>
</g>
<g>
</g>
<g>
</g>
<g>
</g>
<g>
</g>
<g>
</g>
<g>
</g>
<g>
</g>
</svg>
