<?xml version="1.0" encoding="iso-8859-1"?>
<!-- Generator: Adobe Illustrator 19.0.0, SVG Export Plug-In . SVG Version: 6.00 Build 0)  -->
<svg version="1.1" id="Capa_1" xmlns="http://www.w3.org/2000/svg" xmlns:xlink="http://www.w3.org/1999/xlink" x="0px" y="0px"
	 viewBox="0 0 512 512" style="enable-background:new 0 0 512 512;" xml:space="preserve">
<path style="fill:#E6E9ED;" d="M489.765,315.724H161.95h-10.654c-22.134,0-44.269,0-66.403,0c-14.641,0-29.282,0-43.923,0
	c-7.295,0-17.412,1.497-24.1-2.078c-6.948-3.714-16.214-25.448-4.594-27.859c3.046-0.632,6.918,0,10.012,0
	c16.922,0,33.844,0,50.767,0c58.676,0,117.351,0,176.027,0c59.919,0,119.838,0,179.758,0c18.822,0,37.645,0,56.467,0
	c4.515,0,9.176-0.335,13.681,0c6.88,0.512,5.612,6.263,5.513,12.599C504.362,307.229,499.85,315.724,489.765,315.724z"/>
<path style="fill:#CFD2DC;" d="M501.674,285.787h-34.943c1.561,0,2.826,1.269,2.826,2.834v12.326
	c0,8.161-6.597,14.777-14.735,14.777h34.943c8.138,0,14.735-6.616,14.735-14.777v-12.326
	C504.5,287.056,503.235,285.787,501.674,285.787z"/>
<path style="fill:#ED88A3;" d="M11.592,285.787c-0.004-15.203,12.307-26.501,27.042-27.119c3.378-0.142,6.793,0,10.173,0
	c19.277,0,38.554,0,57.831,0c18.35,0,36.699,0,55.049,0c20.582,0,39.83-4.13,55.564-18.522c9.655-8.832,15.241-19.788,20.517-31.492
	c3.135-6.954,5.531-13.153,14.524-11.979c10.499,1.37,21.083,4.623,31.414,6.888c40.442,8.868,80.885,17.735,121.327,26.603
	c15.056,3.301,30.12,6.57,45.169,9.904c24.323,5.388,44.42,21.059,51.471,45.718"/>
<path style="fill:#E87490;" d="M453.941,240.889l-202.488-44.398c-4.352-0.954-8.777,1.275-10.612,5.346l-6.828,15.147
	c-0.254,0.563-0.522,1.115-0.789,1.669l199.313,43.702c14.913,3.27,27.876,11.709,36.901,23.433h32.236l0,0
	C495.203,263.159,476.872,245.917,453.941,240.889z"/>
<polygon style="fill:#FBDC40;" points="284.475,285.787 312.616,209.901 281.824,203.15 251.446,285.787 "/>
<polygon style="fill:#FBBB40;" points="272.925,227.357 303.645,234.093 312.616,209.901 281.824,203.15 "/>
<path d="M507.812,280.33c-8.037-23.627-27.766-41.396-52.264-46.768c-4.042-0.887-8.045,1.674-8.933,5.72
	c-0.887,4.046,1.674,8.045,5.72,8.933c16.891,3.703,30.911,14.873,38.426,30.072H295.255l22.125-59.662l103.17,22.621
	c4.048,0.887,8.046-1.674,8.933-5.72c0.887-4.046-1.674-8.045-5.72-8.933L253.06,189.165c-7.771-1.706-15.784,2.329-19.056,9.589
	l-6.828,15.147c-10.206,22.638-32.803,37.266-57.57,37.266H38.634c-17.344,0-31.738,12.879-34.174,29.594
	c-2.71,2.127-4.46,5.424-4.46,9.13v8.101c0,13.913,11.297,25.232,25.183,25.232h31.052c9.652,0,9.668-15,0-15H25.183
	c-5.614,0-10.183-4.59-10.183-10.232v-4.705h236.4c0.023,0.003,0.047,0.003,0.07,0h32.958c0.023,0.003,0.047,0.003,0.07,0H497v7.66
	c0,4.013-3.246,7.277-7.235,7.277H86.925c-9.652,0-9.668,15,0,15h402.84c12.261,0,22.235-9.993,22.235-22.277v-12.326
	C512,285.225,510.347,282.215,507.812,280.33z M38.634,266.168h130.972c30.654,0,58.62-18.096,71.244-46.102l6.829-15.147
	c0.374-0.832,1.291-1.297,2.168-1.101l21.971,4.817l-8.407,22.871c-1.43,3.888,0.563,8.198,4.451,9.627
	c3.792,1.395,8.236-0.669,9.627-4.452l9.118-24.804l15.978,3.503l-23.328,62.906h-17.063l4.277-11.633
	c1.43-3.888-0.563-8.198-4.451-9.627c-3.886-1.428-8.198,0.564-9.627,4.452l-6.179,16.809H20.583
	C23.523,271.181,30.504,266.168,38.634,266.168z"/>
<g>
</g>
<g>
</g>
<g>
</g>
<g>
</g>
<g>
</g>
<g>
</g>
<g>
</g>
<g>
</g>
<g>
</g>
<g>
</g>
<g>
</g>
<g>
</g>
<g>
</g>
<g>
</g>
<g>
</g>
</svg>
