<?xml version="1.0" encoding="iso-8859-1"?>
<!-- Generator: Adobe Illustrator 19.0.0, SVG Export Plug-In . SVG Version: 6.00 Build 0)  -->
<svg version="1.1" id="Capa_1" xmlns="http://www.w3.org/2000/svg" xmlns:xlink="http://www.w3.org/1999/xlink" x="0px" y="0px"
	 viewBox="0 0 512 512" style="enable-background:new 0 0 512 512;" xml:space="preserve">
<path style="fill:#EF9067;" d="M452.108,329.465c0-6.89,0-13.78,0-20.67c0-6.564,1.342-14.663-0.225-21.131
	c-2.046-8.444-14.095-9.763-21.097-12.086c-15.995-5.309-31.567-11.835-46.531-19.593c-29.427-15.257-56.414-35.146-79.708-58.726
	c-12.574-12.727-22.65-28.829-35.859-40.737c-11.295-10.182-23.79,13.23-29.294,20.985c-22.19,31.269-37.418,67.323-44.429,105.015
	l26.459,37.207l124.119,19.475L452.108,329.465z"/>
<g>
	<path style="fill:#604F44;" d="M7.5,248.305c29.293,8.524,58.586,17.048,87.879,25.572c14.261,4.15,28.657,8.001,42.514,13.388
		c23.21,9.023,43.863,22.156,64.791,35.374c26.071,16.465,54.259,28.211,84.827,33.094c15.214,2.43,30.429,2.683,45.767,2.683
		c36.057,0,72.113,0,108.17,0c15.013,0,30.026,0,45.039,0c2.985,0,6.208,0.353,9.177,0c9.781-1.162,9.506-10.967,8.835-18.775
		c-1.123-13.058-14.362-10.177-24.034-10.177c-17.053,0-34.105,0-51.158,0c-31.936,0-63.872,0.051-95.807,0
		c-25.863-0.041-51.387-4.084-75.729-12.966c-22.333-8.149-41.859-20.751-61.805-33.344
		c-34.311-21.663-71.993-31.737-110.401-42.905c-18.186-5.288-36.372-10.575-54.558-15.863c-5.333-1.551-10.682-3.437-16.096-4.68
		c-5.29-1.215-7.15,0.974-7.411,6.329C7.14,233.422,7.5,240.908,7.5,248.305z"/>
	<path style="fill:#604F44;" d="M7.5,248.305v104.573c0,3.059,2.474,5.539,5.526,5.539h102.643c3.052,0,5.526-2.48,5.526-5.539
		v-71.446L7.5,248.305z"/>
</g>
<path style="fill:#493C35;" d="M90.378,300.884l30.818,8.979v-28.431L7.5,248.305c0,23.436,0,46.872,0,70.307
	c0,10.618-1.232,22.054,0,32.612c1.28,10.967,16.976,7.192,25.431,7.192c0-14.355-0.478-28.079,8.309-40.408
	C52.232,302.589,72.176,295.581,90.378,300.884z"/>
<path d="M495.93,321.965h-36.321v-32.189c0-7.598-4.849-14.28-12.065-16.628l-13.134-4.273
	c-44.095-14.347-85.104-38.913-118.595-71.04c-2.99-2.868-7.737-2.769-10.604,0.22s-2.77,7.737,0.22,10.604
	c35.112,33.683,78.107,59.438,124.339,74.479l13.134,4.273c1.021,0.332,1.706,1.282,1.706,2.364v32.189H331.124
	c-39.241,0-77.51-11.119-110.669-32.156l-17.142-10.875c4.916-23.846,13.143-46.798,24.487-68.295
	c9.308-17.635,20.689-34.2,33.829-49.234c0.21-0.216,0.443-0.324,0.701-0.323c0.392,0.002,0.586,0.23,0.65,0.306l20.105,23.581
	c2.687,3.151,7.42,3.529,10.573,0.841c3.152-2.688,3.528-7.421,0.841-10.573l-20.105-23.581c-2.996-3.514-7.36-5.545-11.974-5.573
	c-4.605-0.026-9.035,1.96-12.087,5.453c-13.904,15.91-25.949,33.44-35.8,52.104c-11.165,21.155-19.473,43.64-24.766,66.977
	c-18.183-10.511-37.559-18.798-57.75-24.668L14.777,211.86c-3.525-1.025-7.225-0.348-10.157,1.854
	c-2.935,2.203-4.62,5.575-4.62,9.25v25.341v44.423c0,9.652,15,9.668,15,0v-34.429l98.695,28.72v63.899H15v-26.884
	c0-9.652-15-9.668-15,0v28.845c0,7.189,5.844,13.039,13.026,13.039h102.643c7.183,0,13.026-5.849,13.026-13.039v-61.033
	c17.047,6.081,33.387,14.021,48.726,23.708l25.516,16.115c35.475,22.405,76.391,34.248,118.323,34.248h174.67
	c8.861,0,16.07-7.218,16.07-16.089v-11.773C512,329.183,504.791,321.965,495.93,321.965z M497,349.828
	c0,0.601-0.48,1.089-1.07,1.089H321.26c-39.094,0-77.239-11.042-110.313-31.931l-25.516-16.115
	c-19.329-12.207-40.15-21.811-61.957-28.585c-0.028-0.009-0.056-0.018-0.084-0.027c-1.469-0.456-2.941-0.899-4.418-1.329L15,242.677
	v-15.133l112.832,32.807c22.279,6.478,43.515,16.067,63.116,28.503l21.472,13.622c35.565,22.563,76.612,34.49,118.704,34.49H495.93
	c0.59,0,1.07,0.489,1.07,1.089V349.828z"/>
<g>
</g>
<g>
</g>
<g>
</g>
<g>
</g>
<g>
</g>
<g>
</g>
<g>
</g>
<g>
</g>
<g>
</g>
<g>
</g>
<g>
</g>
<g>
</g>
<g>
</g>
<g>
</g>
<g>
</g>
</svg>
