<?xml version="1.0" encoding="iso-8859-1"?>
<!-- Generator: Adobe Illustrator 19.0.0, SVG Export Plug-In . SVG Version: 6.00 Build 0)  -->
<svg version="1.1" id="Capa_1" xmlns="http://www.w3.org/2000/svg" xmlns:xlink="http://www.w3.org/1999/xlink" x="0px" y="0px"
	 viewBox="0 0 512 512" style="enable-background:new 0 0 512 512;" xml:space="preserve">
<path style="fill:#485878;" d="M495.954,372.828L495.954,372.828c-6.105-21.552-24.245-37.529-46.371-40.839l0,0
	c-57.68-8.628-109.613-39.752-144.465-86.58c-22.046-29.622-44.092-59.243-66.138-88.864c-5.345-7.181-10.689-14.362-16.033-21.543
	c-3.074-4.13-8.611-15.99-14.67-15.189c-5.658,0.749-12.256,10.625-14.974,14.815c-3.741,5.769-6.359,12.247-7.628,19.008
	L115.789,306.53l99.869,45.939l87.04,34.968h178.693L495.954,372.828z"/>
<path style="fill:#333F61;" d="M14.011,262.812c-3.143-19.275-6.628-38.396-6.484-58.019c0.231-31.35,7.979-61.465,21.274-89.74
	c1.572-3.343,5.172-5.231,8.811-4.622c42.997,25.882,92.247,40.837,142.403,43.017c11.867,0.516,23.761,0.334,35.608-0.541
	c10.674-0.788,21.991-3.829,32.638-1.958c13.087,2.3,21.201,10.737,29.58,20.284c9.752,11.114,19.503,22.226,29.255,33.34
	l7.711,87.38c-26.833-11.742-53.54-20.736-83.174-21.553c-35.276-0.972-70.408,8.298-100.697,26.379"/>
<g>
	<path style="fill:#253551;" d="M51.008,251.938c-6.69-41.028-0.805-83.122,16.88-120.732l1.721-3.66
		c0.046-0.099,0.1-0.192,0.151-0.288c-12.58-5.658-23.334-11.522-32.147-16.827c-3.639-0.609-7.239,1.28-8.811,4.622l-1.721,3.66
		C9.396,156.322,3.51,198.418,10.2,239.445l3.81,23.366l40.698,11.824L51.008,251.938z"/>
	<path style="fill:#253551;" d="M301.003,285.914l13.804,6.04l-0.267-3.022C310.055,287.753,305.539,286.75,301.003,285.914z"/>
</g>
<g>
	<path style="fill:#EDD7C0;" d="M8.839,291.954c29.214,8.495,58.428,16.988,87.642,25.483c13.747,3.997,27.64,7.698,41.026,12.808
		c23.463,8.957,44.319,22.107,65.425,35.426c25.789,16.275,53.507,28.07,83.719,33.105c15.342,2.557,30.716,2.905,46.203,2.905
		c35.732,0,71.464,0,107.195,0c15.221,0,30.441,0,45.662,0c3.199,0,6.627,0.35,9.812,0c10.051-1.104,9.252-10.327,8.979-18.149
		c-0.468-13.391-13.54-10.702-23.144-10.702c-16.697,0-33.395,0-50.092,0c-32.349,0-64.699,0.044-97.048,0
		c-24.919-0.034-49.509-3.72-73.081-11.957c-23.326-8.152-43.617-21.119-64.337-34.19c-34.179-21.562-71.719-31.603-109.977-42.718
		c-18.28-5.311-36.562-10.622-54.842-15.933c-5.205-1.512-10.425-3.35-15.709-4.564c-5.281-1.213-7.169,0.916-7.431,6.295
		C8.48,277.122,8.839,284.583,8.839,291.954z"/>
	<path style="fill:#EDD7C0;" d="M8.839,291.954V396.16c0,3.048,2.468,5.519,5.511,5.519h102.367c3.044,0,5.512-2.471,5.512-5.519
		v-71.196L8.839,291.954z"/>
</g>
<path style="fill:#D1BDAC;" d="M80.867,338.368l41.362,12.042v-25.445L8.839,291.954c0,23.614,0,47.229,0,70.843
	c0,10.325-1.335,21.673,0,31.931c1.415,10.874,18.35,6.953,26.733,6.953c0-10.809-0.88-21.983,0.185-32.746
	C37.907,347.2,59.847,332.248,80.867,338.368z"/>
<path d="M501.767,366.436c-5.974-16.518-18.771-30.158-34.862-37.195c-8.561-3.744-17.591-4.678-26.657-6.496
	c-9.456-1.897-18.785-4.434-27.898-7.592c-36.375-12.605-68.982-35.171-93.676-64.694l-4.107-46.546
	c-0.14-1.588-0.782-3.089-1.833-4.288l-10.51-11.977l1.746-1.625c3.031-2.823,3.201-7.568,0.379-10.6
	c-2.819-3.031-7.566-3.202-10.6-0.379l-1.423,1.325l-9.704-11.059l1.138-1.059c3.031-2.823,3.201-7.568,0.379-10.6
	c-2.822-3.031-7.566-3.202-10.6-0.379l-1.177,1.095c-9.461-8.136-21.669-12.251-34.142-11.405l-19.278-25.902
	c-3.906-5.253-11.387-6.417-16.676-2.592c-5.563,4.024-10.361,8.919-14.26,14.548c-3.561,5.143-6.324,10.9-8.149,16.911
	c-16.391-0.742-32.69-2.84-48.789-6.329c-31.569-6.839-61.712-18.815-89.59-35.597c-0.809-0.486-1.7-0.816-2.63-0.971
	c-6.923-1.155-13.846,2.471-16.835,8.828l-1.721,3.659c-2.29,4.87-4.421,9.887-6.332,14.912c-1.473,3.872,0.472,8.204,4.343,9.677
	c3.87,1.473,8.204-0.471,9.677-4.343c1.777-4.671,3.758-9.335,5.887-13.863l1.721-3.659c0.036-0.077,0.084-0.146,0.141-0.204
	c59.89,35.455,130.838,49.72,199.79,40.299c0.167-0.017,0.333-0.037,0.499-0.065c0.29-0.04,0.58-0.072,0.869-0.113
	c8.751-1.236,17.504,1.169,24.405,6.513l-7.698,7.166c-3.031,2.823-3.201,7.568-0.379,10.6c2.765,2.971,7.628,3.144,10.6,0.379
	l7.824-7.284l9.704,11.059l-7.539,7.018c-3.031,2.823-3.201,7.568-0.379,10.6c2.766,2.97,7.628,3.144,10.6,0.379l7.217-6.718
	l8.601,9.802l6.383,72.336l-2.216-0.97c-21.621-9.461-44.527-14.84-68.081-15.988c-9.646-0.443-10.386,14.512-0.73,14.982
	c21.726,1.059,42.854,6.021,62.798,14.748l13.806,6.041c2.35,1.027,5.307,0.711,7.384-0.781c2.15-1.546,3.327-4.111,3.094-6.75
	l-1.434-16.252c34.443,34.48,79.009,57.092,127.631,64.365c15.734,2.353,29.195,12.157,36.443,25.921H331.593
	c-39.134,0-77.297-11.08-110.363-32.04l-21.413-13.575c-15.731-9.973-32.46-18.209-49.909-24.598
	c17.147-8.176,35.38-13.521,54.407-15.905c9.578-1.2,7.723-16.096-1.865-14.884c-25.711,3.223-50.086,11.424-72.504,24.354
	L20.65,256.93l-3.047-18.691c-4.055-24.861-3.367-49.941,2.044-74.544c0.89-4.045-1.669-8.046-5.714-8.936
	c-4.051-0.887-8.047,1.669-8.937,5.714c-5.819,26.461-6.56,53.437-2.198,80.179l2.791,17.119c-2.699,2.202-4.25,5.422-4.25,8.931
	v25.252V396.16c0,7.179,5.837,13.02,13.012,13.02h31.074c9.652,0,9.668-15,0-15H16.339v-92.235l98.39,28.608v63.627H75.544
	c-9.652,0-9.668,15,0,15h41.173c7.175,0,13.012-5.84,13.012-13.02v-60.784c16.991,6.058,33.278,13.967,48.565,23.615l25.446,16.059
	c35.383,22.328,76.191,34.13,118.013,34.13h174.201c8.849,0,16.047-7.204,16.047-16.06v-11.733
	C512,374.586,507.747,368.772,501.767,366.436z M195.651,146.236c1.249-3.056,2.819-5.981,4.688-8.679
	c2.366-3.417,5.176-6.475,8.373-9.12l12.272,16.488C212.533,145.723,204.084,146.164,195.651,146.236z M497.001,393.119
	c0,0.584-0.47,1.06-1.047,1.06H321.753c-38.985,0-77.025-11.002-110.008-31.816L186.3,346.305
	c-19.273-12.162-40.036-21.731-61.78-28.481c-0.035-0.011-0.071-0.023-0.106-0.034c-1.462-0.453-2.929-0.894-4.4-1.322
	L16.339,286.324v-15.027l112.503,32.685c22.218,6.455,43.395,16.01,62.942,28.401l21.413,13.575
	c35.472,22.485,76.412,34.371,118.393,34.371h164.334c0.011,0.002,0.023,0.003,0.034,0.001c0.574,0.004,1.041,0.476,1.041,1.058
	v11.732H497.001z"/>
<g>
</g>
<g>
</g>
<g>
</g>
<g>
</g>
<g>
</g>
<g>
</g>
<g>
</g>
<g>
</g>
<g>
</g>
<g>
</g>
<g>
</g>
<g>
</g>
<g>
</g>
<g>
</g>
<g>
</g>
</svg>
