<?xml version="1.0" encoding="iso-8859-1"?>
<!-- Generator: Adobe Illustrator 19.0.0, SVG Export Plug-In . SVG Version: 6.00 Build 0)  -->
<svg version="1.1" id="Capa_1" xmlns="http://www.w3.org/2000/svg" xmlns:xlink="http://www.w3.org/1999/xlink" x="0px" y="0px"
	 viewBox="0 0 512 512" style="enable-background:new 0 0 512 512;" xml:space="preserve">
<path style="fill:#EDD7C0;" d="M501.62,445.845c-2.265-11.912-2.858-27.086-9.624-37.464c-8.065-12.37-23.438-15.288-36.533-19.688
	c-35.007-11.765-68.381-22.945-94.758-50.548c-20.927-21.9-31.417-48.26-41.77-75.924c-10.712-28.621-21.423-57.242-32.134-85.862
	c-8.682-23.2-15.412-45.892-40.696-56.53c-16.993-7.15-34.245-13.737-51.355-20.6c-29.623-11.883-59.246-23.766-88.869-35.649
	C86.134,55.659,66.518,46.823,46.45,39.74c-11.139-3.933-8.806,10.079-8.806,17.436c0,22.628-1.216,44.863-6.737,66.939
	c-3.497,13.982-9.13,27.146-13.37,40.877c-4.375,14.169-7.343,28.768-8.856,43.52c-1.543,15.042-1.183,30.176-1.183,45.273
	c0,6.085,0,12.171,0,18.257l163.515,78.284l108.442,96.21l60.218,14.258h138.944L501.62,445.845z"/>
<path style="fill:#E8BAA6;" d="M473.547,397.762l13.23,4.446c-3.307-3.043-7.25-5.428-11.656-6.908l-28.59-9.609
	C455.06,390.526,464.094,394.585,473.547,397.762z"/>
<path style="fill:#E8C4A6;" d="M74.716,300.658c-10.268-5.296-16.881-16.138-16.881-27.691V251.43
	c0-27.715,5.11-55.192,15.074-81.056l0,0c9.964-25.864,15.074-53.342,15.074-81.056V63.223c0-2.852,2.417-4.937,5.06-4.795
	c-14.706-5.899-29.41-11.797-44.115-17.696c-5.88-2.358-10.931-3.004-11.284,5.011c-0.345,7.856,0,15.799,0,23.665
	c0,27.715-5.11,55.192-15.074,81.056l0,0c-9.964,25.864-15.074,53.342-15.074,81.056v21.537v18.983l163.515,78.284L74.716,300.658z"
	/>
<path style="fill:#CE5F54;" d="M71.533,473.493c-17.177,0-34.403,0.411-51.574,0c-14.804-0.355-12.463-13.091-12.463-23.933
	c0-42.093,0-84.184,0-126.277c0-12.631,0-25.263,0-37.893l102.206,53.231c-33.047,6.992-28.73,41.82-28.73,67.273
	c0,14.384,0,28.768,0,43.152C80.972,456.882,83.764,473.493,71.533,473.493z"/>
<path style="fill:#C15151;" d="M85.603,356.338L85.603,356.338c4.975-8.857,13.6-15.495,24.1-17.717l0,0L7.497,285.39
	c0,58.25-0.854,116.563,0,174.806c0.082,5.59,0.555,11.259,7.275,13.048c7.372,1.961,16.926,0.249,24.513,0.249
	c0-23.044,0-46.088,0-69.132c0-8.537-1.096-18.153,0.682-26.597C44.216,357.576,67.395,346.855,85.603,356.338z"/>
<path style="fill:#DE7B69;" d="M475.121,395.3l-50.146-16.853l-8.672-3.099l-31.15,70.497h116.467l-4.906-25.798
	C494.519,408.505,486.265,399.044,475.121,395.3z"/>
<path style="fill:#EDD7C0;" d="M277.626,151.843c-3.523-8.449-7.045-16.897-10.568-25.346c-3.743-8.977-6.779-19.871-12.668-27.762
	c-17.045-22.841-46.33-8.985-68.249-2.961"/>
<path style="fill:#DE7B69;" d="M346.392,320.804c-7.671-10.8-14.004-22.639-18.743-35.3l-50.022-133.66
	c-5.434-14.519-16.733-26.082-31.129-31.857L96.981,60.009l0,0c-1.559,40.221-1.22,70.567,26.595,97.752l27.74,27.097
	c24.967,24.389,39.042,57.804,39.042,92.694v41.659l0,0l3.086-3.033c13.459-13.228,34.687-14.32,49.435-2.545l35.744,28.539
	c14.995,11.973,36.636,10.619,50.018-3.131L346.392,320.804L346.392,320.804z"/>
<path style="fill:#D96D5D;" d="M7.497,253.06c54.132,28.193,108.381,56.17,162.399,84.581c34.679,18.239,61.484,50.135,89.843,76.65
	c22.857,21.37,53.229,31.296,84.197,31.554c11.442,0.095,22.89,0,34.333,0c38.138,0,76.277,0,114.416,0c2.303,0,6.717-0.877,8.912,0
	c5.327,2.128,1.744,10.625-0.215,14.327c-3.556,6.718-10.101,11.557-17.594,12.919c-10.45,1.899-22.249,0.403-32.778,0.403
	c-37.112,0-74.222,0-111.334,0c-23.01,0-45.314-3.459-66.472-12.948c-24.282-10.889-42.225-28.404-60.264-47.266
	c-18.943-19.806-38.247-38.427-61.943-52.659c-11.041-6.631-22.702-12.315-34.119-18.261
	c-34.007-17.712-68.014-35.423-102.02-53.134c-2.453-1.277-4.906-2.555-7.359-3.833V253.06H7.497z"/>
<path style="fill:#CE5F54;" d="M60.902,281.735l122.308,63.701c-3.919-2.588-7.969-5.012-12.198-7.214L7.497,253.06v32.331
	l53.405,27.814V281.735z"/>
<path style="fill:#D96D5D;" d="M346.392,320.804c-7.671-10.8-14.004-22.639-18.743-35.3l-50.022-133.66
	c-5.434-14.519-16.733-26.082-31.129-31.857l-29.623-11.883l0,0l94.009,241.129l0,0l3.326-0.991c5.31-1.85,10.269-4.925,14.43-9.2
	L346.392,320.804z"/>
<path d="M508.307,440.874l-4.227-22.228c-2.698-14.182-12.878-25.851-26.57-30.452l-51.913-17.447
	c-29.718-9.987-54.934-28.837-72.703-53.663c-0.248-0.433-0.542-0.845-0.883-1.23c-7.066-10.091-12.914-21.145-17.343-32.978
	l-5.984-15.987c2.9-1.863,4.22-5.551,2.97-8.913c-1.254-3.374-4.681-5.306-8.105-4.805l-7.431-19.857
	c6.661-4.203,2.652-14.955-5.145-13.747l-6.512-17.402l0.111-0.041c9.043-3.362,3.832-17.423-5.226-14.054l-0.141,0.052
	l-6.651-17.773l0.163-0.061c3.88-1.442,5.857-5.759,4.414-9.64c-1.442-3.881-5.761-5.857-9.64-4.414l-0.193,0.072l-2.654-7.09
	c-0.027-0.073-0.06-0.144-0.088-0.217c-0.006-0.014-0.009-0.026-0.014-0.041l-0.071-0.17c-0.422-1.102-0.877-2.186-1.357-3.257
	l-17.788-42.661c-7.813-18.738-28.474-28.811-48.057-23.426l-30.681,8.433l-19.512-7.827c-3.844-1.542-8.209,0.324-9.749,4.166
	c-1.541,3.843,0.324,8.208,4.167,9.749l49.572,19.886l78.228,200.654c-0.594,0.925-1.001,1.99-1.14,3.155
	c-0.449,3.762,1.975,7.198,5.54,8.132l6.638,17.026c-6.015-0.32-11.979-2.465-17.037-6.503c-3.235-2.583-7.953-2.055-10.537,1.18
	c-9.432,11.813,17.927,19.534,25.136,20.182c13.379,1.203,26.743-3.778,36.114-13.406l11.611-11.929
	c11.049,13.895,24.322,25.873,39.339,35.466c0.744,0.985,1.738,1.8,2.947,2.334c0.552,0.244,1.118,0.408,1.686,0.512
	c5.387,3.192,10.979,6.083,16.761,8.656l-26.087,59.038h-24.651c-0.756-0.115-1.512-0.113-2.25,0h-9.801
	c-30.416,0-59.039-10.703-78.529-29.363l-40.591-38.863c-12.265-11.742-25.468-23.851-41.114-33.497l15.366-15.1
	c10.746-10.561,27.728-11.433,39.502-2.033l13.017,10.394c3.236,2.584,7.954,2.055,10.537-1.181
	c2.583-3.236,2.055-7.953-1.181-10.537l-13.017-10.394c-14.47-11.553-34.17-12.775-49.701-4.161v-17.308
	c0.086-0.65,0.084-1.306,0-1.956v-6.799c0-36.678-15.054-72.418-41.3-98.056l-27.739-27.096
	c-22.841-22.323-25.583-46.405-24.694-81.448l30.385,12.189c3.843,1.54,8.208-0.324,9.749-4.167
	c1.541-3.842-0.324-8.208-4.166-9.749L47.037,31.896c-3.798-1.522-8.088-1.064-11.478,1.228c-3.389,2.291-5.411,6.101-5.411,10.191
	V69.41c0,28.174-6.007,54.911-15.661,81.24C4.99,176.553,0,203.921,0,231.523v21.537v32.331v178.67
	c0,9.334,7.598,16.929,16.936,16.929h54.597c9.339,0,16.936-7.594,16.936-16.929v-35.468c0-9.648-14.994-9.664-14.994,0v35.468
	c0,1.067-0.872,1.935-1.942,1.935H16.936c-1.071,0-1.942-0.868-1.942-1.935V297.747l38.73,20.172l38.704,20.158
	c-11.538,7.995-18.951,21.337-18.951,35.971v23.216c0,9.648,14.994,9.664,14.994,0v-23.216c0-12.628,8.406-23.79,20.317-27.452
	l26.219,13.655c22.27,11.599,42.359,26.678,59.711,44.82l26.756,27.974c29.141,30.467,70.043,47.942,112.219,47.942h145.605
	c10.077,0,19.698-4.805,25.81-12.798C510.126,461.626,515.961,447.58,508.307,440.874z M221.246,93.902
	c12.323-3.39,25.329,2.948,30.243,14.738l2.779,6.665c-1.624-0.824-3.279-1.595-4.981-2.278l-39.695-15.922L221.246,93.902z
	 M323.267,333.813c-2.404,2.469-5.131,4.436-8.049,5.901l-85.073-218.21l13.56,5.44c11.405,4.575,20.596,13.425,25.648,24.542
	l1.296,3.108l2.596,6.938l-7.059,2.625c-3.88,1.442-5.857,5.759-4.414,9.64c1.405,3.781,5.853,5.823,9.64,4.414l7.089-2.636
	l6.651,17.773l-7.111,2.644c-3.88,1.442-5.857,5.759-4.414,9.64c1.405,3.781,5.853,5.823,9.64,4.414l7.141-2.655l6.459,17.259
	l-8.672,3.225c-3.88,1.442-5.857,5.759-4.414,9.64c1.405,3.781,5.853,5.823,9.64,4.414l8.702-3.236l7.315,19.547l-8.727,3.245
	c-3.88,1.442-5.857,5.759-4.414,9.64c1.406,3.781,5.853,5.823,9.64,4.414l8.757-3.257l5.933,15.851
	c1.469,3.925,3.091,7.768,4.837,11.532c-2.72-1.331-6.09-0.935-8.428,1.259c-0.001,0.001-0.075,0.071-0.076,0.072
	c-3.017,2.835-3.127,7.544-0.293,10.562c2.784,2.963,7.677,3.073,10.632,0.299c1.197-1.124,1.935-2.548,2.223-4.045
	c2.23,4.179,4.627,8.246,7.195,12.186L323.267,333.813z M420.329,384.786c0.165,0.056,0.327,0.118,0.492,0.173l51.913,17.447
	c8.562,2.878,14.93,10.174,16.616,19.041l3.214,16.901h-95.901L420.329,384.786z M29.566,153.161
	C39.9,126.333,45.141,98.155,45.141,69.41V47.291l44.161,17.715c-1.311,39.84,0.884,70.604,29.035,98.117l27.74,27.097
	c23.376,22.835,36.783,54.665,36.783,87.33v38.516l-13.218,12.99L14.994,248.511v-16.989
	C14.994,204.626,19.897,178.262,29.566,153.161z M479.295,465.995H333.691c-38.104,0-75.056-15.786-101.383-43.312l-26.756-27.974
	c-18.488-19.33-39.893-35.397-63.621-47.754L14.994,280.841v-15.426l152.472,79.411c0.021,0.011,0.042,0.022,0.063,0.033
	l0.021,0.011c17.891,9.318,32.795,22.934,46.529,36.082l40.591,38.863c22.254,21.306,54.656,33.526,88.898,33.526h41.545
	c0.022,0.003,0.043,0.003,0.065,0h110.94C494.013,460.64,487.268,465.995,479.295,465.995z"/>
<path d="M359.798,415.205l-0.041,0.092c-1.672,3.788,0.043,8.214,3.83,9.886c3.705,1.636,8.261-0.149,9.887-3.83l0.041-0.092
	c1.672-3.788-0.043-8.214-3.83-9.887C365.897,409.702,361.47,411.416,359.798,415.205z"/>
<path d="M375.755,397.61c3.711,1.647,8.283-0.182,9.914-3.856c1.68-3.784-0.026-8.214-3.811-9.893
	c-3.784-1.68-8.215,0.026-9.893,3.811l-0.041,0.091C370.244,391.547,371.971,395.931,375.755,397.61z"/>
<path d="M218.139,283.51c4.067,0.106,7.547-3.35,7.605-7.387c0.06-4.14-3.248-7.545-7.387-7.605l-0.099-0.001
	c-4.068-0.053-7.547,3.303-7.606,7.386c-0.061,4.14,3.246,7.546,7.386,7.606L218.139,283.51z"/>
<path d="M265.247,309.488l0.078,0.063c3.157,2.526,8.021,1.976,10.538-1.171c2.587-3.233,2.062-7.951-1.171-10.538l-0.078-0.063
	c-3.233-2.587-7.952-2.062-10.538,1.171C261.49,302.184,262.014,306.903,265.247,309.488z"/>
<path d="M246.486,292.428c2.234,0,4.445-0.995,5.923-2.895c2.542-3.269,1.953-7.978-1.314-10.52l-0.202-0.154
	c-3.32-2.475-8.038-1.806-10.513,1.514c-2.475,3.32-1.81,8,1.509,10.475C243.256,291.913,244.878,292.428,246.486,292.428z"/>
<path d="M155.732,281.949c0.001,0.037,0.008,0.173,0.011,0.209c0.239,4.068,3.837,7.222,7.879,7.019
	c4.117-0.218,7.285-3.748,7.09-7.867l-7.491,0.308l7.49-0.331c-0.182-4.136-3.673-7.332-7.82-7.159
	C158.754,274.311,155.55,277.813,155.732,281.949z"/>
<path d="M71.784,123.056c-3.995,1.09-6.35,5.211-5.261,9.205c0.012,0.044,0.051,0.184,0.064,0.227
	c1.137,3.888,5.399,6.262,9.307,5.119c3.974-1.162,6.261-5.299,5.1-9.273l-7.238,1.955l7.233-1.972
	C79.901,124.321,75.777,121.966,71.784,123.056z"/>
<path d="M163.379,304.206c-4.14,0-7.497,3.357-7.497,7.497v0.1c0,9.648,14.994,9.664,14.994,0v-0.1
	C170.876,307.562,167.52,304.206,163.379,304.206z"/>
<path d="M80.899,161.702c2.401,3.241,7.248,3.961,10.487,1.562c3.327-2.465,4.026-7.16,1.562-10.487
	c-0.005-0.006-0.069-0.092-0.073-0.098c-2.473-3.316-7.132-3.964-10.453-1.497C79.102,153.649,78.437,158.378,80.899,161.702z"/>
<path d="M69.637,108.132c0.097,0,0.195-0.002,0.292-0.006c4.121-0.157,7.341-3.639,7.207-7.762l-7.495,0.197l7.494-0.221
	c-0.122-4.138-3.539-7.414-7.714-7.273c-4.138,0.122-7.395,3.576-7.273,7.714l0.007,0.205
	C62.33,105.01,65.644,108.132,69.637,108.132z"/>
<path d="M69.737,78.048c0.089,0.003,0.177,0.004,0.266,0.004c4.002,0,7.323-3.187,7.489-7.217l-7.489-0.352l7.49,0.331
	c0.183-4.136-3.023-7.638-7.159-7.82c-4.139-0.171-7.637,3.023-7.82,7.159l-0.008,0.213C62.386,74.487,65.618,77.903,69.737,78.048z
	"/>
<path d="M102.401,184.383c2.904,2.825,7.768,2.767,10.601-0.146c2.887-2.968,2.822-7.714-0.146-10.601l-0.072-0.07
	c-2.968-2.887-7.714-2.822-10.601,0.146c-2.887,2.968-2.822,7.714,0.146,10.601L102.401,184.383z"/>
<path d="M123.514,205.238c2.749,2.983,7.61,3.182,10.594,0.433c3.045-2.806,3.239-7.549,0.433-10.594l-0.063-0.069
	c-2.803-3.047-7.545-3.245-10.594-0.441c-3.047,2.804-3.245,7.546-0.441,10.594L123.514,205.238z"/>
<path d="M151.069,254.088l0.036,0.126c1.138,3.89,5.397,6.232,9.299,5.092c3.974-1.161,6.254-5.325,5.093-9.299l-0.019-0.066
	c-1.146-3.978-5.3-6.274-9.278-5.131C152.221,245.956,149.924,250.109,151.069,254.088z"/>
<path d="M146.7,231.926c1.221,0,2.46-0.299,3.605-0.93c3.627-1.995,4.952-6.554,2.957-10.182c-0.024-0.044-0.098-0.174-0.123-0.217
	c-2.067-3.588-6.662-4.841-10.251-2.774c-3.588,2.067-4.831,6.629-2.765,10.217C141.489,230.523,144.054,231.926,146.7,231.926z"/>
<g>
</g>
<g>
</g>
<g>
</g>
<g>
</g>
<g>
</g>
<g>
</g>
<g>
</g>
<g>
</g>
<g>
</g>
<g>
</g>
<g>
</g>
<g>
</g>
<g>
</g>
<g>
</g>
<g>
</g>
</svg>
