<?xml version="1.0" encoding="iso-8859-1"?>
<!-- Generator: Adobe Illustrator 19.0.0, SVG Export Plug-In . SVG Version: 6.00 Build 0)  -->
<svg version="1.1" id="Capa_1" xmlns="http://www.w3.org/2000/svg" xmlns:xlink="http://www.w3.org/1999/xlink" x="0px" y="0px"
	 viewBox="0 0 512 512" style="enable-background:new 0 0 512 512;" xml:space="preserve">
<path style="fill:#631638;" d="M453.406,477.976c0-16.23,2.148-34.048-0.85-50.075c-2.801-14.973-12.616-28.075-26.13-35.071
	c-12.947-6.702-26.052-4.432-39.851-6.417c-31.217-4.491-57.713-27.165-67.002-57.292c-1.902-6.17-3.354-12.502-4.984-18.746
	c-19.928-76.301-39.857-152.601-59.785-228.902c-6.44-24.658-12.88-49.315-19.32-73.973c-29.503,0-59.006,0-88.509,0
	c-14.458,0-28.915,0-43.373,0c-9.428,0-18.856,0-28.284,0c-4.849,0-12.002-1.154-16.059,2.117c-6.35,5.12-3.433,20.28-3.352,27.595
	c0.126,11.43,0.264,22.861,0.404,34.291c0.32,26.174,0.654,52.348,0.967,78.522c0.242,20.276,0.593,40.558,0.593,60.837
	l99.803,75.603L256,455.873l60.643,29.036l115.331,8.071L453.406,477.976z"/>
<path style="fill:#511331;" d="M157.674,286.465c-32.424-39.098-53.695-86.998-60.936-137.274
	c-3.844-26.686-3.031-53.83-3.358-80.721c-0.152-12.536-0.303-25.072-0.435-37.608C92.861,22.964,90.147,7.5,102.368,7.5
	c-11.918,0-24.105-0.802-35.991,0C50.481,8.573,55.87,34.155,56,45.451c0.462,40.226,1.006,80.452,1.467,120.678
	c0.171,14.91,0.404,29.823,0.404,44.733L157.674,286.465L157.674,286.465z"/>
<path style="fill:#CE5F54;" d="M124.911,273.735c-7.016,71.93-13.024,144.032-21.055,215.855
	c-0.884,7.909-4.397,14.163-13.271,14.909c-8.437,0.71-19.154,1.415-27.481,0c-8.591-1.46-5.234-17.841-5.234-24.49
	c0-44.6,0-89.201,0-133.801c0-35.8,0-71.599,0-107.399l1.115-16.491l66.84,27.921L124.911,273.735z"/>
<path style="fill:#C15151;" d="M122.209,301.439L122.209,301.439l2.702-27.704l0.914-23.495l-66.84-27.921L57.87,238.81
	c0,81.322,0,162.643,0,243.965c0,5.186-0.895,11.289,0,16.416c1.464,8.385,14.608,5.308,21.394,5.308
	c0.29-57.277,0.266-114.564,0.869-171.838C80.364,310.713,99.604,291.996,122.209,301.439z"/>
<path style="fill:#D96D5D;" d="M55.653,213.92c0-7.328,20.831,3.168,23.516,4.188c7.924,3.009,15.848,6.019,23.772,9.028
	c27.44,9.344,51.11,28.183,66.457,52.761c4.313,6.906,8.351,13.996,12.511,20.994c17.876,30.07,35.752,60.14,53.628,90.211
	c15.871,26.697,30.627,54.616,58.419,70.953c32.075,18.855,69.621,15.923,105.35,15.923c16.03,0,32.06,0,48.09,0
	c4.108,0,7.633-1.053,8.954,3.516c3.497,12.096-9.387,22.425-19.92,23.007c-27.849,1.54-56.188,0-84.084,0
	c-49.23,0-95.287-21.639-122.423-63.727c-13.622-21.127-25.834-43.277-38.676-64.88c-14.634-24.617-29.118-49.331-43.906-73.856
	c-11.697-19.399-27.635-35.612-47.472-46.718c-9.037-5.059-18.621-8.548-28.38-11.871c-5.52-1.88-14.765-2.666-15.836-9.057
	C54.571,227.934,55.653,220.49,55.653,213.92z"/>
<path style="fill:#EDD7C0;" d="M113.241,49.497c0,19.509-30.338,19.509-30.338,0C82.903,30.005,113.241,29.961,113.241,49.497z"/>
<path d="M460.906,473.668v-36.556c0-31.627-25.754-57.357-57.411-57.357h-5.129c-34.093,0-63.915-23.013-72.521-55.964
	l-58.393-223.573c-1.046-4.007-5.141-6.409-9.152-5.361c-4.007,1.046-6.408,5.144-5.361,9.152l58.393,223.573
	c10.33,39.55,46.12,67.173,87.035,67.173h5.129c23.385,0,42.411,19.001,42.411,42.357v6.853c-0.085-0.003-0.168-0.013-0.253-0.013
	h-0.1c-9.652,0-9.668,15,0,15h0.1c0.086,0,0.169-0.01,0.253-0.013v11.537h-85.77c-47.503,0-79.078-17.478-102.377-56.672
	l-80.579-135.545c-16.208-27.263-41.666-47.921-71.696-58.18l-40.136-15.242c-0.033-5.378-0.099-12.688-0.189-21.362
	c0.428-1.47,0.386-2.97-0.046-4.339c-0.582-54.026-1.46-108.049-1.906-162.076c-0.006-0.7,0.318-1.175,0.59-1.45
	C64.072,15.331,64.55,15,65.262,15h164.428l15.028,57.536c1.046,4.007,5.142,6.409,9.152,5.361c4.007-1.046,6.408-5.144,5.361-9.152
	L242.74,5.604C241.877,2.303,238.896,0,235.482,0H65.262c-4.585,0-8.888,1.792-12.116,5.046c-3.223,3.25-4.978,7.56-4.94,12.136
	c0.522,63.412,1.874,126.82,2.155,190.234c-1.405,1.85-2.209,4.12-2.209,6.503v21.795c0,2.422,0.816,4.699,2.218,6.533v131.616
	c0,9.652,15,9.668,15,0V249.287l11.098,3.779c15.086,5.137,28.873,13.232,40.614,23.669l-21,215.288
	c-0.277,2.837-2.641,4.976-5.498,4.976H65.371v-90.071c0-9.652-15-9.668-15,0v93.394c0,6.439,5.24,11.677,11.682,11.677h28.533
	c10.616,0,19.397-7.962,20.427-18.52l19.739-202.362c3.457,4.302,6.635,8.85,9.481,13.637L220.812,440.3
	c26.289,44.227,74.607,71.7,126.095,71.7h41.027c9.652,0,9.668-15,0-15h-41.027c-46.225,0-89.602-24.663-113.203-64.364
	L153.126,297.09c-6.311-10.616-14.031-20.225-22.871-28.614c-0.061-0.062-0.125-0.119-0.188-0.178
	C116.21,255.2,99.607,245.1,81.304,238.867l-18.151-6.181v-12.639l37.125,14.099c0.081,0.031,0.163,0.061,0.245,0.088
	c26.71,9.096,49.355,27.452,63.763,51.689l80.579,135.545c25.959,43.668,62.587,64.007,115.271,64.007h88.683
	c-0.451,6.43-5.835,11.524-12.389,11.524h-17.337c-9.652,0-9.668,15,0,15h17.337c15.119,0,27.419-12.291,27.419-27.398v-3.685
	C463.849,478.102,462.724,475.548,460.906,473.668z"/>
<path d="M160.223,226.708c-2.989,2.867-3.088,7.615-0.221,10.604c0.036,0.038,0.142,0.146,0.179,0.183
	c2.865,2.865,7.753,2.906,10.632,0.026c2.929-2.929,2.955-7.652,0.025-10.581l-5.423,5.18l5.413-5.192
	C167.96,223.941,163.213,223.841,160.223,226.708z"/>
<path d="M179.918,249.515c-3.517,2.153-4.61,6.784-2.48,10.314c2.095,3.471,6.815,4.648,10.296,2.546
	c3.546-2.14,4.687-6.75,2.546-10.296c-0.016-0.027-0.085-0.139-0.101-0.165C188.005,248.41,183.437,247.362,179.918,249.515z"/>
<path d="M146.099,206.785c-3.519-2.184-8.166-1.117-10.349,2.403c-2.185,3.519-1.125,8.129,2.395,10.313
	c3.373,2.189,8.18,1.173,10.375-2.208c2.255-3.474,1.267-8.119-2.208-10.375C146.269,206.893,146.142,206.812,146.099,206.785z"/>
<path d="M210.788,301.138c-3.571,2.098-4.766,6.694-2.667,10.266l0.051,0.086c2.054,3.496,6.762,4.726,10.266,2.667
	c3.571-2.098,4.766-6.694,2.667-10.266l-0.051-0.086C218.956,300.234,214.359,299.039,210.788,301.138z"/>
<path d="M241.561,352.937c-3.566,2.107-4.723,6.75-2.616,10.315c2.063,3.49,6.773,4.71,10.272,2.642
	c3.566-2.107,4.749-6.707,2.642-10.272l-0.051-0.086C249.7,351.969,245.126,350.829,241.561,352.937z"/>
<path d="M195.364,275.29c-3.557,2.122-4.72,6.726-2.598,10.284l0.051,0.086c2.077,3.482,6.792,4.681,10.284,2.598
	c3.557-2.122,4.72-6.726,2.598-10.284l-0.051-0.086C203.525,274.331,198.921,273.168,195.364,275.29z"/>
<path d="M226.126,327.037c-3.557,2.122-4.72,6.726-2.598,10.284l0.051,0.086c2.077,3.482,6.792,4.681,10.284,2.598
	c3.557-2.122,4.72-6.726,2.598-10.284l-0.051-0.086C234.288,326.078,229.685,324.915,226.126,327.037z"/>
<path d="M415.552,458.952c9.652,0,9.668-15,0-15h-0.1c-9.652,0-9.668,15,0,15H415.552z"/>
<path d="M326.005,451.916c8.253,0,10.167-11.938,2.438-14.595l-0.128-0.043c-3.922-1.328-8.149,0.787-9.478,4.71
	c-1.328,3.923,0.807,8.191,4.73,9.519C324.375,451.784,325.197,451.916,326.005,451.916z"/>
<path d="M299.234,438.402c7.103,0,10.118-9.495,4.366-13.604l-0.155-0.109c-3.397-2.366-8.068-1.527-10.436,1.872
	c-2.367,3.399-1.526,8.077,1.873,10.444C296.203,437.948,297.726,438.402,299.234,438.402z"/>
<path d="M385.451,458.952c9.652,0,9.668-15,0-15h-0.1c-9.652,0-9.668,15,0,15H385.451z"/>
<path d="M354.617,458.063c4.02,0.413,7.813-2.652,8.229-6.692c0.424-4.121-2.572-7.805-6.692-8.229l-0.1-0.01
	c-4.125-0.424-7.805,2.572-8.229,6.692c-0.424,4.121,2.572,7.805,6.692,8.229L354.617,458.063z"/>
<path d="M277.375,417.875c1.66,0,3.332-0.548,4.721-1.676c3.217-2.61,3.709-7.333,1.099-10.549l-0.063-0.078
	c-2.61-3.217-7.302-3.671-10.518-1.06c-3.217,2.609-3.677,7.372-1.067,10.588C273.029,416.928,275.193,417.875,277.375,417.875z"/>
<path d="M88.786,183.716c-3.935-1.298-8.127,0.855-9.425,4.789c-1.297,3.934,0.887,8.19,4.82,9.488
	c3.831,1.264,8.209-0.945,9.472-4.773c1.297-3.934-0.839-8.174-4.773-9.472L88.786,183.716z"/>
<path d="M112.663,207.452l0.095,0.031c9.155,3.004,13.87-11.235,4.678-14.252l-0.095-0.031c-3.937-1.292-8.173,0.851-9.465,4.787
	C106.584,201.923,108.728,206.161,112.663,207.452z"/>
<path d="M260.789,392.812c1.301,0,2.619-0.339,3.819-1.05c3.563-2.114,4.737-6.715,2.624-10.277l-0.051-0.086
	c-2.114-3.563-6.714-4.737-10.277-2.624c-3.563,2.113-4.737,6.714-2.624,10.277l0.051,0.086
	C255.734,391.5,258.229,392.812,260.789,392.812z"/>
<path d="M120.741,49.497c0-29.211-45.338-29.211-45.338,0S120.741,78.708,120.741,49.497z M90.403,49.497
	c0-9.853,15.338-9.829,15.338,0C105.741,59.314,90.403,59.412,90.403,49.497z"/>
<g>
</g>
<g>
</g>
<g>
</g>
<g>
</g>
<g>
</g>
<g>
</g>
<g>
</g>
<g>
</g>
<g>
</g>
<g>
</g>
<g>
</g>
<g>
</g>
<g>
</g>
<g>
</g>
<g>
</g>
</svg>
