<?xml version="1.0" encoding="iso-8859-1"?>
<!-- Generator: Adobe Illustrator 19.0.0, SVG Export Plug-In . SVG Version: 6.00 Build 0)  -->
<svg version="1.1" id="Capa_1" xmlns="http://www.w3.org/2000/svg" xmlns:xlink="http://www.w3.org/1999/xlink" x="0px" y="0px"
	 viewBox="0 0 512 512" style="enable-background:new 0 0 512 512;" xml:space="preserve">
<path style="fill:#E87490;" d="M501.052,445.466c-4.24-22.325-15.709-41.605-36.149-52.706
	c-12.373-6.72-26.994-10.148-40.264-14.648c-44.6-15.127-80.768-48.617-97.358-92.998c-21.932-59.075-43.864-118.151-65.796-177.226
	c-4.466-12.03-8.932-24.06-13.399-36.09c-3.256-8.77-6.937-15.425-17.531-16.852c-30.29-4.082-61.212-5.418-91.651-8.112
	c-31.566-2.794-63.132-5.588-94.699-8.382c-9.906-3.978-6.567,25.717-6.594,30.425c-0.152,26.753-4.752,53.18-13.97,78.313
	c-9.253,25.226-15.304,50.817-16.058,77.787C7.263,236.45,7.5,247.954,7.5,259.43l19.922,24.677l246.521,161.36l50.617,15.883
	h159.348L501.052,445.466z"/>
<path style="fill:#D65F86;" d="M161.618,49.734l-9.943-1.771L44.206,38.451c-3.156-1.268-6.594,1.058-6.594,4.461v26.096
	c0,27.716-5.104,55.195-15.056,81.061l0,0C12.604,175.936,7.5,203.415,7.5,231.131v28.299l19.922,24.676l69.918,45.765h64.278
	V49.734z"/>
<path style="fill:#B25279;" d="M76.435,281.445c-11.383-14.1-17.876-32.163-17.773-50.315c0-27.716,5.104-55.195,15.056-81.061l0,0
	c9.952-25.866,15.056-53.345,15.056-81.061V42.912c0-0.175,0.015-0.344,0.032-0.513l-44.6-3.948
	c-3.156-1.268-6.594,1.058-6.594,4.461v26.096c0,27.716-5.104,55.195-15.056,81.061l0,0C12.604,175.936,7.5,203.415,7.5,231.131
	v28.299l19.922,24.676l69.918,45.765h51.162l-69.918-45.765L76.435,281.445z"/>
<path style="fill:#333F61;" d="M7.5,464.72c0,13.534,26.958,9.177,35.104,9.177c25.251,0,50.502,0,75.753,0
	c58.979,0,117.959,0,176.938,0c13.835,0,27.669,0,41.504,0l-0.041-0.025c0.654,0.009,1.306,0.025,1.961,0.025H480.21
	c11.503,0,22.926-9.02,24.02-20.855c0.522-5.643-1.195-5.786-5.353-6.044c-10.243-0.635-20.734,0-30.993,0
	c-31.647,0-63.294,0-94.941,0c-8.209,0-16.418,0-24.627,0c-29.661,0-59.932-10.063-81.349-30.593
	c-23.25-19.25-46.559-38.43-69.905-57.565c-19.783-16.215-39.598-32.393-59.477-48.49c-18.69-15.134-36.242-31.978-59.26-40.13
	c-22.911-8.116-46.679-10.79-70.825-10.79V464.72z"/>
<path style="fill:#29344C;" d="M393.664,473.897h1.92c-0.655,0-1.308-0.016-1.961-0.025L393.664,473.897z"/>
<g>
	<polygon style="fill:#253551;" points="50.425,473.897 84.437,473.897 7.5,420.15 7.5,443.91 	"/>
	<path style="fill:#253551;" d="M356.535,473.897l-46.929-32.784c-15.881-5.003-30.648-13.214-42.639-24.709
		c0,0-16.421-13.6-40.147-33.125L56.059,263.988c-7.54-1.637-15.069-2.844-22.096-3.603l-12.189-0.887l300.749,214.398h14.276
		l-0.041-0.025c0.654,0.009,1.307,0.025,1.961,0.025h17.816V473.897z"/>
	<polygon style="fill:#253551;" points="7.5,372.628 7.5,396.389 118.449,473.897 152.462,473.897 	"/>
	<polygon style="fill:#253551;" points="386.055,446.998 352.043,446.998 390.548,473.897 424.56,473.897 	"/>
	<path style="fill:#253551;" d="M448.667,446.998h-34.012l38.505,26.899h27.05c2.042,0,4.023-0.255,5.918-0.73L448.667,446.998z"/>
	<polygon style="fill:#253551;" points="7.5,277.586 7.5,298.303 7.5,301.347 254.498,473.897 288.511,473.897 	"/>
	<polygon style="fill:#253551;" points="7.5,325.107 7.5,348.868 186.474,473.897 220.486,473.897 	"/>
</g>
<path d="M507.934,441.511l-0.326-1.718c-5.215-27.461-24.907-50.056-51.39-58.967c-3.922-1.322-8.179,0.791-9.5,4.717
	c-1.321,3.926,0.791,8.179,4.717,9.5c20.349,6.847,35.718,23.719,40.759,44.456H348.316c-29.5,0-57.259-10.391-76.159-28.508
	c-0.131-0.125-0.266-0.247-0.406-0.362c-0.708-0.587-51.131-42.337-102.633-84.316V176.356c0-9.652-15-9.668-15,0v137.748
	c-15.001-12.187-29.846-24.659-45.176-36.432c-12.816-9.843-28.515-15.373-44.037-19.312c-15.863-4.026-33.487-6.43-47.143-6.43H15
	v-20.799c0-28.174,5.999-54.914,15.643-81.248c9.486-25.905,14.47-53.274,14.47-80.875V46.061l109.006,9.648v92.489
	c0,9.652,15,9.668,15,0V57.037l62.158,5.502c3.375,0.299,6.319,2.546,7.499,5.725l81.481,219.477
	c17.163,45.915,53.642,81.211,100.084,96.839c3.824,1.287,8.215-0.896,9.5-4.716c1.321-3.926-0.791-8.179-4.716-9.5
	c-42.142-14.18-75.244-46.209-90.812-87.858L252.837,63.043c-3.184-8.577-11.128-14.64-20.239-15.446L45.716,31.056
	c-3.455-0.964-7.178-0.376-10.19,1.66c-3.39,2.292-5.414,6.104-5.414,10.196v26.097c0,26.898-4.897,53.265-14.556,78.368
	C5.234,174.205,0,202.384,0,231.131v28.299v205.29c0,9.196,7.479,16.677,16.672,16.677h63.309c9.652,0,9.668-15,0-15H16.672
	c-0.922,0-1.672-0.752-1.672-1.677V266.93h2.762c22.85,0,47.337,4.886,68.143,14.413c18.834,8.625,34.868,25.03,50.84,37.979
	c33.522,27.177,66.885,54.551,100.184,82.002c8.356,6.888,16.708,13.781,25.049,20.686c21.659,20.648,53.11,32.487,86.337,32.487
	h147.962c-0.79,2.605-2.213,4.992-4.191,6.973c-3.172,3.177-7.39,4.926-11.877,4.926h-141.49c-0.407,0-0.814-0.007-1.221-0.014
	l-0.64-0.01c-0.24-0.003-0.477,0.005-0.712,0.024H113.993c-9.652,0-9.668,15,0,15h222.806c0.163,0,0.324-0.005,0.485-0.016
	c0.478,0.008,0.956,0.016,1.435,0.016H480.21c8.499,0,16.486-3.313,22.492-9.327c6.009-6.018,9.311-14.017,9.298-22.522
	C511.995,446.26,510.392,443.345,507.934,441.511z"/>
<g>
</g>
<g>
</g>
<g>
</g>
<g>
</g>
<g>
</g>
<g>
</g>
<g>
</g>
<g>
</g>
<g>
</g>
<g>
</g>
<g>
</g>
<g>
</g>
<g>
</g>
<g>
</g>
<g>
</g>
</svg>
