<?xml version="1.0" encoding="iso-8859-1"?>
<!-- Generator: Adobe Illustrator 19.0.0, SVG Export Plug-In . SVG Version: 6.00 Build 0)  -->
<svg version="1.1" id="Capa_1" xmlns="http://www.w3.org/2000/svg" xmlns:xlink="http://www.w3.org/1999/xlink" x="0px" y="0px"
	 viewBox="0 0 512 512" style="enable-background:new 0 0 512 512;" xml:space="preserve">
<path style="fill:#485878;" d="M453.405,477.976v-40.864c0-31.117-26.079-49.857-55.04-49.857
	c-37.519,0-70.306-25.304-79.778-61.569L235.482,7.5c-29.503,0-59.006,0-88.509,0c-24.933,0-49.865,0-74.798,0
	c0,16.611,0,33.221,0,49.832c0,14.827,1.677,30.139-7.153,43.03l0,0c-9.649,14.088-7.153,31.839-7.153,48.007
	c0,18.267,0,36.534,0,54.801l16.087,25.883l87.904,52.768l100.571,174.052l53.383,28.827l105.042,6.981L453.405,477.976z"/>
<polyline style="fill:#253551;" points="194.952,315.14 173.735,142.966 149.209,142.966 138.344,238.218 "/>
<path style="fill:#425272;" d="M109.357,229.053L93.27,203.17c0-17.713,0-35.427,0-53.14c0-15.164-2.529-32.331,5.026-46.157
	c3.364-6.156,7.031-11.429,8.461-18.468c1.63-8.02,0.819-16.615,0.819-24.751c0-17.718,0-35.436,0-53.154c-11.8,0-23.6,0-35.4,0
	c0,16.611,0,33.221,0,49.832c0,14.827,1.677,30.139-7.153,43.03l0,0c-9.649,14.088-7.153,31.839-7.153,48.007
	c0,18.267,0,36.534,0,54.801l16.087,25.883l87.904,52.768L109.357,229.053z"/>
<path style="fill:#333F61;" d="M124.91,273.735c-14.79,71.8-29.579,143.599-44.369,215.399c-0.734,3.565-0.946,8.097-2.363,11.473
	c-2.036,4.851-16.462,6.794-19.737,1.823c-1.292-1.961-0.571-6.225-0.571-8.329c0-6.014,0-12.027,0-18.041
	c0-44.383,0-88.766,0-133.149c0-34.7,0-69.401,0-104.101l1.893-17.214l65.147,38.044V273.735z"/>
<path style="fill:#253551;" d="M120.045,297.354L120.045,297.354l4.865-23.619V259.64l-65.147-38.044L57.87,238.81
	c0,78.739,0,157.478,0,236.218c0,6.801,0,13.601,0,20.402c0,6.375,0.973,9.07,8.716,9.07c0.469-58.819-0.388-117.8,1.409-176.591
	C68.793,301.781,96.221,283.442,120.045,297.354z"/>
<path style="fill:#333F61;" d="M55.652,206.227c0-7.328,20.831,3.168,23.516,4.188c7.924,3.009,15.848,6.019,23.772,9.028
	c28.428,9.68,52.247,29.363,67.792,54.956c4.209,6.929,8.287,13.941,12.43,20.909c18.358,30.88,36.715,61.76,55.073,92.641
	c4.348,7.314,8.637,14.667,13.046,21.945c14.443,23.841,35.361,43.117,60.663,54.956c35.681,16.696,75.127,13.126,113.4,13.126
	c7.712,0,15.425,0,23.137,0c5.05,0,7.917-0.251,7.867,6.05c-0.138,17.572-23.494,19.218-36.509,20.049
	c-31.792,2.032-64.08,0.425-95.918,0.425c-39.007,0-74.876-33.533-94.604-64.681c-14.002-22.107-26.839-45.029-40.21-67.519
	c-14.106-23.728-28.012-47.589-42.324-71.195c-14.211-23.439-35.256-42.005-60.691-52.435c-7.728-3.169-15.784-5.622-23.686-8.313
	c-7.733-2.633-6.757-6.162-6.757-13.78C55.652,219.793,55.652,213.01,55.652,206.227z"/>
<g>
	<polygon style="fill:#253551;" points="173.735,92.33 149.209,92.33 139.532,7.5 184.188,7.5 	"/>
	<path style="fill:#253551;" d="M136.515,105.01l-69.478-7.908c0,0-1.291,2.204-2.014,3.261l0,0
		c-8.117,11.851-7.153,25.119-7.153,38.818l78.646-9.671v-24.5H136.515z"/>
</g>
<path style="fill:#1B2B42;" d="M93.27,123.46c0-8.044,2.39-15.897,6.835-22.594l-33.068-3.764c0,0-0.503,0.847-0.756,1.267
	c-0.4,0.675-0.812,1.343-1.258,1.994l0,0c-8.117,11.851-7.153,25.119-7.153,38.818l35.4-4.353
	C93.27,131.038,93.27,127.249,93.27,123.46z"/>
<polygon style="fill:#253551;" points="187.206,129.51 187.206,105.01 258.822,96.858 270.008,139.692 "/>
<path d="M460.905,473.668v-36.556c0-31.627-25.754-57.357-57.411-57.357h-5.129c-34.093,0-63.915-23.013-72.521-55.964
	c-1.046-4.007-5.141-6.407-9.152-5.361c-4.007,1.046-6.408,5.144-5.361,9.152c10.33,39.55,46.12,67.173,87.034,67.173h5.129
	c23.385,0,42.411,19.001,42.411,42.357v33.364h-41.298c-9.652,0-9.668,15,0,15h44.21c-0.451,6.43-5.835,11.524-12.389,11.524
	h-89.522c-46.225,0-89.602-24.663-113.203-64.364L153.125,297.09c-6.303-10.603-14.011-20.201-22.837-28.583
	c-0.059-0.06-0.123-0.115-0.184-0.174c-13.864-13.115-30.481-23.228-48.801-29.467l-18.151-6.181v-20.331l37.125,14.099
	c0.081,0.031,0.163,0.061,0.245,0.088c26.71,9.095,49.355,27.452,63.763,51.689l80.579,135.546
	c13.571,22.829,33.442,41.682,56.839,54.223c11.628,6.233,24.089,10.907,36.954,13.836c6.492,1.478,13.085,2.514,19.718,3.092
	c5.116,0.446,13.816,2.425,17.89-1.649c4.15-4.15,1.965-10.783-3.31-12.535c-5.62-1.867-13.499-0.638-19.47-1.447
	c-13.056-1.767-25.831-5.518-37.783-11.056c-23.977-11.11-44.433-29.4-57.944-52.129l-55.555-93.452l-20.197-163.898
	c4.919-2.119,8.868-6.067,10.99-10.984l71.043,8.736l36.839,141.048c1.024,3.922,5.222,6.388,9.151,5.361
	c4.008-1.046,6.408-5.144,5.361-9.152L277.266,137.8c0-0.001,0-0.003-0.001-0.004l-11.188-42.833v-0.001L242.739,5.604
	C241.877,2.303,238.895,0,235.482,0h-51.294h-44.656H72.176c-4.142,0-7.5,3.358-7.5,7.5v69.765c0,6.759-2.02,13.281-5.841,18.859
	c-5.538,8.085-8.465,17.538-8.465,27.336v76.252c-1.41,1.852-2.218,4.127-2.218,6.515v29.487c0,2.423,0.816,4.699,2.218,6.534
	v258.074c0,6.439,5.24,11.677,11.682,11.677h11.916c5.517,0,10.329-3.921,11.441-9.322l14.761-71.661
	c0.836-4.057-1.775-8.023-5.833-8.859c-4.056-0.836-8.023,1.775-8.859,5.833L71.263,497H65.37V249.287l11.098,3.779
	c14.925,5.083,28.576,13.061,40.235,23.337L92.699,392.938c-0.836,4.057,1.776,8.023,5.833,8.859
	c3.962,0.818,8.039-1.854,8.859-5.833l21.948-106.551c4.006,4.8,7.667,9.914,10.893,15.342l80.579,135.546
	C247.1,484.527,295.418,512,346.906,512h89.522c15.119,0,27.419-12.291,27.419-27.398v-3.685
	C463.848,478.102,462.723,475.548,460.905,473.668z M65.37,123.46c0-6.566,1.921-12.899,5.532-18.37l58.114,6.615v11.17
	l-63.646,7.826C65.37,130.701,65.37,123.46,65.37,123.46z M65.37,197.152v-51.338l65.355-8.037
	c2.022,4.686,5.713,8.475,10.312,10.657l-8.737,76.592c-8.391-5.162-17.378-9.416-26.818-12.641L65.37,197.152z M173.742,99.83
	c3.289,0,5.964,2.675,5.964,5.963v23.709c0,3.289-2.675,5.964-5.964,5.964h-0.007h-23.756c-3.289,0-5.964-2.675-5.964-5.964v-23.709
	c0-3.288,2.675-5.963,5.964-5.963h23.756H173.742z M177.179,270.566c-8.157-13.722-18.661-25.768-30.909-35.66l9.632-84.44h11.2
	l16.035,130.122L177.179,270.566z M194.706,122.875v-11.17l58.502-6.659l6.753,25.854L194.706,122.875z M249.379,90.385
	l-56.71,6.455c-2.184-4.598-5.975-8.287-10.663-10.306L190.821,15h38.868L249.379,90.385z M79.676,15h53.163l1.635,14.337
	c0.469,4.115,4.187,7.066,8.302,6.602c4.115-0.469,7.071-4.186,6.602-8.302L147.937,15h27.771l-8.605,69.83h-11.201l-2.694-23.622
	c-0.47-4.116-4.186-7.071-8.302-6.602c-4.115,0.469-7.071,4.186-6.602,8.302l2.732,23.953c-4.372,2.074-7.908,5.608-9.985,9.979
	l-53.3-6.067c1.266-4.356,1.924-8.892,1.924-13.508V15H79.676z"/>
<g>
</g>
<g>
</g>
<g>
</g>
<g>
</g>
<g>
</g>
<g>
</g>
<g>
</g>
<g>
</g>
<g>
</g>
<g>
</g>
<g>
</g>
<g>
</g>
<g>
</g>
<g>
</g>
<g>
</g>
</svg>
