<?xml version="1.0" encoding="iso-8859-1"?>
<!-- Generator: Adobe Illustrator 19.0.0, SVG Export Plug-In . SVG Version: 6.00 Build 0)  -->
<svg version="1.1" id="Capa_1" xmlns="http://www.w3.org/2000/svg" xmlns:xlink="http://www.w3.org/1999/xlink" x="0px" y="0px"
	 viewBox="0 0 512 512" style="enable-background:new 0 0 512 512;" xml:space="preserve">
<path style="fill:#FFB39C;" d="M260.315,97.311c-4.687-15.082-20.527-23.686-35.724-19.407L176.109,91.56l101.051,59.946
	L260.315,97.311z"/>
<path style="fill:#DE7B69;" d="M7.496,293.517c0-23.326-0.659-46.745,0.136-70.059c1.026-30.102,9.864-56.636,19.012-84.92
	c7.715-23.852,10.947-48.489,10.947-73.499c0-6.519-3.889-28.714,7.152-26.239c5.735,1.285,11.644,4.676,17.079,6.859
	c25.959,10.426,51.918,20.851,77.877,31.277c27.088,10.879,54.174,21.758,81.262,32.636c20.329,8.164,42.051,14.382,53.202,35.289
	c9.814,18.402,15.459,39.983,22.732,59.441c9.474,25.345,18.947,50.689,28.421,76.034c13.358,35.738,36.683,65.972,70.185,84.996
	c28.808,16.357,68.075,17.743,89.983,44.663c7.301,8.972,12.312,19.724,14.471,31.09l0.812,12.601H261.087L7.496,293.517z"/>
<path style="fill:#D96D5D;" d="M296.772,362.831c13.295-29.417,18.513-61.848,15.117-93.952l-3.607-34.109l0,0l-31.123-83.265
	c-5.425-14.512-16.703-26.069-31.075-31.841L44.181,38.575c-3.154-1.267-6.59,1.057-6.59,4.458v26.081
	c0,27.7-5.101,55.164-15.047,81.015l0,0c-9.946,25.851-15.047,53.315-15.047,81.016v62.372l46.896,29.62l106.069,5.825
	c18.767-27.826,53.059-35.437,78.978-13.859L296.772,362.831L296.772,362.831z"/>
<path style="fill:#CA5F5B;" d="M114.541,323.137l-46.896-29.62v-62.372c0-27.7,5.101-55.164,15.047-81.015l0,0
	c9.946-25.851,15.047-53.315,15.047-81.015v-9.029L44.181,38.575c-3.154-1.267-6.59,1.057-6.59,4.458v26.081
	c0,27.7-5.101,55.164-15.047,81.015l0,0c-9.946,25.851-15.047,53.315-15.047,81.016v62.372l46.896,29.62l106.069,5.825
	c0.739-1.094,1.508-2.146,2.293-3.177L114.541,323.137z"/>
<path style="fill:#CE5F54;" d="M7.496,464.601c0,13.526,26.943,9.172,35.084,9.172c25.237,0,50.473,0,75.71,0
	c58.945,0,117.892,0,176.837,0c13.827,0,27.653,0,41.48,0l-0.041-0.025c0.654,0.009,1.305,0.025,1.96,0.025h141.41
	c11.496,0,22.913-9.015,24.006-20.843c0.522-5.64-1.194-5.783-5.35-6.041c-10.237-0.635-20.722,0-30.975,0
	c-31.629,0-63.258,0-94.887,0c-8.204,0-16.409,0-24.613,0c-29.644,0-59.898-10.057-81.303-30.576
	c-23.237-19.239-46.532-38.408-69.865-57.532c-19.772-16.206-39.575-32.375-59.443-48.462
	c-18.679-15.125-36.221-31.96-59.226-40.107c-22.898-8.111-46.652-10.784-70.785-10.784V464.601z"/>
<g>
	<path style="fill:#A13432;" d="M275.175,202.977c-10.636,18.154-38.822,1.648-28.176-16.523
		C257.641,168.289,285.823,184.802,275.175,202.977z"/>
	<path style="fill:#A13432;" d="M283.948,248.363c-10.422,17.79-38.043,1.615-27.611-16.192
		C266.766,214.37,294.382,230.552,283.948,248.363z"/>
</g>
<g>
	<path style="fill:#C15151;" d="M503.734,454.302H7.496v10.299c0,5.065,4.104,9.172,9.167,9.172h319.945l-0.041-0.025
		c0.653,0.009,1.305,0.025,1.96,0.025h141.41C491.695,473.772,501.5,465.408,503.734,454.302z"/>
	<path style="fill:#C15151;" d="M7.496,337.481v19.47h187.221c-7.729-6.332-15.726-12.875-23.808-19.47H7.496z"/>
	<path style="fill:#C15151;" d="M7.496,434.832H293.78c-9.882-4.751-19.032-10.915-26.965-18.519c0,0-0.396-0.327-1.148-0.95H7.496
		V434.832z"/>
	<path style="fill:#C15151;" d="M7.496,376.421v19.47h234.595c-6.871-5.665-14.881-12.261-23.651-19.47H7.496z"/>
	<path style="fill:#C15151;" d="M7.496,259.599v19.47h90.229c-19.349-11.61-51.084-18.354-73.599-19.47H7.496z"/>
	<path style="fill:#C15151;" d="M7.496,298.54v19.47h139.497c-8.194-6.653-16.283-13.199-24.065-19.47H7.496z"/>
</g>
<path d="M507.645,441.404l-0.326-1.717c-3.865-20.344-15.97-38.585-33.21-50.043c-3.449-2.29-8.099-1.353-10.391,2.094
	c-5.657,8.51,9.256,15.457,13.829,20.532c6.92,7.679,11.922,17.078,14.374,27.124H348.117c-29.484,0-57.227-10.385-76.116-28.492
	c-0.131-0.125-0.267-0.247-0.406-0.362c-0.7-0.58-49.935-41.346-100.777-82.803c8.092-9.435,18.643-15.599,29.75-17.182
	c12.118-1.729,23.899,1.838,34.075,10.309l57.332,47.729c1.706,1.42,4.307,2.045,6.475,1.544c2.282-0.525,4.187-2.085,5.15-4.218
	c11.019-24.379,16.694-50.807,16.768-77.434c17.271,45.515,53.573,80.49,99.73,96.021l19.115,6.432
	c3.822,1.287,8.21-0.895,9.495-4.714c1.32-3.924-0.791-8.174-4.714-9.495l-19.115-6.432c-42.118-14.172-75.199-46.183-90.764-87.824
	l-15.686-41.965l4.834-0.817c4.082-0.689,6.832-4.557,6.142-8.639c-0.69-4.081-4.542-6.837-8.64-6.142l-7.684,1.298l-11.864-31.739
	l14.013-2.367c4.082-0.689,6.832-4.557,6.142-8.639c-0.69-4.081-4.542-6.836-8.64-6.143l-16.862,2.848l-11.621-31.09l-16.782-53.993
	c-5.938-19.103-25.669-29.817-44.913-24.397l-46.027,12.965l-45.51-18.278c-3.838-1.542-8.206,0.32-9.749,4.163
	c-1.542,3.841,0.321,8.206,4.163,9.748l117.856,47.334c12.387,4.975,22.172,15.001,26.847,27.51l10.683,28.581l-3.002,0.507
	c-1.637-2.565-3.871-4.798-6.669-6.439c-4.585-2.688-9.941-3.43-15.085-2.087c-5.143,1.342-9.454,4.607-12.141,9.194
	c-5.546,9.466-2.359,21.681,7.103,27.23c4.513,2.646,10.022,3.41,15.085,2.088c5.143-1.342,9.454-4.607,12.141-9.194
	c1.129-1.929,1.878-3.973,2.305-6.05l5.61-0.947l11.864,31.739l-10.508,1.775c-1.668-2.982-4.107-5.581-7.261-7.431
	c-4.585-2.688-9.941-3.43-15.085-2.088c-16.765,4.377-19.995,27.653-5.038,36.424c4.513,2.647,10.022,3.41,15.085,2.088
	c5.143-1.342,9.454-4.607,12.141-9.194c0.922-1.575,1.582-3.229,2.033-4.913l12.254-2.07l2.784,26.325
	c2.903,27.454-0.78,55.224-10.664,80.913l-49.536-41.238c-13.331-11.097-29.592-15.938-45.782-13.628
	c-14.832,2.114-28.779,10.212-39.26,22.556c-15.995-13.01-31.976-26.043-48.126-38.861c-13.522-10.733-29.588-16.833-46.201-21.049
	c-15.854-4.024-33.468-6.426-47.117-6.426h-2.756v-20.787c0-28.158,5.996-54.883,15.633-81.202
	c9.481-25.89,14.462-53.244,14.462-80.829V47.016l52.171,20.953c3.843,1.543,8.206-0.32,9.749-4.163
	c1.542-3.841-0.321-8.206-4.163-9.748l-55.87-22.439c-3.794-1.523-8.081-1.065-11.468,1.224c-3.388,2.291-5.411,6.1-5.411,10.19
	v26.082c0,26.882-4.894,53.234-14.549,78.323C5.23,174.251,0,202.414,0,231.145v28.283v64.923c0,9.647,14.991,9.663,14.991,0
	v-57.427h2.76c22.838,0,47.31,4.883,68.105,14.405c18.822,8.619,34.846,25.015,50.808,37.955
	c33.502,27.161,66.845,54.518,100.123,81.952c8.352,6.886,16.702,13.775,25.041,20.679c21.647,20.637,53.08,32.469,86.29,32.469
	h147.877c-0.79,2.604-2.212,4.99-4.188,6.969c-3.17,3.174-7.386,4.923-11.87,4.923H338.526c-0.407,0-0.814-0.007-1.221-0.014
	l-0.639-0.01c-0.241-0.003-0.477,0.005-0.712,0.024H16.662c-0.921,0-1.671-0.752-1.671-1.676V354.594c0-9.646-14.991-9.662-14.991,0
	V464.6c0,9.191,7.475,16.668,16.662,16.668h319.945c0.163,0,0.324-0.005,0.484-0.016c0.479,0.008,0.956,0.016,1.435,0.016h141.41
	c8.493,0,16.476-3.311,22.478-9.322C508.816,465.536,517.288,448.602,507.645,441.404z M199.325,92.808l27.297-7.689
	c11.368-3.201,23.025,3.128,26.534,14.416l5.683,18.282c-3.145-1.98-6.469-3.705-9.961-5.108L199.325,92.808z M265.318,196.431
	c-0.663,1.13-1.726,1.936-2.992,2.267c-1.269,0.332-2.588,0.147-3.716-0.515c-2.335-1.369-3.12-4.384-1.752-6.72
	c0.663-1.13,1.726-1.936,2.993-2.267c1.272-0.327,2.511-0.155,3.715,0.514C265.9,191.079,266.686,194.094,265.318,196.431z
	 M271.438,245.014c-1.27,0.331-2.589,0.148-3.716-0.514c-2.335-1.369-3.12-4.384-1.751-6.721c0.662-1.131,1.725-1.936,2.992-2.267
	c1.272-0.327,2.511-0.156,3.715,0.515c0.547,0.321,0.999,0.738,1.369,1.208c0.505,1.324,1.522,3.568,0.505,5.245
	c-0.044,0.088-0.071,0.181-0.122,0.267C273.768,243.879,272.704,244.684,271.438,245.014z"/>
<g>
</g>
<g>
</g>
<g>
</g>
<g>
</g>
<g>
</g>
<g>
</g>
<g>
</g>
<g>
</g>
<g>
</g>
<g>
</g>
<g>
</g>
<g>
</g>
<g>
</g>
<g>
</g>
<g>
</g>
</svg>
