<?xml version="1.0" encoding="iso-8859-1"?>
<!-- Generator: Adobe Illustrator 19.0.0, SVG Export Plug-In . SVG Version: 6.00 Build 0)  -->
<svg version="1.1" id="Capa_1" xmlns="http://www.w3.org/2000/svg" xmlns:xlink="http://www.w3.org/1999/xlink" x="0px" y="0px"
	 viewBox="0 0 512 512" style="enable-background:new 0 0 512 512;" xml:space="preserve">
<path style="fill:#F49E73;" d="M501.62,445.796c-3.931-20.67-13.933-38.765-32.065-50.269c-11.864-7.527-26.41-11.011-39.622-15.451
	c-39.396-13.238-72.709-37.422-93.004-74.368c-10.467-19.053-16.966-40.756-24.561-61.047
	c-9.921-26.504-19.842-53.008-29.763-79.512c-2.482-6.63-4.636-13.684-7.981-19.946c-6.64-12.434-17.465-20.859-30.33-26.091
	c-18.107-7.363-36.286-14.553-54.427-21.829c-47.34-18.987-94.355-39.399-142.215-57.037c-1.05-0.387-2.275-1.193-3.391-1.359
	c-7.568-1.132-6.617,6.031-6.617,11.217c0,18.778,0.055,37.399-3.006,56.011c-4.522,27.502-16.81,52.5-22.454,79.671
	c-4.121,19.838-4.688,39.739-4.688,59.893c0,5.278,0,10.556,0,15.833l148.716,78.21l102.02,89.732l43.925,25.008L501.62,445.796"/>
<path style="fill:#FFB39C;" d="M277.626,151.847c-3.388-10.885-6.775-21.768-10.163-32.652
	c-3.663-11.767-6.078-27.255-16.096-35.445c-12.812-10.475-26.731-5.435-40.668-1.514c-11.433,3.216-22.866,6.431-34.299,9.647"/>
<path style="fill:#EF9067;" d="M312.418,269.258l-3.613-34.12l-31.177-83.292c-5.434-14.517-16.733-26.078-31.129-31.852
	L44.246,38.88c-3.16-1.267-6.602,1.058-6.602,4.459v26.09c0,27.71-5.11,55.182-15.073,81.041l0,0
	c-9.964,25.859-15.074,53.332-15.074,81.041v43.058l151.752,70.828v-13.33c15.324-30.074,54.627-38.155,80.592-16.57l57.431,47.744
	l0,0C310.591,333.815,315.818,301.374,312.418,269.258z"/>
<path style="fill:#E07F65;" d="M104.037,316.315c-23.669-11.047-38.882-35.244-39.047-61.283c0-27.71,5.11-55.182,15.074-81.041l0,0
	c9.964-25.859,15.073-53.332,15.073-81.041V66.86c0-3.403,3.628-6.115,6.787-4.848c-16.41-6.581-32.82-13.164-49.232-19.745
	c-5.471-2.194-13.591-7.214-15.049,1.889c-1.28,7.998,0,17.158,0,25.273c0,27.71-5.11,55.182-15.073,81.041l0,0
	c-9.964,25.859-15.074,53.332-15.074,81.041v43.058l151.752,70.828v-3.313L104.037,316.315z"/>
<g>
	<path style="fill:#B75139;" d="M272.242,200.577c-8.108,13.819-29.496,1.197-21.431-12.55
		C258.879,174.276,280.354,186.751,272.242,200.577z"/>
	<path style="fill:#B75139;" d="M281.372,246.91c-8.108,13.819-29.496,1.197-21.431-12.55
		C268.007,220.607,289.483,233.083,281.372,246.91z"/>
</g>
<g>
	<path style="fill:#333F61;" d="M7.497,253.045c54.132,28.188,108.381,56.16,162.399,84.566
		c34.678,18.235,61.484,50.126,89.843,76.636c22.858,21.367,53.23,31.29,84.197,31.548c11.442,0.095,22.89,0,34.333,0
		c38.138,0,76.277,0,114.416,0c2.303,0,6.717-0.877,8.912,0c5.327,2.128,1.744,10.623-0.215,14.324
		c-3.556,6.717-10.102,11.555-17.594,12.916c-10.45,1.898-22.249,0.403-32.778,0.403c-37.112,0-74.222,0-111.334,0
		c-23.009,0-45.314-3.458-66.472-12.945c-24.281-10.887-42.224-28.399-60.264-47.257c-18.944-19.803-38.248-38.421-61.943-52.65
		c-11.041-6.63-22.702-12.313-34.119-18.258c-34.007-17.709-68.014-35.416-102.02-53.125c-2.453-1.277-4.906-2.555-7.359-3.832
		v-32.325H7.497z"/>
	<path style="fill:#333F61;" d="M71.533,473.438c-17.177,0-34.403,0.411-51.574,0c-14.803-0.354-12.463-13.086-12.463-23.927
		c0-42.085,0-84.169,0-126.254c0-12.629,0-25.258,0-37.886l102.206,53.222c-33.045,6.99-28.73,41.81-28.73,67.261
		c0,14.381,0,28.763,0,43.144C80.972,456.833,83.764,473.438,71.533,473.438z"/>
</g>
<path style="fill:#253551;" d="M84.133,359.231L84.133,359.231c4.619-10.306,13.943-18.178,25.569-20.638L7.497,285.371
	c0,57.563,0,115.126,0,172.689c0,3.664-0.503,7.733,1.516,10.97c4.39,7.038,17.801,4.407,24.823,4.407c0-22.794,0-45.586,0-68.38
	c0-9.563-1.077-20.023,2.795-28.998C44.441,357.957,66.683,350.144,84.133,359.231z"/>
<path d="M508.307,440.825l-0.134-0.704c-5.222-27.455-24.934-50.043-51.445-58.952l-31.131-10.461
	c-42.194-14.178-75.336-46.2-90.927-87.856l-15.711-41.975l4.85-0.818c4.083-0.689,6.834-4.557,6.145-8.639
	c-0.689-4.082-4.562-6.838-8.639-6.145l-7.711,1.3l-11.886-31.753l14.044-2.369c9.514-1.604,7.035-16.398-2.493-14.785
	l-16.905,2.852l-11.645-31.111l-16.809-54.005c-5.947-19.105-25.704-29.821-44.974-24.402l-46.112,12.971l-34.432-13.81
	c-3.841-1.541-8.208,0.325-9.749,4.167c-1.541,3.843,0.324,8.208,4.167,9.749l106.897,42.873
	c12.41,4.977,22.215,15.008,26.898,27.522l10.701,28.587l-3.009,0.508c-1.673-2.617-3.941-4.827-6.7-6.442
	c-9.473-5.546-21.698-2.359-27.252,7.107c-2.692,4.588-3.435,9.95-2.09,15.096c1.344,5.145,4.611,9.459,9.202,12.148
	c9.347,5.474,21.775,2.226,27.252-7.106c1.12-1.908,1.881-3.952,2.316-6.057l5.634-0.951l11.885,31.753l-10.535,1.777
	c-1.708-3.052-4.185-5.62-7.284-7.435c-9.472-5.546-21.697-2.359-27.252,7.106c-2.692,4.588-3.436,9.95-2.091,15.097
	c1.344,5.145,4.612,9.459,9.203,12.148c9.348,5.474,21.775,2.227,27.252-7.106l0,0c0.917-1.561,1.588-3.218,2.047-4.919
	l12.288-2.072l2.79,26.337c2.908,27.468-0.783,55.249-10.689,80.952l-6.401-5.323c-3.184-2.646-7.91-2.212-10.559,0.973
	c-2.646,3.184-2.211,7.911,0.973,10.558l14.194,11.8c1.708,1.42,4.303,2.039,6.474,1.541c2.28-0.525,4.185-2.083,5.149-4.215
	c11.045-24.406,16.731-50.863,16.798-77.518c17.292,45.557,53.666,80.567,99.92,96.108l31.131,10.461
	c19.873,6.677,35.003,22.887,40.419,42.915H343.567c-30.417,0-59.04-10.701-78.531-29.358l-40.59-38.856
	c-14.515-13.893-30.33-28.314-49.971-38.542l-4.629-2.411c6.556-8.902,16.154-15.101,27.21-17.377
	c13.53-2.786,27.379,0.681,37.994,9.506l18.39,15.289c3.185,2.647,7.911,2.213,10.559-0.973c2.646-3.184,2.211-7.911-0.973-10.558
	l-18.39-15.29c-14.142-11.756-32.583-16.37-50.603-12.662c-15.511,3.193-28.859,12.188-37.597,25.08L14.994,248.497v-16.984
	c0-26.89,4.903-53.249,14.572-78.347C39.9,126.345,45.14,98.172,45.14,69.43V47.316l58.853,23.603
	c3.844,1.541,8.207-0.325,9.749-4.167c1.541-3.843-0.324-8.208-4.167-9.749L47.037,31.922c-7.918-3.176-16.889,2.881-16.889,11.417
	v26.09c0,26.892-4.902,53.251-14.571,78.347C5.24,174.598,0,202.772,0,231.512v21.533v32.325v178.638
	c0,9.334,7.598,16.928,16.936,16.928h54.597c9.338,0,16.935-7.594,16.935-16.928v-57.62c0-9.648-14.994-9.664-14.994,0v57.62
	c0,1.067-0.871,1.934-1.941,1.934H16.936c-1.071,0-1.942-0.868-1.942-1.934V297.727l77.432,40.321
	c-7.439,5.154-13.223,12.631-16.324,21.133c-2.257,6.188-6.29,20.816,3.874,22.194c10.033,1.359,8.117-11.559,10.4-17.524
	c3.137-8.194,10.006-14.701,18.41-17.285l26.219,13.653c22.269,11.596,42.359,26.673,59.71,44.812l26.757,27.969
	c29.14,30.462,70.042,47.933,112.219,47.933h145.604c10.076,0,19.698-4.804,25.81-12.796
	C510.126,461.576,515.961,447.53,508.307,440.825z M199.65,93.129l27.345-7.692c11.406-3.206,23.083,3.132,26.598,14.425
	l5.696,18.299c-3.158-1.987-6.494-3.717-10.002-5.124L199.65,93.129z M265.777,196.783c-1.372,2.34-4.394,3.129-6.742,1.755
	c-1.134-0.665-1.94-1.728-2.271-2.999c-0.332-1.268-0.148-2.589,0.515-3.719c1.35-2.302,4.4-3.128,6.742-1.755
	c1.135,0.664,1.941,1.728,2.272,2.998C266.623,194.331,266.441,195.653,265.777,196.783z M268.163,244.87
	c-1.135-0.664-1.941-1.728-2.272-2.998c-0.331-1.267-0.148-2.589,0.516-3.719c1.351-2.303,4.399-3.126,6.742-1.755
	c0.539,0.316,0.999,0.728,1.373,1.203c-0.274,1.013-0.346,2.096-0.16,3.198c0.124,0.733,0.354,1.419,0.665,2.054
	c-0.044,0.086-0.072,0.178-0.121,0.262C273.534,245.455,270.509,246.246,268.163,244.87z M479.295,465.942H333.691
	c-38.104,0-75.057-15.783-101.383-43.304l-26.757-27.969c-18.488-19.327-39.893-35.391-63.621-47.746l-28.764-14.978l-0.001-0.001
	l-98.171-51.122v-15.42l152.556,79.441c17.891,9.316,32.795,22.93,46.528,36.075l40.59,38.856
	c22.255,21.302,54.657,33.52,88.899,33.52h152.548C494.012,460.589,487.268,465.942,479.295,465.942z"/>
<g>
</g>
<g>
</g>
<g>
</g>
<g>
</g>
<g>
</g>
<g>
</g>
<g>
</g>
<g>
</g>
<g>
</g>
<g>
</g>
<g>
</g>
<g>
</g>
<g>
</g>
<g>
</g>
<g>
</g>
</svg>
