<?xml version="1.0" encoding="iso-8859-1"?>
<!-- Generator: Adobe Illustrator 19.0.0, SVG Export Plug-In . SVG Version: 6.00 Build 0)  -->
<svg version="1.1" id="Capa_1" xmlns="http://www.w3.org/2000/svg" xmlns:xlink="http://www.w3.org/1999/xlink" x="0px" y="0px"
	 viewBox="0 0 512.001 512.001" style="enable-background:new 0 0 512.001 512.001;" xml:space="preserve">
<path style="fill:#873E65;" d="M200.554,106.626c-2.455-11.05-13.653-17.794-24.561-14.793l-53.395,14.691l89.345,51.364
	L200.554,106.626z"/>
<path style="fill:#772A4F;" d="M504.5,389.971c-2.444-15.684-4.379-30.724-17.224-41.806c-10.883-9.39-23.84-10.484-37.359-11.921
	c-30.26-3.218-61.326-4.702-90.393-14.359c-42.897-14.252-80.478-42.794-105.723-80.29c-15.779-23.436-26.415-50.666-38.336-76.174
	c-4.336-9.278-8.161-19.212-13.519-27.976c-11.781-19.269-32.747-30.534-55.15-30.922c-22.77-0.394-45.58,0-68.353,0
	c-10.313,0-20.712-0.389-31.02,0c-12.762,0.482-16.501,9.495-16.501,20.594c0,24.298,2.1,49.555-0.442,73.752
	c-1.382,13.154-6.934,23.827-11.977,35.746c-4.269,10.089-6.247,20.778-6.392,31.705c-0.122,9.225,0,18.46,0,27.686
	c0,22.261,0,44.523,0,66.784c0,5.692,0,11.384,0,17.076h173.146L256,407.147h228.276L504.5,389.971z"/>
<g>
	<path style="fill:#681F42;" d="M57.727,268.069c0-13.186,3.229-26.17,9.405-37.818l0,0c6.176-11.648,9.405-24.633,9.405-37.818
		v-70.876c0-8.302,6.726-15.032,15.023-15.032H45.945c-8.297,0-15.024,6.73-15.024,15.032v70.876c0,13.186-3.229,26.17-9.405,37.818
		l0,0c-6.176,11.648-9.405,24.633-9.405,37.818v93.188v18.61h45.616v-18.61V268.069z"/>
	<polygon style="fill:#681F42;" points="185.256,379.867 256,407.147 301.616,407.147 230.873,379.867 	"/>
	<path style="fill:#681F42;" d="M116.967,361.256h27.74v-32.179v-5.329c0-35.124-28.456-63.597-63.559-63.597l0,0
		c-21.269,0-40.824-11.671-50.931-30.396l-4.605-8.532l0,0c-1.176,3.081-2.542,6.096-4.096,9.026l0,0
		c-6.176,11.648-9.405,24.633-9.405,37.818v93.188L116.967,361.256z"/>
	<polygon style="fill:#681F42;" points="185.256,379.867 256,407.147 301.616,407.147 230.873,379.867 	"/>
</g>
<path style="fill:#5E193D;" d="M57.727,268.069c0-4.184,0.328-8.348,0.969-12.456c-11.959-5.038-22.102-14.041-28.479-25.857
	l-4.605-8.532c-1.176,3.081-2.542,6.096-4.096,9.026l0,0c-6.176,11.648-9.405,24.633-9.405,37.818v93.188h45.616
	C57.727,361.256,57.727,268.069,57.727,268.069z"/>
<path style="fill:#631638;" d="M486.688,405.099l17.812-15.128l-2.335-14.983c-3.1-19.9-19.185-35.228-39.201-37.356l-60.376-6.421
	c-30.897-3.286-60.072-13.46-85.72-29.194l-63.323,27.061H149.127c-17.761,0-32.159,14.407-32.159,32.179l0,0v13.828l44.944-0.83
	l16.052,5.612h7.293L256,407.147l116.307-2.048H486.688z"/>
<path style="fill:#4F122F;" d="M121.528,292.329c3.167,4.897,9.588,6.495,14.678,3.653l64.879-36.222
	c12.106-6.759,27.261-4.369,36.702,5.789l18.263,19.649c7.186,7.731,9.8,18.663,6.891,28.811l-13.968,49.025
	c-1.605,5.6,1.402,11.486,6.878,13.464l9.352,3.377c5.834,2.107,12.26-0.997,14.24-6.879l12.846-40.167
	c5.3-15.749,20.948-25.588,37.429-23.535l0.015-0.019c-39.632-20.554-72.171-53.781-91.667-95.496l-16.378-35.044l1.404,13.849
	c1.413,13.932-5.619,27.362-17.87,34.132l-82.537,45.607c-5.614,3.102-7.424,10.316-3.94,15.703L121.528,292.329z"/>
<path style="fill:#EDD7C0;" d="M504.5,389.971H256.611l-95.418-28.715c-44.455,0-88.909,0-133.364,0c-4.65,0-11.17-1.22-15.706,0
	c-6.145,1.652-4.754,8.511-4.623,13.739c0.255,10.2,3.331,19.902,9.673,27.978c16.887,21.504,44.716,17.352,68.843,17.352
	c15.715,0,31.43,0,47.145,0c7.553,0,25.934,3.158,26.012-8.808l0.081-11.303c0.025-3.902,3.789-6.687,7.525-5.568l89.532,26.246
	c69.163,0,138.326,0,207.488,0c3.253,0,6.529,0.114,9.781,0C490.415,420.305,504.504,407.266,504.5,389.971z"/>
<path style="fill:#D1BDAC;" d="M55.112,374.996v-9.126c0-2.548,2.064-4.613,4.611-4.613H12.111c-2.546,0-4.611,2.065-4.611,4.613
	v9.126c0,25.036,20.283,45.331,45.304,45.331h47.612C75.395,420.327,55.112,400.031,55.112,374.996z"/>
<path d="M511.992,390.271c0.012-0.161,0.011-0.321-0.001-0.482c-0.003-0.13-0.009-0.26-0.02-0.391
	c-0.011-0.139-0.025-0.277-0.043-0.414c-0.007-0.056-0.009-0.112-0.018-0.168l-2.335-14.983
	c-3.618-23.222-22.459-41.175-45.817-43.66l-60.376-6.42c-68.365-7.27-129.424-50.884-158.522-113.15l-25.774-55.147L207.876,105
	c-1.638-7.372-6.102-13.575-12.569-17.468c-6.464-3.89-14.029-4.931-21.302-2.93l-52.419,14.422H91.561c-9.652,0-9.668,15,0,15
	h55.235c22.093,0,42.416,12.94,51.775,32.967l15.782,33.768l1.276,12.58c1.111,10.962-4.398,21.486-14.035,26.811l-14.232,7.864
	c-1.293-1.046-2.796-1.826-4.451-2.27c-3.108-0.834-6.355-0.406-9.143,1.205l-18.74,10.826c-4.151,2.398-6.322,6.912-5.966,11.401
	l-28.227,15.596c-7.345-4.973-15.602-8.534-24.262-10.443c-8.264-1.822-16.67-0.998-24.922-2.578
	c-14.743-2.822-27.707-12.353-34.835-25.559l-3.026-5.608c3.043-9.052,4.63-18.587,4.63-28.154v-70.875
	c0-4.153,3.375-7.533,7.523-7.533h14.988c9.652,0,9.668-15,0-15H45.944c-12.42,0-22.523,10.108-22.523,22.533v70.875
	c0,11.916-2.95,23.778-8.531,34.305C8.165,239.42,4.61,253.712,4.61,268.069v26.979c0,9.652,15,9.668,15,0v-26.979
	c0-10.455,2.272-20.869,6.599-30.376c8.386,13.021,21.365,22.775,36.2,27.21c16.4,4.904,32.797,1.582,48.092,11.044
	c-0.176,0.507-0.342,1.018-0.474,1.541c-1.249,4.976-0.368,10.301,2.418,14.608l2.784,4.304c3.96,6.125,11.448,9.405,18.636,8.219
	c2.178,5.991,3.293,12.287,3.331,18.794c-13.734,4.343-24.252,15.977-27.01,30.341H19.61v-27.212c0-9.652-15-9.668-15,0v29.833
	C1.807,358.598,0,362.023,0,365.87v9.126c0,29.131,23.688,52.831,52.804,52.831h97.508c8.964,0,16.303-7.294,16.36-16.254
	l0.065-9.121L254.2,428.09c0.685,0.201,1.396,0.303,2.109,0.303h186.295c9.652,0,9.668-15,0-15H257.386l-88.455-25.93
	c-4.066-1.218-8.353-0.47-11.764,2.053c-3.413,2.523-5.387,6.405-5.414,10.645l-0.081,11.309c-0.005,0.748-0.615,1.356-1.36,1.356
	H52.804C31.959,412.827,15,395.856,15,374.996v-6.24h145.089l94.36,28.396c0.701,0.211,1.429,0.318,2.161,0.318h239.16
	c-3.685,10.886-12.125,13.727-22.173,15.922c-10.899,2.381-8.626,15.309,2.322,14.931c19.851-0.686,35.878-18.483,36.072-37.965
	C511.992,390.329,511.991,390.3,511.992,390.271z M167.257,102.016l10.728-2.951c3.273-0.9,6.678-0.432,9.587,1.319
	c2.913,1.754,4.924,4.548,5.662,7.87l2.142,9.641C187.336,110.585,177.713,105.133,167.257,102.016z M208.848,233.279
	c9.219-5.094,15.99-13.264,19.412-22.765l3.01,6.44c16.753,35.845,43.552,66.69,76.694,88.293c-5.095,2.295-9.728,5.61-13.615,9.797
	l-22.758-8.275c0.272-9.773-3.277-19.394-10.047-26.677l-18.264-19.649c-10.75-11.566-27.301-15.074-41.615-9.262l-6.096-10.564
	L208.848,233.279z M152.174,321.578c-0.237-8.073-1.808-15.879-4.672-23.313l22.281-12.439c1.295,1.05,2.802,1.834,4.461,2.278
	c3.086,0.828,6.386,0.387,9.143-1.205l18.741-10.826c0,0,0.001,0,0.001-0.001c4.115-2.379,6.283-6.839,5.972-11.29
	c8.409-3.043,17.935-0.858,24.192,5.874l18.264,19.649c4.045,4.352,6.176,10.092,6.041,15.932c-2.282,1.417-4.02,3.536-4.952,6.101
	l-3.355,9.24L152.174,321.578L152.174,321.578z M289.834,329.363l-5.375,14.799l-25.098-9.126l4.963-13.666
	c0.644-0.122,1.263-0.33,1.848-0.61L289.834,329.363z M259.457,353.373l0.608-2.121l16.135,5.867l-0.591,1.757
	c-0.417,1.238-1.325,1.832-1.829,2.075c-0.504,0.244-1.533,0.585-2.754,0.143l-9.354-3.377
	C259.914,357.081,258.94,355.174,259.457,353.373z M178.712,241.416l13.354,23.145l-13.623,7.87l-12.542-21.736
	c-0.128-0.527-0.317-1.046-0.567-1.55L178.712,241.416z M127.826,288.257l-2.784-4.305c-0.733-1.135-0.606-2.248-0.465-2.811
	c0.141-0.562,0.554-1.603,1.733-2.255l29.222-16.147l6.05,10.486l-29.033,16.209C130.914,290.346,128.841,289.828,127.826,288.257z
	 M163.354,354.075c-0.701-0.211-1.429-0.318-2.161-0.318h-35.559c3.18-9.952,12.507-17.179,23.492-17.179h94.412
	c-0.035,1.815,0.332,3.629,1.123,5.322c0.456,0.976,1.039,1.865,1.715,2.668l-1.34,4.672c-2.683,9.359,2.386,19.279,11.54,22.585
	l9.353,3.377c4.653,1.68,9.91,1.411,14.371-0.743c4.535-2.19,7.918-6.025,9.524-10.799l1.64-4.873
	c2.843-1.373,5.003-3.753,6.084-6.727l7.393-20.354c0,0,0,0,0-0.001c0.787-2.168,0.897-4.414,0.462-6.523
	c5.692-6.082,13.846-9.256,22.268-8.548c23.095,11.75,48.249,19.282,74.125,22.034l60.376,6.42
	c16.61,1.767,30.009,14.536,32.583,31.053l0.986,6.329H257.715L163.354,354.075z"/>
<g>
</g>
<g>
</g>
<g>
</g>
<g>
</g>
<g>
</g>
<g>
</g>
<g>
</g>
<g>
</g>
<g>
</g>
<g>
</g>
<g>
</g>
<g>
</g>
<g>
</g>
<g>
</g>
<g>
</g>
</svg>
