<?xml version="1.0" encoding="iso-8859-1"?>
<!-- Generator: Adobe Illustrator 19.0.0, SVG Export Plug-In . SVG Version: 6.00 Build 0)  -->
<svg version="1.1" id="Capa_1" xmlns="http://www.w3.org/2000/svg" xmlns:xlink="http://www.w3.org/1999/xlink" x="0px" y="0px"
	 viewBox="0 0 512 512" style="enable-background:new 0 0 512 512;" xml:space="preserve">
<rect x="46.592" y="119.9" style="fill:#6D4A32;" width="124.94" height="176.12"/>
<path style="fill:#B58B5B;" d="M504.5,398.831c-0.123-28.22-19.473-53.578-46.857-60.73c-13.58-3.547-27.769-4.438-41.415-8.055
	c-14.655-3.884-28.961-9.083-42.69-15.514c-54.159-25.367-98.352-69.855-123.345-124.19c-13.848-30.106-24.696-61.819-36.789-92.654
	c-1.393-3.551-2.438-8.294-4.75-11.436c-7.028-9.552-18.334,1.216-24.941,5.665c-18.955,12.765-28.34,31.323-28.402,54.02
	c-0.083,30.345,0.768,60.775,0,91.11c-0.718,28.372-27.362,50.076-55.416,42.612c-22.34-5.943-32.712-25.998-32.712-47.657
	c0-30.694,1.136-61.606,0-92.277c-0.491-13.261-8.963-24.991-22.202-28.101c-5.225-1.227-17.037-3.106-18.858,2.79
	c-1.337,4.329,0,11.234,0,15.716c0,9.438,0,18.877,0,28.315c0,16.013,0.174,32.036,0,48.048
	c-0.123,11.379-4.765,18.747-9.731,28.468c-3.575,7-4.283,14.388-4.283,22.05c0,34.485,0,68.971,0,103.456c0,3.217,0,6.434,0,9.651
	l14.598,28.714l121.616,4.427l10.27-20.391l113.598,33.998h211.701L504.5,398.831z"/>
<g>
	<path style="fill:#A57D55;" d="M63.238,398.831L48.64,370.117V252.762c0-7.99,2.445-15.788,7.007-22.346l0,0
		c4.562-6.558,7.007-14.356,7.007-22.346v-83.895c-5.118-8.004-14.074-13.314-24.276-13.314h-9.31c-1.625,0-2.943,1.318-2.943,2.945
		v94.264c0,7.99-2.445,15.788-7.007,22.346l0,0c-4.561,6.558-7.007,14.356-7.007,22.346v117.355l14.598,28.714l121.616,4.427
		l0.658-1.306L63.238,398.831z"/>
	<polygon style="fill:#A57D55;" points="190.339,392.367 272.192,416.864 308.721,416.864 195.123,382.866 	"/>
	<path style="fill:#A57D55;" d="M96.529,332.166c-10.877-20.16-34.971-26.291-51.2-40.961c-15.598-14.1-25.237-33.179-30.218-53.428
		c-1.96,4.727-3.001,9.813-3.001,14.986v117.355h90.327C103.709,359.961,103.797,345.638,96.529,332.166z"/>
</g>
<path style="fill:#96704E;" d="M48.639,294.039c-17.473-14.287-28.191-34.563-33.528-56.263c-1.96,4.727-3.001,9.813-3.001,14.986
	v117.355h36.529V294.039z"/>
<path style="fill:#845A3A;" d="M73.847,136.538v100.409c0,20.476,16.59,37.075,37.054,37.075l0,0
	c20.464,0,37.054-16.599,37.054-37.075v-98.201c0-5.807,1.023-11.477,2.942-16.789l-0.182-2.06H67.227
	C71.327,124.239,73.847,130.092,73.847,136.538z"/>
<path style="fill:#604F44;" d="M504.5,398.831H256.611l-95.418-28.714c-44.273,0-88.546,0-132.819,0c-4.884,0-11.447-1.17-16.238,0
	c-6.36,1.553-4.825,9.346-4.606,14.622c0.405,9.766,3.58,19.091,9.643,26.811c17.011,21.662,45.33,17.352,69.635,17.352
	c15.451,0,30.902,0,46.352,0c7.565,0,25.934,3.155,26.012-8.808l0.081-11.02c0.025-3.902,3.789-6.686,7.525-5.567l89.532,26.245
	c69.163,0,138.326,0,207.488,0c3.253,0,6.529,0.114,9.781,0C490.414,429.163,504.504,416.125,504.5,398.831z"/>
<path style="fill:#493C35;" d="M44.475,383.573v-8.842c0-2.548,2.064-4.613,4.611-4.613H12.111c-2.546,0-4.61,2.065-4.61,4.613
	v8.842c0,25.035,20.283,45.329,45.304,45.329H89.78C64.758,428.902,44.475,408.607,44.475,383.573z"/>
<path d="M512,398.83c0-36.426-27.721-64.835-62.863-69.915c-42.599-6.158-82.961-22.205-117.304-48.351
	c-7.679-5.847-16.779,6.079-9.086,11.935c30.419,23.158,65.903,39.506,103.265,47.606c16.107,3.492,32.969,3.488,46.984,13.17
	c12.708,8.78,21.393,22.732,23.49,38.056H331.969c-9.652,0-9.668,15,0,15H495.77c-3.132,9.248-11.888,15.921-22.173,15.921h-216.21
	l-88.457-25.93c-4.065-1.217-8.353-0.468-11.764,2.055c-3.412,2.523-5.386,6.405-5.413,10.643l-0.081,11.027
	c-0.005,0.748-0.615,1.356-1.36,1.356H52.804c-20.845,0-37.804-16.97-37.804-37.83v-5.956h87.432c0.012,0.001,0.024,0.001,0.037,0
	h57.621l94.36,28.396c0.701,0.211,1.429,0.318,2.161,0.318h38.127c9.652,0,9.668-15,0-15h-37.023l-94.359-28.396
	c-0.701-0.211-1.429-0.318-2.161-0.318h-50.65c0.405-12.702-2.074-24.115-7.415-34.013c-7.805-14.465-18.97-20.963-30.79-27.843
	c-8.563-4.985-17.419-10.139-26.018-19.012c-10.766-11.11-18.587-25.669-23.282-43.288c0.658-1.294,1.396-2.555,2.236-3.763
	c5.462-7.853,8.35-17.061,8.35-26.628v-40.232c0-9.652-15-9.668-15,0v40.232c0,6.49-1.958,12.736-5.664,18.063
	c-5.462,7.854-8.35,17.062-8.35,26.628v112.476C1.807,367.458,0,370.884,0,374.73v8.842c0,29.13,23.688,52.83,52.804,52.83h97.508
	c8.964,0,16.303-7.294,16.36-16.253l0.064-8.839l87.464,25.639c0.685,0.201,1.396,0.303,2.109,0.303h217.287
	C494.506,437.252,512,419.73,512,398.83z M64.793,313.725c19.328,11.25,31.645,25.199,30.739,48.892H19.61v-92.212
	c4.459,8.135,9.774,15.42,15.939,21.783C45.587,302.546,55.791,308.485,64.793,313.725z"/>
<path d="M26.124,145.559c4.143,0,7.5-3.358,7.5-7.5v-19.697h4.753c11.749,0,21.308,9.566,21.308,21.324v97.361
	c0,28.06,23.495,51.588,51.564,51.588c28.071,0,51.563-23.527,51.563-51.588v-94.735c0-17.18,8.529-33.126,22.815-42.656
	l14.391-9.599c0.589-0.393,1.158-0.335,1.532-0.219c0.374,0.118,0.875,0.397,1.135,1.061l34.785,88.697
	c14.09,35.926,35.396,67.619,63.324,94.2c3.001,2.856,7.749,2.739,10.604-0.262c2.855-3,2.738-7.748-0.262-10.603
	c-26.331-25.06-46.417-54.94-59.701-88.811L216.65,85.422c-1.865-4.757-5.73-8.363-10.604-9.895
	c-4.872-1.532-10.104-0.784-14.353,2.051l-14.391,9.599c-9.672,6.452-17.297,15.181-22.372,25.22H62.301
	c-6.394-5.618-14.765-9.035-23.924-9.035h-9.31c-5.759,0-10.443,4.686-10.443,10.445v24.252
	C18.624,142.201,21.981,145.559,26.124,145.559z M147.813,142.312v94.735c0,19.901-16.657,36.588-36.564,36.588
	c-19.908,0-36.563-16.686-36.563-36.588v-97.361c0-4.312-0.759-8.448-2.143-12.289h76.967
	C148.396,132.232,147.813,137.229,147.813,142.312z"/>
<g>
</g>
<g>
</g>
<g>
</g>
<g>
</g>
<g>
</g>
<g>
</g>
<g>
</g>
<g>
</g>
<g>
</g>
<g>
</g>
<g>
</g>
<g>
</g>
<g>
</g>
<g>
</g>
<g>
</g>
</svg>
