<?xml version="1.0" encoding="iso-8859-1"?>
<!-- Generator: Adobe Illustrator 19.0.0, SVG Export Plug-In . SVG Version: 6.00 Build 0)  -->
<svg version="1.1" id="Capa_1" xmlns="http://www.w3.org/2000/svg" xmlns:xlink="http://www.w3.org/1999/xlink" x="0px" y="0px"
	 viewBox="0 0 511.999 511.999" style="enable-background:new 0 0 511.999 511.999;" xml:space="preserve">
<path style="fill:#57676E;" d="M504.5,370.575c0.19-22.649-12.839-43.448-34.7-50.944c-6.53-2.239-13.573-3.127-20.323-4.475
	c-13.871-2.771-27.575-6.258-41.043-10.59c-54.106-17.402-103.817-47.675-144.116-87.754
	c-16.435-18.093-32.869-36.186-49.304-54.279c-10.663-11.739-21.326-23.478-31.989-35.217c-6.032-6.64-12.168-15.154-20.166-19.505
	c-10.937-5.95-26.896-5.254-36.379,3.441c-8.15,7.473-5.686,17.681-4.488,27.307c-21.362-1.402-42.724-2.803-64.086-4.205
	c-10.668-0.7-21.352-1.65-32.034-2.102c-8.148-0.345-13.513,3.733-13.763,12.172c-1.417,47.919,0,96.089,0,144.027
	c0,17.803,0,35.606,0,53.409L7.5,362.811l183.409,1.373l67.396,24.426l218.926-4.02L504.5,370.575z"/>
<path style="fill:#4B595E;" d="M195.89,352.301c5.327-37.524,32.054-68.484,68.382-79.21l0,0c2.591-0.765,3.519-3.959,1.74-5.995
	L158.527,144.074c-1.851-2.119-4.47-3.413-7.276-3.598l-36.362-2.386l0,0l-91.55-6.007c-6.078-0.399-11.227,4.427-11.227,10.522
	v199.253l-2.683,12.19l181.481,10.135L195.89,352.301L195.89,352.301z"/>
<g>
	<path style="fill:#3D494C;" d="M50.403,354.049l2.683-12.19V142.606c0-3.388,1.594-6.38,4.051-8.304l-33.799-2.218
		c-6.078-0.399-11.227,4.427-11.227,10.522v199.253l-2.683,12.19l181.481,10.135l0.937-2.236L50.403,354.049z"/>
	<path style="fill:#3D494C;" d="M118.881,360.161v-18.303v-3.132c0-59.005-47.803-106.838-106.77-106.838l0,0v109.97l-2.683,12.19
		L118.881,360.161z"/>
</g>
<path style="fill:#323B3D;" d="M52.897,286.337l1.084-45.917c-12.857-5.49-27.008-8.532-41.87-8.532v109.97l-2.683,12.19
	l109.452,6.112v-2.338C81.696,355.602,52.016,323.671,52.897,286.337z"/>
<path style="fill:#EDD7C0;" d="M504.5,370.575H256.611l-95.418-28.716c-45.15,0-90.301,0-135.451,0
	c-4.106,0-14.522-1.893-17.386,2.085c-2.68,3.722-0.888,12.859-0.856,17.169c0.066,8.94,1.873,17.488,6.559,25.206
	c15.576,25.655,44.775,21.826,70.381,21.826c16.023,0,32.047,0,48.07,0c7.592,0,26.584,3.284,26.663-8.809l0.081-18.517
	c0.025-3.902,3.789-6.687,7.525-5.568l89.532,26.247c69.163,0,138.326,0,207.488,0c3.253,0,6.529,0.114,9.781,0
	C490.415,400.91,504.504,387.87,504.5,370.575z"/>
<path style="fill:#D1BDAC;" d="M72.425,362.811v-16.339c0-2.548,2.064-4.614,4.611-4.614H12.111c-2.547,0-4.611,2.066-4.611,4.614
	v16.339c0,25.037,20.283,45.333,45.304,45.333h64.925C92.708,408.144,72.425,387.848,72.425,362.811z"/>
<g>
	<path style="fill:#323B3D;" d="M195.468,183.904c0,15.186-23.509,15.097-23.509,0C171.958,168.792,195.468,168.721,195.468,183.904
		z"/>
	<path style="fill:#323B3D;" d="M225.114,217.419c0,15.186-23.509,15.097-23.509,0C201.605,202.308,225.114,202.237,225.114,217.419
		z"/>
</g>
<path d="M464.443,310.448l-13.523-2.653c-68.788-13.495-131.437-46.749-181.178-96.168l-15.664-17.245
	c1.284-2.588,1.007-5.799-0.968-8.155c-2.11-2.516-5.519-3.291-8.422-2.182l-21.04-23.163c2.38-2.735,2.493-6.865,0.091-9.731
	c-2.534-3.022-6.94-3.537-10.095-1.284l-36.76-40.47c-11.572-12.739-29.906-16.587-45.621-9.579l-2.879,1.285
	c-10.546,4.705-16.674,15.568-15.246,27.032l0.292,2.344l-34.543-2.266c-4.128-0.267-7.704,2.859-7.975,6.993
	c-0.271,4.133,2.859,7.704,6.992,7.975l36.485,2.394c0.002,0,0.004,0.001,0.007,0.001l36.362,2.386
	c0.823,0.054,1.576,0.426,2.12,1.048l19.212,21.989c-12.267,4.862-16.036,20.926-7.251,30.729
	c8.659,9.662,24.731,7.919,31.105-3.428l5.518,6.315c-12.08,5.003-15.681,20.914-6.976,30.628
	c8.585,9.581,24.474,7.966,30.956-3.183l31.146,35.647c-11.578,4.126-22.223,10.211-31.71,18.135
	c-3.18,2.655-3.604,7.385-0.949,10.564c2.583,3.091,7.462,3.54,10.564,0.949c9.403-7.854,20.138-13.597,31.903-17.071
	c3.68-1.086,6.516-3.936,7.587-7.621c1.07-3.686,0.202-7.611-2.323-10.501l-41.201-47.155l12.538-10.513l15.769,17.36
	c23.532,26.101,55.324,47.4,86.096,63.892c32.309,17.315,67.202,29.713,103.169,36.769l13.523,2.653
	c18.818,3.691,32.9,19.221,35.127,37.907H257.715l-53.269-16.031c2.223-10.346,6.227-20.112,11.955-29.104
	c2.225-3.494,1.196-8.13-2.297-10.355c-3.494-2.225-8.129-1.198-10.355,2.296c-6.474,10.165-11.068,21.176-13.711,32.827
	l-26.683-8.03c-0.701-0.211-1.429-0.318-2.161-0.318H126.29c-2.209-58.53-48.593-105.932-106.679-109.717v-82.036
	c0-1.15,0.604-1.887,0.964-2.224c0.358-0.336,1.142-0.89,2.272-0.814l22.225,1.458c4.103,0.265,7.704-2.859,7.976-6.993
	c0.271-4.133-2.86-7.704-6.993-7.975L23.828,124.6c-4.959-0.326-9.882,1.438-13.508,4.834c-3.629,3.398-5.71,8.199-5.71,13.172
	V336.98C1.807,339.2,0,342.626,0,346.472v16.339c0,29.132,23.688,52.833,52.804,52.833h31.413c9.652,0,9.668-15,0-15H52.804
	C31.959,400.645,15,383.672,15,362.811v-13.453h145.089l94.36,28.397c0.701,0.211,1.429,0.318,2.161,0.318h239.16
	c-3.131,9.249-11.888,15.923-22.173,15.923H257.386l-88.455-25.931c-4.065-1.219-8.352-0.47-11.764,2.053
	c-3.413,2.523-5.387,6.405-5.414,10.667l-0.081,18.501c-0.005,0.748-0.615,1.357-1.36,1.357h-38.601c-9.652,0-9.668,15,0,15h38.601
	c8.964,0,16.303-7.294,16.36-16.276l0.071-16.312l87.456,25.639c0.686,0.201,1.396,0.303,2.11,0.303h217.287
	c21.176,0,38.403-17.237,38.403-38.423v-2.307C512,340.17,491.999,315.854,464.443,310.448z M151.741,132.993l-23.072-1.514
	l-0.647-5.198c-0.606-4.869,1.995-9.482,6.474-11.479l2.879-1.285c9.783-4.365,21.199-1.967,28.405,5.966l36.34,40.007
	l-11.639,9.759l-26.307-30.109C161.034,135.546,156.502,133.305,151.741,132.993z M179.154,193.161c-5.408,0-5.408-8.524,0-8.524
	C184.5,184.637,184.724,193.161,179.154,193.161z M208.801,226.677c-6.44,0-4.713-10.363,1.367-8.278
	c0.285,0.938,0.759,1.836,1.429,2.635c0.433,0.517,0.926,0.951,1.453,1.32C213.077,224.701,211.162,226.677,208.801,226.677z
	 M220.588,203.708l-20.237-23.161l11.861-9.945l20.692,22.78L220.588,203.708z M111.28,334.359H19.61v-94.688
	C69.422,243.412,109.095,284.101,111.28,334.359z"/>
<g>
</g>
<g>
</g>
<g>
</g>
<g>
</g>
<g>
</g>
<g>
</g>
<g>
</g>
<g>
</g>
<g>
</g>
<g>
</g>
<g>
</g>
<g>
</g>
<g>
</g>
<g>
</g>
<g>
</g>
</svg>
