<?xml version="1.0" encoding="iso-8859-1"?>
<!-- Generator: Adobe Illustrator 19.0.0, SVG Export Plug-In . SVG Version: 6.00 Build 0)  -->
<svg version="1.1" id="Capa_1" xmlns="http://www.w3.org/2000/svg" xmlns:xlink="http://www.w3.org/1999/xlink" x="0px" y="0px"
	 viewBox="0 0 512 512" style="enable-background:new 0 0 512 512;" xml:space="preserve">
<path style="fill:#485878;" d="M455.564,380.56h-34.49c-95.921,0-173.68-77.861-173.68-173.907V92.184
	c0-19.044-15.418-34.481-34.436-34.481H48.805c-5.484,0-9.93,4.452-9.93,9.943v217.695c0,9.024-3.58,17.678-9.952,24.058l0,0
	c-6.372,6.381-9.952,15.035-9.952,24.058V437.37l19.904,20.211l152.854-0.156l70.007,25.018h219.847l22.918-16.738v-36.145
	C504.5,402.498,482.591,380.56,455.564,380.56z"/>
<path style="fill:#425272;" d="M327.554,396.666l-0.605,2.358l42.681-26.221c-70.805-21.955-122.236-88.037-122.236-166.149V92.184
	c0-19.044-15.418-34.481-34.436-34.481H48.805c-5.484,0-9.93,4.452-9.93,9.943v24.989l2.343,0.545h154.567
	c9.171,0,16.605,7.444,16.605,16.627v104.559C212.389,294.845,259.469,364.314,327.554,396.666z"/>
<g>
	<path style="fill:#333F61;" d="M88.283,318.309c-44.958-39.39-49.408-81.594-49.408-81.594l0,0v48.624
		c0,9.024-3.58,17.678-9.952,24.058c-6.372,6.381-9.952,15.035-9.952,24.058v103.912l19.904,20.211l17.289-0.018l85.508-20.193
		c0,0,0.702-21.289,0-32.543C140.969,393.573,133.242,357.7,88.283,318.309z"/>
	<path style="fill:#333F61;" d="M455.564,380.56h-34.49c-36.944,0-71.189-11.56-99.34-31.251c9.026,7,13.158,18.768,10.274,30.007
		l-5.058,19.708l-16.179-1.952c-43.955-5.303-87.303,13.806-113.078,49.849l0,0l1.181,13.057l62.862,22.464h219.847l22.918-16.738
		v-36.145C504.5,402.498,482.591,380.56,455.564,380.56z"/>
	<path style="fill:#333F61;" d="M319.516,347.733l-0.001,0.001c0.017,0.011,0.033,0.024,0.05,0.035
		C319.549,347.758,319.533,347.745,319.516,347.733z"/>
</g>
<path style="fill:#253551;" d="M504.5,465.705H260.064l-94.088-28.334c-43.69,0-87.38,0-131.07,0c-4.79,0-11.217-1.161-15.91,0
	c-6.068,1.501-4.696,8.145-4.572,13.199c0.247,10.061,3.267,19.639,9.538,27.608c16.767,21.306,44.405,17.123,68.337,17.123
	c15.331,0,30.663,0,45.994,0c7.466,0,25.613,3.12,25.69-8.692l0.08-10.795c0.025-3.85,3.736-6.598,7.42-5.494l88.285,25.898
	c68.351,0,136.702,0,205.053,0c3.056,0,6.134,0.108,9.189,0C490.615,495.629,504.503,482.768,504.5,465.705z"/>
<path d="M455.564,373.06h-34.49c-35.389,0-68.225-11.142-95.207-30.096l0.464-5.149c0.013-0.14,0.015-0.283,0.02-0.425
	c0.004-0.1,0.013-0.213,0.011-0.302c-0.002-0.518-0.056-1.042-0.171-1.568c-0.881-4.047-4.872-6.611-8.925-5.732l-6.314,1.375
	c-6.373-5.658-12.314-11.793-17.758-18.358l1.471-5.087c0.209-0.719,0.315-1.481,0.298-2.269c-0.094-4.141-3.528-7.436-7.666-7.33
	l-4.905,0.11c-4.884-7.392-9.202-15.189-12.876-23.34l2.757-3.945c0.002-0.003,0.004-0.005,0.006-0.008l0.09-0.129
	c0.076-0.109,0.12-0.207,0.179-0.31c0.334-0.53,0.625-1.096,0.823-1.722c1.25-3.949-0.938-8.164-4.886-9.414l-5.622-1.78
	c-2.892-8.986-5.038-18.303-6.369-27.879l2.021-1.908c0.023-0.022,0.037-0.043,0.06-0.065c0.148-0.143,0.284-0.3,0.421-0.457
	c0-0.001,0.001-0.001,0.001-0.002c0.337-0.385,0.65-0.797,0.91-1.261c2.026-3.613,0.74-8.184-2.872-10.21l-1.946-1.091
	c-0.128-2.669-0.198-5.353-0.198-8.053v-20.799l3.076-2.119c0.065-0.045,0.116-0.092,0.178-0.138
	c0.125-0.091,0.248-0.184,0.367-0.284c0.03-0.026,0.059-0.052,0.088-0.079c0.364-0.314,0.709-0.658,1.017-1.05
	c2.555-3.26,1.983-7.975-1.277-10.529l-3.448-2.702v-34.901l3.076-2.119c0.059-0.041,0.101-0.082,0.156-0.122
	c0.547-0.399,1.054-0.869,1.493-1.428c2.555-3.26,1.983-7.975-1.277-10.529l-3.448-2.702V92.184
	c0-23.148-18.813-41.981-41.937-41.981H48.805c-0.745,0-1.475,0.063-2.195,0.154V30.714c0-10.396-9.098-20.568-19.865-22.213
	C15.992,6.854,6.085,14.831,2.238,23.171c-4.228,9.161-1.423,18.033-0.022,21.421c2.999,7.255,7.841,10.378,12.112,13.133
	c9.036,5.828,15.091,14.526,17.046,25.174v153.818c0,0.011,0,0.021,0,0.032v48.59c0,4.819-1.277,9.44-3.666,13.48
	c-0.092,0.144-0.186,0.287-0.268,0.437c-1.072,1.736-2.348,3.363-3.826,4.842c-6.221,6.23-19.129,27.58-9.19,35.248
	c4.952,3.82,10.468,0.339,11.911-4.893c2.101-7.619,1.776-13.63,7.893-19.755c2.218-2.221,4.143-4.655,5.778-7.247
	c0.328-0.43,0.605-0.888,0.829-1.369c3.607-6.24,5.538-13.341,5.538-20.743v-6.385c19.44,34.709,54.919,55.228,74.717,89.585
	c11.823,20.517,13.73,38.076,13.266,61.329h-16.374c-0.51-0.052-1.015-0.051-1.51,0H26.469v-57.224c0-9.652-15-9.668-15,0v59.861
	c-2.766,2.21-4.546,5.606-4.546,9.415v8.647c0,28.8,23.404,52.23,52.173,52.23h96.149c8.896,0,16.18-7.242,16.237-16.136l0.063-8.51
	l86.11,25.26c0.686,0.201,1.396,0.303,2.111,0.303h67.787c9.652,0,9.668-15,0-15h-66.71l-87.209-25.583
	c-4.035-1.209-8.3-0.466-11.69,2.041c-3.394,2.509-5.354,6.369-5.382,10.582l-0.08,10.802c-0.004,0.684-0.56,1.241-1.237,1.241
	H59.096c-20.497,0-37.172-16.702-37.172-37.23v-5.699h95.276c0.015,0.002,0.031,0.002,0.046,0h47.625l30.555,9.202
	c0.01,0.003,0.019,0.006,0.029,0.009l62.447,18.806c0.702,0.211,1.431,0.318,2.163,0.318h235.683
	c-3.111,9.018-11.673,15.512-21.72,15.512H361.459c-9.652,0-9.668,15,0,15h112.568c20.938,0,37.973-17.052,37.973-38.012v-36.145
	C512,398.406,486.683,373.06,455.564,373.06z M414.283,458.205h-17.574v-71.791c5.777,0.781,11.64,1.285,17.574,1.505V458.205z
	 M16.078,38.863c-0.648-1.567-1.967-5.621-0.22-9.407c1.351-2.93,5.051-6.676,8.62-6.127c3.605,0.551,7.131,4.694,7.131,7.385
	v21.453c-3.346-3.301-6.537-5.359-9.15-7.045C18.779,42.748,17.24,41.673,16.078,38.863z M165.975,429.87h-16.612
	c0.144-7.348,0.244-18.29-0.207-25.51c-4.478-71.74-92.809-98.719-102.782-168.13V100.68h48.284c9.652,0,9.668-15,0-15h-48.24
	c0.122-0.536,0.192-1.091,0.192-1.663V66.615c0.388-0.831,1.223-1.412,2.195-1.412h164.152c14.853,0,26.937,12.104,26.937,26.981
	v13.311c-3.186-1.86-7.333-1.139-9.675,1.848c-2.555,3.26-1.983,7.975,1.277,10.529l8.397,6.581v1.717l-7.978,5.495
	c-3.412,2.35-4.272,7.02-1.923,10.431c2.171,3.151,6.609,4.123,9.9,2.23v12.972c-3.186-1.86-7.333-1.138-9.675,1.848
	c-2.555,3.26-1.983,7.975,1.277,10.529l8.397,6.581v1.717l-7.978,5.495c-3.412,2.35-4.272,7.02-1.923,10.431
	c2.171,3.151,6.609,4.123,9.9,2.23v10.054l-2.348-1.317c-8.418-4.722-15.769,8.353-7.338,13.083l10.504,5.892
	c0.004,0.041,0.007,0.082,0.011,0.124l-7.997,7.55c-3.012,2.844-3.148,7.59-0.305,10.602c2.784,2.951,7.65,3.092,10.602,0.305
	l0.352-0.332c0.683,3.441,1.458,6.848,2.333,10.217c-3.476-0.372-6.843,1.736-7.939,5.195c-1.25,3.949,0.938,8.164,4.886,9.414
	l8.496,2.69c0.432,1.166,0.87,2.329,1.325,3.483l-4.611,6.598c-2.373,3.395-1.544,8.071,1.852,10.443
	c3.05,2.133,7.46,1.602,9.916-1.188c1.678,3.287,3.462,6.51,5.33,9.678h-0.001c-4.142,0.093-7.423,3.525-7.33,7.667
	c0.091,4.067,3.597,7.435,7.666,7.33l9.386-0.211c0.646,0.886,1.297,1.767,1.959,2.64l-2.305,7.97
	c-1.15,3.979,1.143,8.138,5.122,9.288c3.287,0.953,6.98-0.599,8.63-3.588c1.749,1.893,3.532,3.752,5.359,5.569
	c-2.854,1.552-4.471,4.846-3.745,8.181c0.863,3.96,4.963,6.595,8.925,5.732l8.272-1.802c1.08,0.88,2.17,1.749,3.27,2.604
	l-0.692,7.678c-0.372,4.125,2.671,7.771,6.797,8.143c2.696,0.242,5.364-1.031,6.883-3.276c2.253,4.5,2.902,9.764,1.583,14.904
	l-2.128,8.295c-29.134-15.566-53.865-38.306-71.87-66.246c-20.186-31.323-30.854-67.678-30.854-105.134v-104.56
	c0-13.304-10.813-24.127-24.105-24.127h-65.089c-9.652,0-9.668,15,0,15h65.089c5.021,0,9.105,4.094,9.105,9.127v104.559
	c0,69.526,35.549,135.871,93.46,174.352c-40.194-0.661-78.575,17.562-103.507,49.511l-26.704-8.042
	C167.436,429.977,166.708,429.87,165.975,429.87z M210.403,442.917c24.587-28.36,61.775-42.941,99.469-38.399l16.179,1.952
	c3.741,0.453,7.228-1.938,8.163-5.582l0.622-2.424c0.001-0.006,0.003-0.012,0.005-0.018l4.431-17.266
	c1.044-4.066,1.358-8.178,1.017-12.185c12.999,6.511,26.882,11.502,41.419,14.739v74.471h-120.54L210.403,442.917z M429.283,458.205
	v-70.146h26.28c22.848,0,41.436,18.617,41.436,41.5v28.645H429.283z"/>
<path d="M113.258,412.743c0.797,0,1.606-0.128,2.402-0.397c3.925-1.326,6.03-5.583,4.704-9.507l-0.046-0.134
	c-1.344-3.918-5.601-5.969-9.515-4.626c-3.918,1.344-5.993,5.645-4.65,9.563C107.211,410.77,110.13,412.743,113.258,412.743z"/>
<path d="M94.602,369.7c-3.48,2.246-4.481,6.888-2.235,10.368l0.152,0.231c2.261,3.339,7.098,4.296,10.437,2.035
	c3.43-2.323,4.348-6.954,2.024-10.384l-6.312,4.052l6.302-4.066C102.726,368.455,98.086,367.454,94.602,369.7z"/>
<path d="M49.317,322.754c-2.956,2.901-3.002,7.649-0.101,10.606l0.126,0.128c2.863,2.863,7.714,2.863,10.587,0.001
	c2.931-2.918,2.936-7.668,0.023-10.605l-5.383,5.223l5.354-5.252C57.022,319.897,52.274,319.853,49.317,322.754z"/>
<path d="M83.469,356.115c3.013-2.843,3.151-7.589,0.309-10.602l-0.128-0.134c-2.875-2.984-7.609-3.062-10.594-0.189
	c-2.983,2.874-3.062,7.633-0.188,10.616C75.652,358.758,80.516,358.901,83.469,356.115z"/>
<g>
</g>
<g>
</g>
<g>
</g>
<g>
</g>
<g>
</g>
<g>
</g>
<g>
</g>
<g>
</g>
<g>
</g>
<g>
</g>
<g>
</g>
<g>
</g>
<g>
</g>
<g>
</g>
<g>
</g>
</svg>
