<?xml version="1.0" encoding="iso-8859-1"?>
<!-- Generator: Adobe Illustrator 19.0.0, SVG Export Plug-In . SVG Version: 6.00 Build 0)  -->
<svg version="1.1" id="Capa_1" xmlns="http://www.w3.org/2000/svg" xmlns:xlink="http://www.w3.org/1999/xlink" x="0px" y="0px"
	 viewBox="0 0 512 512" style="enable-background:new 0 0 512 512;" xml:space="preserve">
<path style="fill:#DE7B69;" d="M12.11,410.553c0-50.427,0-100.855,0-151.282c0-14.413,2.381-27.408,7.543-41.017
	c5.087-13.41,5.33-26.826,5.33-40.825c0-30.347,0-60.695,0-91.042c0-6.017-2.245-14.752,5.084-15.883
	c10.286-1.588,22.084,0,32.467,0c28.749,0,57.501-0.114,86.25,0c16.703,0.066,32.219,5.868,42.982,19.135
	c15.126,18.646,10.662,42.906,13.865,65.126c6.587,45.698,27.475,88.793,59.133,122.385c31.226,33.135,72.345,56.439,116.901,65.908
	c19.849,4.219,39.531,4.645,59.697,4.939c22.501,0.328,43.382,11.579,54.739,31.305c5.473,9.507,8.306,20.288,8.353,31.251
	L12.11,410.553L12.11,410.553z"/>
<path style="fill:#CE5F54;" d="M59.063,221.141c10.461-24.529,6.508-55.483,6.508-81.551c0-23.028,0-46.057,0-69.085
	c-5.876,0-11.753,0-17.629,0c-5.632,0-13.621-1.533-19.063,0c-6.892,1.942-3.898,17.504-3.898,23.096c0,30.355,0,60.709,0,91.064
	c0,5.766-0.015,11.477-0.908,17.204c-2.722,17.46-11.964,32.261-11.964,50.417v158.266H52.7V252.287
	C52.7,241.581,54.865,230.986,59.063,221.141z"/>
<path style="fill:#C15151;" d="M504.453,410.553L504.453,410.553c0-34.549-27.97-62.556-62.473-62.556h-13.209
	c-15.553,0-30.737-1.577-45.403-4.58l0,0l0,0c-16.314,21.913-46.407,28.167-70.082,14.566l-62.912-36.144
	c-25.876-14.866-57.039-17.348-84.936-6.767l-4.648,1.763c-26.807,10.168-56.687,8.29-82.014-5.153L12.11,276.297v134.256
	L504.453,410.553L504.453,410.553z"/>
<polygon style="fill:#BC4444;" points="12.11,276.297 12.11,410.553 52.515,410.553 52.515,297.743 "/>
<path style="fill:#EDD7C0;" d="M504.453,410.553H256.587l-95.409-28.733c-44.269,0-88.538,0-132.807,0
	c-4.884,0-11.447-1.17-16.236,0c-6.347,1.551-4.824,9.296-4.606,14.563c0.404,9.77,3.58,19.102,9.642,26.829
	c17.007,21.673,45.321,17.363,69.628,17.363c15.45,0,30.899,0,46.348,0c7.57,0,25.932,3.156,26.01-8.814l0.081-10.958
	c0.025-3.905,3.789-6.691,7.524-5.571l89.524,26.263c69.157,0,138.313,0,207.469,0c3.253,0,6.528,0.114,9.78,0
	C490.378,440.906,504.457,427.85,504.453,410.553z"/>
<path style="fill:#E0C1A6;" d="M52.6,395.215v-8.779c0-2.55,2.064-4.617,4.611-4.617H12.11c-2.546,0-4.611,2.067-4.611,4.617v8.779
	c0,25.052,20.281,45.36,45.3,45.36H97.9C72.881,440.576,52.6,420.267,52.6,395.215z"/>
<path d="M441.98,340.497h-13.209c-14.77,0-29.314-1.468-43.471-4.322c-0.285-0.076-0.573-0.141-0.863-0.182
	c-33.358-6.866-64.528-21.477-91.359-42.934c1.981-3.167,1.339-7.384-1.637-9.795c-2.869-2.324-6.927-2.177-9.623,0.161
	c-5.182-4.747-10.139-9.729-14.85-14.943c2.889-5.77-2.708-12.431-8.908-10.518c-4.617-5.799-8.918-11.799-12.889-17.981
	c3.108-2.082,4.245-6.2,2.509-9.618c-1.876-3.693-6.389-5.165-10.082-3.29l-0.075,0.038c-3.372-6.144-6.437-12.439-9.189-18.868
	h0.001c3.901-1.393,5.933-5.683,4.542-9.584c-1.393-3.9-5.683-5.933-9.584-4.542l-0.381,0.136
	c-2.439-7.008-4.518-14.151-6.229-21.405c3.803-0.916,6.299-4.629,5.632-8.541c-0.691-4.055-4.517-6.786-8.57-6.141
	c-1.085-6.593-1.881-13.262-2.364-19.992c1.538-0.314,2.9-1.103,3.939-2.201h5.03c31.454,0,31.827-48.851,0.262-49.183
	c-0.048-0.001-0.097-0.001-0.145-0.001h-0.117c-0.048,0-0.097,0-0.145,0.001c-6.496,0.068-12.392,2.678-16.752,6.874
	c-10.088-18.263-29.522-30.661-51.802-30.661H28.634c-6.149,0-11.152,5.005-11.152,11.157v23.025c0,9.651,14.999,9.667,14.999,0
	V78.003h119.166c24.999,0,44.059,20.878,44.173,45.326h-13.944c-9.651,0-9.667,14.999,0,14.999h14.486
	c0.509,7.529,1.377,14.988,2.591,22.358l-14.755,2.516c-4.083,0.696-6.828,4.57-6.131,8.653c0.68,3.993,4.663,6.812,8.653,6.131
	l15.147-2.583c1.878,8.104,4.186,16.079,6.91,23.899l-13.625,4.865c-3.901,1.393-5.933,5.683-4.542,9.584
	c1.357,3.801,5.781,5.897,9.584,4.542l13.979-4.991c2.975,7.025,6.299,13.903,9.964,20.612l-13.182,6.696
	c-3.693,1.876-5.166,6.39-3.29,10.082c1.836,3.614,6.472,5.123,10.082,3.29l14.003-7.113c4.323,6.821,9.028,13.434,14.082,19.825
	l-11.55,8.797c-3.295,2.51-3.932,7.215-1.422,10.51c2.444,3.208,7.3,3.867,10.51,1.422l12.143-9.249
	c2.754,3.061,5.59,6.064,8.521,8.998c2.689,2.693,5.434,5.309,8.228,7.852l-7.206,8.897c-2.607,3.219-2.112,7.94,1.107,10.547
	c3.144,2.547,8.01,2.025,10.547-1.107l6.972-8.607c25.287,20.232,54.182,34.772,85.108,42.964
	c-14.562,11.442-35.046,13.373-51.772,3.762l-62.912-36.144c-27.93-16.046-61.219-18.697-91.331-7.276
	c-3.873,1.469-5.821,5.799-4.353,9.671c1.469,3.873,5.798,5.821,9.671,4.353c25.896-9.823,54.523-7.541,78.541,6.257l62.912,36.144
	c9.587,5.507,20.105,8.153,30.517,8.152c17.324,0,34.337-7.343,46.265-20.997c13.86,2.541,28.048,3.855,42.44,3.855h13.209
	c27.771,0,50.785,20.736,54.451,47.558H257.691l-94.351-28.414c-0.701-0.211-1.43-0.318-2.163-0.318H19.609v-85.554l55.651,29.538
	c19.248,10.217,41.39,14.339,63.026,11.733c4.112-0.496,7.043-4.231,6.548-8.343c-0.495-4.112-4.229-7.039-8.343-6.548
	c-18.763,2.261-37.503-1.228-54.2-10.089l-62.682-33.271v-19.5c0-21.895,12.873-40.545,12.873-62.632v-58.826
	c0-9.651-14.999-9.667-14.999,0v58.826c0,9.807-1.961,19.348-5.828,28.358c-4.674,10.89-7.043,22.421-7.043,34.274v24.051
	c0,0.014,0,0.028,0,0.042V376.94C1.807,379.163,0,382.59,0,386.436v8.779c0,29.146,23.686,52.859,52.799,52.859h32.083
	c9.651,0,9.667-14.999,0-14.999H52.799c-20.843,0.001-37.8-16.983-37.8-37.859v-5.896h145.074l94.351,28.414
	c0.701,0.211,1.43,0.318,2.163,0.318h239.14c-3.129,9.259-11.887,15.944-22.173,15.944h-216.19l-88.448-25.947
	c-4.064-1.219-8.349-0.47-11.76,2.052c-3.415,2.524-5.388,6.407-5.417,10.647l-0.081,10.965c-0.005,0.752-0.615,1.364-1.361,1.364
	h-33.355c-9.651,0-9.667,14.999,0,14.999h33.355c8.962,0,16.3-7.296,16.359-16.257l0.065-8.782l87.453,25.656
	c0.686,0.201,1.397,0.303,2.111,0.303h217.267c14.295,0,27.707-8.266,34.208-20.986c6.611-12.937,4.684-28.927-0.281-42.107
	C497.323,358.938,470.806,340.497,441.98,340.497z M210.891,111.383c0-5.271,4.262-9.562,9.513-9.594
	c12.282,0.074,12.311,19.188-0.059,19.188h-9.455v-9.594H210.891z"/>
<path d="M28.107,318.599c0,9.985,15.492,9.959,15.492,0C43.599,308.65,28.107,308.551,28.107,318.599z"/>
<path d="M52.6,330.484c0,9.985,15.492,9.959,15.492,0C68.092,320.536,52.6,320.437,52.6,330.484z"/>
<path d="M78.605,341.152c0,9.985,15.492,9.959,15.492,0C94.096,331.205,78.605,331.105,78.605,341.152z"/>
<path d="M109.197,345.996c0,9.985,15.492,9.959,15.492,0C124.687,336.049,109.197,335.949,109.197,345.996z"/>
<path d="M138.113,343.928c0,9.985,15.492,9.959,15.492,0C153.605,333.98,138.113,333.881,138.113,343.928z"/>
<path d="M181.834,336.172c0-9.985-15.492-9.959-15.492,0C166.342,346.119,181.834,346.219,181.834,336.172z"/>
<path d="M210.407,333.396c0-9.985-15.492-9.959-15.492,0C194.916,343.344,210.407,343.444,210.407,333.396z"/>
<path d="M237.259,338.24c0-9.985-15.492-9.959-15.492,0C221.767,348.188,237.259,348.287,237.259,338.24z"/>
<path d="M261.421,351.683c0-9.985-15.492-9.959-15.492,0C245.93,361.632,261.421,361.73,261.421,351.683z"/>
<path d="M287.799,367.042c0-9.985-15.492-9.959-15.492,0C272.307,376.99,287.799,377.089,287.799,367.042z"/>
<path d="M314.178,381.82c0-9.985-15.492-9.959-15.492,0C298.686,391.768,314.178,391.867,314.178,381.82z"/>
<path d="M344.197,389.576c0-9.985-15.492-9.959-15.492,0C328.705,399.524,344.197,399.623,344.197,389.576z"/>
<path d="M374.921,384.194c0-9.985-15.492-9.959-15.492,0C359.429,394.142,374.921,394.242,374.921,384.194z"/>
<path d="M398.859,370.493c0-9.985-15.492-9.959-15.492,0C383.367,380.44,398.859,380.54,398.859,370.493z"/>
<g>
</g>
<g>
</g>
<g>
</g>
<g>
</g>
<g>
</g>
<g>
</g>
<g>
</g>
<g>
</g>
<g>
</g>
<g>
</g>
<g>
</g>
<g>
</g>
<g>
</g>
<g>
</g>
<g>
</g>
</svg>
