<?xml version="1.0" encoding="iso-8859-1"?>
<!-- Generator: Adobe Illustrator 19.0.0, SVG Export Plug-In . SVG Version: 6.00 Build 0)  -->
<svg version="1.1" id="Capa_1" xmlns="http://www.w3.org/2000/svg" xmlns:xlink="http://www.w3.org/1999/xlink" x="0px" y="0px"
	 viewBox="0 0 512.002 512.002" style="enable-background:new 0 0 512.002 512.002;" xml:space="preserve">
<path style="fill:#E6E9ED;" d="M476.931,462.097c0.002-14.896-6.898-29.25-18.515-38.573c-13.595-10.91-28.22-9.994-44.543-11.478
	c-37.451-3.404-71.015-21.015-97.154-47.662c-41.497-42.303-60.717-97.903-60.717-156.444c0-39.658,0-79.316,0-118.974
	c0-18.056,0-36.112,0-54.169c0-12.204,0.487-26.336-16.081-27.298c-34.971-2.03-70.653,0-105.675,0c-18.612,0-37.224,0-55.836,0
	c-12.504,0-25.59,0.856-25.938,17.304c-0.794,37.624,0,75.346,0,112.978c0,4.672,0.099,9.357,0,14.029
	c-0.143,6.781-1.152,13.34-3.576,19.714c-3.41,8.966-9.48,16.271-11.985,25.692c-2.7,10.153-1.838,21.332-1.838,31.766
	c0,75.833,0,151.665,0,227.498c0,2.053,0,4.107,0,6.16L476.931,462.097z"/>
<path style="fill:#CFD2DC;" d="M83.309,211.282c0-10.5,3.02-20.778,8.7-29.608l0,0c5.68-8.831,8.7-19.109,8.7-29.608V23.047
	c0-8.587,6.961-15.547,15.548-15.547H68.02c-8.587,0-15.548,6.961-15.548,15.547v129.018c0,10.5-3.02,20.778-8.7,29.608l0,0
	c-5.68,8.831-8.7,19.109-8.7,29.608V462.64l48.236-0.059L83.309,211.282L83.309,211.282z"/>
<path style="fill:#E6E9ED;" d="M468.16,504.5c-55.708,0-111.415,0-167.123,0c-77.935,0-155.871,0-233.806,0
	c-7.447,0-15.255,0.675-22.681,0c-8.114-0.737-9.478-6.409-9.478-13.335c0-9.508,0-19.017,0-28.525H476.93
	c0,7.408,0,14.815,0,22.223C476.931,491.852,478.781,504.5,468.16,504.5z"/>
<path style="fill:#CFD2DC;" d="M83.309,495.729V462.64H35.073v33.089c0,4.844,3.927,8.771,8.771,8.771H92.08
	C87.236,504.5,83.309,500.573,83.309,495.729z"/>
<path style="fill:#253551;" d="M468.16,504.5c-49.733,0-99.466,0-149.198,0c-76.924,0-153.849,0-230.773,0
	c-11.571,0-23.141,0-34.712,0c-7.22,0-18.836,1.487-18.403-9.503h441.858C477.098,500.01,473.337,504.5,468.16,504.5z"/>
<g>
	<path style="fill:#333F61;" d="M476.931,462.64c0.2-22.863-15.809-43.44-38.099-48.671c-12.548-2.944-26.92-1.306-39.665-1.306
		c-12.785,0-27.203-1.634-39.79,1.32c-22.304,5.234-38.52,25.748-38.517,48.656L476.931,462.64L476.931,462.64z"/>
	<path style="fill:#333F61;" d="M80.982,338.596l50.564-17.145v-43.12c0-41.159-20.447-79.63-54.562-102.658l-24.936-16.831
		l-0.005,0.002c-1.012,8.105-3.82,15.912-8.27,22.83l0,0c-5.68,8.831-8.7,19.109-8.7,29.608v119.674L80.982,338.596z"/>
</g>
<path style="fill:#253551;" d="M83.309,330.956V211.282c0-8.994,2.223-17.822,6.428-25.721c-4.006-3.542-8.258-6.852-12.754-9.888
	l-24.936-16.831l-0.005,0.002c-1.012,8.105-3.82,15.912-8.27,22.83l0,0c-5.68,8.831-8.7,19.109-8.7,29.608v119.674l45.909,7.64
	l15.881-5.385L83.309,330.956z"/>
<path style="fill:#CFD2DC;" d="M91.797,19.964v118.097c0,6.884,5.581,12.464,12.464,12.464h151.741V23.047
	c0-8.587-6.961-15.547-15.548-15.547H104.261C97.377,7.5,91.797,13.08,91.797,19.964z"/>
<path style="fill:#E6E9ED;" d="M261.836,135.228c-39.216,0-78.432,0-117.648,0c-11.529,0-37.003,4.965-38.483-11.632
	c-1.673-18.761,0-38.433,0-57.256c0-11.377,0-22.753,0-34.13c0-5.281-1.243-12.749,0.889-17.797
	C109.873,6.65,117.786,7.5,124.583,7.5c8.856,0,17.711,0,26.567,0c25.036,0,50.071,0,75.107,0c9.068,0,18.136,0,27.203,0
	c6.283,0,13.674-1.069,17.761,4.99c3.721,5.517,1.933,15.925,1.933,22.124c0,13.367,0,26.734,0,40.102c0,12.683,0,25.366,0,38.049
	C273.154,121.43,274.685,135.228,261.836,135.228z"/>
<path style="fill:#485878;" d="M35.073,292.008L35.073,292.008V462.64H320.86c-31.128-11.5-64.678-20.904-92.054-40.181
	c-20.243-14.255-35.379-32.535-49.351-52.68c-14.375-20.724-31.86-38.538-53.39-51.872C98.854,301.054,67.08,292.008,35.073,292.008
	z"/>
<path style="fill:#425272;" d="M35.073,292.008L35.073,292.008V462.64h48.236V298.894C67.819,294.389,51.602,292.008,35.073,292.008
	z"/>
<rect x="105.702" y="48.05" style="fill:#FFFFFF;" width="167.45" height="46.634"/>
<path style="fill:#CFD2DC;" d="M256.002,215.77v-56.928h-30.25c-7.692,0-13.927,6.235-13.927,13.927v51.469
	c0,62.195,24.944,121.792,69.246,165.445l7.016,6.914c5.515,5.434,14.403,5.327,19.786-0.238l20.376-21.067l0,0
	C282.329,334.994,256.002,276.864,256.002,215.77z"/>
<path d="M427.498,405.164c-44.169,0-83.322-20.821-112.27-53.387l3.088-2.661c3.138-2.704,3.489-7.44,0.785-10.578
	c-2.704-3.137-7.439-3.488-10.578-0.785l-2.845,2.452c-4.088-5.341-7.911-10.863-11.44-16.556l4.926-2.844
	c3.587-2.071,4.816-6.658,2.745-10.245c-2.071-3.588-6.659-4.816-10.245-2.745l-4.855,2.803c-3.259-6.234-6.19-12.634-8.791-19.169
	l3.965-1.631c3.831-1.575,5.659-5.958,4.083-9.789c-1.575-3.83-5.957-5.659-9.789-4.083l-3.291,1.353
	c-1.833-5.816-3.421-11.716-4.731-17.693l2.753-0.426c4.094-0.633,6.899-4.465,6.266-8.558c-0.634-4.093-4.463-6.901-8.558-6.266
	l-3.124,0.483c-0.78-5.437-1.344-10.921-1.685-16.439h1.404c9.652,0,9.668-15,0-15h-1.809v-16.137h1.809c9.652,0,9.668-15,0-15
	h-1.809v-39.619c9.598-0.848,17.152-8.92,17.152-18.733v-29.23V48.047V18.818C280.654,8.442,272.212,0,261.835,0h-29.012
	c-9.652,0-9.668,15,0,15h29.012c2.105,0,3.818,1.713,3.818,3.818v21.729H113.205V18.818c0-2.105,1.713-3.818,3.818-3.818h82.464
	c9.652,0,9.668-15,0-15h-82.464H68.02C55.312,0,44.972,10.339,44.972,23.047v129.018c0,9.079-2.596,17.915-7.508,25.551
	c-6.471,10.062-9.892,21.703-9.892,33.666v80.727V359.9c0,9.652,15,9.668,15,0v-60.221c51.333,2.328,98.875,28.464,128.321,70.917
	l9.25,13.337c5.225,7.534,11.076,14.726,17.39,21.377c2.793,2.942,7.658,3.071,10.603,0.276c3.004-2.852,3.127-7.599,0.276-10.603
	c-5.789-6.098-11.153-12.692-15.944-19.599l-9.25-13.337c-12.169-17.545-27.184-32.519-44.173-44.509v-39.206
	c0-43.716-21.632-84.416-57.866-108.874l-21.289-14.37c0.049-1.005,0.082-2.012,0.082-3.022V23.047c0-4.438,3.61-8.047,8.048-8.047
	h30.575c-0.255,1.234-0.391,2.51-0.391,3.818v29.229v46.634v29.229c0,10.376,8.442,18.818,18.818,18.818h131.48v8.614h-22.75
	c-11.815,0-21.427,9.612-21.427,21.427v51.469c0,63.773,26.064,126.034,71.482,170.787l7.017,6.915
	c4.041,3.981,9.369,6.164,15.031,6.164c0.088,0,0.178,0,0.267-0.001c5.76-0.069,11.138-2.388,15.143-6.529l15.521-16.048
	c10.201,8.167,21.31,14.982,33.052,20.349c-24.025,3.795-43.135,22.528-47.515,46.356L271.01,436.23
	c-13.35-4.932-26.025-11.578-37.675-19.754c-3.391-2.378-8.067-1.559-10.448,1.831c-2.379,3.391-1.56,8.068,1.831,10.448
	c12.707,8.917,26.533,16.167,41.094,21.546l13.104,4.841H42.573v-62.928c0-9.652-15-9.668-15,0v70.428v33.089
	c0,8.972,7.299,16.271,16.271,16.271h424.315c8.972,0,16.271-7.299,16.271-16.271V462.64v-0.543
	C484.431,430.704,458.891,405.164,427.498,405.164z M72.787,181.89c32.096,21.665,51.258,57.718,51.258,96.441v29.678
	c-24.633-13.976-52.508-22.12-81.473-23.325v-73.402c0-15.639,9.818-25.964,14.382-40.079L72.787,181.89z M265.654,55.547v31.634
	H113.205V55.547H265.654z M113.205,123.91v-21.729h152.449v21.729c0,2.105-1.713,3.818-3.818,3.818H117.023
	C114.918,127.728,113.205,126.015,113.205,123.91z M302.482,391.145c-1.201,1.242-2.814,1.938-4.542,1.958
	c-1.733,0.022-3.358-0.635-4.589-1.848l-7.017-6.914c-42.582-41.957-67.01-100.311-67.01-160.103v-51.469
	c0-3.544,2.883-6.427,6.427-6.427h22.75v15.921h-13.076c-9.652,0-9.668,15,0,15h13.077V213.4h-13.076c-9.652,0-9.668,15,0,15h13.448
	c0.362,6.291,1.001,12.538,1.894,18.731l-11.587,1.792c-4.093,0.633-6.899,4.465-6.266,8.558c0.619,4.001,4.559,6.885,8.558,6.266
	l11.931-1.845c1.535,7.145,3.432,14.192,5.661,21.123l-10.428,4.289c-3.831,1.575-5.659,5.958-4.083,9.789
	c1.535,3.733,6.041,5.626,9.789,4.083l9.802-4.032c2.853,7.153,6.078,14.151,9.666,20.967l-8.03,4.636
	c-3.587,2.071-4.816,6.658-2.745,10.245c2.027,3.511,6.727,4.777,10.245,2.745l7.963-4.597c4.009,6.498,8.364,12.795,13.049,18.866
	l-8.409,7.248c-3.138,2.704-3.489,7.44-0.785,10.578c2.629,3.049,7.515,3.424,10.578,0.785l8.186-7.055
	c4.316,4.866,8.861,9.555,13.63,14.052L302.482,391.145z M370.837,420.164h56.661c20.753,0,38.033,15.153,41.356,34.976H329.023
	C332.576,435.284,349.974,420.164,370.837,420.164z M469.431,495.729c0,0.701-0.57,1.271-1.271,1.271H43.844
	c-0.701,0-1.271-0.57-1.271-1.271V470.14H320.86h148.571L469.431,495.729L469.431,495.729z"/>
<g>
</g>
<g>
</g>
<g>
</g>
<g>
</g>
<g>
</g>
<g>
</g>
<g>
</g>
<g>
</g>
<g>
</g>
<g>
</g>
<g>
</g>
<g>
</g>
<g>
</g>
<g>
</g>
<g>
</g>
</svg>
