<?xml version="1.0" encoding="iso-8859-1"?>
<!-- Generator: Adobe Illustrator 19.0.0, SVG Export Plug-In . SVG Version: 6.00 Build 0)  -->
<svg version="1.1" id="Capa_1" xmlns="http://www.w3.org/2000/svg" xmlns:xlink="http://www.w3.org/1999/xlink" x="0px" y="0px"
	 viewBox="0 0 512 512" style="enable-background:new 0 0 512 512;" xml:space="preserve">
<path style="fill:#FC8384;" d="M447.121,483.769c0-24.539,5.376-54.954-21.609-67.442c-25.087-11.61-50.761-20.045-72.073-38.497
	c-31.095-26.922-49.547-66.514-50.297-107.62c-0.339-18.565-0.021-37.162-0.021-55.729c0-22.19,0-44.38,0-66.569H81.342
	c0,11.344,0,22.687,0,34.031c0,5.399,0.181,10.842-0.595,16.201c-1.769,12.229-8.514,21.053-13.169,32.045
	c-4.993,11.79-4.703,23.766-4.703,36.195c0,14.085,0,28.17,0,42.254c0,10.191,0,20.383,0,30.575l25.001,154.435L447.121,483.769z"/>
<path style="fill:#F8A7A6;" d="M250.48,437.488c29.641-30.521,30.573-78.758,2.133-110.399l0,0
	c-11.072-12.319-17.197-28.291-17.197-44.847v-57.954H70.465c-4.962,8.837-7.59,18.811-7.59,28.979v85.945L79.69,443.081h165.357
	L250.48,437.488z"/>
<path style="fill:#F79A9A;" d="M113.847,253.267c0-10.168,2.628-20.142,7.59-28.979H70.465c-4.962,8.837-7.59,18.811-7.59,28.979
	v85.945L79.69,443.081h43.119l-8.963-103.869L113.847,253.267L113.847,253.267z"/>
<path style="fill:#333F61;" d="M76.528,497.428c0,10.326,20.085,7.072,26.312,7.072c18.423,0,36.846,0,55.27,0
	c43.691,0,87.383,0,131.074,0c10.169,0,20.339,0,30.509,0l-0.032-0.019c0.504,0.007,1.008,0.019,1.514,0.019h109.203
	c5.655,0,11.101-2.615,14.638-7.027c2.451-3.058,6.78-11.328,2.106-13.704c-1.379-0.701-4.954,0-6.449,0
	c-13.168,0-26.335,0-39.503,0c-24.196,0-48.392,0-72.588,0c-22.892,0-46.256-7.756-62.785-23.578
	c-18.281-15.113-36.607-30.171-54.964-45.192c-15.687-12.836-31.399-25.642-47.166-38.38
	c-14.875-12.017-28.437-24.347-46.977-30.273c-17.611-5.629-35.466-7.134-53.814-7.134L76.528,497.428z"/>
<g>
	<path style="fill:#253551;" d="M126.797,497.428l-13.116-151.997c-13.901-4.077-29.195-6.218-40.224-6.218H62.875l13.653,158.215
		c0,3.906,3.169,7.072,7.079,7.072h50.269C129.967,504.5,126.797,501.334,126.797,497.428z"/>
	<path style="fill:#253551;" d="M369.961,504.5h1.482c-0.505,0-1.009-0.012-1.514-0.019L369.961,504.5z"/>
</g>
<path style="fill:#F8A7A6;" d="M303.673,147.912c-50.998,0-101.995,0-152.993,0c-22.797,0-45.616,0.295-68.411,0
	c-11.269-0.146-18.876-6.404-19.394-18.116c-0.511-11.556,0-23.252,0-34.817c0-16.715,0-33.43,0-50.145
	c0-8.362-2.182-21.435,2.28-29.062C70.32,6.947,79.395,7.5,88.055,7.5c10.893,0,21.785,0,32.678,0c58.704,0,117.409,0,176.113,0
	c9.968,0,20.611,1.327,23.156,13.349c1.871,8.838,0.375,19.233,0.375,28.172c0,27.111,1.526,54.694,0,81.764
	C319.857,139.998,313.482,147.912,303.673,147.912z"/>
<path style="fill:#F79A9A;" d="M111.453,131.217V24.195c0-9.22,7.482-16.695,16.711-16.695H79.586
	c-9.229,0-16.711,7.474-16.711,16.695v107.023c0,9.22,7.482,16.695,16.711,16.695h48.578
	C118.935,147.912,111.453,140.438,111.453,131.217z"/>
<path style="fill:#DB4D4D;" d="M308.057,224.288c-40.21,0-80.419,0-120.629,0c-26.918,0-53.836,0-80.755,0
	c-8.176,0-16.351,0-24.527,0c-5.866,0-12.099,0.691-16.374-4.382c-6.101-7.24-2.897-24.417-2.897-32.98c0-6.506,0-13.013,0-19.519
	c0-4.02-0.559-8.718,1.226-12.433c5.532-11.516,30.738-7.061,40.805-7.061c54.305,0,108.61,0,162.916,0
	c13.224,0,27.004-1.128,40.194,0c14.53,1.242,12.359,15.732,12.359,26.224c0,12.114,0.589,24.387,0,36.487
	C320.03,217.723,316.021,224.288,308.057,224.288z"/>
<path style="fill:#BC4444;" d="M113.847,211.975v-51.75c0-6.8,5.518-12.313,12.325-12.313H75.2c-6.807,0-12.325,5.513-12.325,12.313
	v51.75c0,6.8,5.518,12.313,12.325,12.313h50.971C119.365,224.288,113.847,218.775,113.847,211.975z"/>
<path d="M454.621,479.948v-31.342c0-16.933-10.051-32.217-25.606-38.936l-34.998-15.12c-50.661-21.885-83.395-71.653-83.395-126.792
	v-36.156c9.718-1.264,17.254-9.576,17.254-19.634V160.23c0-5.301-2.104-10.111-5.505-13.671c3.438-4.178,5.505-9.524,5.505-15.343
	V81.123c0-9.652-15-9.668-15,0v50.095c0,5.07-4.132,9.195-9.211,9.195H79.586c-5.079,0-9.211-4.125-9.211-9.195V24.195
	c0-5.07,4.132-9.195,9.211-9.195h224.079c5.079,0,9.211,4.125,9.211,9.195v24.983c0,9.652,15,9.668,15,0V24.195
	C327.876,10.854,317.015,0,303.665,0H79.586c-13.35,0-24.211,10.854-24.211,24.195v107.022c0,5.819,2.067,11.165,5.505,15.343
	c-3.401,3.56-5.505,8.37-5.505,13.671v51.738c0,5.476,2.234,10.44,5.837,14.031c-3.83,8.553-5.837,17.855-5.837,27.267v12.253
	c0,9.652,15,9.668,15,0v-12.253c0-7.424,1.607-14.761,4.679-21.486c0.047,0,0.093,0.007,0.14,0.007h152.722v50.453
	c0,18.436,6.79,36.144,19.119,49.861c13.508,15.028,20.114,34.404,18.6,54.559c-0.31,4.13,2.787,7.73,6.917,8.041
	c4.031,0.298,7.736-2.865,8.041-6.917c1.423-18.947-3.294-38.004-13.516-54.028c-5.105-8.002-12.188-14.477-16.794-22.809
	c-4.829-8.738-7.367-18.727-7.367-28.705V231.79h52.706v35.971c0,61.128,36.288,116.302,92.447,140.562l34.998,15.119
	c10.057,4.344,16.555,14.223,16.555,25.166v27.663H328.581c-22.333,0-43.327-7.835-57.599-21.496
	c-0.131-0.125-0.267-0.246-0.406-0.361c-0.203-0.167-5.668-4.686-14.482-11.948c5.848-6.068,10.786-12.895,14.67-20.304
	c1.923-3.668,0.508-8.202-3.16-10.125c-3.668-1.922-8.202-0.508-10.125,3.16c-3.267,6.231-7.431,11.974-12.378,17.067l-0.622,0.641
	c-28.176-23.169-56.402-46.28-84.821-69.151c-12.91-10.389-24.58-19.411-40.576-24.534c-14.575-4.668-30.289-7.506-45.623-7.506
	h-3.082v-32.797c0-9.652-15-9.668-15,0v40.297c0,0.122,0.012,0.24,0.018,0.36c0.005,0.095,0.001,0.19,0.01,0.285l13.629,157.949
	c0.2,7.859,6.661,14.192,14.573,14.192h94.383c9.652,0,9.668-15,0-15H84.016c-0.004-0.072-0.009-0.145-0.016-0.217L71.051,346.712
	h2.407c24.427,0,51.824,8.759,62.086,16.941c46.818,37.321,120.828,98.479,125.268,102.148
	c17.03,16.188,41.713,25.467,67.769,25.467H440.19c-0.496,0.878-1.115,1.696-1.847,2.429c-2.126,2.129-4.955,3.302-7.966,3.302
	H321.174c-0.318,0-0.635-0.006-0.952-0.011l-0.453-0.007c-0.218-0.004-0.436,0.002-0.65,0.019H209.842c-9.652,0-9.668,15,0,15
	h109.85c0.137,0,0.274-0.004,0.41-0.011c0.357,0.006,0.714,0.011,1.072,0.011h109.203c7.022,0,13.621-2.736,18.581-7.703
	c4.955-4.962,7.678-11.556,7.667-18.565C456.622,483.553,455.869,481.55,454.621,479.948z M303.665,155.412h4.392
	c2.657,0,4.819,2.162,4.819,4.819v51.738c0,2.657-2.162,4.819-4.819,4.819H75.194c-2.657,0-4.819-2.162-4.819-4.819v-51.738
	c0-2.657,2.162-4.819,4.819-4.819h4.392L303.665,155.412L303.665,155.412z"/>
<g>
</g>
<g>
</g>
<g>
</g>
<g>
</g>
<g>
</g>
<g>
</g>
<g>
</g>
<g>
</g>
<g>
</g>
<g>
</g>
<g>
</g>
<g>
</g>
<g>
</g>
<g>
</g>
<g>
</g>
</svg>
