<?xml version="1.0" encoding="iso-8859-1"?>
<!-- Generator: Adobe Illustrator 19.0.0, SVG Export Plug-In . SVG Version: 6.00 Build 0)  -->
<svg version="1.1" id="Capa_1" xmlns="http://www.w3.org/2000/svg" xmlns:xlink="http://www.w3.org/1999/xlink" x="0px" y="0px"
	 viewBox="0 0 512 512" style="enable-background:new 0 0 512 512;" xml:space="preserve">
<path style="fill:#485878;" d="M476.962,479.618c1.586-33.405-21.622-57.149-52.039-65.784
	c-32.627-9.263-62.532-26.521-86.479-50.602c-23.614-23.747-40.94-53.508-49.878-85.785c-4.043-14.6-5.771-29.449-7.446-44.429
	c-4.601-41.145-9.202-82.291-13.802-123.436c-2.387-21.345-4.774-42.691-7.16-64.036c-1.089-9.737-1.183-20.286-3.339-29.862
	c-2.594-11.52-18.88-8.184-27.813-8.184c-20.802,0-41.605,0-62.407,0c-22.918,0-45.836,0-68.753,0c-11.625,0-24.007-1.233-35.585,0
	c-13.028,1.387-9.238,20.476-9.238,29.753c0,22.024,0,44.048,0,66.072c0,20.239,0,40.479,0,60.718c0,4.201,0.128,8.424,0,12.623
	c-0.183,5.988-1.402,11.729-4.287,17.018c-4.31,7.903-11.514,12.892-14.47,21.757c-2.391,7.171-1.824,14.861-1.824,22.312
	c0,11.179,0,22.358,0,33.537c0,12.503,0,25.005,0,37.508c0,39.381,0,78.763,0,118.144c0,3.681,0,7.362,0,11.043l59.386,4.673
	l14.025-93.465l79.296,45.539c8.188,3.638,15.423,9.12,21.14,16.018l77.273,73.112L476.962,479.618z"/>
<path style="fill:#425272;" d="M74.696,437.987V306.119v-79.578c0-9.315,3.702-18.248,10.291-24.834l0,0
	c6.589-6.586,10.29-15.519,10.29-24.834V16.42c0-4.926,3.995-8.92,8.924-8.92H61.945c-4.928,0-8.923,3.994-8.923,8.92v160.453
	c0,9.315-3.702,18.248-10.291,24.834s-10.29,15.519-10.29,24.834v79.578v131.868l59.386,4.673l0.493-3.286L74.696,437.987z"/>
<g>
	<path style="fill:#333F61;" d="M32.441,306.119c48.623,25.334,97.365,50.453,145.874,76.004
		c31.278,16.475,55.364,45.094,80.948,69.004c20.541,19.197,47.761,28.245,75.616,28.492c9.688,0.086,19.381,0,29.069,0
		c34.806,0,69.612,0,104.419,0c2.119,0,6.528-0.878,8.53,0c10.653,4.671-7.544,22.072-13.332,23.871
		c-9.429,2.931-21.747,1.011-31.396,1.011c-33.7,0-67.401,0-101.101,0c-20.723,0-40.838-3.182-59.866-11.769
		c-21.75-9.816-37.819-25.557-53.99-42.471c-17.33-18.126-35.031-35.094-56.786-48.003c-9.725-5.77-19.96-10.758-29.983-15.98
		c-30.368-15.822-60.735-31.645-91.103-47.467c-2.3-1.198-4.599-2.396-6.899-3.595C32.441,335.216,32.441,306.119,32.441,306.119z"
		/>
	<path style="fill:#333F61;" d="M90.049,504.5c-15.52,0-31.115,0.478-46.626,0c-13.354-0.411-10.982-12.592-10.982-22.322
		c0-37.504,0-75.008,0-112.512c0-11.484,0-22.967,0-34.451l91.946,47.906c-29.561,6.511-25.846,37.108-25.846,60.078
		c0,13.069,0,26.137,0,39.206C98.541,489.464,101.06,504.5,90.049,504.5z"/>
</g>
<path style="fill:#253551;" d="M107.776,392.283L107.776,392.283c4.386-4.511,10.097-7.782,16.611-9.162l-91.946-47.906
	c0,51.868,0,103.736,0,155.604c0,3.541-0.48,7.35,1.823,10.336c4.394,5.696,16.338,3.345,22.66,3.345c0-22.354,0-44.709,0-67.063
	c0-9.717-0.993-20.048,3.241-29.091C68.446,390.658,90.493,383.278,107.776,392.283z"/>
<path style="fill:#333F61;" d="M81.353,7.5c25.046-0.003,42.866,20.797,43.034,44.922c0.094,13.565,0,27.135,0,40.7
	c0,42.444,0,84.888,0,127.333c0,10.931-2.791,26.835,8.371,33.365c11.779,6.89,24.673-2.288,25.431-14.9c0.216-3.59,0-7.26,0-10.855
	c0-41.025,0-82.051,0-123.076c0-17.097-0.068-34.195,0-51.292c0.106-26.561,18.778-46.474,45.837-46.196"/>
<path style="fill:#F7D88B;" d="M124.387,82.537c0,49.058,0,98.117,0,147.175c0,9.714-0.619,20.465,10.322,25.086
	c14.232,6.011,23.48-7.019,23.48-19.662c0-26.429,0-52.857,0-79.286c0-24.438,0-48.876,0-73.313"/>
<path style="fill:#F49E73;" d="M141.291,122.97c-14.889-0.235-16.904-13.584-16.904-25.221c0-11.82,1.024-26.826,16.898-26.829
	c14.445-0.003,16.904,13.113,16.904,24.427C158.189,107.322,157.582,122.97,141.291,122.97z"/>
<path d="M484.509,475.624c-0.211-14.545-4.909-28.837-13.463-40.66c-9.406-12.998-23.102-22.521-38.563-26.815l-5.552-1.542
	c-36.361-10.097-68.517-30.612-92.988-59.33c-24.473-28.716-39.623-63.711-43.815-101.201L276.81,126.99
	c-0.461-4.117-4.187-7.085-8.286-6.62c-4.117,0.46-7.081,4.17-6.62,8.287l13.316,119.087
	c9.13,81.664,68.537,151.336,147.696,173.317l5.552,1.542c23.063,6.404,39.086,26.218,40.893,49.516H368.909c-9.652,0-9.668,15,0,15
	h102.063c-2.091,5.757-7.62,9.882-14.094,9.882H325.89c-34.073,0-67.117-14.122-90.659-38.745l-24.069-25.177
	c-16.689-17.456-36.013-31.965-57.432-43.125l-77.56-40.411l-36.229-18.876v-12.182l97.768,50.939
	c0.004,0.002,0.009,0.004,0.013,0.007l38.354,19.983c16.008,8.34,29.37,20.553,41.685,32.348l36.517,34.975
	c11.632,11.141,25.978,19.199,41.239,24.202c7.778,2.55,15.81,4.292,23.935,5.263c6.013,0.719,18.007,3.69,21.8-2.798
	c4.293-7.342-3.413-11.015-9.281-11.319c-8.283-0.43-16.387-1.27-24.459-3.274c-15.854-3.935-31.012-11.56-42.86-22.907
	l-36.517-34.975c-13.097-12.544-27.369-25.565-45.128-34.818l-34.22-17.829v-95.839c9.796-3.171,16.901-12.375,16.901-23.211
	v-133.16V87.818v-37.3c0-19.585,15.94-35.518,35.533-35.518h2.804h43.896c0.726,0,1.334,0.543,1.415,1.263l8.903,79.623
	c0.461,4.116,4.169,7.087,8.286,6.62c4.117-0.46,7.081-4.17,6.62-8.287l-8.903-79.623C263.313,6.275,256.296,0,247.922,0h-43.896
	h-2.804H61.945C52.89,0,45.521,7.366,45.521,16.42v160.453c0,10.242-5.672,15.931-11.55,23.426
	c-5.842,7.451-9.031,16.778-9.031,26.242v79.578v29.096v79.354c0,9.652,15,9.668,15,0V347.58l32.627,17l34.841,18.154
	c-10.002,7.398-16.369,19.279-16.369,32.271v81.007c0,0.545-0.444,0.988-0.991,0.988H40.932c-0.547,0-0.991-0.443-0.991-0.988
	v-46.846c0-9.652-15-9.668-15,0v46.846c0,8.816,7.174,15.988,15.991,15.988H90.05c8.817,0,15.991-7.172,15.991-15.988v-81.007
	c0-10.932,7.212-20.597,17.463-23.886l23.295,12.137c19.961,10.4,37.968,23.921,53.521,40.188l24.069,25.177
	C250.748,496.189,287.743,512,325.89,512h130.987c9.025,0,17.742-4.204,23.391-11.24
	C485.039,494.82,490.315,482.461,484.509,475.624z M141.288,248.626c-5.184,0-9.401-4.214-9.401-9.395V128.585
	c2.895,1.213,6.069,1.885,9.398,1.885h0.006c3.329,0,6.504-0.672,9.398-1.885v110.647
	C150.689,244.412,146.472,248.626,141.288,248.626z M150.689,106.072c0,5.182-4.216,9.398-9.398,9.398h-0.006
	c-5.183,0-9.398-4.216-9.398-9.398V87.818c0-12.093,18.803-12.177,18.803,0v18.254H150.689z M150.689,50.518v14.788
	c-5.966-2.5-12.836-2.501-18.803-0.001V50.518c0-13.835-5.596-26.385-14.639-35.518h48.081
	C156.286,24.133,150.689,36.683,150.689,50.518z M48.034,207.011c8.053-8.05,12.487-18.753,12.487-30.138V16.42
	c0-0.783,0.639-1.42,1.424-1.42h19.408c19.593,0,35.533,15.933,35.533,35.518v37.3v18.254v133.16
	c0,10.836,7.105,20.04,16.901,23.211v88.023L39.941,301.57v-75.029C39.941,219.164,42.815,212.228,48.034,207.011z"/>
<g>
</g>
<g>
</g>
<g>
</g>
<g>
</g>
<g>
</g>
<g>
</g>
<g>
</g>
<g>
</g>
<g>
</g>
<g>
</g>
<g>
</g>
<g>
</g>
<g>
</g>
<g>
</g>
<g>
</g>
</svg>
