<?xml version="1.0" encoding="iso-8859-1"?>
<!-- Generator: Adobe Illustrator 19.0.0, SVG Export Plug-In . SVG Version: 6.00 Build 0)  -->
<svg version="1.1" id="Capa_1" xmlns="http://www.w3.org/2000/svg" xmlns:xlink="http://www.w3.org/1999/xlink" x="0px" y="0px"
	 viewBox="0 0 512 512" style="enable-background:new 0 0 512 512;" xml:space="preserve">
<path style="fill:#845D36;" d="M467.041,504.5c-58.088,0-116.175,0-174.263,0c-77.305,0-154.609,0-231.914,0
	c-5.247,0-10.585,0.286-15.826,0c-12.22-0.666-18.637-9.664-18.777-21.225c-0.065-5.379-2.718-18.773,3.435-20.811
	c4.238-1.404,11.344,0,15.733,0c12.617,0,25.233,0,37.85,0c85.222,0,170.445,0,255.667,0c36.334,0,72.669,0,109.003,0
	c9.572,0,19.143,0,28.715,0c1.549,0,3.982-0.478,5.475,0c5.951,1.907,3.599,12.18,3.599,17.375
	C485.738,491.807,481.577,504.5,467.041,504.5z"/>
<path style="fill:#725030;" d="M84.715,485.811v-20.046c0-1.824,1.48-3.302,3.305-3.302H29.566c-1.825,0-3.305,1.478-3.305,3.302
	v20.046c0,10.321,8.375,18.689,18.705,18.689h58.453C93.089,504.5,84.715,496.133,84.715,485.811z"/>
<path style="fill:#B58B5B;" d="M32.686,462.464c0-21.469,0-42.937,0-64.406c0-7.997-0.347-16.085,0.069-24.078
	c1.076-20.682,15.743-36.289,16.121-57.286c0.798-44.343,0-88.771,0-133.121c0-17.839,0-35.678,0-53.516h208.666
	c0,44.523-0.342,89.059,0,133.581c0.333,43.374,20.61,84.666,55.529,110.658c26.941,20.054,58.245,25.168,90.167,31.696
	c12.325,2.52,24.747,4.759,37.009,7.569c23.838,5.461,36.582,25.329,36.582,48.904"/>
<path style="fill:#A57D55;" d="M95.886,346.925c5.301-9.08,8.095-19.404,8.095-29.916V130.056H48.876V317.01
	c0,21.791-16.19,38.039-16.19,59.831v85.623h55.105v-85.623C87.791,366.329,90.584,356.006,95.886,346.925z"/>
<path style="fill:#BE935F;" d="M257.461,130.056c-46.598,0-93.197,0-139.795,0c-22.245,0-44.502,0.213-66.746,0
	c-7.288-0.07-12.885-2.147-13.523-10.74c-0.776-10.448,0-21.252,0-31.722c0-15.554,0-31.109,0-46.663c0-7.794-0.886-16.17,0-23.927
	C38.568,6.75,47.184,7.5,54.795,7.5c9.724,0,19.448,0,29.172,0c54.966,0,109.932,0,164.898,0c6.751,0,15.607-1.266,17.848,7.324
	c1.938,7.427,0.251,17.138,0.251,24.686c0,26.329,0.844,52.807,0,79.124C266.781,124.35,264.253,130.056,257.461,130.056z"/>
<path style="fill:#A57D55;" d="M98.135,120.557V16.999c0-5.246,4.256-9.499,9.507-9.499H46.905c-5.251,0-9.507,4.253-9.507,9.499
	v103.558c0,5.246,4.256,9.499,9.507,9.499h60.738C102.391,130.056,98.135,125.803,98.135,120.557z"/>
<path style="fill:#946740;" d="M55.043,349.835H39.197c-4.269,8.348-6.511,17.6-6.511,27.006v85.623h135.085l0,0
	C167.771,400.261,117.301,349.835,55.043,349.835z"/>
<path style="fill:#845A3A;" d="M92.015,356.041c-11.583-4.016-24.021-6.205-36.972-6.205H39.197
	c-4.269,8.348-6.511,17.6-6.511,27.006v85.623h55.55v-85.623C88.236,369.709,89.531,362.668,92.015,356.041z"/>
<g>
	<path style="fill:#EDD7C0;" d="M152.181,405.465c-7.588-13.331-17.553-25.084-30.323-33.718c0-80.563,0-161.127,0-241.69h30.323
		V405.465z"/>
	<path style="fill:#EDD7C0;" d="M37.397,101.985v18.573c0,5.246,4.256,9.499,9.507,9.499h210.552c5.251,0,9.507-4.253,9.507-9.499
		v-18.573C266.963,101.985,37.397,101.985,37.397,101.985z"/>
</g>
<path style="fill:#DDC8B6;" d="M98.135,120.557v-18.573H37.397v18.573c0,5.246,4.256,9.499,9.507,9.499h60.738
	C102.391,130.056,98.135,125.803,98.135,120.557z"/>
<g>
	<path style="fill:#EDD7C0;" d="M273.656,328.434c-5.306-9.967-9.418-20.632-12.157-31.796l-109.318,71.376v37.451L273.656,328.434z
		"/>
	<path style="fill:#EDD7C0;" d="M257.457,7.5H46.905c-5.251,0-9.507,4.253-9.507,9.499v17.203h229.567V16.999
		C266.964,11.753,262.708,7.5,257.457,7.5z"/>
</g>
<path style="fill:#DDC8B6;" d="M107.642,7.5H46.905c-5.251,0-9.507,4.253-9.507,9.499v17.203h60.738V16.999
	C98.135,11.753,102.391,7.5,107.642,7.5z"/>
<path style="fill:#8A623F;" d="M189.7,68.093c0,18.479-15.457,33.891-33.921,33.891c-18.466,0-33.921-15.416-33.921-33.891
	c0-18.476,15.455-33.891,33.921-33.891C174.242,34.202,189.7,49.613,189.7,68.093z"/>
<path d="M484.228,455.125c-1.401-23.775-18.775-44.067-42.357-48.89l-72.631-14.854c-59.835-12.236-104.197-66.442-104.197-127.567
	V135.75c5.577-2.793,9.423-8.545,9.423-15.193V16.999c0-9.374-7.63-16.999-17.008-16.999h-38.976c-9.652,0-9.668,15,0,15h38.976
	c1.107,0,2.008,0.897,2.008,1.999v9.703H44.897v-9.703c0-1.102,0.9-1.999,2.007-1.999h134.734c9.652,0,9.668-15,0-15H46.904
	c-9.378,0-17.007,7.625-17.007,16.999v103.558c0,7.437,4.81,13.758,11.479,16.059V317.01c0,9.172-2.445,18.209-7.071,26.134
	c-5.965,10.216-9.118,21.869-9.118,33.698V455.9c-3.78,1.684-6.425,5.469-6.425,9.866v20.046c0,14.44,11.756,26.188,26.205,26.188
	h422.066c14.449,0,26.205-11.748,26.205-26.188v-20.046C493.238,460.422,489.333,455.984,484.228,455.125z M46.904,122.556
	c-1.106,0-2.007-0.897-2.007-1.999v-11.073h214.567v11.073c0,1.102-0.9,1.999-2.008,1.999H152.181h-30.323H48.876H46.904z
	 M129.357,68.093c0-34.027,52.842-34.007,52.842,0C182.199,102.096,129.357,102.128,129.357,68.093z M56.376,137.556h57.981v96.315
	c0,9.652,15,9.668,15,0v-96.315h15.323v230.458v13.857c-4.601-5.193-9.74-9.891-15.323-14.007V267.76c0-9.652-15-9.668-15,0v90.244
	c-17.513-9.967-37.759-15.669-59.314-15.669h-3.661c3.28-8.013,4.994-16.621,4.994-25.326
	C56.376,317.009,56.376,137.556,56.376,137.556z M40.187,454.964v-78.123c0-6.703,1.311-13.33,3.819-19.506h11.038
	c37.818,0,71.035,20.04,89.587,50.044c0.356,0.612,0.7,1.21,1.032,1.795c0.011,0.019,0.024,0.034,0.035,0.053
	c0.09,0.155,0.196,0.3,0.297,0.449c0.051,0.075,0.097,0.154,0.15,0.227c7.795,13.433,12.704,28.737,13.861,45.061L40.187,454.964
	L40.187,454.964z M159.681,372.074l97.394-63.59c1.905,5.883,4.189,11.646,6.837,17.25l-104.23,66.095v-19.755H159.681z
	 M159.681,354.16V137.556h90.361v126.259c0,9.909,1.034,19.749,3.029,29.368L159.681,354.16z M259.465,94.484h-71.803
	c12.552-15.116,12.553-37.665,0-52.782h71.803V94.484z M123.895,41.702c-12.552,15.116-12.553,37.665,0,52.782H44.897V41.702
	H123.895z M478.238,485.812c0,6.169-5.026,11.188-11.205,11.188H44.967c-6.179,0-11.205-5.019-11.205-11.188v-15.848h358.094
	c9.652,0,9.668-15,0-15H175.029c-1.042-16.817-5.555-32.709-12.842-46.963l108.856-69.029c3.505,5.799,7.418,11.371,11.735,16.656
	c21.108,25.845,50.747,43.762,83.455,50.451l72.631,14.854c16.577,3.39,28.884,17.428,30.323,34.032h-38.853c-9.652,0-9.668,15,0,15
	h47.903v15.847H478.238z"/>
<g>
</g>
<g>
</g>
<g>
</g>
<g>
</g>
<g>
</g>
<g>
</g>
<g>
</g>
<g>
</g>
<g>
</g>
<g>
</g>
<g>
</g>
<g>
</g>
<g>
</g>
<g>
</g>
<g>
</g>
</svg>
