<?xml version="1.0" encoding="iso-8859-1"?>
<!-- Generator: Adobe Illustrator 19.0.0, SVG Export Plug-In . SVG Version: 6.00 Build 0)  -->
<svg version="1.1" id="Capa_1" xmlns="http://www.w3.org/2000/svg" xmlns:xlink="http://www.w3.org/1999/xlink" x="0px" y="0px"
	 viewBox="0 0 512 512" style="enable-background:new 0 0 512 512;" xml:space="preserve">
<path style="fill:#ED88A3;" d="M499.441,465.815c0-14.042,0.333-27.59-12.49-36.577c-8.574-6.008-19.135-7.668-29.146-9.869
	c-20.844-4.583-41.688-9.166-62.532-13.749c-79.799-16.709-138.015-88.603-138.864-169.905
	c-0.442-42.363-0.008-84.753-0.008-127.118c0-18.001,0-36.004,0-54.005H39.17c0,49.827,0,99.655,0,149.482
	c0,21.086,0.086,42.174,0,63.259c-0.088,21.513-5.847,40.228-14.607,59.641c-8.519,18.879-10.814,38.532-10.814,58.967
	c0,27.38,0,54.76,0,82.14L499.441,465.815z"/>
<path style="fill:#E87490;" d="M44.279,437.123v-59.928c0-18.822,4.35-37.388,12.711-54.247l0,0
	c8.36-16.859,12.711-35.425,12.711-54.247V54.592H39.17v214.109c0,18.822-4.35,37.388-12.711,54.247l0,0
	c-8.36,16.859-12.711,35.425-12.711,54.247v59.928v30.96l30.53-0.143V437.123z"/>
<path style="fill:#D65F86;" d="M256.402,465.826l-95.34-28.703H12.101c-2.544,0-4.607,2.064-4.607,4.611v16.332
	c0,24.746,19.82,44.844,44.434,45.291c-0.131-0.565-0.207-1.15-0.207-1.755v-6.644c0-9.97,15.48-9.986,15.48,0v6.644
	c0,0.612-0.078,1.204-0.212,1.776H85.59c-0.134-0.571-0.212-1.163-0.212-1.776v-6.644c0-9.97,15.48-9.986,15.48,0v6.644
	c0,0.612-0.078,1.204-0.212,1.776h19.483c-0.134-0.571-0.212-1.163-0.212-1.776v-6.644c0-9.97,15.48-9.986,15.48,0v6.644
	c0,0.612-0.078,1.204-0.212,1.776h15.005c4.867,0,8.822-3.933,8.853-8.805l0.081-18.508c0.025-3.901,3.785-6.684,7.519-5.565
	l89.459,26.235h4.257c0-9.97,15.48-9.986,15.48,0h21.31c0-9.97,15.48-9.986,15.48,0h25.131c0-9.97,15.48-9.986,15.48,0h22.017
	c0-9.97,15.48-9.986,15.48,0h22.016c0-9.97,15.48-9.986,15.48,0h23.048c0-9.97,15.48-9.986,15.48,0h6.45
	c17.054,0,30.879-13.839,30.879-30.909L256.402,465.826L256.402,465.826z"/>
<g>
	<path style="fill:#CE5782;" d="M200.873,470.5c-3.734-1.118-7.493,1.665-7.519,5.565l-0.01,2.265l62.757,18.404h4.257
		c0-3.36,2.141-6.213,5.129-7.286L200.873,470.5z"/>
	<path style="fill:#CE5782;" d="M101.431,494.959c0-4.334-3.716-7.892-8.027-7.734c4.142,0.153,7.453,3.551,7.453,7.734v6.644
		c0,0.612-0.078,1.204-0.212,1.776h0.574c0.134-0.571,0.212-1.163,0.212-1.776v-6.644H101.431z"/>
	<path style="fill:#CE5782;" d="M154.146,494.959v6.644c0,0.274,0.021,0.543,0.05,0.808c2.857-1.456,4.823-4.411,4.846-7.838
		l0.03-6.825C156.19,488.876,154.146,491.676,154.146,494.959z"/>
	<path style="fill:#CE5782;" d="M127.502,487.219c-4.263-0.083-7.895,3.46-7.895,7.74v6.644c0,0.612,0.078,1.204,0.212,1.776h0.309
		c-0.134-0.571-0.212-1.163-0.212-1.776v-6.644C119.916,490.732,123.298,487.302,127.502,487.219z"/>
	<path style="fill:#CE5782;" d="M67.201,498.809v2.794c0,0.612-0.078,1.204-0.212,1.776H85.59c-0.004-0.015-0.005-0.031-0.008-0.046
		C79.004,503.13,72.783,501.529,67.201,498.809z"/>
	<path style="fill:#CE5782;" d="M493.625,489.006c-3.235-0.155-6.415,1.904-7.588,4.934
		C488.812,492.67,491.366,491.002,493.625,489.006z"/>
	<path style="fill:#CE5782;" d="M54.205,489.284c-7.728-8.125-12.48-19.111-12.48-31.218v-16.332c0-2.547,2.062-4.611,4.607-4.611
		H12.101c-2.544,0-4.607,2.064-4.607,4.611v16.332c0,24.746,19.82,44.844,44.434,45.291c-0.131-0.565-0.207-1.15-0.207-1.755v-6.644
		C51.721,492.714,52.68,490.698,54.205,489.284z"/>
	<path style="fill:#CE5782;" d="M417.225,488.987c-4.275,0-7.74,3.469-7.74,7.748h3.266c0-3.718,2.617-6.82,6.107-7.572
		C418.331,489.05,417.787,488.987,417.225,488.987z"/>
	<path style="fill:#CE5782;" d="M275.837,496.734h14.494l-16.109-4.724C275.231,493.319,275.837,494.954,275.837,496.734z"/>
	<path style="fill:#CE5782;" d="M379.729,488.987c-4.276,0-7.74,3.469-7.74,7.748h3.267c0-3.718,2.617-6.82,6.107-7.572
		C380.835,489.05,380.29,488.987,379.729,488.987z"/>
	<path style="fill:#CE5782;" d="M454.722,488.987c-4.275,0-7.74,3.469-7.74,7.748h4.297c0-3.532,2.363-6.506,5.591-7.439
		C456.188,489.099,455.469,488.987,454.722,488.987z"/>
	<path style="fill:#CE5782;" d="M302.327,488.987c-4.275,0-7.74,3.469-7.74,7.748h2.559c0-3.842,2.796-7.021,6.461-7.633
		C303.19,489.032,302.765,488.987,302.327,488.987z"/>
	<path style="fill:#CE5782;" d="M339.117,488.987c-4.275,0-7.74,3.469-7.74,7.748h6.381c0-3.139,1.868-5.836,4.549-7.053
		C341.334,489.24,340.256,488.987,339.117,488.987z"/>
</g>
<path style="fill:#D65F86;" d="M262.296,54.592c-35.051,0-70.103,0-105.154,0c-25.413,0-50.826,0-76.239,0
	c-14.786,0-30.314,1.394-45.046,0c-6.214-0.588-6.685-3.727-6.685-9.623c0-6.075,0-12.149,0-18.224c0-3.938-0.966-9.484,0-13.328
	c2.158-8.579,22.504-4.795,29.29-4.795c49.327,0,98.653,0,147.981,0c17.58,0,36.072-1.662,53.592,0
	c7.916,0.751,6.685,6.787,6.685,13.567C266.721,27.067,270.321,54.592,262.296,54.592z"/>
<path style="fill:#CE5782;" d="M69.7,50.165V13.049c0-2.445,1.98-4.427,4.422-4.427H33.596c-2.443,0-4.422,1.982-4.422,4.427v37.116
	c0,2.445,1.98,4.427,4.422,4.427h40.527C71.68,54.592,69.7,52.61,69.7,50.165z"/>
<path style="fill:#E87490;" d="M68.938,282.775l22.445,42.533c7.554,14.315,22.4,23.272,38.573,23.272l0,0
	c18.301,0,34.657-11.435,40.958-28.635l34.049-92.948c4.862-13.273,17.484-22.097,31.607-22.097h19.221l0.578-150.307H39.17v210.224
	C51.651,264.817,63.107,271.728,68.938,282.775z"/>
<g>
	<path style="fill:#D65F86;" d="M69.121,264.817V54.592H39.17v210.224c12.481,0,23.937,6.912,29.767,17.958L69.121,264.817z"/>
	<path style="fill:#D65F86;" d="M130.882,129.26c-21.354,0.004-36.83-17.524-37.297-38.118c-0.276-12.17,0-24.376,0-36.549h74.593
		c0,12.074,0.235,24.173,0,36.245C167.775,111.57,152.435,129.26,130.882,129.26z"/>
</g>
<path style="fill:#FFFFFF;" d="M143.654,91.926c0,17.426-27.091,17.499-27.091,0C116.563,74.424,143.654,74.496,143.654,91.926z"/>
<path style="fill:#E87490;" d="M93.117,419.672c0-41.088-33.276-74.397-74.323-74.397l0,0h-0.791
	c-2.809,10.373-4.254,21.104-4.254,31.92v59.928h79.368C93.117,437.123,93.117,419.672,93.117,419.672z"/>
<path style="fill:#D65F86;" d="M48.46,351.455c-9.09-3.967-19.117-6.18-29.667-6.18h-0.791c-2.809,10.373-4.254,21.104-4.254,31.92
	v59.928h31.944v-59.928C45.693,368.511,46.64,359.887,48.46,351.455z"/>
<path d="M506.935,458.895v-5.111c0-14.272-6.422-32.697-37.015-39.425l-65.206-14.336c-4.05-0.885-8.039,1.669-8.929,5.71
	c-0.889,4.042,1.668,8.039,5.71,8.929l65.206,14.336c10.837,2.383,25.245,7.545,25.245,24.786v4.548H257.505l-50.962-15.342
	c-3.96-1.192-8.141,1.053-9.336,5.016c-1.193,3.963,1.053,8.142,5.016,9.336l52.02,15.661c0.7,0.211,1.429,0.318,2.16,0.318h238.966
	c-3.128,9.247-11.879,15.921-22.157,15.921H257.177l-88.384-25.92c-8.379-2.511-17.108,3.972-17.164,12.712l-0.081,18.493
	c-0.005,0.749-0.615,1.359-1.359,1.359h-15.039v-0.925c0-9.644-14.988-9.66-14.988,0v0.925h-19.551v-0.925
	c0-9.644-14.988-9.66-14.988,0v0.925h-18.67v-0.925c0-9.644-14.988-9.66-14.988,0v0.905c-20.461-0.429-36.979-17.214-36.979-37.8
	v-13.449h144.971l8.639,2.601c3.963,1.193,8.143-1.052,9.336-5.016c1.193-3.963-1.053-8.143-5.016-9.336l-9.696-2.919
	c-0.7-0.211-1.429-0.318-2.16-0.318h-60.451v-9.957c0-42.022-31.792-76.736-72.564-81.354c1.478-4.11,3.187-8.133,5.126-12.042
	c8.132-16.4,12.723-34.594,13.395-52.896c6.674,1.962,12.388,6.534,15.743,12.891l22.445,42.532
	c20.252,38.378,78.28,34.436,93.195-6.283l10.098-27.565c1.424-3.886-0.573-8.19-4.458-9.614c-3.89-1.424-8.191,0.573-9.614,4.459
	l-10.098,27.565c-10.548,28.794-51.565,31.544-65.867,4.442l-22.445-42.532c-5.957-11.29-16.646-18.993-28.901-21.251v-66.9
	c0-9.644-14.988-9.66-14.988,0v77.576c0,17.572-4.126,35.179-11.929,50.917c-8.828,17.797-13.493,37.707-13.493,57.576v53.948
	C2.53,433.209,0,437.18,0,441.734v16.332c0,29.117,23.669,52.806,52.761,52.806h97.428c8.957,0,16.29-7.29,16.347-16.266
	l0.071-16.307l87.385,25.626c0.685,0.201,1.395,0.303,2.108,0.303h4.554c0.969,8.566,13.915,8.577,14.885,0h21.904
	c0.969,8.566,13.915,8.577,14.885,0h25.727c0.969,8.566,13.915,8.577,14.885,0h22.613c0.968,8.566,13.915,8.577,14.884,0h22.613
	c0.968,8.566,13.915,8.577,14.884,0h23.644c0.968,8.566,13.915,8.577,14.884,0h6.749c11.639,0,22.78-5.434,30.017-14.53
	C508.007,483.691,518.104,463.487,506.935,458.895z M85.623,419.672v9.957h-64.38v-52.434c0-8.127,0.894-16.26,2.615-24.214
	C58.348,355.583,85.623,384.489,85.623,419.672z"/>
<path d="M31.676,61.917v96.629c0,9.644,14.988,9.66,14.988,0V62.086h39.428v29.877c0,24.381,20.41,44.79,44.79,44.79
	s44.79-20.409,44.79-44.79V62.086h73.234v135.32h-12.338c-17.196,0-32.726,10.856-38.644,27.014l-11.031,30.113
	c-1.424,3.886,0.573,8.19,4.458,9.614c3.791,1.387,8.229-0.676,9.614-4.459l11.031-30.113c3.765-10.277,13.639-17.181,24.572-17.181
	h12.338v22.129c0,75.096,47.742,144.252,118.051,170.655c3.781,1.419,8.234-0.611,9.65-4.381c1.455-3.875-0.507-8.195-4.381-9.65
	c-31.746-11.921-58.819-32.987-78.289-60.919c-19.655-28.197-30.043-61.291-30.043-95.705V61.966
	c5.817-0.785,10.321-5.77,10.321-11.799v-37.12c0-6.573-5.348-11.919-11.919-11.919H33.599c-6.572,0-11.919,5.347-11.919,11.919
	v37.12C21.679,56.083,26.018,60.993,31.676,61.917z M160.685,91.963c0,16.206-13.597,29.803-29.803,29.803
	s-29.803-13.596-29.803-29.803V62.086h59.605L160.685,91.963L160.685,91.963z M36.667,16.116h222.56v30.983h-2.827h-88.222H93.586
	H39.17h-2.503C36.667,47.099,36.667,16.116,36.667,16.116z"/>
<path d="M130.109,112.978c27.289,0,26.961-42.105,0-42.105C103.17,70.873,102.779,112.978,130.109,112.978z M130.109,85.861
	c7.76,0,7.755,12.053,0,12.129C122.393,98.066,122.272,85.861,130.109,85.861z"/>
<g>
</g>
<g>
</g>
<g>
</g>
<g>
</g>
<g>
</g>
<g>
</g>
<g>
</g>
<g>
</g>
<g>
</g>
<g>
</g>
<g>
</g>
<g>
</g>
<g>
</g>
<g>
</g>
<g>
</g>
</svg>
