<?xml version="1.0" encoding="iso-8859-1"?>
<!-- Generator: Adobe Illustrator 19.0.0, SVG Export Plug-In . SVG Version: 6.00 Build 0)  -->
<svg version="1.1" id="Capa_1" xmlns="http://www.w3.org/2000/svg" xmlns:xlink="http://www.w3.org/1999/xlink" x="0px" y="0px"
	 viewBox="0 0 512 512" style="enable-background:new 0 0 512 512;" xml:space="preserve">
<path style="fill:#B58B5B;" d="M17.837,442.949c0-18.911,0-37.824,0-56.735c0-6.614-0.136-13.244,0-19.857
	c0.374-18.171,10.795-33.346,11.163-51.531c0.59-29.176,0-58.426,0-87.607c0-48.296,0-96.591,0-144.887c0-15.196,0-30.393,0-45.589
	c0-10.424,2.455-19.321,15.067-19.561c40.148-0.764,80.384,0,120.538,0c20.163,0,40.327,0,60.49,0
	c11.245,0,24.457-1.641,25.35,13.826c2.151,37.302,0,75.359,0,112.714c0,33.548-0.26,67.106,0,100.653
	c0.538,69.332,51.795,130.075,120.821,140.304c21.461,3.181,43.992,1.537,65.616,1.537c11.981,0,23.278,1.43,33.54,8.284
	c13.927,9.301,21.605,24.685,21.992,41.241c0.191,8.157,0,16.339,0,24.498c-64.335,0-128.67,0-193.005,0
	c-24.221,0-48.521,0.574-72.737,0c-4.945-0.117-9.676-0.719-14.405-2.231c-8.118-2.597-14.242-8.27-22.008-11.496
	c-6.806-2.827-13.863-3.532-21.122-3.563c-14.631-0.064-29.263,0-43.893,0C89.44,442.949,53.638,442.949,17.837,442.949z"/>
<path style="fill:#A57D55;" d="M102.316,17.181H41.45c-6.876,0-12.45,5.577-12.45,12.455v285.306c0,8.869-1.903,17.636-5.581,25.707
	l0,0c-3.678,8.071-5.581,16.837-5.581,25.707v76.592h111.199L102.316,17.181z"/>
<g>
	<path style="fill:#96704E;" d="M77.039,340.65L77.039,340.65c3.678-8.071,5.581-16.837,5.581-25.707V29.636
		c0-6.879,5.575-12.455,12.45-12.455H41.45c-6.876,0-12.45,5.577-12.45,12.455v285.306c0,8.869-1.903,17.636-5.581,25.707l0,0
		c-3.678,8.071-5.581,16.837-5.581,25.707v76.592h53.621v-76.592C71.457,357.487,73.36,348.72,77.039,340.65z"/>
	<path style="fill:#96704E;" d="M43.402,314.714H28.999v0.228c0,8.869-1.903,17.636-5.581,25.707s-5.581,16.837-5.581,25.707v82.534
		l153.751-5.942l0,0C171.588,372.127,114.197,314.714,43.402,314.714z"/>
</g>
<path style="fill:#896649;" d="M23.413,340.65L23.413,340.65c-3.678,8.071-5.581,16.837-5.581,25.707v76.592h53.621v-76.592
	c0-8.869,1.903-17.636,5.581-25.707l0,0c2.873-6.305,4.646-13.036,5.293-19.907c-12.278-3.91-25.356-6.029-38.928-6.029H28.995
	v0.228l0,0C28.995,323.812,27.091,332.579,23.413,340.65z"/>
<path style="fill:#604F44;" d="M469.728,494.819c-55.653,0-111.305,0-166.958,0c-79.618,0-159.236,0-238.854,0
	c-8.296,0-16.593,0.06-24.889,0C21.144,494.691,6.881,482.878,7.587,464c0.28-7.468-1.024-19.736,8.508-21.052
	c3.694-0.51,7.823,0,11.54,0c19.099,0,38.199,0,57.298,0c21.002,0,42.002,0,63.004,0c12.772,0,27.65-1.664,39.88,2.629
	c7.557,2.653,13.434,8.053,20.766,11.099c5.793,2.406,11.828,3.414,18.078,3.563c2.342,0.056,4.691,0,7.033,0
	c13.224,0,26.446,0,39.67,0c75.281,0,150.562,0,225.842,0c1.696,0,3.393,0,5.09,0C504.299,479.068,488.561,494.819,469.728,494.819z
	"/>
<path style="fill:#493C35;" d="M65.751,464.122l1.108-14.503c0.288-3.764,3.424-6.67,7.197-6.67H15.883
	c-3.773,0-6.909,2.907-7.197,6.67l-1.108,14.503c-1.264,16.561,11.827,30.697,28.431,30.697h58.173
	C77.579,494.819,64.487,480.684,65.751,464.122z"/>
<g>
	<path style="fill:#845D36;" d="M161.465,131.797H28.999V90.664c23.853,0,47.707,0,71.56,0c17.615,0,35.229,0,52.844,0
		c9.614,0,19.84-1.012,29.412,0c8.751,0.925,8.478,9.449,7.371,16.561C188.014,121.189,175.588,131.797,161.465,131.797z"/>
	<path style="fill:#845D36;" d="M277.34,327.507c-7.625-10.528-13.844-22.141-18.371-34.57h-0.001
		c-47.149,21.717-94.298,43.436-141.447,65.153c-5.192,2.391-11.404,4.319-16.202,7.463c-9.313,6.103,0.074,13.51,5.416,18.082
		c9.226,7.896,20.949,11.643,33,8.764c8.027-1.918,15.846-6.687,23.226-10.215c13.634-6.517,27.267-13.035,40.901-19.552
		C228.353,350.924,252.847,339.216,277.34,327.507z"/>
</g>
<path d="M504.295,452.742h-4.385v-17.137c0-31.366-25.511-56.886-56.868-56.886h-50.829c-74.038,0-134.273-60.259-134.273-134.327
	V62.472c0-9.648-14.994-9.664-14.994,0v181.92c0,15.509,2.378,30.472,6.784,44.546l-82.773,38.127l-0.182,0.084l0,0l-32.536,14.986
	c-3.769-3.403-7.695-6.577-11.766-9.509l-4.319-67.272c-0.265-4.131-3.811-7.271-7.962-7.001c-4.132,0.265-7.267,3.829-7.001,7.962
	l3.634,56.594c-19.328-10.246-40.987-15.692-63.422-15.692h-6.906V139.294H95.04l5.186,80.781c0.259,4.028,3.931,7.266,7.962,7.001
	c4.132-0.265,7.267-3.829,7.001-7.962l-5.124-79.82h9.632h14.129h27.64c20.161,0,36.563-16.402,36.563-36.563v-5.34
	c0-7.843-6.381-14.224-14.223-14.224h-50.22c-0.138-0.004-0.276-0.004-0.414,0h-14.476h-12.235l-3.754-58.489h135.287
	c6.352,0,4.036,8.723,8.666,11.431c4.223,2.471,9.61,0.134,11.014-4.48c3.437-11.302-9.64-21.945-19.679-21.945H41.45
	c-11,0-19.948,8.95-19.948,19.952v61.028v41.133v182.918v0.228c0,7.851-1.65,15.454-4.905,22.598
	c-4.151,9.108-6.256,18.803-6.256,28.816v70.196c-5.01,2.061-8.697,6.819-9.13,12.496l-1.107,14.503
	c-0.762,9.97,2.699,19.895,9.494,27.229c6.792,7.331,16.419,11.535,26.411,11.535h354.89c9.648,0,9.664-14.994,0-14.994H36.009
	c-5.917,0-11.391-2.391-15.413-6.732c-4.024-4.344-5.993-9.99-5.542-15.897l1.088-14.247h1.695h153.751h0.804
	c8.176,0,16.017,2.508,22.678,7.253c9.215,6.566,20.065,10.037,31.378,10.037h265.965h3.33
	c-3.258,11.299-13.687,19.586-26.015,19.586h-45.86c-9.648,0-9.664,14.994,0,14.994h45.858c13.307,0,26.075-6.518,33.937-17.243
	C508.002,479.157,519.679,452.742,504.295,452.742z M143.664,383.099c-10.466,5.003-22.789,3.21-31.394-4.567l-7.16-6.469
	l80.394-37.03l0.606-0.279c6.253-2.879,13.554-0.305,16.618,5.862c1.521,3.062,1.746,6.529,0.632,9.763
	c-1.113,3.232-3.424,5.823-6.507,7.296l-11.536,5.515L143.664,383.099z M216.153,333.94c-1.902-3.827-4.553-7.02-7.685-9.488
	l46.445-21.393c3.18,7.434,6.966,14.604,11.323,21.445l-47.193,22.56C219.183,342.572,218.214,338.087,216.153,333.94z
	 M119.696,124.3h-83.2v-26.14h96.952c6.625,0.016,12.225,5.612,12.522,12.562c0.148,3.47-1.152,6.944-3.566,9.533
	c-2.329,2.497-5.412,3.93-8.692,4.043L119.696,124.3L119.696,124.3z M183.035,102.731c0,11.893-9.676,21.569-21.569,21.569h-3.732
	c4.252-8.129,4.262-18.02-0.006-26.139h25.308L183.035,102.731L183.035,102.731z M41.45,24.678h46.231l3.755,58.489h-54.94v-53.53
	C36.496,26.902,38.719,24.678,41.45,24.678z M25.335,435.452v-69.095c0-7.853,1.65-15.456,4.905-22.598
	c3.171-6.956,5.138-14.255,5.895-21.776l7.268,0.229c24.385,0,47.738,7.231,67.54,20.654c0.113,0.079,0.225,0.157,0.342,0.23
	c2.728,1.863,5.388,3.844,7.974,5.942l-21.077,9.708c-9.288,4.279-11.249,17.101-3.659,23.961l7.693,6.95
	c12.966,11.717,32.144,14.509,47.914,6.97l3.952-1.889c5.649,12.92,8.932,26.559,9.785,40.715L25.335,435.452L25.335,435.452z
	 M226.447,452.742c-8.176,0-16.017-2.508-22.678-7.254c-7.433-5.296-15.931-8.575-24.875-9.646
	c-0.84-16.556-4.614-32.504-11.273-47.577l22.887-10.941c0.004-0.002,0.009-0.003,0.013-0.005l10.758-5.144l73.832-35.294
	c27.362,34.594,69.683,56.831,117.102,56.831h50.829c23.09,0,41.874,18.792,41.874,41.892v17.137H226.447z"/>
<g>
</g>
<g>
</g>
<g>
</g>
<g>
</g>
<g>
</g>
<g>
</g>
<g>
</g>
<g>
</g>
<g>
</g>
<g>
</g>
<g>
</g>
<g>
</g>
<g>
</g>
<g>
</g>
<g>
</g>
</svg>
