<?xml version="1.0" encoding="iso-8859-1"?>
<!-- Generator: Adobe Illustrator 19.0.0, SVG Export Plug-In . SVG Version: 6.00 Build 0)  -->
<svg version="1.1" id="Capa_1" xmlns="http://www.w3.org/2000/svg" xmlns:xlink="http://www.w3.org/1999/xlink" x="0px" y="0px"
	 viewBox="0 0 512 512" style="enable-background:new 0 0 512 512;" xml:space="preserve">
<path style="fill:#E07F65;" d="M364.096,244.869c-59.363-31.317-113.779-71.86-160.78-119.772
	c-15.659-13.33-28.892,18.58-32.217,28.769c-3.505,10.742-5.211,22.793-3.444,34.053l187.83,61.612L364.096,244.869z"/>
<path style="fill:#F49E73;" d="M501.111,308.536c0-24.119-13.34-46.041-38.136-51.35c-49.128-4.803-97.649-9.072-144.858-24.829
	c-32.046-10.696-62.216-25.446-91.035-42.989c-7.374-4.489-14.624-9.386-22.205-13.518c-5.634-3.071-11.76-4.316-18.045-2.435
	c-7.109,2.126-11.266,8.1-16.768,12.613c-27.457,22.524-68.567,21.172-94.558-2.985c-4.313-4.997-8.812-12.395-16.534-10.608
	c-7.126,1.649-8.153,8.68-9.77,14.621c-5.017,18.433-10.627,36.636-11.61,55.859c-1.145,22.363-0.205,44.933-0.205,67.325
	c0,14.176,0,28.353,0,42.53l440.574-7.809L501.111,308.536z"/>
<g>
	<path style="fill:#EF9067;" d="M497.018,314.975l4.093-6.44v-4.201c0-2.964-0.276-5.873-0.795-8.705l-41.738,49.677l13.153-0.233
		L497.018,314.975z"/>
	<path style="fill:#EF9067;" d="M91.868,304.82v-54.19c0-13.385,1.781-26.71,5.297-39.625l3.479-12.778
		c-9.069-3.18-17.648-8.223-25.136-15.182l-6.229-7.218c-5.511-6.386-15.922-4.025-18.136,4.113l-8.457,31.064
		c-3.516,12.915-5.297,26.241-5.297,39.625v54.19v47.953l54.48-0.966V304.82z"/>
</g>
<path style="fill:#F2EDEC;" d="M124.17,301.076v-10.549c0-17.292-14.024-31.31-31.323-31.31H37.388v45.602v8.651l86.781,3.824
	V301.076z"/>
<polygon style="fill:#E4DAD8;" points="91.867,313.471 91.867,304.82 91.867,259.216 37.388,259.216 37.388,304.82 37.388,313.471 
	124.17,317.294 124.17,315.001 "/>
<path style="fill:#E6E9ED;" d="M477.034,325.429c-67.861,22.163-141.146,30.348-210.596,10.668
	c-32.23-9.133-63.286-21.725-96.173-28.59c-40.906-8.538-83.27-9.432-124.657-3.998c-7.343,0.965-12.83,1.545-16.662,8.305
	c-2.422,4.273-4.544,8.742-6.808,13.101c-4.825,9.285-9.651,18.571-14.476,27.856c0.152,20.637,16.786,36.419,37.057,37.025
	c6.726,0.201,13.488,0,20.216,0c27.172,0,54.346,0,81.518,0c3.424,0,7.144,0.409,10.55,0c2.283-0.274,4.389-0.526,5.969-2.548
	c2.899-3.711,1.164-11.677,8.885-10.112c12.589,2.192,25.178,4.385,37.767,6.577c12.143,2.114,24.759,5.558,37.111,6.083
	c26.06,1.109,52.403,0,78.482,0c15.646,0,31.292,0,46.938,0c9.135,0,17.74,0.16,26.68-2.401c26.824-7.683,53.8-15.304,80.37-23.82
	c10.385-3.329,18.847-10.076,22.923-20.425c3.331-8.459,2.374-18.089,2.374-27.022c0-4.758,0.007-9.221-6.219-8.58
	c-6.371,0.656-13.429,6.815-17.228,11.558c-5.415,6.76-8.607,15.634-12.409,23.356c-4.66,9.463-9.32,18.925-13.98,28.388"/>
<g>
	<path style="fill:#CFD2DC;" d="M503.88,337.169c0.405-2.097,0.622-4.253,0.622-6.448v-3.735v-15.328
		c0-3.035-2.969-5.181-5.853-4.232l-1.465,0.483c-8.798,2.898-16.06,9.212-20.152,17.519
		c-34.353,11.219-65.191,17.431-92.689,20.208C416.69,349.136,456.335,348.127,503.88,337.169z"/>
	<path style="fill:#CFD2DC;" d="M76.572,352.772L76.572,352.772l24.567-47.274c8.087-1.342,18.287-2.775,30.175-3.825
		c-20.035-1.847-40.221-2.007-60.293-0.671c-8.132,0.542-16.249,1.328-24.332,2.368c-6.768,0.871-13.032,0.927-17.055,7.12
		c-8.526,13.127-14.749,28.381-21.973,42.281c0.118,15.935,10.509,30.408,25.759,35.277c7.832,2.5,16.536,1.748,24.659,1.748
		c18.511,0,37.022,0,55.534,0C93.156,389.798,76.572,373.221,76.572,352.772z"/>
</g>
<path style="fill:#333F61;" d="M87.129,352.772H7.661l0,0c0,20.448,16.584,37.025,37.041,37.025h79.468l0,0
	C124.17,369.349,107.586,352.772,87.129,352.772z"/>
<path style="fill:#253551;" d="M76.572,352.772L76.572,352.772H7.661l0,0c0,20.448,16.584,37.025,37.041,37.025h68.911
	C93.156,389.798,76.572,373.221,76.572,352.772z"/>
<path style="fill:#333F61;" d="M263.748,368.464l-21.316,20.963l0,0c1.412,0.246,2.842,0.37,4.275,0.37h124.348l-83.778-26.917
	C279.005,360.223,269.942,362.374,263.748,368.464z"/>
<path d="M508.578,303.317c-0.323-17.499-8.915-33.969-23.16-44.217c-3.36-2.418-8.047-1.654-10.465,1.707
	c-2.418,3.361-1.653,8.046,1.707,10.465c9.781,7.038,15.916,18.087,16.822,30.001c-8.999,3.317-16.669,9.709-21.574,17.923
	c-59.218,18.968-114.744,24.934-165.293,17.787l-42.856-9.287c-1.088-0.301-2.179-0.588-3.264-0.897
	c-2.891-0.823-5.583-1.621-8.132-2.404l-38.742-13.096c-3.558-1.149-7.38-2.329-11.604-3.552c-0.368-0.107-0.741-0.208-1.11-0.314
	l-42.229-9.735c-7.309-1.24-14.669-2.268-21.937-3.037c-1.679-0.177-3.378-0.331-5.074-0.485v-3.65
	c0-21.399-17.415-38.808-38.821-38.808h-47.96v-1.09c0-12.715,1.693-25.385,5.033-37.656l8.456-31.065
	c0.416-1.528,1.592-2.008,2.256-2.159c0.666-0.15,1.935-0.225,2.971,0.977l6.228,7.218c2.706,3.136,7.439,3.482,10.575,0.778
	c3.135-2.706,3.482-7.44,0.777-10.575l-6.228-7.218c-4.365-5.057-11.12-7.282-17.64-5.802c-6.515,1.479-11.651,6.4-13.406,12.845
	l-8.456,31.065c-3.69,13.555-5.56,27.549-5.56,41.595v48.968c-2.84,1.699-5.208,4.163-6.77,7.168L1.07,349.197
	c-0.001,0.002-0.002,0.004-0.003,0.006l-0.058,0.112c-0.02,0.038-0.033,0.08-0.053,0.118c-0.1,0.2-0.191,0.404-0.273,0.613
	c-0.028,0.071-0.053,0.143-0.079,0.216c-0.069,0.195-0.13,0.393-0.183,0.594c-0.021,0.077-0.042,0.153-0.06,0.231
	c-0.047,0.206-0.084,0.415-0.114,0.626c-0.01,0.071-0.024,0.141-0.032,0.213c-2.766,24.458,21.609,45.37,44.488,45.37h113.089
	c3.753,0,7.409-1.536,10.03-4.215c2.254-2.304,3.588-5.235,3.828-8.369l11.435,1.991c4.084,0.708,7.962-2.021,8.673-6.1
	c0.711-4.08-2.02-7.962-6.1-8.672l-12.433-2.165c-4.122-0.798-8.328,0.285-11.554,2.981c-2.894,2.418-4.648,5.843-4.938,9.554
	h-25.71c-3.578-20.991-21.892-37.026-43.894-37.026h-67.12l16.419-31.594c0.327-0.629,0.861-1.113,1.492-1.39
	c0.667-0.047,1.308-0.179,1.914-0.389c22.556-3.363,45.476-4.758,68.15-4.126c9.171,0.256,18.317,0.861,27.183,1.797
	c8.115,0.858,16.36,2.038,24.447,3.497c13.034,2.454,25.897,5.508,38.233,9.08c19.729,5.711,38.784,13.45,58.544,19.072
	c10.686,3.039,21.512,5.701,32.253,7.927c0.021,0.004,0.042,0.009,0.063,0.014c0.014,0.003,0.027,0.006,0.041,0.009
	c53.134,10.455,111.556,6.582,173.884-11.472l-13.243,26.89l-54.08,16.029c-3.76,1.115-7.654,1.679-11.573,1.679H372.23
	l-82.66-26.559c-10.964-3.522-22.872-0.695-31.079,7.378l-18.569,18.263l-23.062-4.016c-4.076-0.714-7.962,2.02-8.673,6.1
	c-0.711,4.08,2.02,7.962,6.1,8.672l26.859,4.677c1.832,0.319,3.703,0.48,5.56,0.48h124.324c0.017,0.003,0.033,0.003,0.05,0h12.656
	c5.363,0,10.691-0.773,15.834-2.297l57.155-16.941c0.047-0.013,0.094-0.027,0.14-0.041l25.446-7.542
	C499.792,365.293,512,348.947,512,330.72v-19.063C511.999,308.52,510.738,305.531,508.578,303.317z M115.704,382.3H44.702
	c-13.699,0-25.247-9.368-28.575-22.031H87.13C100.828,360.27,112.376,369.638,115.704,382.3z M44.886,296.049v-29.335h47.962
	c13.138,0,23.825,10.683,23.825,23.812v2.591C92.724,291.921,68.66,292.945,44.886,296.049z M284.984,370.019l38.226,12.282h-62.837
	l8.633-8.49C273.225,369.661,279.347,368.208,284.984,370.019z M497.004,330.721c0,11.634-7.794,22.069-18.954,25.377l-9.089,2.694
	l14.798-30.051c2.78-5.647,7.524-10.177,13.245-12.733V330.721z"/>
<path d="M98.157,205.317c29.735,10.427,62.85,2.297,84.365-20.711c4.673-4.996,12.292-6.052,18.147-2.534l-7.991,9.511
	c-2.664,3.17-2.253,7.899,0.918,10.564c3.099,2.604,7.971,2.166,10.563-0.917l9.471-11.272l14.692,8.944
	c0.582,0.354,1.17,0.699,1.752,1.05l-5.098,6.068c-2.664,3.171-2.253,7.899,0.918,10.564c3.099,2.604,7.971,2.166,10.563-0.917
	l6.8-8.093c5.383,2.983,10.833,5.851,16.345,8.6l-3.38,4.023c-2.664,3.17-2.253,7.899,0.918,10.564
	c3.099,2.604,7.971,2.166,10.563-0.917l5.891-7.012c28.274,12.852,57.969,22.675,88.333,29.203c0.45,0.137,0.905,0.238,1.362,0.288
	c15.44,3.267,31.048,5.689,46.725,7.222l37.706,3.687c0.248,0.024,0.494,0.036,0.738,0.036c3.812,0,7.075-2.895,7.454-6.769
	c0.402-4.122-2.611-7.788-6.733-8.191l-37.706-3.687c-15.062-1.473-30.058-3.797-44.895-6.929
	c-24.006-12.721-47.374-27.089-69.561-42.738l0.662-0.788c2.664-3.17,2.253-7.899-0.918-10.564
	c-3.169-2.664-7.899-2.253-10.563,0.917l-1.373,1.634c-4.833-3.584-9.625-7.234-14.363-10.958l0.847-1.008
	c2.664-3.17,2.253-7.899-0.918-10.564c-3.17-2.664-7.898-2.252-10.563,0.917l-1.047,1.247c-4.891-4.032-9.729-8.132-14.5-12.308
	l0.95-1.131c2.664-3.17,2.253-7.899-0.918-10.564c-3.169-2.664-7.899-2.252-10.563,0.917l-0.643,0.765
	c-8.358-7.664-16.514-15.54-24.437-23.617c-0.157-0.161-0.321-0.314-0.492-0.459c-7.989-6.8-19.877-6.121-27.06,1.548
	c-4.553,4.857-8.85,11.475-12.775,19.668c-8.92,18.619-9.181,35.599-8.619,43.701c-16.534,10.792-37.427,13.585-56.602,6.862
	c-3.91-1.37-8.186,0.688-9.556,4.595C92.192,199.667,94.249,203.947,98.157,205.317z M308.927,221.127
	c-8.547-3.133-16.989-6.547-25.309-10.229l3.717-4.424C294.417,211.492,301.62,216.377,308.927,221.127z M275.159,197.653
	l-5.623,6.694c-5.545-2.706-11.028-5.534-16.443-8.483l7.717-9.185C265.546,190.405,270.331,194.063,275.159,197.653z
	 M249.134,177.266l-9.29,11.057c-1.245-0.739-2.488-1.479-3.724-2.23l-12.732-7.751l11.243-13.382
	C239.405,169.133,244.243,173.233,249.134,177.266z M181.862,147.082c3.263-6.809,6.692-12.156,10.194-15.894
	c1.645-1.754,4.321-1.97,6.199-0.542c8.168,8.315,16.575,16.425,25.193,24.311l-13.02,15.496l-1.889-1.15
	c-10.572-6.435-24.005-5.462-33.55,1.96C175.733,164.455,177.601,155.978,181.862,147.082z"/>
<g>
</g>
<g>
</g>
<g>
</g>
<g>
</g>
<g>
</g>
<g>
</g>
<g>
</g>
<g>
</g>
<g>
</g>
<g>
</g>
<g>
</g>
<g>
</g>
<g>
</g>
<g>
</g>
<g>
</g>
</svg>
