<?xml version="1.0" encoding="iso-8859-1"?>
<!-- Generator: Adobe Illustrator 19.0.0, SVG Export Plug-In . SVG Version: 6.00 Build 0)  -->
<svg version="1.1" id="Capa_1" xmlns="http://www.w3.org/2000/svg" xmlns:xlink="http://www.w3.org/1999/xlink" x="0px" y="0px"
	 viewBox="0 0 512.001 512.001" style="enable-background:new 0 0 512.001 512.001;" xml:space="preserve">
<g>
	<path style="fill:#8E96A4;" d="M74.623,371.404c-5.926,0-14.202,1.676-16.676-5.398c-1.554-4.446-0.263-11.065-0.263-15.702h24.29
		C81.976,356.623,84.649,371.404,74.623,371.404z"/>
	<path style="fill:#8E96A4;" d="M122.214,371.404c-5.926,0-14.202,1.676-16.676-5.398c-1.554-4.446-0.263-11.065-0.263-15.702h24.29
		C129.566,356.623,132.238,371.404,122.214,371.404z"/>
	<path style="fill:#8E96A4;" d="M326.452,371.404c-5.926,0-14.202,1.676-16.676-5.398c-1.554-4.446-0.263-11.065-0.263-15.702h24.29
		C333.804,356.623,336.476,371.404,326.452,371.404z"/>
	<path style="fill:#8E96A4;" d="M382.386,371.404c-5.925,0-14.202,1.676-16.676-5.398c-1.554-4.446-0.263-11.065-0.263-15.702h24.29
		C389.739,356.623,392.411,371.404,382.386,371.404z"/>
	<path style="fill:#8E96A4;" d="M438.32,371.404c-5.925,0-14.202,1.676-16.676-5.398c-1.554-4.446-0.263-11.065-0.263-15.702h24.29
		C445.672,356.623,448.346,371.404,438.32,371.404z"/>
</g>
<path style="fill:#CFD2DC;" d="M76.066,363.941c-3.913,0-8.665,0.818-12.469,0c-7.162-1.541-5.911-7.791-5.911-13.635h24.29
	C81.976,355.044,83.303,363.941,76.066,363.941z"/>
<g>
	<path style="fill:#E6E9ED;" d="M123.655,363.941c-3.913,0-8.665,0.818-12.469,0c-7.162-1.541-5.911-7.791-5.911-13.635h24.29
		C129.566,355.044,130.893,363.941,123.655,363.941z"/>
	<path style="fill:#E6E9ED;" d="M327.893,363.941c-3.913,0-8.665,0.818-12.469,0c-7.162-1.541-5.911-7.791-5.911-13.635h24.29
		C333.804,355.044,335.131,363.941,327.893,363.941z"/>
	<path style="fill:#E6E9ED;" d="M383.828,363.941c-3.913,0-8.665,0.818-12.469,0c-7.162-1.541-5.911-7.791-5.911-13.635h24.29
		C389.739,355.044,391.066,363.941,383.828,363.941z"/>
	<path style="fill:#E6E9ED;" d="M439.762,363.941c-3.913,0-8.665,0.818-12.469,0c-7.162-1.541-5.911-7.791-5.911-13.635h24.29
		C445.672,355.044,446.999,363.941,439.762,363.941z"/>
	<path style="fill:#E6E9ED;" d="M446.42,350.404c-51.069,0.125-102.142,0.443-153.21,0.346
		c-62.459-0.12-124.917-0.445-187.376-0.445c-18.131,0-36.278,0.225-54.408,0c-10.555-0.131-20.225-4.755-24.51-14.971
		c-3.363-8.015-1.946-18.139-1.946-26.647h479.53C494.455,332.937,473.585,350.338,446.42,350.404z"/>
</g>
<g>
	<path style="fill:#CFD2DC;" d="M75.842,325.811v-17.124H24.968v17.124c0,13.527,10.972,24.493,24.507,24.493h50.874
		C86.814,350.305,75.842,339.339,75.842,325.811z"/>
	<path style="fill:#CFD2DC;" d="M504.498,308.688c0.357-25.33-18.106-45.024-42.034-50.285
		c-16.229-3.568-32.501-6.942-48.745-10.434c-61.199-13.152-118.401-40.57-166.024-81.376
		c-14.446-12.378-33.808-38.647-53.633-19.605c-10.021,9.625-18.903,20.524-28.549,30.528
		c-19.308,20.025-47.804,28.626-74.856,21.272c-12.491-3.396-23.305-10.013-32.775-18.732c-5.218-4.805-13.827-16.45-21.692-9.447
		c-5.024,4.474-7.272,14.878-9.804,20.774c-3.601,8.386-7.241,16.757-10.804,25.159c-12.879,30.375-10.182,65.14,9.384,92.146"/>
</g>
<path style="fill:#B8C3CC;" d="M67.116,218.135l10.422-24.271c-6.533-3.18-12.715-7.358-18.312-12.56l-11.364-10.56
	c-4.392-4.081-11.503-2.579-13.867,2.928l-19.093,44.464c-12.819,29.852-8.996,64.241,10.067,90.554l0,0h52.215l0,0
	C58.12,282.376,54.297,247.987,67.116,218.135z"/>
<path style="fill:#8E96A4;" d="M88.916,252.798c0,31.027-48.085,30.915-48.085,0C40.831,221.875,88.916,221.769,88.916,252.798z"/>
<path style="fill:#7A8593;" d="M63.293,228.826c-28.5,1.85-29.325,44.886-0.962,47.866
	C58.468,261.061,58.728,244.546,63.293,228.826z"/>
<path style="fill:#E6E9ED;" d="M191.035,170.458c20.135,1.205,32.565,21.909,47.782,32.582c16.749,11.747,34.367,21.481,53.529,28.7
	c40.203,15.147,81.821,21.543,124.739,16.999l-0.031-0.055l-6.201-1.327C346.867,233.66,287.665,203.23,239.3,159.175
	l-14.721-13.409c-8.793-8.008-22.393-7.464-30.516,1.222l-28.607,30.59C171.344,174.003,180.359,169.819,191.035,170.458z"/>
<path style="fill:#FFFFFF;" d="M141.298,308.688c0.151-16.317,13.208-28.111,29.058-28.642c9.401-0.315,18.866,0,28.272,0
	c9.358,0,18.765-0.284,28.12,0c15.789,0.479,29.213,12.247,29.209,28.642"/>
<path style="fill:#E6E9ED;" d="M195.139,280.045h-25.182c-15.828,0-28.659,12.823-28.659,28.642h25.182
	C166.48,292.869,179.311,280.045,195.139,280.045z"/>
<path d="M96.417,252.798c0-17.163-14.394-31.53-31.544-31.53s-31.544,14.367-31.544,31.53c0,17.166,14.391,31.53,31.544,31.53
	C82.023,284.328,96.417,269.959,96.417,252.798z M48.332,252.798c0-21.281,33.083-21.31,33.083,0
	C81.415,274.092,48.332,274.112,48.332,252.798z"/>
<path d="M512,308.181c0-27.145-19.274-50.972-45.83-56.656l-53.747-11.504c-25.513-5.461-50.279-13.657-73.873-24.367l3.013-3.249
	c6.564-7.078-4.427-17.292-11.001-10.201l-6.16,6.643c-5.007-2.539-9.953-5.196-14.837-7.965l4.107-4.429
	c6.564-7.078-4.426-17.291-11.001-10.201l-6.295,6.788c-4.891-3.054-9.711-6.222-14.454-9.509l5.01-5.402
	c6.564-7.078-4.426-17.291-11.001-10.201l-6.242,6.731c-4.45-3.367-8.827-6.836-13.124-10.412l4.893-5.277
	c6.564-7.078-4.427-17.293-11.001-10.201l-5.231,5.641c-0.29-0.262-0.584-0.519-0.874-0.783L229.63,140.22
	c-11.764-10.716-30.177-9.979-41.047,1.644l-28.607,30.59c-25.446,27.21-68.352,28.714-95.644,3.353l-11.363-10.56
	c-3.848-3.576-9.213-5.061-14.352-3.976c-5.139,1.085-9.443,4.614-11.515,9.44l-7.873,18.336c-1.634,3.807,0.126,8.217,3.934,9.853
	c3.806,1.634,8.217-0.126,9.853-3.934l7.873-18.336c0.158-0.368,0.438-0.597,0.831-0.68c0.393-0.085,0.744,0.013,1.038,0.287
	l11.363,10.561c33.041,30.704,84.809,29.149,115.983-3.25c7.015-4.107,13.905-5.995,20.486-5.603
	c10.39,0.622,17.729,7.837,26.227,16.191c26.129,25.689,59.902,41.029,94.391,52.006c24.381,7.76,50.086,11.659,76.732,11.658
	c9.504,0,19.132-0.508,28.858-1.502l46.237,9.897c17.361,3.716,30.516,17.894,33.379,34.99h-233.74
	c-3.071-14.483-19.836-32.305-36.368-28.508c-8.578,1.97-8.127,12.499,0,14.735c9.124,2.509,16.857,3.566,20.753,13.773h-96.854
	c3.038-7.96,10.736-13.639,19.755-13.639h25.182c9.654,0,9.67-15.003,0-15.003h-25.182c-17.366,0-31.906,12.301-35.371,28.642
	H28.915c-15.552-23.636-18.336-53.972-7.12-80.093c1.634-3.807-0.126-8.217-3.934-9.853c-15.548-6.67-18.009,36.683-17.854,45.032
	c0.362,19.467,6.432,38.713,17.46,54.776v14.762c0,17.642,14.358,31.996,32.008,31.996h0.709v6.245
	c0,8.19,6.664,14.855,14.855,14.855h9.586c8.19,0,14.854-6.664,14.854-14.855v-6.245h8.296v6.245c0,8.19,6.663,14.855,14.854,14.855
	h9.586c8.19,0,14.854-6.664,14.854-14.855v-6.245h0.372c3.728,0,17.858,0.045,37.152,0.108l36.005,0.114
	c9.592,0,9.783-14.973,0.046-15.003l-36.002-0.114c-19.318-0.063-33.468-0.108-37.2-0.108h-7.873h-24.29h-23.3H57.686h-8.21
	c-9.377,0-17.006-7.623-17.006-16.993v-9.623h460.285c-9.508,16.386-27.014,26.668-46.352,26.715l-144.977,0.354
	c-4.978,0.013-34.979-0.075-60.556-0.152c-4.07,0-7.511,3.39-7.523,7.479c-0.012,4.143,3.336,7.511,7.479,7.523
	c20.211,0.061,40.426,0.214,60.637,0.152l0.551-0.001v6.247c0,8.19,6.663,14.854,14.854,14.854h9.586
	c8.19,0,14.854-6.663,14.854-14.854v-6.341l16.641-0.041v6.384c0,8.19,6.663,14.854,14.854,14.854h9.586
	c8.19,0,14.855-6.663,14.855-14.854v-6.48l16.641-0.041v6.52c0,8.19,6.663,14.854,14.854,14.854h9.586
	c8.19,0,14.854-6.663,14.854-14.854v-6.954c25.066-2.499,46.855-18.47,56.639-42.092l1.583-3.824c0.01-0.023,0.019-0.047,0.029-0.07
	l0.004-0.009c0.003-0.006,0.004-0.013,0.007-0.019c0.105-0.254,0.193-0.517,0.269-0.784c0.021-0.073,0.038-0.146,0.057-0.22
	c0.051-0.201,0.094-0.405,0.128-0.612c0.05-0.284,0.08-0.57,0.091-0.859c0.005-0.093,0.013-0.185,0.014-0.278
	c0-0.033,0.005-0.065,0.005-0.098v-0.504H512z M239.85,194.581c-15.997-11.446-26.752-30.316-48.366-31.609
	c-0.676-0.04-1.353-0.062-2.03-0.071l10.088-10.787c5.293-5.658,14.258-6.018,19.986-0.8l14.721,13.409
	c0.256,0.233,0.517,0.461,0.774,0.693l-4.707,5.076c-2.816,3.038-2.637,7.784,0.4,10.601c2.969,2.753,7.835,2.583,10.601-0.4
	l5.033-5.428c4.289,3.584,8.65,7.07,13.085,10.453l-3.647,3.932c-2.816,3.038-2.637,7.784,0.4,10.601
	c2.971,2.754,7.834,2.583,10.601-0.4l4.837-5.216c4.72,3.31,9.514,6.507,14.375,9.595l-1.488,1.605
	c-2.816,3.038-2.637,7.784,0.4,10.601c2.97,2.754,7.834,2.583,10.601-0.4l3.574-3.854c4.882,2.828,9.83,5.54,14.832,8.146
	c-1.943,3.002-1.517,7.052,1.194,9.568c2.97,2.753,7.835,2.583,10.601-0.4l2.11-2.275c11.35,5.334,22.97,10.104,34.816,14.288
	c-16.117-1.641-31.784-4.854-46.887-9.661C282.479,221.256,265.454,212.898,239.85,194.581z M122.065,357.807v6.097h-9.288v-6.097
	H122.065z M74.475,357.807v6.097h-9.289v-6.097H74.475z M326.303,364.357h-9.288v-6.097h9.288V364.357z M382.237,364.357h-9.289
	v-6.097h9.289V364.357z M438.171,364.357h-9.288v-6.097h9.288V364.357z"/>
<g>
</g>
<g>
</g>
<g>
</g>
<g>
</g>
<g>
</g>
<g>
</g>
<g>
</g>
<g>
</g>
<g>
</g>
<g>
</g>
<g>
</g>
<g>
</g>
<g>
</g>
<g>
</g>
<g>
</g>
</svg>
