<?xml version="1.0" encoding="iso-8859-1"?>
<!-- Generator: Adobe Illustrator 19.0.0, SVG Export Plug-In . SVG Version: 6.00 Build 0)  -->
<svg version="1.1" id="Capa_1" xmlns="http://www.w3.org/2000/svg" xmlns:xlink="http://www.w3.org/1999/xlink" x="0px" y="0px"
	 viewBox="0 0 512.001 512.001" style="enable-background:new 0 0 512.001 512.001;" xml:space="preserve">
<path style="fill:#7FDECF;" d="M19.78,333.518v-55.27c0-13.347,2.88-26.536,8.442-38.664l0,0
	c5.563-12.128,8.442-25.317,8.442-38.664c0-12.752,0-25.504,0-38.256c0-6.142-1.205-13.676,0-19.714
	c0.812-4.069,1.695-3.985,5.667-3.732c15.239,0.966,30.646,4.124,45.778,6.159c17.685,2.38,34.561,4.75,49.743,15.303l22.368,22.918
	c2.468-13.118,4.934-26.236,7.402-39.354c1.093-5.812,2.275-11.458,8.639-13.796c6.623-2.434,11.768,1.142,15.499,6.237
	c14.919,20.38,29.049,41.384,43.561,62.058c34.983,47.995,87.193,76.25,145.285,84.943c33.048,4.946,66.485,8.758,99.336,14.866
	c28.15,5.234,24.55,33.379,24.55,55.114l-244.712,19.947L19.78,333.518z"/>
<path style="fill:#24BFB2;" d="M85.338,333.518v-55.27c0-13.347,2.88-26.536,8.442-38.664l0,0
	c5.563-12.128,8.442-25.317,8.442-38.664v-53.644c-10.231-1.377-20.461-2.753-30.692-4.13c-7.184-0.967-14.367-1.933-21.551-2.9
	c-2.484-0.334-8.258-2.256-10.771-1.449c-5.798,1.861-2.547,24.682-2.547,29.669c0,10.818,0,21.636,0,32.454
	c0,13.346-2.88,26.536-8.442,38.664l0,0c-5.563,12.128-8.442,25.317-8.442,38.664v55.27l240.003,40.095l44.061-3.591L85.338,333.518
	z"/>
<path style="fill:#23AF9E;" d="M126.18,311.089c-0.984-0.492-65.428-45.805-98.907-69.359c-4.939,11.53-7.493,23.953-7.493,36.517
	v55.27l20.438,3.414C75.638,326.618,127.053,311.526,126.18,311.089z"/>
<path style="fill:#F2EDEC;" d="M437.76,399.333c-52.422,0-104.846,0-157.269,0c-68.127,0-136.255,0-204.382,0
	c-9.143,0-18.211,0.422-27.069-2.446c-14.588-4.722-26.511-16.177-31.851-30.545c-3.795-10.209-3.165-20.889-3.165-31.572
	c10.343-6.071,20.686-12.143,31.029-18.214c10.805-6.342,21.555-13.967,33.055-19.035c17.616-7.763,33.922-2.509,49.674,6.034
	c14.063,7.626,28.126,15.252,42.189,22.879c10.196,5.53,20.275,11.482,30.738,16.504c25.338,12.161,53.735,14.452,80.93,7.942
	c15.632-3.742,31.304-8.465,47.277-10.487c24.511-3.101,47.35,1.335,71.04,6.733c30.213,6.885,60.491,2.027,87.41-13.135
	c7.079-3.988,16.646-8.321,17.129,3.892c0.283,7.162,0,14.389,0,21.559C491.295,383.723,465.46,399.333,437.76,399.333z"/>
<path style="fill:#E4DAD8;" d="M87.905,348.661V334.77l46.791-27.465l-14.884-8.071c-14.6-7.917-32.27-7.618-46.595,0.791
	L14.022,334.77v13.891c0,27.986,22.648,50.672,50.586,50.672h73.882C110.554,399.333,87.905,376.646,87.905,348.661z"/>
<path style="fill:#23AF9E;" d="M222.192,194.133c-21.238,6.732-42.475,13.465-63.713,20.198
	c-13.412,4.252-26.823,8.503-40.236,12.755c-8.534,2.706-19.934,8.634-24.95-2.685c-2.491-5.62-3.818-12.086-5.669-17.943
	c-2.293-7.26-6.807-18.159,3.778-21.515c20.603-6.652,41.206-13.304,61.809-19.957c12.704-4.102,25.407-8.203,38.111-12.306
	c9.476-3.06,19.531-7.844,26.898,2.343C225.135,164.583,241.738,187.936,222.192,194.133z"/>
<g>
	<path style="fill:#24BFB2;" d="M290.721,245.673c-18.363,16.473-36.726,32.947-55.089,49.419
		c-6.958,6.243-13.643,14.593-22.37,5.433c-5.608-5.886-28.323-24.783-18.64-33.469c17.619-16.012,35.239-32.025,52.859-48.038
		c2.191-1.992,4.41-4.667,6.915-6.285c5.906-3.814,9.752,0.618,14.066,4.253C273.372,221.124,299.8,237.529,290.721,245.673z"/>
	<path style="fill:#24BFB2;" d="M373.33,276.893c-2.542,11.19-4.029,23.314-7.757,34.151c-2.044,5.942-5.778,5.998-11.08,4.873
		c-7.036-1.492-14.034-3.199-21.047-4.797c-4.147-0.946-12.779-1.326-14.791-5.912c-1.82-4.15,1.492-11.837,2.405-15.854
		c1.975-8.696,2.1-29.201,14.315-27.317c7.645,1.179,15.277,3.482,22.819,5.201C363.166,268.371,375.123,269,373.33,276.893z"/>
</g>
<path d="M481.354,291.174l-100.393-15.024c0.285-6.418-4.042-12.342-10.523-13.819l-35.198-8.023
	c-3.532-0.804-7.169-0.186-10.236,1.744c-1.436,0.904-2.657,2.05-3.641,3.369c-7.777-3.527-15.34-7.55-22.611-12.031
	c3.124-5.837,1.719-13.253-3.351-17.523l-27.381-23.067c-4.967-4.187-12.143-4.382-17.328-0.689
	c-3.229-3.803-6.338-7.724-9.265-11.736l-3.747-5.338c0.067-0.166,0.139-0.329,0.203-0.497c2.3-6.133,1.67-12.86-1.73-18.457
	l-11.514-18.955c-4.392-7.23-12.473-11.013-20.6-10.018l-4.169-5.939c-3.092-9.879-14.735-19.253-23.318-24.21
	c-4.479-2.586-9.302-4.6-14.338-5.985c-3.995-1.102-8.127,1.248-9.227,5.244c-1.1,3.997,1.248,8.127,5.244,9.227
	c3.804,1.047,7.443,2.566,10.815,4.512c0.498,0.288,0.981,0.608,1.469,0.916c-4.87,2.808-8.309,7.582-9.406,13.414l-3.257,17.314
	l-11,3.551l-3.627-3.716c-0.332-0.34-0.696-0.648-1.087-0.921c-11.022-7.661-23.876-12.655-37.173-14.445l-65.342-8.792
	c-4.81-4.285-11.064-6.551-17.38-6.015c-8.104,0.688-15.175,5.933-19.397,14.385c-6.259,12.524-1.599,25.929,8.202,34.805
	c7.821,7.083,11.169,15.74,11.501,26.259c0.115,3.659,2.834,6.615,6.322,7.168c-0.768,9.247-3.057,18.409-6.731,26.907
	c-0.677,0.918-1.118,1.939-1.325,2.995c-3.403,7.705-5.832,15.828-7.201,24.138c-0.97,5.889-4.031,17.859,1.62,22.218
	c5.411,4.175,11.015-0.231,12.052-5.894c1.649-8.999,1.37-17.778,4.301-26.698c22.618,18.003,24.152,19.134,26.72,21.025
	c7.48,5.51,15.373,10.726,23.609,15.635c-4.332,1.246-8.536,3.018-12.496,5.341l-42.134,24.732v-9.251c0-9.658-15.01-9.674-15.01,0
	v18.061l-2.051,1.204c-2.295,1.348-3.705,3.81-3.705,6.472v13.891c0,32.079,26.06,58.177,58.091,58.177h338.214
	c9.658,0,9.674-15.01,0-15.01H64.61c-23.755,0-43.081-19.365-43.081-43.167v-9.593l55.488-32.572
	c11.98-7.033,27.007-7.287,39.218-0.666l24.842,13.472c3.644,1.977,8.199,0.624,10.174-3.02c1.976-3.643,0.624-8.199-3.02-10.174
	l-24.842-13.472c-2.354-1.277-4.791-2.348-7.276-3.253c-17.687-8.296-34.142-18.016-48.906-28.892
	c-2.667-1.964-5.181-3.886-29.774-23.47c4.416-11.473,6.737-23.832,6.737-36.1v-53.882l58.792,7.91
	c9.57,1.288,18.859,4.598,27.109,9.623l-40.936,13.217c-9.241,2.93-14.382,12.841-11.458,22.092l8.461,26.781
	c2.879,9.115,12.935,14.374,22.079,11.475l116.242-36.85c0.941-0.298,1.846-0.664,2.722-1.081l1.998,2.847
	c0.026,0.037,0.052,0.073,0.078,0.108c3.233,4.436,6.672,8.77,10.248,12.965l-49.894,45.343c-6.527,5.856-7.083,15.938-1.237,22.477
	l20.947,23.43c2.835,3.172,6.735,5.047,10.981,5.281c4.174,0.231,8.38-1.25,11.493-4.042l56.086-50.314
	c9.25,5.909,18.965,11.12,28.999,15.567l-5.89,25.931c-1.656,7.287,2.924,14.565,10.21,16.225l35.199,8.023
	c3.501,0.798,7.201,0.166,10.236-1.744c3.067-1.93,5.198-4.94,6.001-8.473l5.217-22.97l101.28,15.157
	c8.437,1.263,15.14,7.618,17.192,15.628c-1.917,0.2-3.809,0.793-5.569,1.791l-9.05,5.133
	c-24.223,13.744-52.484,17.775-79.574,11.357l-16.483-3.905c-24.768-5.869-50.929-5.789-75.661,0.23l-31.665,7.708
	c-26.832,6.53-54.984,2.876-79.269-10.293l-19.926-10.806c-8.49-4.603-15.659,8.582-7.155,13.194l19.926,10.806
	c27.563,14.948,59.517,19.096,89.974,11.682l31.665-7.708c22.439-5.461,46.177-5.535,68.65-0.209l16.482,3.905
	c30.792,7.298,62.911,2.713,90.442-12.907l7.876-4.468v16.508v3.829c-8.016,13.977-20.919,24.797-36.065,30.278
	c-7.765,2.81-15.282,2.546-23.165,4.055c-6.758,1.294-10.887,9.562-3.787,13.985c5.293,3.298,16.375,0.262,22.031-1
	c7.437-1.66,14.642-4.355,21.347-7.978c14.246-7.701,26.075-19.58,33.752-33.837c0.588-1.094,0.897-2.316,0.897-3.558v-5.774
	v-17.843v-9.036C511.999,309.099,498.825,293.788,481.354,291.174z M21.123,163.331c-3.104-2.811-4.514-4.178-5.41-7.119
	c-0.497-1.631-1.438-5.856,0.559-9.852c1.077-2.154,3.447-5.817,7.241-6.139c1.977-0.17,3.973,0.515,5.649,1.838v30.038
	c-0.455-0.654-0.923-1.299-1.415-1.923C25.417,167.22,23.135,165.154,21.123,163.331z M366.011,275.23
	C366.011,275.231,366.011,275.231,366.011,275.23l-0.001,0.005C366.01,275.233,366.011,275.232,366.011,275.23z M175.857,141.063
	c0.525-2.794,2.727-3.56,3.648-3.759c0.918-0.198,3.232-0.411,4.857,1.905l4.482,6.386l-14.734,4.758L175.857,141.063z
	 M103.682,223.829c-0.884,0.279-1.606,0.013-1.959-0.17c-0.354-0.184-0.992-0.626-1.274-1.519l-8.461-26.781
	c-0.432-1.368,0.323-2.832,1.72-3.275l109.374-35.314c0.028-0.009,0.057-0.018,0.085-0.028l1.504-0.485
	c2.684-0.866,5.671,0.251,7.136,2.664l11.515,18.955c0.993,1.634,1.177,3.599,0.504,5.391c-0.669,1.785-2.092,3.138-3.904,3.712l0,0
	L103.682,223.829z M221.773,297.445c-0.183,0.164-0.402,0.249-0.644,0.227c-0.245-0.013-0.452-0.113-0.617-0.298l-20.947-23.43
	c-0.338-0.378-0.307-0.963,0.106-1.334l55.399-50.346c0.002-0.002,0.005-0.004,0.007-0.006c0.002-0.002,0.003-0.004,0.005-0.005
	l3.84-3.49l26.074,21.965L221.773,297.445z M358.32,309.093l-32.373-7.379l7.371-32.449l32.373,7.379L358.32,309.093z"/>
<g>
</g>
<g>
</g>
<g>
</g>
<g>
</g>
<g>
</g>
<g>
</g>
<g>
</g>
<g>
</g>
<g>
</g>
<g>
</g>
<g>
</g>
<g>
</g>
<g>
</g>
<g>
</g>
<g>
</g>
</svg>
