<?xml version="1.0" encoding="iso-8859-1"?>
<!-- Generator: Adobe Illustrator 19.0.0, SVG Export Plug-In . SVG Version: 6.00 Build 0)  -->
<svg version="1.1" id="Capa_1" xmlns="http://www.w3.org/2000/svg" xmlns:xlink="http://www.w3.org/1999/xlink" x="0px" y="0px"
	 viewBox="0 0 511.998 511.998" style="enable-background:new 0 0 511.998 511.998;" xml:space="preserve">
<path style="fill:#604F44;" d="M20.309,387.883c0-25.664,0-51.327,0-76.99c0-10.8-0.15-21.611,0-32.41
	c0.151-10.909,2.402-21.054,6.802-31.032c4.504-10.213,8.84-20.007,9.8-31.339c0.713-8.418,0.264-17.016,0.264-25.453
	c0-9.083-0.761-19.397,9.393-23.683c22.737-8.853,45.475-17.708,68.213-26.561c32.022-12.47,62.813-25.098,98.018-25.098
	l18.494,82.21c6.522,28.751,27.192,48.262,53.645,59.115c20.287,8.323,40.574,16.647,60.862,24.971
	c16.782,6.886,33.506,13.941,50.355,20.66c15.026,5.992,30.297,8.594,46.449,8.628c11.962,0.025,24.565-1.287,35.81,3.639
	c30.298,13.273,26.084,46.171,26.084,73.343L20.309,387.883L20.309,387.883z"/>
<path style="fill:#493C35;" d="M82.087,248.131l3.887-8.463c4.277-9.311,6.49-19.437,6.49-29.684v-28.842
	c0-6.182,3.701-11.763,9.393-14.166l101.39-39.481c3.756-1.462,7.556-2.791,11.393-3.995l-1.841-8.184l0,0
	c-22.181,0-44.168,4.13-64.839,12.179L46.57,166.976c-5.693,2.403-9.393,7.984-9.393,14.166v28.842
	c0,10.246-2.214,20.373-6.49,29.684l-3.887,8.463c-4.277,9.311-6.49,19.437-6.49,29.684v110.068h55.288V277.815
	C75.597,267.567,77.811,257.442,82.087,248.131z"/>
<path style="fill:#907A6B;" d="M341.927,281.116l-0.497-1.297l-62.057-25.461c-24.322-9.979-42.262-31.184-48.081-56.832
	l-19.423-91.202c-2.167-16.042-21.198-23.354-33.542-12.887l-37.59,36.693c11.129-2.614,22.365-6.105,33.648-7.904
	c14.294-2.28,15.423,10.072,16.928,20.477c3.454,23.87,6.909,47.742,10.364,71.612c5.818,25.648,23.758,46.853,48.081,56.832
	l54.595,23.524c14.145,5.821,30.583,0.068,37.759-13.444L341.927,281.116z"/>
<g>
	<path style="fill:#28211D;" d="M504.497,354.45c0-24.051-19.49-43.549-43.53-43.549h-21.764c-14.539,0-28.938-2.839-42.39-8.358
		l-15.132-6.208l0,0c7.545,7.832,1.775,20.874-9.093,20.552l-83.148-2.461c-34.579-1.023-68.185,11.527-93.635,34.967l-3.546,3.266
		l18.784,35.226h293.454L504.497,354.45L504.497,354.45z"/>
	<path style="fill:#28211D;" d="M61.275,343.443l-8.812-14.326c-6.682-10.863-6.552-24.595,0.334-35.33l13.638-21.259
		c9.749-15.197,5.569-35.403-9.41-45.479l-19.947-13.418c-0.462,8.995-2.623,17.833-6.392,26.037l-3.887,8.463
		c-4.277,9.311-6.49,19.437-6.49,29.684v65.628L61.275,343.443L61.275,343.443z"/>
</g>
<path style="fill:#907A6B;" d="M484.4,355.294c-17.484,0-17.832,22.714-35.323,22.714H260.676l-93.284-34.565H17.136v35.719
	c0,24.364,19.658,44.129,43.971,44.302c0-0.01-0.001-0.019-0.001-0.029v-15.801c0-9.749,15.146-9.765,15.146,0v15.801
	c0,0.012-0.002,0.024-0.002,0.037h38.162c0-0.012-0.002-0.024-0.002-0.037v-15.801c0-9.749,15.146-9.765,15.146,0v15.801
	c0,0.012-0.002,0.024-0.002,0.037h35.805l13.336-24.46l81.685,24.46h14.933c0-0.012-0.002-0.024-0.002-0.037v-15.801
	c0-9.749,15.146-9.765,15.146,0v15.801c0,0.012-0.002,0.024-0.002,0.037h38.162c0-0.012-0.002-0.024-0.002-0.037v-15.801
	c0-9.749,15.146-9.765,15.146,0v15.801c0,0.012-0.002,0.024-0.002,0.037h42.111c0-0.012-0.002-0.024-0.002-0.037v-15.801
	c0-9.749,15.146-9.765,15.146,0v15.801c0,0.012-0.002,0.024-0.002,0.037h45.072c0-0.012-0.002-0.024-0.002-0.037v-15.801
	c0-9.749,15.146-9.765,15.146,0v15.801c0,0.012-0.002,0.024-0.002,0.037h0.811c23.203,0,42.042-18.765,42.143-41.978l0.03-26.2
	H484.4V355.294z"/>
<g>
	<path style="fill:#826F62;" d="M114.41,423.046c-21.616-2.935-38.28-21.454-38.28-43.884v-35.719H17.136v35.719
		c0,24.364,19.658,44.129,43.971,44.302c0-0.01-0.001-0.019-0.001-0.029v-15.801c0-9.749,15.146-9.765,15.146,0v15.801
		c0,0.012-0.002,0.024-0.002,0.037h38.162c0-0.012-0.002-0.024-0.002-0.037C114.41,423.435,114.41,423.046,114.41,423.046z"/>
	<path style="fill:#826F62;" d="M173.405,408.717l4.315-7.914c-2.549,1.219-4.315,3.816-4.315,6.831V408.717z"/>
	<path style="fill:#826F62;" d="M402.759,407.634c0-4.468-4.024-8.03-8.443-7.523c3.772,0.432,6.703,3.634,6.703,7.523v15.801
		c0,0.012-0.002,0.024-0.002,0.037h1.741c0-0.012,0.002-0.024,0.002-0.037v-15.801H402.759z"/>
	<path style="fill:#826F62;" d="M453.05,400.089c-4.334-0.347-8.183,3.178-8.183,7.546v15.801c0,0.012,0.002,0.024,0.002,0.037h1.22
		c0-0.012-0.002-0.024-0.002-0.037v-15.801C446.087,403.657,449.153,400.4,453.05,400.089z"/>
</g>
<path d="M511.998,354.45c0-28.149-22.893-51.05-51.031-51.05h-21.764c-13.628,0-26.933-2.623-39.543-7.796l-15.01-6.159
	c-0.016-0.007-0.032-0.013-0.048-0.02l-102.38-42.006c-22.037-9.041-38.34-28.313-43.61-51.538l-18.381-81.706
	c0.084-0.642,0.093-1.304,0.003-1.976l-0.929-6.877c-1.39-10.293-8.008-18.663-17.704-22.385c-9.69-3.72-20.204-1.934-28.123,4.781
	c-0.133,0.113-0.263,0.231-0.388,0.354l-36.798,35.921l-43.204,16.822c-3.861,1.503-5.772,5.851-4.269,9.711
	c1.502,3.861,5.851,5.772,9.711,4.269l52.152-20.307c7.766-3.024,15.688-5.462,23.729-7.315l6.116,27.22l-9.084,2.461
	c-3.999,1.083-6.362,5.203-5.278,9.201c1.06,3.913,5.28,6.343,9.201,5.278l8.452-2.29l5.598,24.915l-10.235,2.773
	c-3.999,1.083-6.362,5.203-5.278,9.201c1.06,3.913,5.28,6.343,9.201,5.278l9.604-2.602l1.655,7.366
	c1.759,7.756,4.543,15.143,8.207,22.005l-9.21,4.915c-3.655,1.95-5.037,6.494-3.086,10.149c1.909,3.578,6.572,4.995,10.149,3.086
	l10.35-5.523c6.147,7.903,13.62,14.754,22.136,20.201l-6.895,7.101c-2.885,2.972-2.815,7.721,0.156,10.607
	c2.907,2.823,7.775,2.76,10.606-0.156l10.021-10.32c0.018,0.007,0.035,0.015,0.052,0.022l28.081,12.1l-4.359,6.825
	c-2.229,3.491-1.207,8.129,2.284,10.358c0.041,0.026,0.084,0.043,0.125,0.068c-30.6,2.698-59.336,15.348-82.26,36.462l-0.166,0.153
	l-20.56-7.618c-3.886-1.438-8.201,0.543-9.64,4.428c-1.439,3.885,0.543,8.201,4.428,9.64l93.284,34.565
	c0.834,0.309,1.716,0.467,2.606,0.467h188.401c10.509,0,20.122-6.18,24.485-15.744c1.932-4.235,6.186-6.97,10.837-6.97h12.306
	l-0.021,18.667c-0.083,19.029-15.622,34.51-34.642,34.51h-0.882v-8.336c0-9.653-15.002-9.669-15.002,0v8.336h-45.213v-8.336
	c0-9.653-15.002-9.669-15.002,0v8.336h-42.252v-8.336c0-9.653-15.002-9.669-15.002,0v8.336h-38.303v-8.336
	c0-9.653-15.002-9.669-15.002,0v8.336h-13.905l-80.632-24.145c-3.394-1.019-7.041,0.482-8.737,3.595l-11.205,20.55h-31.421v-8.336
	c0-9.653-15.002-9.669-15.002,0v8.336H76.179v-8.336c0-9.653-15.002-9.669-15.002,0v8.33c-20.172-0.135-36.541-16.589-36.541-36.803
	v-28.217h36.638h71.125c9.653,0,9.669-15.002,0-15.002H65.467l-6.616-10.754c-5.14-8.356-5.039-19.092,0.259-27.349l13.639-21.26
	c11.858-18.486,6.683-43.497-11.538-55.754l-16.534-11.123v-22.932c0-0.002,0-0.004,0-0.006v-5.623c0-3.144,1.853-5.968,4.729-7.22
	l22.229-8.655c3.861-1.503,5.772-5.851,4.269-9.711c-1.502-3.86-5.85-5.772-9.711-4.269l-22.343,8.7
	c-0.066,0.025-0.131,0.052-0.196,0.08c-5.693,2.403-10.024,6.92-12.268,12.411c-3.085-1.192-6.401-1.711-9.735-1.429
	c-7.901,0.67-14.792,5.771-18.906,13.993c-4.145,8.281-2.689,16.31-1.454,20.36c2.088,6.84,5.983,10.362,9.418,13.47
	c1.656,1.499,3.221,2.914,4.701,4.788c3.533,4.477,5.586,10.506,6.146,17.921l-1.571,3.42c-4.694,10.22-7.175,21.567-7.175,32.815
	v59.508c-1.918,1.359-3.173,3.59-3.173,6.12v35.718c0,28.569,23.233,51.811,51.792,51.811h103.934c2.745,0,5.272-1.5,6.586-3.911
	l10.424-19.121l75.859,22.715c0.698,0.209,1.423,0.315,2.151,0.315h201.661c23.474,0,43.236-16.459,48.347-38.458
	c1.004-1.276,1.608-2.881,1.608-4.632V354.45z M60.122,268.479l-13.638,21.259c-8.389,13.077-8.55,30.076-0.41,43.31l1.781,2.895
	H27.81v-58.128c0-9.101,2.007-18.284,5.806-26.553l1.195-2.602c0.955-1.082,1.599-2.437,1.804-3.93l0.887-1.931
	c2.398-5.224,4.204-10.643,5.403-16.206l9.932,6.681C64.342,241.012,67.61,256.805,60.122,268.479z M15.637,201.021
	c-0.469-1.536-1.356-5.515,0.521-9.267c1.012-2.021,3.235-5.459,6.759-5.758c2.467-0.206,4.979,1.033,6.757,3.221v20.767
	c0,2.418-0.152,4.841-0.431,7.251c-0.646-0.991-1.332-1.948-2.06-2.871c-2.258-2.861-4.562-4.945-6.413-6.619
	C17.82,205.076,16.479,203.779,15.637,201.021z M330.882,283.6c-6.222,5.612-15.466,7.487-23.618,4.158l-10.191-4.392l6.901-10.807
	L330.882,283.6z M183.36,99.009c3.652-2.99,8.442-3.766,12.863-2.067c4.498,1.727,7.568,5.61,8.213,10.388l0.091,0.673
	c-12.029,0.529-23.906,2.219-35.547,5.043L183.36,99.009z M189.176,124.449c5.836-0.811,11.722-1.322,17.646-1.527l5.162,22.946
	l-16.963,4.596L189.176,124.449z M198.312,165.115l16.966-4.598l5.605,24.915l-16.973,4.599L198.312,165.115z M208.998,212.671
	l-1.795-7.989l16.992-4.604c1.835,7.718,4.681,15.065,8.406,21.879l-16.796,8.962C212.765,225.227,210.457,219.102,208.998,212.671z
	 M224.24,243.423l16.688-8.904c4.053,5.105,8.67,9.752,13.764,13.858l-11.065,11.395
	C236.215,255.463,229.666,249.914,224.24,243.423z M257.982,266.522l9.358-9.637c2.957,1.636,6.021,3.114,9.186,4.413l13.342,5.474
	l-6.756,10.578L257.982,266.522z M283.217,305.061l5.674-8.885l12.496,5.385c0.038,0.017,0.076,0.032,0.114,0.048
	c4.724,1.944,9.611,2.871,14.417,2.87c11.55-0.001,22.603-5.368,29.695-14.835l31.415,12.89c0.985,1.713,0.468,3.382,0.15,4.101
	c-0.378,0.856-1.553,2.827-4.37,2.754l-83.148-2.461c-2.729-0.082-5.449-0.075-8.158-0.001
	C282.158,306.416,282.745,305.8,283.217,305.061z M459.915,363.537c-1.932,4.235-6.186,6.97-10.838,6.97H262.02l-55.427-20.537
	c23.283-19.024,52.326-28.944,82.625-28.047l83.148,2.461c9.425,0.28,17.87-6.421,19.802-15.639l1.798,0.738
	c14.426,5.918,29.646,8.919,45.236,8.919h21.764c17.592,0,32.272,12.685,35.403,29.391h-11.97
	C473.891,347.793,464.279,353.973,459.915,363.537z"/>
<g>
</g>
<g>
</g>
<g>
</g>
<g>
</g>
<g>
</g>
<g>
</g>
<g>
</g>
<g>
</g>
<g>
</g>
<g>
</g>
<g>
</g>
<g>
</g>
<g>
</g>
<g>
</g>
<g>
</g>
</svg>
