<?xml version="1.0" standalone="no"?>
<!DOCTYPE svg PUBLIC "-//W3C//DTD SVG 20010904//EN"
 "http://www.w3.org/TR/2001/REC-SVG-20010904/DTD/svg10.dtd">
<svg version="1.0" xmlns="http://www.w3.org/2000/svg"
 width="192.000000pt" height="120.000000pt" viewBox="0 0 192.000000 120.000000"
 preserveAspectRatio="xMidYMid meet">
<metadata>
Created by potrace 1.15, written by Peter Selinger 2001-2017
</metadata>
<g transform="translate(0.000000,120.000000) scale(0.100000,-0.100000)"
fill="#000000" stroke="none">
<path id="shoeOutline" d="M1245 1190 c-29 -12 -82 -70 -94 -103 -6 -16 -11 -41 -11 -57 0 -28
-1 -29 -30 -19 -26 9 -36 7 -80 -22 -27 -18 -52 -41 -56 -51 -8 -26 4 -73 26
-101 l20 -25 -30 -6 c-20 -4 -34 -14 -40 -31 -6 -16 -17 -25 -30 -25 -12 0
-32 -11 -46 -25 -14 -14 -31 -25 -38 -25 -7 0 -24 -8 -37 -18 -13 -10 -43 -24
-66 -31 -24 -6 -43 -16 -43 -21 0 -5 -20 -12 -45 -16 -29 -4 -52 -14 -63 -29
-14 -17 -41 -26 -132 -44 -63 -11 -150 -21 -193 -21 -120 0 -186 -38 -231
-135 -54 -112 -26 -188 91 -247 86 -44 198 -82 223 -75 11 3 20 1 22 -4 2 -5
55 -19 118 -32 110 -21 138 -22 690 -22 622 0 663 3 721 52 l31 26 -6 168
c-11 322 -20 385 -83 544 -30 77 -62 147 -70 156 -21 25 -67 30 -107 14 -61
-26 -98 -19 -168 28 -62 42 -63 44 -68 96 -5 45 -11 57 -40 82 -36 30 -91 38
-135 19z"/>
</g>
</svg>
